%TF.GenerationSoftware,KiCad,Pcbnew,5.99.0-unknown-57e35c9~88~ubuntu19.10.1*%
%TF.CreationDate,2021-08-07T12:38:00-04:00*%
%TF.ProjectId,FOD,464f442e-6b69-4636-9164-5f7063625858,rev?*%
%TF.SameCoordinates,Original*%
%TF.FileFunction,Paste,Bot*%
%TF.FilePolarity,Positive*%
%FSLAX46Y46*%
G04 Gerber Fmt 4.6, Leading zero omitted, Abs format (unit mm)*
G04 Created by KiCad (PCBNEW 5.99.0-unknown-57e35c9~88~ubuntu19.10.1) date 2021-08-07 12:38:00*
%MOMM*%
%LPD*%
G01*
G04 APERTURE LIST*
%ADD10R,1.300000X0.250000*%
%ADD11R,0.250000X1.300000*%
%ADD12R,1.750000X1.800000*%
%ADD13R,0.900000X1.300000*%
%ADD14R,1.000000X1.900000*%
%ADD15R,1.800000X1.900000*%
%ADD16R,1.650000X1.300000*%
%ADD17R,1.425000X1.550000*%
%ADD18R,0.450000X1.380000*%
G04 APERTURE END LIST*
%TO.C,J2*%
G36*
G01*
X172350000Y-51700100D02*
X172350000Y-49199900D01*
G75*
G02*
X172599900Y-48950000I249900J0D01*
G01*
X174200100Y-48950000D01*
G75*
G02*
X174450000Y-49199900I0J-249900D01*
G01*
X174450000Y-51700100D01*
G75*
G02*
X174200100Y-51950000I-249900J0D01*
G01*
X172599900Y-51950000D01*
G75*
G02*
X172350000Y-51700100I0J249900D01*
G01*
G37*
G36*
G01*
X153500000Y-51700100D02*
X153500000Y-49199900D01*
G75*
G02*
X153749900Y-48950000I249900J0D01*
G01*
X155350100Y-48950000D01*
G75*
G02*
X155600000Y-49199900I0J-249900D01*
G01*
X155600000Y-51700100D01*
G75*
G02*
X155350100Y-51950000I-249900J0D01*
G01*
X153749900Y-51950000D01*
G75*
G02*
X153500000Y-51700100I0J249900D01*
G01*
G37*
G36*
G01*
X170450000Y-53650000D02*
X170450000Y-52750000D01*
G75*
G02*
X170650000Y-52550000I200000J0D01*
G01*
X171050000Y-52550000D01*
G75*
G02*
X171250000Y-52750000I0J-200000D01*
G01*
X171250000Y-53650000D01*
G75*
G02*
X171050000Y-53850000I-200000J0D01*
G01*
X170650000Y-53850000D01*
G75*
G02*
X170450000Y-53650000I0J200000D01*
G01*
G37*
G36*
G01*
X169200000Y-53650000D02*
X169200000Y-52750000D01*
G75*
G02*
X169400000Y-52550000I200000J0D01*
G01*
X169800000Y-52550000D01*
G75*
G02*
X170000000Y-52750000I0J-200000D01*
G01*
X170000000Y-53650000D01*
G75*
G02*
X169800000Y-53850000I-200000J0D01*
G01*
X169400000Y-53850000D01*
G75*
G02*
X169200000Y-53650000I0J200000D01*
G01*
G37*
G36*
G01*
X167950000Y-53650000D02*
X167950000Y-52750000D01*
G75*
G02*
X168150000Y-52550000I200000J0D01*
G01*
X168550000Y-52550000D01*
G75*
G02*
X168750000Y-52750000I0J-200000D01*
G01*
X168750000Y-53650000D01*
G75*
G02*
X168550000Y-53850000I-200000J0D01*
G01*
X168150000Y-53850000D01*
G75*
G02*
X167950000Y-53650000I0J200000D01*
G01*
G37*
G36*
G01*
X166700000Y-53650000D02*
X166700000Y-52750000D01*
G75*
G02*
X166900000Y-52550000I200000J0D01*
G01*
X167300000Y-52550000D01*
G75*
G02*
X167500000Y-52750000I0J-200000D01*
G01*
X167500000Y-53650000D01*
G75*
G02*
X167300000Y-53850000I-200000J0D01*
G01*
X166900000Y-53850000D01*
G75*
G02*
X166700000Y-53650000I0J200000D01*
G01*
G37*
G36*
G01*
X165450000Y-53650000D02*
X165450000Y-52750000D01*
G75*
G02*
X165650000Y-52550000I200000J0D01*
G01*
X166050000Y-52550000D01*
G75*
G02*
X166250000Y-52750000I0J-200000D01*
G01*
X166250000Y-53650000D01*
G75*
G02*
X166050000Y-53850000I-200000J0D01*
G01*
X165650000Y-53850000D01*
G75*
G02*
X165450000Y-53650000I0J200000D01*
G01*
G37*
G36*
G01*
X164200000Y-53650000D02*
X164200000Y-52750000D01*
G75*
G02*
X164400000Y-52550000I200000J0D01*
G01*
X164800000Y-52550000D01*
G75*
G02*
X165000000Y-52750000I0J-200000D01*
G01*
X165000000Y-53650000D01*
G75*
G02*
X164800000Y-53850000I-200000J0D01*
G01*
X164400000Y-53850000D01*
G75*
G02*
X164200000Y-53650000I0J200000D01*
G01*
G37*
G36*
G01*
X162950000Y-53650000D02*
X162950000Y-52750000D01*
G75*
G02*
X163150000Y-52550000I200000J0D01*
G01*
X163550000Y-52550000D01*
G75*
G02*
X163750000Y-52750000I0J-200000D01*
G01*
X163750000Y-53650000D01*
G75*
G02*
X163550000Y-53850000I-200000J0D01*
G01*
X163150000Y-53850000D01*
G75*
G02*
X162950000Y-53650000I0J200000D01*
G01*
G37*
G36*
G01*
X161700000Y-53650000D02*
X161700000Y-52750000D01*
G75*
G02*
X161900000Y-52550000I200000J0D01*
G01*
X162300000Y-52550000D01*
G75*
G02*
X162500000Y-52750000I0J-200000D01*
G01*
X162500000Y-53650000D01*
G75*
G02*
X162300000Y-53850000I-200000J0D01*
G01*
X161900000Y-53850000D01*
G75*
G02*
X161700000Y-53650000I0J200000D01*
G01*
G37*
G36*
G01*
X160450000Y-53650000D02*
X160450000Y-52750000D01*
G75*
G02*
X160650000Y-52550000I200000J0D01*
G01*
X161050000Y-52550000D01*
G75*
G02*
X161250000Y-52750000I0J-200000D01*
G01*
X161250000Y-53650000D01*
G75*
G02*
X161050000Y-53850000I-200000J0D01*
G01*
X160650000Y-53850000D01*
G75*
G02*
X160450000Y-53650000I0J200000D01*
G01*
G37*
G36*
G01*
X159200000Y-53650000D02*
X159200000Y-52750000D01*
G75*
G02*
X159400000Y-52550000I200000J0D01*
G01*
X159800000Y-52550000D01*
G75*
G02*
X160000000Y-52750000I0J-200000D01*
G01*
X160000000Y-53650000D01*
G75*
G02*
X159800000Y-53850000I-200000J0D01*
G01*
X159400000Y-53850000D01*
G75*
G02*
X159200000Y-53650000I0J200000D01*
G01*
G37*
G36*
G01*
X157950000Y-53650000D02*
X157950000Y-52750000D01*
G75*
G02*
X158150000Y-52550000I200000J0D01*
G01*
X158550000Y-52550000D01*
G75*
G02*
X158750000Y-52750000I0J-200000D01*
G01*
X158750000Y-53650000D01*
G75*
G02*
X158550000Y-53850000I-200000J0D01*
G01*
X158150000Y-53850000D01*
G75*
G02*
X157950000Y-53650000I0J200000D01*
G01*
G37*
G36*
G01*
X156700000Y-53650000D02*
X156700000Y-52750000D01*
G75*
G02*
X156900000Y-52550000I200000J0D01*
G01*
X157300000Y-52550000D01*
G75*
G02*
X157500000Y-52750000I0J-200000D01*
G01*
X157500000Y-53650000D01*
G75*
G02*
X157300000Y-53850000I-200000J0D01*
G01*
X156900000Y-53850000D01*
G75*
G02*
X156700000Y-53650000I0J200000D01*
G01*
G37*
%TD*%
D10*
%TO.C,U1*%
X123725000Y-57000000D03*
X123725000Y-57500000D03*
X123725000Y-58000000D03*
X123725000Y-58500000D03*
X123725000Y-59000000D03*
X123725000Y-59500000D03*
X123725000Y-60000000D03*
X123725000Y-60500000D03*
X123725000Y-61000000D03*
X123725000Y-61500000D03*
X123725000Y-62000000D03*
X123725000Y-62500000D03*
D11*
X125325000Y-64100000D03*
X125825000Y-64100000D03*
X126325000Y-64100000D03*
X126825000Y-64100000D03*
X127325000Y-64100000D03*
X127825000Y-64100000D03*
X128325000Y-64100000D03*
X128825000Y-64100000D03*
X129325000Y-64100000D03*
X129825000Y-64100000D03*
X130325000Y-64100000D03*
X130825000Y-64100000D03*
D10*
X132425000Y-62500000D03*
X132425000Y-62000000D03*
X132425000Y-61500000D03*
X132425000Y-61000000D03*
X132425000Y-60500000D03*
X132425000Y-60000000D03*
X132425000Y-59500000D03*
X132425000Y-59000000D03*
X132425000Y-58500000D03*
X132425000Y-58000000D03*
X132425000Y-57500000D03*
X132425000Y-57000000D03*
D11*
X130825000Y-55400000D03*
X130325000Y-55400000D03*
X129825000Y-55400000D03*
X129325000Y-55400000D03*
X128825000Y-55400000D03*
X128325000Y-55400000D03*
X127825000Y-55400000D03*
X127325000Y-55400000D03*
X126825000Y-55400000D03*
X126325000Y-55400000D03*
X125825000Y-55400000D03*
X125325000Y-55400000D03*
%TD*%
%TO.C,R7*%
G36*
G01*
X171350000Y-66612500D02*
X171350000Y-66137500D01*
G75*
G02*
X171587500Y-65900000I237500J0D01*
G01*
X172162500Y-65900000D01*
G75*
G02*
X172400000Y-66137500I0J-237500D01*
G01*
X172400000Y-66612500D01*
G75*
G02*
X172162500Y-66850000I-237500J0D01*
G01*
X171587500Y-66850000D01*
G75*
G02*
X171350000Y-66612500I0J237500D01*
G01*
G37*
G36*
G01*
X169600000Y-66612500D02*
X169600000Y-66137500D01*
G75*
G02*
X169837500Y-65900000I237500J0D01*
G01*
X170412500Y-65900000D01*
G75*
G02*
X170650000Y-66137500I0J-237500D01*
G01*
X170650000Y-66612500D01*
G75*
G02*
X170412500Y-66850000I-237500J0D01*
G01*
X169837500Y-66850000D01*
G75*
G02*
X169600000Y-66612500I0J237500D01*
G01*
G37*
%TD*%
D12*
%TO.C,Y1*%
X127200000Y-53000000D03*
X123950000Y-53000000D03*
%TD*%
%TO.C,U2*%
G36*
X110646000Y-77062500D02*
G01*
X110646000Y-73937499D01*
X111062500Y-73937499D01*
X111062501Y-72462500D01*
X111962500Y-72462501D01*
X111962499Y-73937500D01*
X112378999Y-73937500D01*
X112378999Y-77062500D01*
X110646000Y-77062500D01*
G37*
D13*
X113012500Y-73112500D03*
X110012500Y-73112500D03*
%TD*%
%TO.C,R4*%
G36*
G01*
X121512500Y-63850000D02*
X121987500Y-63850000D01*
G75*
G02*
X122225000Y-64087500I0J-237500D01*
G01*
X122225000Y-64662500D01*
G75*
G02*
X121987500Y-64900000I-237500J0D01*
G01*
X121512500Y-64900000D01*
G75*
G02*
X121275000Y-64662500I0J237500D01*
G01*
X121275000Y-64087500D01*
G75*
G02*
X121512500Y-63850000I237500J0D01*
G01*
G37*
G36*
G01*
X121512500Y-62100000D02*
X121987500Y-62100000D01*
G75*
G02*
X122225000Y-62337500I0J-237500D01*
G01*
X122225000Y-62912500D01*
G75*
G02*
X121987500Y-63150000I-237500J0D01*
G01*
X121512500Y-63150000D01*
G75*
G02*
X121275000Y-62912500I0J237500D01*
G01*
X121275000Y-62337500D01*
G75*
G02*
X121512500Y-62100000I237500J0D01*
G01*
G37*
%TD*%
%TO.C,R3*%
G36*
G01*
X120912500Y-72175000D02*
X120437500Y-72175000D01*
G75*
G02*
X120200000Y-71937500I0J237500D01*
G01*
X120200000Y-71362500D01*
G75*
G02*
X120437500Y-71125000I237500J0D01*
G01*
X120912500Y-71125000D01*
G75*
G02*
X121150000Y-71362500I0J-237500D01*
G01*
X121150000Y-71937500D01*
G75*
G02*
X120912500Y-72175000I-237500J0D01*
G01*
G37*
G36*
G01*
X120912500Y-73925000D02*
X120437500Y-73925000D01*
G75*
G02*
X120200000Y-73687500I0J237500D01*
G01*
X120200000Y-73112500D01*
G75*
G02*
X120437500Y-72875000I237500J0D01*
G01*
X120912500Y-72875000D01*
G75*
G02*
X121150000Y-73112500I0J-237500D01*
G01*
X121150000Y-73687500D01*
G75*
G02*
X120912500Y-73925000I-237500J0D01*
G01*
G37*
%TD*%
%TO.C,R1*%
G36*
G01*
X105612500Y-62649999D02*
X106087500Y-62649999D01*
G75*
G02*
X106325000Y-62887499I0J-237500D01*
G01*
X106325000Y-63462499D01*
G75*
G02*
X106087500Y-63699999I-237500J0D01*
G01*
X105612500Y-63699999D01*
G75*
G02*
X105375000Y-63462499I0J237500D01*
G01*
X105375000Y-62887499D01*
G75*
G02*
X105612500Y-62649999I237500J0D01*
G01*
G37*
G36*
G01*
X105612500Y-60899999D02*
X106087500Y-60899999D01*
G75*
G02*
X106325000Y-61137499I0J-237500D01*
G01*
X106325000Y-61712499D01*
G75*
G02*
X106087500Y-61949999I-237500J0D01*
G01*
X105612500Y-61949999D01*
G75*
G02*
X105375000Y-61712499I0J237500D01*
G01*
X105375000Y-61137499D01*
G75*
G02*
X105612500Y-60899999I237500J0D01*
G01*
G37*
%TD*%
D14*
%TO.C,J1*%
X124700000Y-76000000D03*
D15*
X127400000Y-76000000D03*
D16*
X122875000Y-76000000D03*
X129625000Y-76000000D03*
D17*
X123762500Y-73425000D03*
X128737500Y-73425000D03*
D18*
X124950000Y-73340000D03*
X125600000Y-73340000D03*
X126250000Y-73340000D03*
X126900000Y-73340000D03*
X127550000Y-73340000D03*
%TD*%
%TO.C,Ct2*%
G36*
G01*
X171887500Y-68475000D02*
X171412500Y-68475000D01*
G75*
G02*
X171175000Y-68237500I0J237500D01*
G01*
X171175000Y-67662500D01*
G75*
G02*
X171412500Y-67425000I237500J0D01*
G01*
X171887500Y-67425000D01*
G75*
G02*
X172125000Y-67662500I0J-237500D01*
G01*
X172125000Y-68237500D01*
G75*
G02*
X171887500Y-68475000I-237500J0D01*
G01*
G37*
G36*
G01*
X171887500Y-70225000D02*
X171412500Y-70225000D01*
G75*
G02*
X171175000Y-69987500I0J237500D01*
G01*
X171175000Y-69412500D01*
G75*
G02*
X171412500Y-69175000I237500J0D01*
G01*
X171887500Y-69175000D01*
G75*
G02*
X172125000Y-69412500I0J-237500D01*
G01*
X172125000Y-69987500D01*
G75*
G02*
X171887500Y-70225000I-237500J0D01*
G01*
G37*
%TD*%
%TO.C,Ct1*%
G36*
G01*
X170337500Y-68475000D02*
X169862500Y-68475000D01*
G75*
G02*
X169625000Y-68237500I0J237500D01*
G01*
X169625000Y-67662500D01*
G75*
G02*
X169862500Y-67425000I237500J0D01*
G01*
X170337500Y-67425000D01*
G75*
G02*
X170575000Y-67662500I0J-237500D01*
G01*
X170575000Y-68237500D01*
G75*
G02*
X170337500Y-68475000I-237500J0D01*
G01*
G37*
G36*
G01*
X170337500Y-70225000D02*
X169862500Y-70225000D01*
G75*
G02*
X169625000Y-69987500I0J237500D01*
G01*
X169625000Y-69412500D01*
G75*
G02*
X169862500Y-69175000I237500J0D01*
G01*
X170337500Y-69175000D01*
G75*
G02*
X170575000Y-69412500I0J-237500D01*
G01*
X170575000Y-69987500D01*
G75*
G02*
X170337500Y-70225000I-237500J0D01*
G01*
G37*
%TD*%
%TO.C,Cr2*%
G36*
G01*
X115100000Y-71812500D02*
X114625000Y-71812500D01*
G75*
G02*
X114387500Y-71575000I0J237500D01*
G01*
X114387500Y-71000000D01*
G75*
G02*
X114625000Y-70762500I237500J0D01*
G01*
X115100000Y-70762500D01*
G75*
G02*
X115337500Y-71000000I0J-237500D01*
G01*
X115337500Y-71575000D01*
G75*
G02*
X115100000Y-71812500I-237500J0D01*
G01*
G37*
G36*
G01*
X115100000Y-73562500D02*
X114625000Y-73562500D01*
G75*
G02*
X114387500Y-73325000I0J237500D01*
G01*
X114387500Y-72750000D01*
G75*
G02*
X114625000Y-72512500I237500J0D01*
G01*
X115100000Y-72512500D01*
G75*
G02*
X115337500Y-72750000I0J-237500D01*
G01*
X115337500Y-73325000D01*
G75*
G02*
X115100000Y-73562500I-237500J0D01*
G01*
G37*
%TD*%
%TO.C,Cr1*%
G36*
G01*
X110412500Y-71075000D02*
X110412500Y-71550000D01*
G75*
G02*
X110175000Y-71787500I-237500J0D01*
G01*
X109600000Y-71787500D01*
G75*
G02*
X109362500Y-71550000I0J237500D01*
G01*
X109362500Y-71075000D01*
G75*
G02*
X109600000Y-70837500I237500J0D01*
G01*
X110175000Y-70837500D01*
G75*
G02*
X110412500Y-71075000I0J-237500D01*
G01*
G37*
G36*
G01*
X112162500Y-71075000D02*
X112162500Y-71550000D01*
G75*
G02*
X111925000Y-71787500I-237500J0D01*
G01*
X111350000Y-71787500D01*
G75*
G02*
X111112500Y-71550000I0J237500D01*
G01*
X111112500Y-71075000D01*
G75*
G02*
X111350000Y-70837500I237500J0D01*
G01*
X111925000Y-70837500D01*
G75*
G02*
X112162500Y-71075000I0J-237500D01*
G01*
G37*
%TD*%
%TO.C,Cc2*%
G36*
G01*
X127437500Y-49750000D02*
X126962500Y-49750000D01*
G75*
G02*
X126725000Y-49512500I0J237500D01*
G01*
X126725000Y-48937500D01*
G75*
G02*
X126962500Y-48700000I237500J0D01*
G01*
X127437500Y-48700000D01*
G75*
G02*
X127675000Y-48937500I0J-237500D01*
G01*
X127675000Y-49512500D01*
G75*
G02*
X127437500Y-49750000I-237500J0D01*
G01*
G37*
G36*
G01*
X127437500Y-51500000D02*
X126962500Y-51500000D01*
G75*
G02*
X126725000Y-51262500I0J237500D01*
G01*
X126725000Y-50687500D01*
G75*
G02*
X126962500Y-50450000I237500J0D01*
G01*
X127437500Y-50450000D01*
G75*
G02*
X127675000Y-50687500I0J-237500D01*
G01*
X127675000Y-51262500D01*
G75*
G02*
X127437500Y-51500000I-237500J0D01*
G01*
G37*
%TD*%
%TO.C,Cc1*%
G36*
G01*
X124187500Y-49750000D02*
X123712500Y-49750000D01*
G75*
G02*
X123475000Y-49512500I0J237500D01*
G01*
X123475000Y-48937500D01*
G75*
G02*
X123712500Y-48700000I237500J0D01*
G01*
X124187500Y-48700000D01*
G75*
G02*
X124425000Y-48937500I0J-237500D01*
G01*
X124425000Y-49512500D01*
G75*
G02*
X124187500Y-49750000I-237500J0D01*
G01*
G37*
G36*
G01*
X124187500Y-51500000D02*
X123712500Y-51500000D01*
G75*
G02*
X123475000Y-51262500I0J237500D01*
G01*
X123475000Y-50687500D01*
G75*
G02*
X123712500Y-50450000I237500J0D01*
G01*
X124187500Y-50450000D01*
G75*
G02*
X124425000Y-50687500I0J-237500D01*
G01*
X124425000Y-51262500D01*
G75*
G02*
X124187500Y-51500000I-237500J0D01*
G01*
G37*
%TD*%
%TO.C,C7*%
G36*
G01*
X113212500Y-60125000D02*
X113687500Y-60125000D01*
G75*
G02*
X113925000Y-60362500I0J-237500D01*
G01*
X113925000Y-60937500D01*
G75*
G02*
X113687500Y-61175000I-237500J0D01*
G01*
X113212500Y-61175000D01*
G75*
G02*
X112975000Y-60937500I0J237500D01*
G01*
X112975000Y-60362500D01*
G75*
G02*
X113212500Y-60125000I237500J0D01*
G01*
G37*
G36*
G01*
X113212500Y-58375000D02*
X113687500Y-58375000D01*
G75*
G02*
X113925000Y-58612500I0J-237500D01*
G01*
X113925000Y-59187500D01*
G75*
G02*
X113687500Y-59425000I-237500J0D01*
G01*
X113212500Y-59425000D01*
G75*
G02*
X112975000Y-59187500I0J237500D01*
G01*
X112975000Y-58612500D01*
G75*
G02*
X113212500Y-58375000I237500J0D01*
G01*
G37*
%TD*%
%TO.C,C6*%
G36*
G01*
X119312500Y-72175000D02*
X118837500Y-72175000D01*
G75*
G02*
X118600000Y-71937500I0J237500D01*
G01*
X118600000Y-71362500D01*
G75*
G02*
X118837500Y-71125000I237500J0D01*
G01*
X119312500Y-71125000D01*
G75*
G02*
X119550000Y-71362500I0J-237500D01*
G01*
X119550000Y-71937500D01*
G75*
G02*
X119312500Y-72175000I-237500J0D01*
G01*
G37*
G36*
G01*
X119312500Y-73925000D02*
X118837500Y-73925000D01*
G75*
G02*
X118600000Y-73687500I0J237500D01*
G01*
X118600000Y-73112500D01*
G75*
G02*
X118837500Y-72875000I237500J0D01*
G01*
X119312500Y-72875000D01*
G75*
G02*
X119550000Y-73112500I0J-237500D01*
G01*
X119550000Y-73687500D01*
G75*
G02*
X119312500Y-73925000I-237500J0D01*
G01*
G37*
%TD*%
%TO.C,C5*%
G36*
G01*
X123975000Y-66212500D02*
X123975000Y-65737500D01*
G75*
G02*
X124212500Y-65500000I237500J0D01*
G01*
X124787500Y-65500000D01*
G75*
G02*
X125025000Y-65737500I0J-237500D01*
G01*
X125025000Y-66212500D01*
G75*
G02*
X124787500Y-66450000I-237500J0D01*
G01*
X124212500Y-66450000D01*
G75*
G02*
X123975000Y-66212500I0J237500D01*
G01*
G37*
G36*
G01*
X122225000Y-66212500D02*
X122225000Y-65737500D01*
G75*
G02*
X122462500Y-65500000I237500J0D01*
G01*
X123037500Y-65500000D01*
G75*
G02*
X123275000Y-65737500I0J-237500D01*
G01*
X123275000Y-66212500D01*
G75*
G02*
X123037500Y-66450000I-237500J0D01*
G01*
X122462500Y-66450000D01*
G75*
G02*
X122225000Y-66212500I0J237500D01*
G01*
G37*
%TD*%
%TO.C,C4*%
G36*
G01*
X120500000Y-59062500D02*
X120500000Y-59537500D01*
G75*
G02*
X120262500Y-59775000I-237500J0D01*
G01*
X119687500Y-59775000D01*
G75*
G02*
X119450000Y-59537500I0J237500D01*
G01*
X119450000Y-59062500D01*
G75*
G02*
X119687500Y-58825000I237500J0D01*
G01*
X120262500Y-58825000D01*
G75*
G02*
X120500000Y-59062500I0J-237500D01*
G01*
G37*
G36*
G01*
X122250000Y-59062500D02*
X122250000Y-59537500D01*
G75*
G02*
X122012500Y-59775000I-237500J0D01*
G01*
X121437500Y-59775000D01*
G75*
G02*
X121200000Y-59537500I0J237500D01*
G01*
X121200000Y-59062500D01*
G75*
G02*
X121437500Y-58825000I237500J0D01*
G01*
X122012500Y-58825000D01*
G75*
G02*
X122250000Y-59062500I0J-237500D01*
G01*
G37*
%TD*%
M02*
