M48
; DRILL file {KiCad 5.99.0-unknown-57e35c9~88~ubuntu19.10.1} date Sat Aug  7 12:37:57 2021
; FORMAT={-:-/ absolute / metric / decimal}
; #@! TF.CreationDate,2021-08-07T12:37:57-04:00
; #@! TF.GenerationSoftware,Kicad,Pcbnew,5.99.0-unknown-57e35c9~88~ubuntu19.10.1
FMAT,2
METRIC
T1C0.400
T2C0.762
T3C1.000
T4C1.700
T5C2.200
T6C2.600
%
G90
G05
T1
X106.75Y-63.175
X106.825Y-61.05
X108.762Y-71.287
X108.862Y-73.112
X109.85Y-57.15
X109.85Y-62.325
X109.85Y-66.1
X113.562Y-71.263
X114.45Y-56.2
X114.475Y-63.575
X115.675Y-55.125
X115.675Y-63.975
X116.325Y-65.05
X117.9Y-71.625
X119.125Y-55.125
X119.875Y-56.2
X120.325Y-67.3
X120.675Y-70.6
X120.725Y-58.45
X121.575Y-50.275
X122.075Y-61.325
X122.675Y-67.25
X122.7Y-70.825
X123.75Y-67.95
X124.647Y-70.799
X124.675Y-71.95
X125.075Y-59.125
X125.475Y-70.075
X125.575Y-49.75
X125.575Y-50.775
X125.825Y-62.75
X127.675Y-70.075
X128.05Y-56.85
X128.167Y-71.742
X128.425Y-62.2
X129.0Y-53.975
X129.375Y-66.95
X130.242Y-58.814
X130.325Y-52.525
X130.675Y-59.825
X131.725Y-72.975
X132.375Y-53.975
X132.4Y-52.7
X133.475Y-71.3
X133.85Y-59.0
X133.908Y-57.0
X134.35Y-55.4
X134.5Y-58.0
X134.525Y-61.0
X134.55Y-59.9
X134.55Y-62.125
X136.025Y-53.475
X137.425Y-59.275
X138.6Y-49.55
X139.375Y-50.5
X140.0Y-53.075
X140.0Y-75.725
X142.55Y-54.3
X143.7Y-49.375
X147.4Y-75.725
X150.025Y-59.525
X150.225Y-61.575
X150.275Y-64.15
X154.0Y-71.875
X154.375Y-61.575
X154.5Y-59.0
X154.525Y-64.15
X154.55Y-55.025
X155.4Y-72.975
X159.6Y-50.5
X160.15Y-69.7
X160.85Y-50.425
X160.85Y-57.7
X160.9Y-66.375
X162.075Y-51.575
X163.35Y-64.5
X164.6Y-51.65
X164.6Y-58.5
X165.85Y-60.3
X165.85Y-62.65
X167.1Y-61.575
X168.35Y-57.525
X168.35Y-64.575
X168.825Y-69.7
X168.875Y-66.375
X168.9Y-51.575
X171.65Y-71.325
X172.475Y-54.85
X172.575Y-59.425
X172.575Y-64.75
X175.225Y-57.6
T2
X174.26Y-60.905
X174.26Y-63.445
X174.26Y-65.985
X174.26Y-68.525
X176.8Y-60.905
X176.8Y-63.445
X176.8Y-65.985
X176.8Y-68.525
T3
X111.8Y-57.5
X111.8Y-62.0
X118.3Y-57.5
X118.3Y-62.0
X111.96Y-66.925
X114.5Y-66.925
X137.465Y-56.8
X140.005Y-56.8
X142.545Y-56.8
T4
X146.955Y-57.105
X146.955Y-68.745
X180.655Y-57.105
X180.655Y-68.745
T5
X140.005Y-62.6
X140.005Y-70.05
T6
X104.455Y-51.925
X104.455Y-73.925
X137.155Y-66.325
X142.855Y-66.325
X180.355Y-51.925
X180.355Y-73.925
T0
M30
