%TF.GenerationSoftware,KiCad,Pcbnew,5.99.0-unknown-57e35c9~88~ubuntu19.10.1*%
%TF.CreationDate,2021-08-07T12:38:01-04:00*%
%TF.ProjectId,FOD,464f442e-6b69-4636-9164-5f7063625858,rev?*%
%TF.SameCoordinates,Original*%
%TF.FileFunction,Soldermask,Bot*%
%TF.FilePolarity,Negative*%
%FSLAX46Y46*%
G04 Gerber Fmt 4.6, Leading zero omitted, Abs format (unit mm)*
G04 Created by KiCad (PCBNEW 5.99.0-unknown-57e35c9~88~ubuntu19.10.1) date 2021-08-07 12:38:01*
%MOMM*%
%LPD*%
G01*
G04 APERTURE LIST*
%ADD10C,4.100000*%
%ADD11C,3.600000*%
%ADD12C,3.100000*%
%ADD13C,5.100000*%
%ADD14C,1.800000*%
%ADD15C,1.624000*%
%ADD16O,1.800000X1.800000*%
G04 APERTURE END LIST*
D10*
%TO.C,U6*%
X180654999Y-57104999D03*
X180654999Y-68744999D03*
X146954999Y-57104999D03*
D11*
X146954999Y-68744999D03*
D12*
X140004999Y-62600000D03*
X140004999Y-70049998D03*
D13*
X137154999Y-66324999D03*
X142854999Y-66324999D03*
X180354999Y-51924999D03*
X180354999Y-73924999D03*
X104454999Y-73924999D03*
X104454999Y-51924999D03*
%TD*%
%TO.C,JP3*%
G36*
X151914523Y-64954583D02*
G01*
X151772874Y-64933413D01*
X151759293Y-64929351D01*
X151629278Y-64869276D01*
X151617381Y-64861565D01*
X151509454Y-64767414D01*
X151500200Y-64756674D01*
X151423036Y-64636014D01*
X151417169Y-64623109D01*
X151376971Y-64485643D01*
X151374965Y-64470999D01*
X151375804Y-64402298D01*
X151375000Y-64399999D01*
X151375000Y-63971744D01*
X151375067Y-63971744D01*
X151374965Y-63971000D01*
X151375000Y-63968135D01*
X151375000Y-63900000D01*
X151375854Y-63898226D01*
X151376864Y-63815582D01*
X151379227Y-63800992D01*
X151422772Y-63664549D01*
X151428953Y-63651790D01*
X151509042Y-63533053D01*
X151518556Y-63522543D01*
X151628752Y-63431057D01*
X151640832Y-63423639D01*
X151772275Y-63366758D01*
X151785953Y-63363029D01*
X151928077Y-63345327D01*
X151942251Y-63345587D01*
X151969498Y-63350000D01*
X152425000Y-63350001D01*
X152464092Y-63368827D01*
X152475000Y-63400001D01*
X152475000Y-63828438D01*
X152475873Y-63835115D01*
X152475000Y-63906558D01*
X152475000Y-64328437D01*
X152475873Y-64335114D01*
X152475000Y-64406557D01*
X152474999Y-64900000D01*
X152456173Y-64939092D01*
X152424999Y-64950000D01*
X151962783Y-64950000D01*
X151928699Y-64954669D01*
X151914523Y-64954583D01*
G37*
G36*
X153214523Y-64954583D02*
G01*
X153183858Y-64950000D01*
X152725000Y-64949999D01*
X152685908Y-64931173D01*
X152675000Y-64899999D01*
X152675000Y-64471743D01*
X152675067Y-64471743D01*
X152674965Y-64470999D01*
X152675000Y-64468134D01*
X152675000Y-63971744D01*
X152675067Y-63971744D01*
X152674965Y-63971000D01*
X152675000Y-63968135D01*
X152675001Y-63400000D01*
X152693827Y-63360908D01*
X152725001Y-63350000D01*
X153190560Y-63350000D01*
X153228077Y-63345327D01*
X153242251Y-63345587D01*
X153383631Y-63368485D01*
X153397163Y-63372713D01*
X153526434Y-63434372D01*
X153538235Y-63442227D01*
X153645004Y-63537690D01*
X153654126Y-63548542D01*
X153729810Y-63670135D01*
X153735519Y-63683111D01*
X153774035Y-63821058D01*
X153775873Y-63835115D01*
X153775000Y-63906558D01*
X153775000Y-64328437D01*
X153775873Y-64335114D01*
X153774123Y-64478326D01*
X153771942Y-64492333D01*
X153730067Y-64629298D01*
X153724042Y-64642131D01*
X153645409Y-64761837D01*
X153636025Y-64772463D01*
X153526956Y-64865289D01*
X153514966Y-64872854D01*
X153384227Y-64931336D01*
X153370597Y-64935231D01*
X153228699Y-64954669D01*
X153214523Y-64954583D01*
G37*
%TD*%
%TO.C,JP2*%
G36*
X151914523Y-62379583D02*
G01*
X151772874Y-62358413D01*
X151759293Y-62354351D01*
X151629278Y-62294276D01*
X151617381Y-62286565D01*
X151509454Y-62192414D01*
X151500200Y-62181674D01*
X151423036Y-62061014D01*
X151417169Y-62048109D01*
X151376971Y-61910643D01*
X151374965Y-61895999D01*
X151375804Y-61827298D01*
X151375000Y-61824999D01*
X151375000Y-61396744D01*
X151375067Y-61396744D01*
X151374965Y-61396000D01*
X151375000Y-61393135D01*
X151375000Y-61325000D01*
X151375854Y-61323226D01*
X151376864Y-61240582D01*
X151379227Y-61225992D01*
X151422772Y-61089549D01*
X151428953Y-61076790D01*
X151509042Y-60958053D01*
X151518556Y-60947543D01*
X151628752Y-60856057D01*
X151640832Y-60848639D01*
X151772275Y-60791758D01*
X151785953Y-60788029D01*
X151928077Y-60770327D01*
X151942251Y-60770587D01*
X151969498Y-60775000D01*
X152425000Y-60775001D01*
X152464092Y-60793827D01*
X152475000Y-60825001D01*
X152475000Y-61253438D01*
X152475873Y-61260115D01*
X152475000Y-61331558D01*
X152475000Y-61753437D01*
X152475873Y-61760114D01*
X152475000Y-61831557D01*
X152474999Y-62325000D01*
X152456173Y-62364092D01*
X152424999Y-62375000D01*
X151962783Y-62375000D01*
X151928699Y-62379669D01*
X151914523Y-62379583D01*
G37*
G36*
X153214523Y-62379583D02*
G01*
X153183858Y-62375000D01*
X152725000Y-62374999D01*
X152685908Y-62356173D01*
X152675000Y-62324999D01*
X152675000Y-61896743D01*
X152675067Y-61896743D01*
X152674965Y-61895999D01*
X152675000Y-61893134D01*
X152675000Y-61396744D01*
X152675067Y-61396744D01*
X152674965Y-61396000D01*
X152675000Y-61393135D01*
X152675001Y-60825000D01*
X152693827Y-60785908D01*
X152725001Y-60775000D01*
X153190560Y-60775000D01*
X153228077Y-60770327D01*
X153242251Y-60770587D01*
X153383631Y-60793485D01*
X153397163Y-60797713D01*
X153526434Y-60859372D01*
X153538235Y-60867227D01*
X153645004Y-60962690D01*
X153654126Y-60973542D01*
X153729810Y-61095135D01*
X153735519Y-61108111D01*
X153774035Y-61246058D01*
X153775873Y-61260115D01*
X153775000Y-61331558D01*
X153775000Y-61753437D01*
X153775873Y-61760114D01*
X153774123Y-61903326D01*
X153771942Y-61917333D01*
X153730067Y-62054298D01*
X153724042Y-62067131D01*
X153645409Y-62186837D01*
X153636025Y-62197463D01*
X153526956Y-62290289D01*
X153514966Y-62297854D01*
X153384227Y-62356336D01*
X153370597Y-62360231D01*
X153228699Y-62379669D01*
X153214523Y-62379583D01*
G37*
%TD*%
%TO.C,JP1*%
G36*
X151914523Y-59804583D02*
G01*
X151772874Y-59783413D01*
X151759293Y-59779351D01*
X151629278Y-59719276D01*
X151617381Y-59711565D01*
X151509454Y-59617414D01*
X151500200Y-59606674D01*
X151423036Y-59486014D01*
X151417169Y-59473109D01*
X151376971Y-59335643D01*
X151374965Y-59320999D01*
X151375804Y-59252298D01*
X151375000Y-59249999D01*
X151375000Y-58821744D01*
X151375067Y-58821744D01*
X151374965Y-58821000D01*
X151375000Y-58818135D01*
X151375000Y-58750000D01*
X151375854Y-58748226D01*
X151376864Y-58665582D01*
X151379227Y-58650992D01*
X151422772Y-58514549D01*
X151428953Y-58501790D01*
X151509042Y-58383053D01*
X151518556Y-58372543D01*
X151628752Y-58281057D01*
X151640832Y-58273639D01*
X151772275Y-58216758D01*
X151785953Y-58213029D01*
X151928077Y-58195327D01*
X151942251Y-58195587D01*
X151969498Y-58200000D01*
X152425000Y-58200001D01*
X152464092Y-58218827D01*
X152475000Y-58250001D01*
X152475000Y-58678438D01*
X152475873Y-58685115D01*
X152475000Y-58756558D01*
X152475000Y-59178437D01*
X152475873Y-59185114D01*
X152475000Y-59256557D01*
X152474999Y-59750000D01*
X152456173Y-59789092D01*
X152424999Y-59800000D01*
X151962783Y-59800000D01*
X151928699Y-59804669D01*
X151914523Y-59804583D01*
G37*
G36*
X153214523Y-59804583D02*
G01*
X153183858Y-59800000D01*
X152725000Y-59799999D01*
X152685908Y-59781173D01*
X152675000Y-59749999D01*
X152675000Y-59321743D01*
X152675067Y-59321743D01*
X152674965Y-59320999D01*
X152675000Y-59318134D01*
X152675000Y-58821744D01*
X152675067Y-58821744D01*
X152674965Y-58821000D01*
X152675000Y-58818135D01*
X152675001Y-58250000D01*
X152693827Y-58210908D01*
X152725001Y-58200000D01*
X153190560Y-58200000D01*
X153228077Y-58195327D01*
X153242251Y-58195587D01*
X153383631Y-58218485D01*
X153397163Y-58222713D01*
X153526434Y-58284372D01*
X153538235Y-58292227D01*
X153645004Y-58387690D01*
X153654126Y-58398542D01*
X153729810Y-58520135D01*
X153735519Y-58533111D01*
X153774035Y-58671058D01*
X153775873Y-58685115D01*
X153775000Y-58756558D01*
X153775000Y-59178437D01*
X153775873Y-59185114D01*
X153774123Y-59328326D01*
X153771942Y-59342333D01*
X153730067Y-59479298D01*
X153724042Y-59492131D01*
X153645409Y-59611837D01*
X153636025Y-59622463D01*
X153526956Y-59715289D01*
X153514966Y-59722854D01*
X153384227Y-59781336D01*
X153370597Y-59785231D01*
X153228699Y-59804669D01*
X153214523Y-59804583D01*
G37*
%TD*%
%TO.C,J2*%
G36*
G01*
X172300000Y-51738200D02*
X172300000Y-49161800D01*
G75*
G02*
X172561800Y-48900000I261800J0D01*
G01*
X174238200Y-48900000D01*
G75*
G02*
X174500000Y-49161800I0J-261800D01*
G01*
X174500000Y-51738200D01*
G75*
G02*
X174238200Y-52000000I-261800J0D01*
G01*
X172561800Y-52000000D01*
G75*
G02*
X172300000Y-51738200I0J261800D01*
G01*
G37*
G36*
G01*
X153450000Y-51738200D02*
X153450000Y-49161800D01*
G75*
G02*
X153711800Y-48900000I261800J0D01*
G01*
X155388200Y-48900000D01*
G75*
G02*
X155650000Y-49161800I0J-261800D01*
G01*
X155650000Y-51738200D01*
G75*
G02*
X155388200Y-52000000I-261800J0D01*
G01*
X153711800Y-52000000D01*
G75*
G02*
X153450000Y-51738200I0J261800D01*
G01*
G37*
G36*
G01*
X170400000Y-53675000D02*
X170400000Y-52725000D01*
G75*
G02*
X170625000Y-52500000I225000J0D01*
G01*
X171075000Y-52500000D01*
G75*
G02*
X171300000Y-52725000I0J-225000D01*
G01*
X171300000Y-53675000D01*
G75*
G02*
X171075000Y-53900000I-225000J0D01*
G01*
X170625000Y-53900000D01*
G75*
G02*
X170400000Y-53675000I0J225000D01*
G01*
G37*
G36*
G01*
X169150000Y-53675000D02*
X169150000Y-52725000D01*
G75*
G02*
X169375000Y-52500000I225000J0D01*
G01*
X169825000Y-52500000D01*
G75*
G02*
X170050000Y-52725000I0J-225000D01*
G01*
X170050000Y-53675000D01*
G75*
G02*
X169825000Y-53900000I-225000J0D01*
G01*
X169375000Y-53900000D01*
G75*
G02*
X169150000Y-53675000I0J225000D01*
G01*
G37*
G36*
G01*
X167900000Y-53675000D02*
X167900000Y-52725000D01*
G75*
G02*
X168125000Y-52500000I225000J0D01*
G01*
X168575000Y-52500000D01*
G75*
G02*
X168800000Y-52725000I0J-225000D01*
G01*
X168800000Y-53675000D01*
G75*
G02*
X168575000Y-53900000I-225000J0D01*
G01*
X168125000Y-53900000D01*
G75*
G02*
X167900000Y-53675000I0J225000D01*
G01*
G37*
G36*
G01*
X166650000Y-53675000D02*
X166650000Y-52725000D01*
G75*
G02*
X166875000Y-52500000I225000J0D01*
G01*
X167325000Y-52500000D01*
G75*
G02*
X167550000Y-52725000I0J-225000D01*
G01*
X167550000Y-53675000D01*
G75*
G02*
X167325000Y-53900000I-225000J0D01*
G01*
X166875000Y-53900000D01*
G75*
G02*
X166650000Y-53675000I0J225000D01*
G01*
G37*
G36*
G01*
X165400000Y-53675000D02*
X165400000Y-52725000D01*
G75*
G02*
X165625000Y-52500000I225000J0D01*
G01*
X166075000Y-52500000D01*
G75*
G02*
X166300000Y-52725000I0J-225000D01*
G01*
X166300000Y-53675000D01*
G75*
G02*
X166075000Y-53900000I-225000J0D01*
G01*
X165625000Y-53900000D01*
G75*
G02*
X165400000Y-53675000I0J225000D01*
G01*
G37*
G36*
G01*
X164150000Y-53675000D02*
X164150000Y-52725000D01*
G75*
G02*
X164375000Y-52500000I225000J0D01*
G01*
X164825000Y-52500000D01*
G75*
G02*
X165050000Y-52725000I0J-225000D01*
G01*
X165050000Y-53675000D01*
G75*
G02*
X164825000Y-53900000I-225000J0D01*
G01*
X164375000Y-53900000D01*
G75*
G02*
X164150000Y-53675000I0J225000D01*
G01*
G37*
G36*
G01*
X162900000Y-53675000D02*
X162900000Y-52725000D01*
G75*
G02*
X163125000Y-52500000I225000J0D01*
G01*
X163575000Y-52500000D01*
G75*
G02*
X163800000Y-52725000I0J-225000D01*
G01*
X163800000Y-53675000D01*
G75*
G02*
X163575000Y-53900000I-225000J0D01*
G01*
X163125000Y-53900000D01*
G75*
G02*
X162900000Y-53675000I0J225000D01*
G01*
G37*
G36*
G01*
X161650000Y-53675000D02*
X161650000Y-52725000D01*
G75*
G02*
X161875000Y-52500000I225000J0D01*
G01*
X162325000Y-52500000D01*
G75*
G02*
X162550000Y-52725000I0J-225000D01*
G01*
X162550000Y-53675000D01*
G75*
G02*
X162325000Y-53900000I-225000J0D01*
G01*
X161875000Y-53900000D01*
G75*
G02*
X161650000Y-53675000I0J225000D01*
G01*
G37*
G36*
G01*
X160400000Y-53675000D02*
X160400000Y-52725000D01*
G75*
G02*
X160625000Y-52500000I225000J0D01*
G01*
X161075000Y-52500000D01*
G75*
G02*
X161300000Y-52725000I0J-225000D01*
G01*
X161300000Y-53675000D01*
G75*
G02*
X161075000Y-53900000I-225000J0D01*
G01*
X160625000Y-53900000D01*
G75*
G02*
X160400000Y-53675000I0J225000D01*
G01*
G37*
G36*
G01*
X159150000Y-53675000D02*
X159150000Y-52725000D01*
G75*
G02*
X159375000Y-52500000I225000J0D01*
G01*
X159825000Y-52500000D01*
G75*
G02*
X160050000Y-52725000I0J-225000D01*
G01*
X160050000Y-53675000D01*
G75*
G02*
X159825000Y-53900000I-225000J0D01*
G01*
X159375000Y-53900000D01*
G75*
G02*
X159150000Y-53675000I0J225000D01*
G01*
G37*
G36*
G01*
X157900000Y-53675000D02*
X157900000Y-52725000D01*
G75*
G02*
X158125000Y-52500000I225000J0D01*
G01*
X158575000Y-52500000D01*
G75*
G02*
X158800000Y-52725000I0J-225000D01*
G01*
X158800000Y-53675000D01*
G75*
G02*
X158575000Y-53900000I-225000J0D01*
G01*
X158125000Y-53900000D01*
G75*
G02*
X157900000Y-53675000I0J225000D01*
G01*
G37*
G36*
G01*
X156650000Y-53675000D02*
X156650000Y-52725000D01*
G75*
G02*
X156875000Y-52500000I225000J0D01*
G01*
X157325000Y-52500000D01*
G75*
G02*
X157550000Y-52725000I0J-225000D01*
G01*
X157550000Y-53675000D01*
G75*
G02*
X157325000Y-53900000I-225000J0D01*
G01*
X156875000Y-53900000D01*
G75*
G02*
X156650000Y-53675000I0J225000D01*
G01*
G37*
%TD*%
%TO.C,U1*%
G36*
G01*
X124425000Y-56875000D02*
X124425000Y-57125000D01*
G75*
G02*
X124375000Y-57175000I-50000J0D01*
G01*
X123075000Y-57175000D01*
G75*
G02*
X123025000Y-57125000I0J50000D01*
G01*
X123025000Y-56875000D01*
G75*
G02*
X123075000Y-56825000I50000J0D01*
G01*
X124375000Y-56825000D01*
G75*
G02*
X124425000Y-56875000I0J-50000D01*
G01*
G37*
G36*
G01*
X124425000Y-57375000D02*
X124425000Y-57625000D01*
G75*
G02*
X124375000Y-57675000I-50000J0D01*
G01*
X123075000Y-57675000D01*
G75*
G02*
X123025000Y-57625000I0J50000D01*
G01*
X123025000Y-57375000D01*
G75*
G02*
X123075000Y-57325000I50000J0D01*
G01*
X124375000Y-57325000D01*
G75*
G02*
X124425000Y-57375000I0J-50000D01*
G01*
G37*
G36*
G01*
X124425000Y-57875000D02*
X124425000Y-58125000D01*
G75*
G02*
X124375000Y-58175000I-50000J0D01*
G01*
X123075000Y-58175000D01*
G75*
G02*
X123025000Y-58125000I0J50000D01*
G01*
X123025000Y-57875000D01*
G75*
G02*
X123075000Y-57825000I50000J0D01*
G01*
X124375000Y-57825000D01*
G75*
G02*
X124425000Y-57875000I0J-50000D01*
G01*
G37*
G36*
G01*
X124425000Y-58375000D02*
X124425000Y-58625000D01*
G75*
G02*
X124375000Y-58675000I-50000J0D01*
G01*
X123075000Y-58675000D01*
G75*
G02*
X123025000Y-58625000I0J50000D01*
G01*
X123025000Y-58375000D01*
G75*
G02*
X123075000Y-58325000I50000J0D01*
G01*
X124375000Y-58325000D01*
G75*
G02*
X124425000Y-58375000I0J-50000D01*
G01*
G37*
G36*
G01*
X124425000Y-58875000D02*
X124425000Y-59125000D01*
G75*
G02*
X124375000Y-59175000I-50000J0D01*
G01*
X123075000Y-59175000D01*
G75*
G02*
X123025000Y-59125000I0J50000D01*
G01*
X123025000Y-58875000D01*
G75*
G02*
X123075000Y-58825000I50000J0D01*
G01*
X124375000Y-58825000D01*
G75*
G02*
X124425000Y-58875000I0J-50000D01*
G01*
G37*
G36*
G01*
X124425000Y-59375000D02*
X124425000Y-59625000D01*
G75*
G02*
X124375000Y-59675000I-50000J0D01*
G01*
X123075000Y-59675000D01*
G75*
G02*
X123025000Y-59625000I0J50000D01*
G01*
X123025000Y-59375000D01*
G75*
G02*
X123075000Y-59325000I50000J0D01*
G01*
X124375000Y-59325000D01*
G75*
G02*
X124425000Y-59375000I0J-50000D01*
G01*
G37*
G36*
G01*
X124425000Y-59875000D02*
X124425000Y-60125000D01*
G75*
G02*
X124375000Y-60175000I-50000J0D01*
G01*
X123075000Y-60175000D01*
G75*
G02*
X123025000Y-60125000I0J50000D01*
G01*
X123025000Y-59875000D01*
G75*
G02*
X123075000Y-59825000I50000J0D01*
G01*
X124375000Y-59825000D01*
G75*
G02*
X124425000Y-59875000I0J-50000D01*
G01*
G37*
G36*
G01*
X124425000Y-60375000D02*
X124425000Y-60625000D01*
G75*
G02*
X124375000Y-60675000I-50000J0D01*
G01*
X123075000Y-60675000D01*
G75*
G02*
X123025000Y-60625000I0J50000D01*
G01*
X123025000Y-60375000D01*
G75*
G02*
X123075000Y-60325000I50000J0D01*
G01*
X124375000Y-60325000D01*
G75*
G02*
X124425000Y-60375000I0J-50000D01*
G01*
G37*
G36*
G01*
X124425000Y-60875000D02*
X124425000Y-61125000D01*
G75*
G02*
X124375000Y-61175000I-50000J0D01*
G01*
X123075000Y-61175000D01*
G75*
G02*
X123025000Y-61125000I0J50000D01*
G01*
X123025000Y-60875000D01*
G75*
G02*
X123075000Y-60825000I50000J0D01*
G01*
X124375000Y-60825000D01*
G75*
G02*
X124425000Y-60875000I0J-50000D01*
G01*
G37*
G36*
G01*
X124425000Y-61375000D02*
X124425000Y-61625000D01*
G75*
G02*
X124375000Y-61675000I-50000J0D01*
G01*
X123075000Y-61675000D01*
G75*
G02*
X123025000Y-61625000I0J50000D01*
G01*
X123025000Y-61375000D01*
G75*
G02*
X123075000Y-61325000I50000J0D01*
G01*
X124375000Y-61325000D01*
G75*
G02*
X124425000Y-61375000I0J-50000D01*
G01*
G37*
G36*
G01*
X124425000Y-61875000D02*
X124425000Y-62125000D01*
G75*
G02*
X124375000Y-62175000I-50000J0D01*
G01*
X123075000Y-62175000D01*
G75*
G02*
X123025000Y-62125000I0J50000D01*
G01*
X123025000Y-61875000D01*
G75*
G02*
X123075000Y-61825000I50000J0D01*
G01*
X124375000Y-61825000D01*
G75*
G02*
X124425000Y-61875000I0J-50000D01*
G01*
G37*
G36*
G01*
X124425000Y-62375000D02*
X124425000Y-62625000D01*
G75*
G02*
X124375000Y-62675000I-50000J0D01*
G01*
X123075000Y-62675000D01*
G75*
G02*
X123025000Y-62625000I0J50000D01*
G01*
X123025000Y-62375000D01*
G75*
G02*
X123075000Y-62325000I50000J0D01*
G01*
X124375000Y-62325000D01*
G75*
G02*
X124425000Y-62375000I0J-50000D01*
G01*
G37*
G36*
G01*
X125200000Y-63400000D02*
X125450000Y-63400000D01*
G75*
G02*
X125500000Y-63450000I0J-50000D01*
G01*
X125500000Y-64750000D01*
G75*
G02*
X125450000Y-64800000I-50000J0D01*
G01*
X125200000Y-64800000D01*
G75*
G02*
X125150000Y-64750000I0J50000D01*
G01*
X125150000Y-63450000D01*
G75*
G02*
X125200000Y-63400000I50000J0D01*
G01*
G37*
G36*
G01*
X125700000Y-63400000D02*
X125950000Y-63400000D01*
G75*
G02*
X126000000Y-63450000I0J-50000D01*
G01*
X126000000Y-64750000D01*
G75*
G02*
X125950000Y-64800000I-50000J0D01*
G01*
X125700000Y-64800000D01*
G75*
G02*
X125650000Y-64750000I0J50000D01*
G01*
X125650000Y-63450000D01*
G75*
G02*
X125700000Y-63400000I50000J0D01*
G01*
G37*
G36*
G01*
X126200000Y-63400000D02*
X126450000Y-63400000D01*
G75*
G02*
X126500000Y-63450000I0J-50000D01*
G01*
X126500000Y-64750000D01*
G75*
G02*
X126450000Y-64800000I-50000J0D01*
G01*
X126200000Y-64800000D01*
G75*
G02*
X126150000Y-64750000I0J50000D01*
G01*
X126150000Y-63450000D01*
G75*
G02*
X126200000Y-63400000I50000J0D01*
G01*
G37*
G36*
G01*
X126700000Y-63400000D02*
X126950000Y-63400000D01*
G75*
G02*
X127000000Y-63450000I0J-50000D01*
G01*
X127000000Y-64750000D01*
G75*
G02*
X126950000Y-64800000I-50000J0D01*
G01*
X126700000Y-64800000D01*
G75*
G02*
X126650000Y-64750000I0J50000D01*
G01*
X126650000Y-63450000D01*
G75*
G02*
X126700000Y-63400000I50000J0D01*
G01*
G37*
G36*
G01*
X127200000Y-63400000D02*
X127450000Y-63400000D01*
G75*
G02*
X127500000Y-63450000I0J-50000D01*
G01*
X127500000Y-64750000D01*
G75*
G02*
X127450000Y-64800000I-50000J0D01*
G01*
X127200000Y-64800000D01*
G75*
G02*
X127150000Y-64750000I0J50000D01*
G01*
X127150000Y-63450000D01*
G75*
G02*
X127200000Y-63400000I50000J0D01*
G01*
G37*
G36*
G01*
X127700000Y-63400000D02*
X127950000Y-63400000D01*
G75*
G02*
X128000000Y-63450000I0J-50000D01*
G01*
X128000000Y-64750000D01*
G75*
G02*
X127950000Y-64800000I-50000J0D01*
G01*
X127700000Y-64800000D01*
G75*
G02*
X127650000Y-64750000I0J50000D01*
G01*
X127650000Y-63450000D01*
G75*
G02*
X127700000Y-63400000I50000J0D01*
G01*
G37*
G36*
G01*
X128200000Y-63400000D02*
X128450000Y-63400000D01*
G75*
G02*
X128500000Y-63450000I0J-50000D01*
G01*
X128500000Y-64750000D01*
G75*
G02*
X128450000Y-64800000I-50000J0D01*
G01*
X128200000Y-64800000D01*
G75*
G02*
X128150000Y-64750000I0J50000D01*
G01*
X128150000Y-63450000D01*
G75*
G02*
X128200000Y-63400000I50000J0D01*
G01*
G37*
G36*
G01*
X128700000Y-63400000D02*
X128950000Y-63400000D01*
G75*
G02*
X129000000Y-63450000I0J-50000D01*
G01*
X129000000Y-64750000D01*
G75*
G02*
X128950000Y-64800000I-50000J0D01*
G01*
X128700000Y-64800000D01*
G75*
G02*
X128650000Y-64750000I0J50000D01*
G01*
X128650000Y-63450000D01*
G75*
G02*
X128700000Y-63400000I50000J0D01*
G01*
G37*
G36*
G01*
X129200000Y-63400000D02*
X129450000Y-63400000D01*
G75*
G02*
X129500000Y-63450000I0J-50000D01*
G01*
X129500000Y-64750000D01*
G75*
G02*
X129450000Y-64800000I-50000J0D01*
G01*
X129200000Y-64800000D01*
G75*
G02*
X129150000Y-64750000I0J50000D01*
G01*
X129150000Y-63450000D01*
G75*
G02*
X129200000Y-63400000I50000J0D01*
G01*
G37*
G36*
G01*
X129700000Y-63400000D02*
X129950000Y-63400000D01*
G75*
G02*
X130000000Y-63450000I0J-50000D01*
G01*
X130000000Y-64750000D01*
G75*
G02*
X129950000Y-64800000I-50000J0D01*
G01*
X129700000Y-64800000D01*
G75*
G02*
X129650000Y-64750000I0J50000D01*
G01*
X129650000Y-63450000D01*
G75*
G02*
X129700000Y-63400000I50000J0D01*
G01*
G37*
G36*
G01*
X130200000Y-63400000D02*
X130450000Y-63400000D01*
G75*
G02*
X130500000Y-63450000I0J-50000D01*
G01*
X130500000Y-64750000D01*
G75*
G02*
X130450000Y-64800000I-50000J0D01*
G01*
X130200000Y-64800000D01*
G75*
G02*
X130150000Y-64750000I0J50000D01*
G01*
X130150000Y-63450000D01*
G75*
G02*
X130200000Y-63400000I50000J0D01*
G01*
G37*
G36*
G01*
X130700000Y-63400000D02*
X130950000Y-63400000D01*
G75*
G02*
X131000000Y-63450000I0J-50000D01*
G01*
X131000000Y-64750000D01*
G75*
G02*
X130950000Y-64800000I-50000J0D01*
G01*
X130700000Y-64800000D01*
G75*
G02*
X130650000Y-64750000I0J50000D01*
G01*
X130650000Y-63450000D01*
G75*
G02*
X130700000Y-63400000I50000J0D01*
G01*
G37*
G36*
G01*
X133125000Y-62375000D02*
X133125000Y-62625000D01*
G75*
G02*
X133075000Y-62675000I-50000J0D01*
G01*
X131775000Y-62675000D01*
G75*
G02*
X131725000Y-62625000I0J50000D01*
G01*
X131725000Y-62375000D01*
G75*
G02*
X131775000Y-62325000I50000J0D01*
G01*
X133075000Y-62325000D01*
G75*
G02*
X133125000Y-62375000I0J-50000D01*
G01*
G37*
G36*
G01*
X133125000Y-61875000D02*
X133125000Y-62125000D01*
G75*
G02*
X133075000Y-62175000I-50000J0D01*
G01*
X131775000Y-62175000D01*
G75*
G02*
X131725000Y-62125000I0J50000D01*
G01*
X131725000Y-61875000D01*
G75*
G02*
X131775000Y-61825000I50000J0D01*
G01*
X133075000Y-61825000D01*
G75*
G02*
X133125000Y-61875000I0J-50000D01*
G01*
G37*
G36*
G01*
X133125000Y-61375000D02*
X133125000Y-61625000D01*
G75*
G02*
X133075000Y-61675000I-50000J0D01*
G01*
X131775000Y-61675000D01*
G75*
G02*
X131725000Y-61625000I0J50000D01*
G01*
X131725000Y-61375000D01*
G75*
G02*
X131775000Y-61325000I50000J0D01*
G01*
X133075000Y-61325000D01*
G75*
G02*
X133125000Y-61375000I0J-50000D01*
G01*
G37*
G36*
G01*
X133125000Y-60875000D02*
X133125000Y-61125000D01*
G75*
G02*
X133075000Y-61175000I-50000J0D01*
G01*
X131775000Y-61175000D01*
G75*
G02*
X131725000Y-61125000I0J50000D01*
G01*
X131725000Y-60875000D01*
G75*
G02*
X131775000Y-60825000I50000J0D01*
G01*
X133075000Y-60825000D01*
G75*
G02*
X133125000Y-60875000I0J-50000D01*
G01*
G37*
G36*
G01*
X133125000Y-60375000D02*
X133125000Y-60625000D01*
G75*
G02*
X133075000Y-60675000I-50000J0D01*
G01*
X131775000Y-60675000D01*
G75*
G02*
X131725000Y-60625000I0J50000D01*
G01*
X131725000Y-60375000D01*
G75*
G02*
X131775000Y-60325000I50000J0D01*
G01*
X133075000Y-60325000D01*
G75*
G02*
X133125000Y-60375000I0J-50000D01*
G01*
G37*
G36*
G01*
X133125000Y-59875000D02*
X133125000Y-60125000D01*
G75*
G02*
X133075000Y-60175000I-50000J0D01*
G01*
X131775000Y-60175000D01*
G75*
G02*
X131725000Y-60125000I0J50000D01*
G01*
X131725000Y-59875000D01*
G75*
G02*
X131775000Y-59825000I50000J0D01*
G01*
X133075000Y-59825000D01*
G75*
G02*
X133125000Y-59875000I0J-50000D01*
G01*
G37*
G36*
G01*
X133125000Y-59375000D02*
X133125000Y-59625000D01*
G75*
G02*
X133075000Y-59675000I-50000J0D01*
G01*
X131775000Y-59675000D01*
G75*
G02*
X131725000Y-59625000I0J50000D01*
G01*
X131725000Y-59375000D01*
G75*
G02*
X131775000Y-59325000I50000J0D01*
G01*
X133075000Y-59325000D01*
G75*
G02*
X133125000Y-59375000I0J-50000D01*
G01*
G37*
G36*
G01*
X133125000Y-58875000D02*
X133125000Y-59125000D01*
G75*
G02*
X133075000Y-59175000I-50000J0D01*
G01*
X131775000Y-59175000D01*
G75*
G02*
X131725000Y-59125000I0J50000D01*
G01*
X131725000Y-58875000D01*
G75*
G02*
X131775000Y-58825000I50000J0D01*
G01*
X133075000Y-58825000D01*
G75*
G02*
X133125000Y-58875000I0J-50000D01*
G01*
G37*
G36*
G01*
X133125000Y-58375000D02*
X133125000Y-58625000D01*
G75*
G02*
X133075000Y-58675000I-50000J0D01*
G01*
X131775000Y-58675000D01*
G75*
G02*
X131725000Y-58625000I0J50000D01*
G01*
X131725000Y-58375000D01*
G75*
G02*
X131775000Y-58325000I50000J0D01*
G01*
X133075000Y-58325000D01*
G75*
G02*
X133125000Y-58375000I0J-50000D01*
G01*
G37*
G36*
G01*
X133125000Y-57875000D02*
X133125000Y-58125000D01*
G75*
G02*
X133075000Y-58175000I-50000J0D01*
G01*
X131775000Y-58175000D01*
G75*
G02*
X131725000Y-58125000I0J50000D01*
G01*
X131725000Y-57875000D01*
G75*
G02*
X131775000Y-57825000I50000J0D01*
G01*
X133075000Y-57825000D01*
G75*
G02*
X133125000Y-57875000I0J-50000D01*
G01*
G37*
G36*
G01*
X133125000Y-57375000D02*
X133125000Y-57625000D01*
G75*
G02*
X133075000Y-57675000I-50000J0D01*
G01*
X131775000Y-57675000D01*
G75*
G02*
X131725000Y-57625000I0J50000D01*
G01*
X131725000Y-57375000D01*
G75*
G02*
X131775000Y-57325000I50000J0D01*
G01*
X133075000Y-57325000D01*
G75*
G02*
X133125000Y-57375000I0J-50000D01*
G01*
G37*
G36*
G01*
X133125000Y-56875000D02*
X133125000Y-57125000D01*
G75*
G02*
X133075000Y-57175000I-50000J0D01*
G01*
X131775000Y-57175000D01*
G75*
G02*
X131725000Y-57125000I0J50000D01*
G01*
X131725000Y-56875000D01*
G75*
G02*
X131775000Y-56825000I50000J0D01*
G01*
X133075000Y-56825000D01*
G75*
G02*
X133125000Y-56875000I0J-50000D01*
G01*
G37*
G36*
G01*
X130700000Y-54700000D02*
X130950000Y-54700000D01*
G75*
G02*
X131000000Y-54750000I0J-50000D01*
G01*
X131000000Y-56050000D01*
G75*
G02*
X130950000Y-56100000I-50000J0D01*
G01*
X130700000Y-56100000D01*
G75*
G02*
X130650000Y-56050000I0J50000D01*
G01*
X130650000Y-54750000D01*
G75*
G02*
X130700000Y-54700000I50000J0D01*
G01*
G37*
G36*
G01*
X130200000Y-54700000D02*
X130450000Y-54700000D01*
G75*
G02*
X130500000Y-54750000I0J-50000D01*
G01*
X130500000Y-56050000D01*
G75*
G02*
X130450000Y-56100000I-50000J0D01*
G01*
X130200000Y-56100000D01*
G75*
G02*
X130150000Y-56050000I0J50000D01*
G01*
X130150000Y-54750000D01*
G75*
G02*
X130200000Y-54700000I50000J0D01*
G01*
G37*
G36*
G01*
X129700000Y-54700000D02*
X129950000Y-54700000D01*
G75*
G02*
X130000000Y-54750000I0J-50000D01*
G01*
X130000000Y-56050000D01*
G75*
G02*
X129950000Y-56100000I-50000J0D01*
G01*
X129700000Y-56100000D01*
G75*
G02*
X129650000Y-56050000I0J50000D01*
G01*
X129650000Y-54750000D01*
G75*
G02*
X129700000Y-54700000I50000J0D01*
G01*
G37*
G36*
G01*
X129200000Y-54700000D02*
X129450000Y-54700000D01*
G75*
G02*
X129500000Y-54750000I0J-50000D01*
G01*
X129500000Y-56050000D01*
G75*
G02*
X129450000Y-56100000I-50000J0D01*
G01*
X129200000Y-56100000D01*
G75*
G02*
X129150000Y-56050000I0J50000D01*
G01*
X129150000Y-54750000D01*
G75*
G02*
X129200000Y-54700000I50000J0D01*
G01*
G37*
G36*
G01*
X128700000Y-54700000D02*
X128950000Y-54700000D01*
G75*
G02*
X129000000Y-54750000I0J-50000D01*
G01*
X129000000Y-56050000D01*
G75*
G02*
X128950000Y-56100000I-50000J0D01*
G01*
X128700000Y-56100000D01*
G75*
G02*
X128650000Y-56050000I0J50000D01*
G01*
X128650000Y-54750000D01*
G75*
G02*
X128700000Y-54700000I50000J0D01*
G01*
G37*
G36*
G01*
X128200000Y-54700000D02*
X128450000Y-54700000D01*
G75*
G02*
X128500000Y-54750000I0J-50000D01*
G01*
X128500000Y-56050000D01*
G75*
G02*
X128450000Y-56100000I-50000J0D01*
G01*
X128200000Y-56100000D01*
G75*
G02*
X128150000Y-56050000I0J50000D01*
G01*
X128150000Y-54750000D01*
G75*
G02*
X128200000Y-54700000I50000J0D01*
G01*
G37*
G36*
G01*
X127700000Y-54700000D02*
X127950000Y-54700000D01*
G75*
G02*
X128000000Y-54750000I0J-50000D01*
G01*
X128000000Y-56050000D01*
G75*
G02*
X127950000Y-56100000I-50000J0D01*
G01*
X127700000Y-56100000D01*
G75*
G02*
X127650000Y-56050000I0J50000D01*
G01*
X127650000Y-54750000D01*
G75*
G02*
X127700000Y-54700000I50000J0D01*
G01*
G37*
G36*
G01*
X127200000Y-54700000D02*
X127450000Y-54700000D01*
G75*
G02*
X127500000Y-54750000I0J-50000D01*
G01*
X127500000Y-56050000D01*
G75*
G02*
X127450000Y-56100000I-50000J0D01*
G01*
X127200000Y-56100000D01*
G75*
G02*
X127150000Y-56050000I0J50000D01*
G01*
X127150000Y-54750000D01*
G75*
G02*
X127200000Y-54700000I50000J0D01*
G01*
G37*
G36*
G01*
X126700000Y-54700000D02*
X126950000Y-54700000D01*
G75*
G02*
X127000000Y-54750000I0J-50000D01*
G01*
X127000000Y-56050000D01*
G75*
G02*
X126950000Y-56100000I-50000J0D01*
G01*
X126700000Y-56100000D01*
G75*
G02*
X126650000Y-56050000I0J50000D01*
G01*
X126650000Y-54750000D01*
G75*
G02*
X126700000Y-54700000I50000J0D01*
G01*
G37*
G36*
G01*
X126200000Y-54700000D02*
X126450000Y-54700000D01*
G75*
G02*
X126500000Y-54750000I0J-50000D01*
G01*
X126500000Y-56050000D01*
G75*
G02*
X126450000Y-56100000I-50000J0D01*
G01*
X126200000Y-56100000D01*
G75*
G02*
X126150000Y-56050000I0J50000D01*
G01*
X126150000Y-54750000D01*
G75*
G02*
X126200000Y-54700000I50000J0D01*
G01*
G37*
G36*
G01*
X125700000Y-54700000D02*
X125950000Y-54700000D01*
G75*
G02*
X126000000Y-54750000I0J-50000D01*
G01*
X126000000Y-56050000D01*
G75*
G02*
X125950000Y-56100000I-50000J0D01*
G01*
X125700000Y-56100000D01*
G75*
G02*
X125650000Y-56050000I0J50000D01*
G01*
X125650000Y-54750000D01*
G75*
G02*
X125700000Y-54700000I50000J0D01*
G01*
G37*
G36*
G01*
X125200000Y-54700000D02*
X125450000Y-54700000D01*
G75*
G02*
X125500000Y-54750000I0J-50000D01*
G01*
X125500000Y-56050000D01*
G75*
G02*
X125450000Y-56100000I-50000J0D01*
G01*
X125200000Y-56100000D01*
G75*
G02*
X125150000Y-56050000I0J50000D01*
G01*
X125150000Y-54750000D01*
G75*
G02*
X125200000Y-54700000I50000J0D01*
G01*
G37*
%TD*%
%TO.C,R7*%
G36*
G01*
X171300000Y-66637500D02*
X171300000Y-66112500D01*
G75*
G02*
X171562500Y-65850000I262500J0D01*
G01*
X172187500Y-65850000D01*
G75*
G02*
X172450000Y-66112500I0J-262500D01*
G01*
X172450000Y-66637500D01*
G75*
G02*
X172187500Y-66900000I-262500J0D01*
G01*
X171562500Y-66900000D01*
G75*
G02*
X171300000Y-66637500I0J262500D01*
G01*
G37*
G36*
G01*
X169550000Y-66637500D02*
X169550000Y-66112500D01*
G75*
G02*
X169812500Y-65850000I262500J0D01*
G01*
X170437500Y-65850000D01*
G75*
G02*
X170700000Y-66112500I0J-262500D01*
G01*
X170700000Y-66637500D01*
G75*
G02*
X170437500Y-66900000I-262500J0D01*
G01*
X169812500Y-66900000D01*
G75*
G02*
X169550000Y-66637500I0J262500D01*
G01*
G37*
%TD*%
%TO.C,Y1*%
G36*
G01*
X126275000Y-53900000D02*
X126275000Y-52100000D01*
G75*
G02*
X126325000Y-52050000I50000J0D01*
G01*
X128075000Y-52050000D01*
G75*
G02*
X128125000Y-52100000I0J-50000D01*
G01*
X128125000Y-53900000D01*
G75*
G02*
X128075000Y-53950000I-50000J0D01*
G01*
X126325000Y-53950000D01*
G75*
G02*
X126275000Y-53900000I0J50000D01*
G01*
G37*
G36*
G01*
X123025000Y-53900000D02*
X123025000Y-52100000D01*
G75*
G02*
X123075000Y-52050000I50000J0D01*
G01*
X124825000Y-52050000D01*
G75*
G02*
X124875000Y-52100000I0J-50000D01*
G01*
X124875000Y-53900000D01*
G75*
G02*
X124825000Y-53950000I-50000J0D01*
G01*
X123075000Y-53950000D01*
G75*
G02*
X123025000Y-53900000I0J50000D01*
G01*
G37*
%TD*%
D14*
%TO.C,U4*%
X137464999Y-56800000D03*
X140004999Y-56800000D03*
G36*
G01*
X141694999Y-55900000D02*
X143394999Y-55900000D01*
G75*
G02*
X143444999Y-55950000I0J-50000D01*
G01*
X143444999Y-57650000D01*
G75*
G02*
X143394999Y-57700000I-50000J0D01*
G01*
X141694999Y-57700000D01*
G75*
G02*
X141644999Y-57650000I0J50000D01*
G01*
X141644999Y-55950000D01*
G75*
G02*
X141694999Y-55900000I50000J0D01*
G01*
G37*
%TD*%
D15*
%TO.C,U3*%
X174260000Y-60905000D03*
X176800000Y-60905000D03*
X174260000Y-63445000D03*
X176800000Y-63445000D03*
X174260000Y-65985000D03*
X176800000Y-65985000D03*
X174260000Y-68525000D03*
G36*
G01*
X177612000Y-67763000D02*
X177612000Y-69287000D01*
G75*
G02*
X177562000Y-69337000I-50000J0D01*
G01*
X176038000Y-69337000D01*
G75*
G02*
X175988000Y-69287000I0J50000D01*
G01*
X175988000Y-67763000D01*
G75*
G02*
X176038000Y-67713000I50000J0D01*
G01*
X177562000Y-67713000D01*
G75*
G02*
X177612000Y-67763000I0J-50000D01*
G01*
G37*
%TD*%
%TO.C,U2*%
G36*
X112410173Y-77101592D02*
G01*
X112378999Y-77112500D01*
X110646000Y-77112500D01*
X110606908Y-77093674D01*
X110596000Y-77062500D01*
X110596000Y-73937499D01*
X110614826Y-73898407D01*
X110646000Y-73887499D01*
X111012500Y-73887499D01*
X111012501Y-72462500D01*
X111031327Y-72423408D01*
X111062501Y-72412500D01*
X111962500Y-72412501D01*
X112001592Y-72431327D01*
X112012500Y-72462501D01*
X112012499Y-73887500D01*
X112378999Y-73887500D01*
X112418091Y-73906326D01*
X112428999Y-73937500D01*
X112428999Y-77062500D01*
X112410173Y-77101592D01*
G37*
G36*
G01*
X112562500Y-72412500D02*
X113462500Y-72412500D01*
G75*
G02*
X113512500Y-72462500I0J-50000D01*
G01*
X113512500Y-73762500D01*
G75*
G02*
X113462500Y-73812500I-50000J0D01*
G01*
X112562500Y-73812500D01*
G75*
G02*
X112512500Y-73762500I0J50000D01*
G01*
X112512500Y-72462500D01*
G75*
G02*
X112562500Y-72412500I50000J0D01*
G01*
G37*
G36*
G01*
X109562500Y-72412500D02*
X110462500Y-72412500D01*
G75*
G02*
X110512500Y-72462500I0J-50000D01*
G01*
X110512500Y-73762500D01*
G75*
G02*
X110462500Y-73812500I-50000J0D01*
G01*
X109562500Y-73812500D01*
G75*
G02*
X109512500Y-73762500I0J50000D01*
G01*
X109512500Y-72462500D01*
G75*
G02*
X109562500Y-72412500I50000J0D01*
G01*
G37*
%TD*%
D14*
%TO.C,SW1*%
X111800000Y-57500000D03*
X118300000Y-57500000D03*
X111800000Y-62000000D03*
X118300000Y-62000000D03*
%TD*%
%TO.C,R4*%
G36*
G01*
X121487500Y-63800000D02*
X122012500Y-63800000D01*
G75*
G02*
X122275000Y-64062500I0J-262500D01*
G01*
X122275000Y-64687500D01*
G75*
G02*
X122012500Y-64950000I-262500J0D01*
G01*
X121487500Y-64950000D01*
G75*
G02*
X121225000Y-64687500I0J262500D01*
G01*
X121225000Y-64062500D01*
G75*
G02*
X121487500Y-63800000I262500J0D01*
G01*
G37*
G36*
G01*
X121487500Y-62050000D02*
X122012500Y-62050000D01*
G75*
G02*
X122275000Y-62312500I0J-262500D01*
G01*
X122275000Y-62937500D01*
G75*
G02*
X122012500Y-63200000I-262500J0D01*
G01*
X121487500Y-63200000D01*
G75*
G02*
X121225000Y-62937500I0J262500D01*
G01*
X121225000Y-62312500D01*
G75*
G02*
X121487500Y-62050000I262500J0D01*
G01*
G37*
%TD*%
%TO.C,R3*%
G36*
G01*
X120937500Y-72225000D02*
X120412500Y-72225000D01*
G75*
G02*
X120150000Y-71962500I0J262500D01*
G01*
X120150000Y-71337500D01*
G75*
G02*
X120412500Y-71075000I262500J0D01*
G01*
X120937500Y-71075000D01*
G75*
G02*
X121200000Y-71337500I0J-262500D01*
G01*
X121200000Y-71962500D01*
G75*
G02*
X120937500Y-72225000I-262500J0D01*
G01*
G37*
G36*
G01*
X120937500Y-73975000D02*
X120412500Y-73975000D01*
G75*
G02*
X120150000Y-73712500I0J262500D01*
G01*
X120150000Y-73087500D01*
G75*
G02*
X120412500Y-72825000I262500J0D01*
G01*
X120937500Y-72825000D01*
G75*
G02*
X121200000Y-73087500I0J-262500D01*
G01*
X121200000Y-73712500D01*
G75*
G02*
X120937500Y-73975000I-262500J0D01*
G01*
G37*
%TD*%
%TO.C,R1*%
G36*
G01*
X105587500Y-62599999D02*
X106112500Y-62599999D01*
G75*
G02*
X106375000Y-62862499I0J-262500D01*
G01*
X106375000Y-63487499D01*
G75*
G02*
X106112500Y-63749999I-262500J0D01*
G01*
X105587500Y-63749999D01*
G75*
G02*
X105325000Y-63487499I0J262500D01*
G01*
X105325000Y-62862499D01*
G75*
G02*
X105587500Y-62599999I262500J0D01*
G01*
G37*
G36*
G01*
X105587500Y-60849999D02*
X106112500Y-60849999D01*
G75*
G02*
X106375000Y-61112499I0J-262500D01*
G01*
X106375000Y-61737499D01*
G75*
G02*
X106112500Y-61999999I-262500J0D01*
G01*
X105587500Y-61999999D01*
G75*
G02*
X105325000Y-61737499I0J262500D01*
G01*
X105325000Y-61112499D01*
G75*
G02*
X105587500Y-60849999I262500J0D01*
G01*
G37*
%TD*%
D16*
%TO.C,J3*%
X111960000Y-66925000D03*
G36*
G01*
X113650000Y-66025000D02*
X115350000Y-66025000D01*
G75*
G02*
X115400000Y-66075000I0J-50000D01*
G01*
X115400000Y-67775000D01*
G75*
G02*
X115350000Y-67825000I-50000J0D01*
G01*
X113650000Y-67825000D01*
G75*
G02*
X113600000Y-67775000I0J50000D01*
G01*
X113600000Y-66075000D01*
G75*
G02*
X113650000Y-66025000I50000J0D01*
G01*
G37*
%TD*%
%TO.C,J1*%
G36*
G01*
X125250000Y-75050000D02*
X125250000Y-76950000D01*
G75*
G02*
X125200000Y-77000000I-50000J0D01*
G01*
X124200000Y-77000000D01*
G75*
G02*
X124150000Y-76950000I0J50000D01*
G01*
X124150000Y-75050000D01*
G75*
G02*
X124200000Y-75000000I50000J0D01*
G01*
X125200000Y-75000000D01*
G75*
G02*
X125250000Y-75050000I0J-50000D01*
G01*
G37*
G36*
G01*
X128350000Y-75050000D02*
X128350000Y-76950000D01*
G75*
G02*
X128300000Y-77000000I-50000J0D01*
G01*
X126500000Y-77000000D01*
G75*
G02*
X126450000Y-76950000I0J50000D01*
G01*
X126450000Y-75050000D01*
G75*
G02*
X126500000Y-75000000I50000J0D01*
G01*
X128300000Y-75000000D01*
G75*
G02*
X128350000Y-75050000I0J-50000D01*
G01*
G37*
G36*
G01*
X123750000Y-75350000D02*
X123750000Y-76650000D01*
G75*
G02*
X123700000Y-76700000I-50000J0D01*
G01*
X122050000Y-76700000D01*
G75*
G02*
X122000000Y-76650000I0J50000D01*
G01*
X122000000Y-75350000D01*
G75*
G02*
X122050000Y-75300000I50000J0D01*
G01*
X123700000Y-75300000D01*
G75*
G02*
X123750000Y-75350000I0J-50000D01*
G01*
G37*
G36*
G01*
X130500000Y-75350000D02*
X130500000Y-76650000D01*
G75*
G02*
X130450000Y-76700000I-50000J0D01*
G01*
X128800000Y-76700000D01*
G75*
G02*
X128750000Y-76650000I0J50000D01*
G01*
X128750000Y-75350000D01*
G75*
G02*
X128800000Y-75300000I50000J0D01*
G01*
X130450000Y-75300000D01*
G75*
G02*
X130500000Y-75350000I0J-50000D01*
G01*
G37*
G36*
G01*
X124525000Y-72650000D02*
X124525000Y-74200000D01*
G75*
G02*
X124475000Y-74250000I-50000J0D01*
G01*
X123050000Y-74250000D01*
G75*
G02*
X123000000Y-74200000I0J50000D01*
G01*
X123000000Y-72650000D01*
G75*
G02*
X123050000Y-72600000I50000J0D01*
G01*
X124475000Y-72600000D01*
G75*
G02*
X124525000Y-72650000I0J-50000D01*
G01*
G37*
G36*
G01*
X129500000Y-72650000D02*
X129500000Y-74200000D01*
G75*
G02*
X129450000Y-74250000I-50000J0D01*
G01*
X128025000Y-74250000D01*
G75*
G02*
X127975000Y-74200000I0J50000D01*
G01*
X127975000Y-72650000D01*
G75*
G02*
X128025000Y-72600000I50000J0D01*
G01*
X129450000Y-72600000D01*
G75*
G02*
X129500000Y-72650000I0J-50000D01*
G01*
G37*
G36*
G01*
X125225000Y-72650000D02*
X125225000Y-74030000D01*
G75*
G02*
X125175000Y-74080000I-50000J0D01*
G01*
X124725000Y-74080000D01*
G75*
G02*
X124675000Y-74030000I0J50000D01*
G01*
X124675000Y-72650000D01*
G75*
G02*
X124725000Y-72600000I50000J0D01*
G01*
X125175000Y-72600000D01*
G75*
G02*
X125225000Y-72650000I0J-50000D01*
G01*
G37*
G36*
G01*
X125875000Y-72650000D02*
X125875000Y-74030000D01*
G75*
G02*
X125825000Y-74080000I-50000J0D01*
G01*
X125375000Y-74080000D01*
G75*
G02*
X125325000Y-74030000I0J50000D01*
G01*
X125325000Y-72650000D01*
G75*
G02*
X125375000Y-72600000I50000J0D01*
G01*
X125825000Y-72600000D01*
G75*
G02*
X125875000Y-72650000I0J-50000D01*
G01*
G37*
G36*
G01*
X126525000Y-72650000D02*
X126525000Y-74030000D01*
G75*
G02*
X126475000Y-74080000I-50000J0D01*
G01*
X126025000Y-74080000D01*
G75*
G02*
X125975000Y-74030000I0J50000D01*
G01*
X125975000Y-72650000D01*
G75*
G02*
X126025000Y-72600000I50000J0D01*
G01*
X126475000Y-72600000D01*
G75*
G02*
X126525000Y-72650000I0J-50000D01*
G01*
G37*
G36*
G01*
X127175000Y-72650000D02*
X127175000Y-74030000D01*
G75*
G02*
X127125000Y-74080000I-50000J0D01*
G01*
X126675000Y-74080000D01*
G75*
G02*
X126625000Y-74030000I0J50000D01*
G01*
X126625000Y-72650000D01*
G75*
G02*
X126675000Y-72600000I50000J0D01*
G01*
X127125000Y-72600000D01*
G75*
G02*
X127175000Y-72650000I0J-50000D01*
G01*
G37*
G36*
G01*
X127825000Y-72650000D02*
X127825000Y-74030000D01*
G75*
G02*
X127775000Y-74080000I-50000J0D01*
G01*
X127325000Y-74080000D01*
G75*
G02*
X127275000Y-74030000I0J50000D01*
G01*
X127275000Y-72650000D01*
G75*
G02*
X127325000Y-72600000I50000J0D01*
G01*
X127775000Y-72600000D01*
G75*
G02*
X127825000Y-72650000I0J-50000D01*
G01*
G37*
%TD*%
%TO.C,Ct2*%
G36*
G01*
X171912500Y-68525000D02*
X171387500Y-68525000D01*
G75*
G02*
X171125000Y-68262500I0J262500D01*
G01*
X171125000Y-67637500D01*
G75*
G02*
X171387500Y-67375000I262500J0D01*
G01*
X171912500Y-67375000D01*
G75*
G02*
X172175000Y-67637500I0J-262500D01*
G01*
X172175000Y-68262500D01*
G75*
G02*
X171912500Y-68525000I-262500J0D01*
G01*
G37*
G36*
G01*
X171912500Y-70275000D02*
X171387500Y-70275000D01*
G75*
G02*
X171125000Y-70012500I0J262500D01*
G01*
X171125000Y-69387500D01*
G75*
G02*
X171387500Y-69125000I262500J0D01*
G01*
X171912500Y-69125000D01*
G75*
G02*
X172175000Y-69387500I0J-262500D01*
G01*
X172175000Y-70012500D01*
G75*
G02*
X171912500Y-70275000I-262500J0D01*
G01*
G37*
%TD*%
%TO.C,Ct1*%
G36*
G01*
X170362500Y-68525000D02*
X169837500Y-68525000D01*
G75*
G02*
X169575000Y-68262500I0J262500D01*
G01*
X169575000Y-67637500D01*
G75*
G02*
X169837500Y-67375000I262500J0D01*
G01*
X170362500Y-67375000D01*
G75*
G02*
X170625000Y-67637500I0J-262500D01*
G01*
X170625000Y-68262500D01*
G75*
G02*
X170362500Y-68525000I-262500J0D01*
G01*
G37*
G36*
G01*
X170362500Y-70275000D02*
X169837500Y-70275000D01*
G75*
G02*
X169575000Y-70012500I0J262500D01*
G01*
X169575000Y-69387500D01*
G75*
G02*
X169837500Y-69125000I262500J0D01*
G01*
X170362500Y-69125000D01*
G75*
G02*
X170625000Y-69387500I0J-262500D01*
G01*
X170625000Y-70012500D01*
G75*
G02*
X170362500Y-70275000I-262500J0D01*
G01*
G37*
%TD*%
%TO.C,Cr2*%
G36*
G01*
X115125000Y-71862500D02*
X114600000Y-71862500D01*
G75*
G02*
X114337500Y-71600000I0J262500D01*
G01*
X114337500Y-70975000D01*
G75*
G02*
X114600000Y-70712500I262500J0D01*
G01*
X115125000Y-70712500D01*
G75*
G02*
X115387500Y-70975000I0J-262500D01*
G01*
X115387500Y-71600000D01*
G75*
G02*
X115125000Y-71862500I-262500J0D01*
G01*
G37*
G36*
G01*
X115125000Y-73612500D02*
X114600000Y-73612500D01*
G75*
G02*
X114337500Y-73350000I0J262500D01*
G01*
X114337500Y-72725000D01*
G75*
G02*
X114600000Y-72462500I262500J0D01*
G01*
X115125000Y-72462500D01*
G75*
G02*
X115387500Y-72725000I0J-262500D01*
G01*
X115387500Y-73350000D01*
G75*
G02*
X115125000Y-73612500I-262500J0D01*
G01*
G37*
%TD*%
%TO.C,Cr1*%
G36*
G01*
X110462500Y-71050000D02*
X110462500Y-71575000D01*
G75*
G02*
X110200000Y-71837500I-262500J0D01*
G01*
X109575000Y-71837500D01*
G75*
G02*
X109312500Y-71575000I0J262500D01*
G01*
X109312500Y-71050000D01*
G75*
G02*
X109575000Y-70787500I262500J0D01*
G01*
X110200000Y-70787500D01*
G75*
G02*
X110462500Y-71050000I0J-262500D01*
G01*
G37*
G36*
G01*
X112212500Y-71050000D02*
X112212500Y-71575000D01*
G75*
G02*
X111950000Y-71837500I-262500J0D01*
G01*
X111325000Y-71837500D01*
G75*
G02*
X111062500Y-71575000I0J262500D01*
G01*
X111062500Y-71050000D01*
G75*
G02*
X111325000Y-70787500I262500J0D01*
G01*
X111950000Y-70787500D01*
G75*
G02*
X112212500Y-71050000I0J-262500D01*
G01*
G37*
%TD*%
%TO.C,Cc2*%
G36*
G01*
X127462500Y-49800000D02*
X126937500Y-49800000D01*
G75*
G02*
X126675000Y-49537500I0J262500D01*
G01*
X126675000Y-48912500D01*
G75*
G02*
X126937500Y-48650000I262500J0D01*
G01*
X127462500Y-48650000D01*
G75*
G02*
X127725000Y-48912500I0J-262500D01*
G01*
X127725000Y-49537500D01*
G75*
G02*
X127462500Y-49800000I-262500J0D01*
G01*
G37*
G36*
G01*
X127462500Y-51550000D02*
X126937500Y-51550000D01*
G75*
G02*
X126675000Y-51287500I0J262500D01*
G01*
X126675000Y-50662500D01*
G75*
G02*
X126937500Y-50400000I262500J0D01*
G01*
X127462500Y-50400000D01*
G75*
G02*
X127725000Y-50662500I0J-262500D01*
G01*
X127725000Y-51287500D01*
G75*
G02*
X127462500Y-51550000I-262500J0D01*
G01*
G37*
%TD*%
%TO.C,Cc1*%
G36*
G01*
X124212500Y-49800000D02*
X123687500Y-49800000D01*
G75*
G02*
X123425000Y-49537500I0J262500D01*
G01*
X123425000Y-48912500D01*
G75*
G02*
X123687500Y-48650000I262500J0D01*
G01*
X124212500Y-48650000D01*
G75*
G02*
X124475000Y-48912500I0J-262500D01*
G01*
X124475000Y-49537500D01*
G75*
G02*
X124212500Y-49800000I-262500J0D01*
G01*
G37*
G36*
G01*
X124212500Y-51550000D02*
X123687500Y-51550000D01*
G75*
G02*
X123425000Y-51287500I0J262500D01*
G01*
X123425000Y-50662500D01*
G75*
G02*
X123687500Y-50400000I262500J0D01*
G01*
X124212500Y-50400000D01*
G75*
G02*
X124475000Y-50662500I0J-262500D01*
G01*
X124475000Y-51287500D01*
G75*
G02*
X124212500Y-51550000I-262500J0D01*
G01*
G37*
%TD*%
%TO.C,C7*%
G36*
G01*
X113187500Y-60075000D02*
X113712500Y-60075000D01*
G75*
G02*
X113975000Y-60337500I0J-262500D01*
G01*
X113975000Y-60962500D01*
G75*
G02*
X113712500Y-61225000I-262500J0D01*
G01*
X113187500Y-61225000D01*
G75*
G02*
X112925000Y-60962500I0J262500D01*
G01*
X112925000Y-60337500D01*
G75*
G02*
X113187500Y-60075000I262500J0D01*
G01*
G37*
G36*
G01*
X113187500Y-58325000D02*
X113712500Y-58325000D01*
G75*
G02*
X113975000Y-58587500I0J-262500D01*
G01*
X113975000Y-59212500D01*
G75*
G02*
X113712500Y-59475000I-262500J0D01*
G01*
X113187500Y-59475000D01*
G75*
G02*
X112925000Y-59212500I0J262500D01*
G01*
X112925000Y-58587500D01*
G75*
G02*
X113187500Y-58325000I262500J0D01*
G01*
G37*
%TD*%
%TO.C,C6*%
G36*
G01*
X119337500Y-72225000D02*
X118812500Y-72225000D01*
G75*
G02*
X118550000Y-71962500I0J262500D01*
G01*
X118550000Y-71337500D01*
G75*
G02*
X118812500Y-71075000I262500J0D01*
G01*
X119337500Y-71075000D01*
G75*
G02*
X119600000Y-71337500I0J-262500D01*
G01*
X119600000Y-71962500D01*
G75*
G02*
X119337500Y-72225000I-262500J0D01*
G01*
G37*
G36*
G01*
X119337500Y-73975000D02*
X118812500Y-73975000D01*
G75*
G02*
X118550000Y-73712500I0J262500D01*
G01*
X118550000Y-73087500D01*
G75*
G02*
X118812500Y-72825000I262500J0D01*
G01*
X119337500Y-72825000D01*
G75*
G02*
X119600000Y-73087500I0J-262500D01*
G01*
X119600000Y-73712500D01*
G75*
G02*
X119337500Y-73975000I-262500J0D01*
G01*
G37*
%TD*%
%TO.C,C5*%
G36*
G01*
X123925000Y-66237500D02*
X123925000Y-65712500D01*
G75*
G02*
X124187500Y-65450000I262500J0D01*
G01*
X124812500Y-65450000D01*
G75*
G02*
X125075000Y-65712500I0J-262500D01*
G01*
X125075000Y-66237500D01*
G75*
G02*
X124812500Y-66500000I-262500J0D01*
G01*
X124187500Y-66500000D01*
G75*
G02*
X123925000Y-66237500I0J262500D01*
G01*
G37*
G36*
G01*
X122175000Y-66237500D02*
X122175000Y-65712500D01*
G75*
G02*
X122437500Y-65450000I262500J0D01*
G01*
X123062500Y-65450000D01*
G75*
G02*
X123325000Y-65712500I0J-262500D01*
G01*
X123325000Y-66237500D01*
G75*
G02*
X123062500Y-66500000I-262500J0D01*
G01*
X122437500Y-66500000D01*
G75*
G02*
X122175000Y-66237500I0J262500D01*
G01*
G37*
%TD*%
%TO.C,C4*%
G36*
G01*
X120550000Y-59037500D02*
X120550000Y-59562500D01*
G75*
G02*
X120287500Y-59825000I-262500J0D01*
G01*
X119662500Y-59825000D01*
G75*
G02*
X119400000Y-59562500I0J262500D01*
G01*
X119400000Y-59037500D01*
G75*
G02*
X119662500Y-58775000I262500J0D01*
G01*
X120287500Y-58775000D01*
G75*
G02*
X120550000Y-59037500I0J-262500D01*
G01*
G37*
G36*
G01*
X122300000Y-59037500D02*
X122300000Y-59562500D01*
G75*
G02*
X122037500Y-59825000I-262500J0D01*
G01*
X121412500Y-59825000D01*
G75*
G02*
X121150000Y-59562500I0J262500D01*
G01*
X121150000Y-59037500D01*
G75*
G02*
X121412500Y-58775000I262500J0D01*
G01*
X122037500Y-58775000D01*
G75*
G02*
X122300000Y-59037500I0J-262500D01*
G01*
G37*
%TD*%
M02*
