G04 #@! TF.GenerationSoftware,KiCad,Pcbnew,6.0.0-unknown-920f128~86~ubuntu18.04.1*
G04 #@! TF.CreationDate,2019-07-19T14:58:54-04:00*
G04 #@! TF.ProjectId,FOD,464f442e-6b69-4636-9164-5f7063625858,rev?*
G04 #@! TF.SameCoordinates,Original*
G04 #@! TF.FileFunction,Copper,L2,Bot*
G04 #@! TF.FilePolarity,Positive*
%FSLAX46Y46*%
G04 Gerber Fmt 4.6, Leading zero omitted, Abs format (unit mm)*
G04 Created by KiCad (PCBNEW 6.0.0-unknown-920f128~86~ubuntu18.04.1) date 2019-07-19 14:58:54*
%MOMM*%
%LPD*%
G04 APERTURE LIST*
%ADD10C,1.600000*%
%ADD11R,1.600000X1.600000*%
%ADD12R,2.200000X1.050000*%
%ADD13R,1.050000X1.000000*%
%ADD14C,1.700000*%
%ADD15R,0.800000X0.900000*%
%ADD16C,1.000000*%
%ADD17C,0.100000*%
%ADD18R,2.200000X1.840000*%
%ADD19R,1.000000X1.500000*%
%ADD20R,1.000000X1.800000*%
%ADD21C,0.850000*%
%ADD22R,1.750000X1.800000*%
%ADD23R,2.500000X1.300000*%
%ADD24R,1.600000X0.550000*%
%ADD25R,0.550000X1.600000*%
%ADD26C,5.800000*%
%ADD27C,0.950000*%
%ADD28C,1.150000*%
%ADD29O,1.700000X1.700000*%
%ADD30R,1.700000X1.700000*%
%ADD31O,1.980000X3.960000*%
%ADD32R,1.980000X3.960000*%
%ADD33R,1.175000X1.900000*%
%ADD34R,2.375000X1.900000*%
%ADD35R,1.475000X2.100000*%
%ADD36R,0.450000X1.380000*%
%ADD37C,1.200000*%
%ADD38C,1.800000*%
%ADD39C,0.450000*%
%ADD40C,0.550000*%
%ADD41C,0.500000*%
%ADD42C,0.800000*%
%ADD43C,1.000000*%
%ADD44C,0.254000*%
G04 APERTURE END LIST*
D10*
X147000000Y-114960000D03*
X147000000Y-117500000D03*
D11*
X147000000Y-120040000D03*
D12*
X128725000Y-49465000D03*
D13*
X130250000Y-50940000D03*
D12*
X128725000Y-52415000D03*
D14*
X126000000Y-63650000D03*
X132500000Y-63650000D03*
X126000000Y-59150000D03*
X132500000Y-59150000D03*
D15*
X133100000Y-99900000D03*
X134050000Y-97900000D03*
X132150000Y-97900000D03*
D16*
X149250000Y-97773800D03*
D17*
G36*
X149650000Y-97273800D02*
G01*
X150350000Y-98273800D01*
X148150000Y-98273800D01*
X148850000Y-97273800D01*
X149650000Y-97273800D01*
X149650000Y-97273800D01*
G37*
D18*
X149250000Y-99183500D03*
D19*
X150750000Y-96370000D03*
D20*
X149250000Y-96516500D03*
D19*
X147750000Y-96370000D03*
D21*
X149250000Y-100517000D03*
D17*
G36*
X148750000Y-100942000D02*
G01*
X148150000Y-100092000D01*
X150350000Y-100092000D01*
X149750000Y-100942000D01*
X148750000Y-100942000D01*
X148750000Y-100942000D01*
G37*
D22*
X126500000Y-77650000D03*
X123250000Y-77650000D03*
D23*
X133080000Y-36940000D03*
X133080000Y-38940000D03*
X133080000Y-40940000D03*
X133080000Y-42940000D03*
X133080000Y-44940000D03*
X133080000Y-46940000D03*
X133080000Y-48940000D03*
X133080000Y-50940000D03*
X149080000Y-50940000D03*
X149080000Y-48940000D03*
X149080000Y-46940000D03*
X149080000Y-44940000D03*
X149080000Y-42940000D03*
X149080000Y-40940000D03*
X149080000Y-38940000D03*
X149080000Y-36940000D03*
D24*
X123025000Y-81650000D03*
X123025000Y-82450000D03*
X123025000Y-83250000D03*
X123025000Y-84050000D03*
X123025000Y-84850000D03*
X123025000Y-85650000D03*
X123025000Y-86450000D03*
X123025000Y-87250000D03*
D25*
X124475000Y-88700000D03*
X125275000Y-88700000D03*
X126075000Y-88700000D03*
X126875000Y-88700000D03*
X127675000Y-88700000D03*
X128475000Y-88700000D03*
X129275000Y-88700000D03*
X130075000Y-88700000D03*
D24*
X131525000Y-87250000D03*
X131525000Y-86450000D03*
X131525000Y-85650000D03*
X131525000Y-84850000D03*
X131525000Y-84050000D03*
X131525000Y-83250000D03*
X131525000Y-82450000D03*
X131525000Y-81650000D03*
D25*
X130075000Y-80200000D03*
X129275000Y-80200000D03*
X128475000Y-80200000D03*
X127675000Y-80200000D03*
X126875000Y-80200000D03*
X126075000Y-80200000D03*
X125275000Y-80200000D03*
X124475000Y-80200000D03*
D26*
X116985000Y-111095000D03*
X116985000Y-36795000D03*
D10*
X113115000Y-105785000D03*
X110575000Y-105785000D03*
X113115000Y-103245000D03*
X110575000Y-103245000D03*
X113115000Y-100705000D03*
X110575000Y-100705000D03*
X113115000Y-98165000D03*
X110575000Y-98165000D03*
X113115000Y-95625000D03*
X110575000Y-95625000D03*
X113115000Y-93085000D03*
X110575000Y-93085000D03*
X113115000Y-90545000D03*
X110575000Y-90545000D03*
X113115000Y-88005000D03*
X110575000Y-88005000D03*
X113115000Y-85465000D03*
X110575000Y-85465000D03*
X113115000Y-82925000D03*
X110575000Y-82925000D03*
X113115000Y-80385000D03*
X110575000Y-80385000D03*
X113115000Y-77845000D03*
X110575000Y-77845000D03*
X113115000Y-75305000D03*
X110575000Y-75305000D03*
X113115000Y-72765000D03*
X110575000Y-72765000D03*
X113115000Y-70225000D03*
X110575000Y-70225000D03*
X113115000Y-67685000D03*
X110575000Y-67685000D03*
X113115000Y-65145000D03*
X110575000Y-65145000D03*
X113115000Y-62605000D03*
X110575000Y-62605000D03*
X113115000Y-60065000D03*
X110575000Y-60065000D03*
X113115000Y-57525000D03*
X110575000Y-57525000D03*
X113115000Y-54985000D03*
X110575000Y-54985000D03*
X113115000Y-52445000D03*
X110575000Y-52445000D03*
X113115000Y-49905000D03*
X110575000Y-49905000D03*
X113115000Y-47365000D03*
X110575000Y-47365000D03*
X113115000Y-44825000D03*
X110575000Y-44825000D03*
X113115000Y-42285000D03*
X110575000Y-42285000D03*
D11*
X118195000Y-105785000D03*
D10*
X115655000Y-105785000D03*
X118195000Y-103245000D03*
X115655000Y-103245000D03*
X118195000Y-100705000D03*
X115655000Y-100705000D03*
X118195000Y-98165000D03*
X115655000Y-98165000D03*
X118195000Y-95625000D03*
X115655000Y-95625000D03*
X118195000Y-93085000D03*
X115655000Y-93085000D03*
X118195000Y-90545000D03*
X115655000Y-90545000D03*
X118195000Y-88005000D03*
X115655000Y-88005000D03*
X118195000Y-85465000D03*
X115655000Y-85465000D03*
X118195000Y-82925000D03*
X115655000Y-82925000D03*
X118195000Y-80385000D03*
X115655000Y-80385000D03*
X118195000Y-77845000D03*
X115655000Y-77845000D03*
X118195000Y-75305000D03*
X115655000Y-75305000D03*
X118195000Y-72765000D03*
X115655000Y-72765000D03*
X118195000Y-70225000D03*
X115655000Y-70225000D03*
X118195000Y-67685000D03*
X115655000Y-67685000D03*
X118195000Y-65145000D03*
X115655000Y-65145000D03*
X118195000Y-62605000D03*
X115655000Y-62605000D03*
X118195000Y-60065000D03*
X115655000Y-60065000D03*
X118195000Y-57525000D03*
X115655000Y-57525000D03*
X118195000Y-54985000D03*
X115655000Y-54985000D03*
X118195000Y-52445000D03*
X115655000Y-52445000D03*
X118195000Y-49905000D03*
X115655000Y-49905000D03*
X118195000Y-47365000D03*
X115655000Y-47365000D03*
X118195000Y-44825000D03*
X115655000Y-44825000D03*
X118195000Y-42285000D03*
X115655000Y-42285000D03*
D26*
X110595000Y-37205000D03*
X110595000Y-110865000D03*
D17*
G36*
X134353387Y-95893079D02*
G01*
X134430438Y-95944562D01*
X134481921Y-96021613D01*
X134500000Y-96112500D01*
X134500000Y-96587500D01*
X134481921Y-96678387D01*
X134430438Y-96755438D01*
X134353387Y-96806921D01*
X134262500Y-96825000D01*
X133687500Y-96825000D01*
X133596613Y-96806921D01*
X133519562Y-96755438D01*
X133468079Y-96678387D01*
X133450000Y-96587500D01*
X133450000Y-96112500D01*
X133468079Y-96021613D01*
X133519562Y-95944562D01*
X133596613Y-95893079D01*
X133687500Y-95875000D01*
X134262500Y-95875000D01*
X134353387Y-95893079D01*
X134353387Y-95893079D01*
G37*
D27*
X133975000Y-96350000D03*
D17*
G36*
X132603387Y-95893079D02*
G01*
X132680438Y-95944562D01*
X132731921Y-96021613D01*
X132750000Y-96112500D01*
X132750000Y-96587500D01*
X132731921Y-96678387D01*
X132680438Y-96755438D01*
X132603387Y-96806921D01*
X132512500Y-96825000D01*
X131937500Y-96825000D01*
X131846613Y-96806921D01*
X131769562Y-96755438D01*
X131718079Y-96678387D01*
X131700000Y-96587500D01*
X131700000Y-96112500D01*
X131718079Y-96021613D01*
X131769562Y-95944562D01*
X131846613Y-95893079D01*
X131937500Y-95875000D01*
X132512500Y-95875000D01*
X132603387Y-95893079D01*
X132603387Y-95893079D01*
G37*
D27*
X132225000Y-96350000D03*
D17*
G36*
X122028387Y-100368079D02*
G01*
X122105438Y-100419562D01*
X122156921Y-100496613D01*
X122175000Y-100587500D01*
X122175000Y-101162500D01*
X122156921Y-101253387D01*
X122105438Y-101330438D01*
X122028387Y-101381921D01*
X121937500Y-101400000D01*
X121462500Y-101400000D01*
X121371613Y-101381921D01*
X121294562Y-101330438D01*
X121243079Y-101253387D01*
X121225000Y-101162500D01*
X121225000Y-100587500D01*
X121243079Y-100496613D01*
X121294562Y-100419562D01*
X121371613Y-100368079D01*
X121462500Y-100350000D01*
X121937500Y-100350000D01*
X122028387Y-100368079D01*
X122028387Y-100368079D01*
G37*
D27*
X121700000Y-100875000D03*
D17*
G36*
X122028387Y-98618079D02*
G01*
X122105438Y-98669562D01*
X122156921Y-98746613D01*
X122175000Y-98837500D01*
X122175000Y-99412500D01*
X122156921Y-99503387D01*
X122105438Y-99580438D01*
X122028387Y-99631921D01*
X121937500Y-99650000D01*
X121462500Y-99650000D01*
X121371613Y-99631921D01*
X121294562Y-99580438D01*
X121243079Y-99503387D01*
X121225000Y-99412500D01*
X121225000Y-98837500D01*
X121243079Y-98746613D01*
X121294562Y-98669562D01*
X121371613Y-98618079D01*
X121462500Y-98600000D01*
X121937500Y-98600000D01*
X122028387Y-98618079D01*
X122028387Y-98618079D01*
G37*
D27*
X121700000Y-99125000D03*
D17*
G36*
X123053387Y-111943079D02*
G01*
X123130438Y-111994562D01*
X123181921Y-112071613D01*
X123200000Y-112162500D01*
X123200000Y-112637500D01*
X123181921Y-112728387D01*
X123130438Y-112805438D01*
X123053387Y-112856921D01*
X122962500Y-112875000D01*
X122387500Y-112875000D01*
X122296613Y-112856921D01*
X122219562Y-112805438D01*
X122168079Y-112728387D01*
X122150000Y-112637500D01*
X122150000Y-112162500D01*
X122168079Y-112071613D01*
X122219562Y-111994562D01*
X122296613Y-111943079D01*
X122387500Y-111925000D01*
X122962500Y-111925000D01*
X123053387Y-111943079D01*
X123053387Y-111943079D01*
G37*
D27*
X122675000Y-112400000D03*
D17*
G36*
X121303387Y-111943079D02*
G01*
X121380438Y-111994562D01*
X121431921Y-112071613D01*
X121450000Y-112162500D01*
X121450000Y-112637500D01*
X121431921Y-112728387D01*
X121380438Y-112805438D01*
X121303387Y-112856921D01*
X121212500Y-112875000D01*
X120637500Y-112875000D01*
X120546613Y-112856921D01*
X120469562Y-112805438D01*
X120418079Y-112728387D01*
X120400000Y-112637500D01*
X120400000Y-112162500D01*
X120418079Y-112071613D01*
X120469562Y-111994562D01*
X120546613Y-111943079D01*
X120637500Y-111925000D01*
X121212500Y-111925000D01*
X121303387Y-111943079D01*
X121303387Y-111943079D01*
G37*
D27*
X120925000Y-112400000D03*
D17*
G36*
X137345671Y-82469030D02*
G01*
X137426777Y-82523223D01*
X137480970Y-82604329D01*
X137500000Y-82699999D01*
X137500000Y-83350001D01*
X137480970Y-83445671D01*
X137426777Y-83526777D01*
X137345671Y-83580970D01*
X137250001Y-83600000D01*
X136349999Y-83600000D01*
X136254329Y-83580970D01*
X136173223Y-83526777D01*
X136119030Y-83445671D01*
X136100000Y-83350001D01*
X136100000Y-82699999D01*
X136119030Y-82604329D01*
X136173223Y-82523223D01*
X136254329Y-82469030D01*
X136349999Y-82450000D01*
X137250001Y-82450000D01*
X137345671Y-82469030D01*
X137345671Y-82469030D01*
G37*
D28*
X136800000Y-83025000D03*
D17*
G36*
X137345671Y-80419030D02*
G01*
X137426777Y-80473223D01*
X137480970Y-80554329D01*
X137500000Y-80649999D01*
X137500000Y-81300001D01*
X137480970Y-81395671D01*
X137426777Y-81476777D01*
X137345671Y-81530970D01*
X137250001Y-81550000D01*
X136349999Y-81550000D01*
X136254329Y-81530970D01*
X136173223Y-81476777D01*
X136119030Y-81395671D01*
X136100000Y-81300001D01*
X136100000Y-80649999D01*
X136119030Y-80554329D01*
X136173223Y-80473223D01*
X136254329Y-80419030D01*
X136349999Y-80400000D01*
X137250001Y-80400000D01*
X137345671Y-80419030D01*
X137345671Y-80419030D01*
G37*
D28*
X136800000Y-80975000D03*
D29*
X149250000Y-103070000D03*
X149250000Y-105610000D03*
D30*
X149250000Y-108150000D03*
D29*
X121490000Y-67000000D03*
X124030000Y-67000000D03*
X126570000Y-67000000D03*
X129110000Y-67000000D03*
D30*
X131650000Y-67000000D03*
D31*
X133100000Y-107250000D03*
D32*
X138100000Y-107250000D03*
D33*
X123710000Y-119850000D03*
X125390000Y-119850000D03*
D34*
X121640000Y-119850000D03*
X127460000Y-119850000D03*
D35*
X122087500Y-117550000D03*
X127012500Y-117550000D03*
D36*
X123250000Y-117190000D03*
X123900000Y-117190000D03*
X124550000Y-117190000D03*
X125200000Y-117190000D03*
X125850000Y-117190000D03*
D17*
G36*
X130695671Y-93719030D02*
G01*
X130776777Y-93773223D01*
X130830970Y-93854329D01*
X130850000Y-93949999D01*
X130850000Y-94600001D01*
X130830970Y-94695671D01*
X130776777Y-94776777D01*
X130695671Y-94830970D01*
X130600001Y-94850000D01*
X129699999Y-94850000D01*
X129604329Y-94830970D01*
X129523223Y-94776777D01*
X129469030Y-94695671D01*
X129450000Y-94600001D01*
X129450000Y-93949999D01*
X129469030Y-93854329D01*
X129523223Y-93773223D01*
X129604329Y-93719030D01*
X129699999Y-93700000D01*
X130600001Y-93700000D01*
X130695671Y-93719030D01*
X130695671Y-93719030D01*
G37*
D28*
X130150000Y-94275000D03*
D17*
G36*
X130695671Y-95769030D02*
G01*
X130776777Y-95823223D01*
X130830970Y-95904329D01*
X130850000Y-95999999D01*
X130850000Y-96650001D01*
X130830970Y-96745671D01*
X130776777Y-96826777D01*
X130695671Y-96880970D01*
X130600001Y-96900000D01*
X129699999Y-96900000D01*
X129604329Y-96880970D01*
X129523223Y-96826777D01*
X129469030Y-96745671D01*
X129450000Y-96650001D01*
X129450000Y-95999999D01*
X129469030Y-95904329D01*
X129523223Y-95823223D01*
X129604329Y-95769030D01*
X129699999Y-95750000D01*
X130600001Y-95750000D01*
X130695671Y-95769030D01*
X130695671Y-95769030D01*
G37*
D28*
X130150000Y-96325000D03*
D17*
G36*
X151078387Y-91218079D02*
G01*
X151155438Y-91269562D01*
X151206921Y-91346613D01*
X151225000Y-91437500D01*
X151225000Y-92012500D01*
X151206921Y-92103387D01*
X151155438Y-92180438D01*
X151078387Y-92231921D01*
X150987500Y-92250000D01*
X150512500Y-92250000D01*
X150421613Y-92231921D01*
X150344562Y-92180438D01*
X150293079Y-92103387D01*
X150275000Y-92012500D01*
X150275000Y-91437500D01*
X150293079Y-91346613D01*
X150344562Y-91269562D01*
X150421613Y-91218079D01*
X150512500Y-91200000D01*
X150987500Y-91200000D01*
X151078387Y-91218079D01*
X151078387Y-91218079D01*
G37*
D27*
X150750000Y-91725000D03*
D17*
G36*
X151078387Y-92968079D02*
G01*
X151155438Y-93019562D01*
X151206921Y-93096613D01*
X151225000Y-93187500D01*
X151225000Y-93762500D01*
X151206921Y-93853387D01*
X151155438Y-93930438D01*
X151078387Y-93981921D01*
X150987500Y-94000000D01*
X150512500Y-94000000D01*
X150421613Y-93981921D01*
X150344562Y-93930438D01*
X150293079Y-93853387D01*
X150275000Y-93762500D01*
X150275000Y-93187500D01*
X150293079Y-93096613D01*
X150344562Y-93019562D01*
X150421613Y-92968079D01*
X150512500Y-92950000D01*
X150987500Y-92950000D01*
X151078387Y-92968079D01*
X151078387Y-92968079D01*
G37*
D27*
X150750000Y-93475000D03*
D17*
G36*
X147853387Y-94093079D02*
G01*
X147930438Y-94144562D01*
X147981921Y-94221613D01*
X148000000Y-94312500D01*
X148000000Y-94787500D01*
X147981921Y-94878387D01*
X147930438Y-94955438D01*
X147853387Y-95006921D01*
X147762500Y-95025000D01*
X147187500Y-95025000D01*
X147096613Y-95006921D01*
X147019562Y-94955438D01*
X146968079Y-94878387D01*
X146950000Y-94787500D01*
X146950000Y-94312500D01*
X146968079Y-94221613D01*
X147019562Y-94144562D01*
X147096613Y-94093079D01*
X147187500Y-94075000D01*
X147762500Y-94075000D01*
X147853387Y-94093079D01*
X147853387Y-94093079D01*
G37*
D27*
X147475000Y-94550000D03*
D17*
G36*
X149603387Y-94093079D02*
G01*
X149680438Y-94144562D01*
X149731921Y-94221613D01*
X149750000Y-94312500D01*
X149750000Y-94787500D01*
X149731921Y-94878387D01*
X149680438Y-94955438D01*
X149603387Y-95006921D01*
X149512500Y-95025000D01*
X148937500Y-95025000D01*
X148846613Y-95006921D01*
X148769562Y-94955438D01*
X148718079Y-94878387D01*
X148700000Y-94787500D01*
X148700000Y-94312500D01*
X148718079Y-94221613D01*
X148769562Y-94144562D01*
X148846613Y-94093079D01*
X148937500Y-94075000D01*
X149512500Y-94075000D01*
X149603387Y-94093079D01*
X149603387Y-94093079D01*
G37*
D27*
X149225000Y-94550000D03*
D17*
G36*
X126828387Y-73318079D02*
G01*
X126905438Y-73369562D01*
X126956921Y-73446613D01*
X126975000Y-73537500D01*
X126975000Y-74112500D01*
X126956921Y-74203387D01*
X126905438Y-74280438D01*
X126828387Y-74331921D01*
X126737500Y-74350000D01*
X126262500Y-74350000D01*
X126171613Y-74331921D01*
X126094562Y-74280438D01*
X126043079Y-74203387D01*
X126025000Y-74112500D01*
X126025000Y-73537500D01*
X126043079Y-73446613D01*
X126094562Y-73369562D01*
X126171613Y-73318079D01*
X126262500Y-73300000D01*
X126737500Y-73300000D01*
X126828387Y-73318079D01*
X126828387Y-73318079D01*
G37*
D27*
X126500000Y-73825000D03*
D17*
G36*
X126828387Y-75068079D02*
G01*
X126905438Y-75119562D01*
X126956921Y-75196613D01*
X126975000Y-75287500D01*
X126975000Y-75862500D01*
X126956921Y-75953387D01*
X126905438Y-76030438D01*
X126828387Y-76081921D01*
X126737500Y-76100000D01*
X126262500Y-76100000D01*
X126171613Y-76081921D01*
X126094562Y-76030438D01*
X126043079Y-75953387D01*
X126025000Y-75862500D01*
X126025000Y-75287500D01*
X126043079Y-75196613D01*
X126094562Y-75119562D01*
X126171613Y-75068079D01*
X126262500Y-75050000D01*
X126737500Y-75050000D01*
X126828387Y-75068079D01*
X126828387Y-75068079D01*
G37*
D27*
X126500000Y-75575000D03*
D17*
G36*
X123578387Y-73268079D02*
G01*
X123655438Y-73319562D01*
X123706921Y-73396613D01*
X123725000Y-73487500D01*
X123725000Y-74062500D01*
X123706921Y-74153387D01*
X123655438Y-74230438D01*
X123578387Y-74281921D01*
X123487500Y-74300000D01*
X123012500Y-74300000D01*
X122921613Y-74281921D01*
X122844562Y-74230438D01*
X122793079Y-74153387D01*
X122775000Y-74062500D01*
X122775000Y-73487500D01*
X122793079Y-73396613D01*
X122844562Y-73319562D01*
X122921613Y-73268079D01*
X123012500Y-73250000D01*
X123487500Y-73250000D01*
X123578387Y-73268079D01*
X123578387Y-73268079D01*
G37*
D27*
X123250000Y-73775000D03*
D17*
G36*
X123578387Y-75018079D02*
G01*
X123655438Y-75069562D01*
X123706921Y-75146613D01*
X123725000Y-75237500D01*
X123725000Y-75812500D01*
X123706921Y-75903387D01*
X123655438Y-75980438D01*
X123578387Y-76031921D01*
X123487500Y-76050000D01*
X123012500Y-76050000D01*
X122921613Y-76031921D01*
X122844562Y-75980438D01*
X122793079Y-75903387D01*
X122775000Y-75812500D01*
X122775000Y-75237500D01*
X122793079Y-75146613D01*
X122844562Y-75069562D01*
X122921613Y-75018079D01*
X123012500Y-75000000D01*
X123487500Y-75000000D01*
X123578387Y-75018079D01*
X123578387Y-75018079D01*
G37*
D27*
X123250000Y-75525000D03*
D17*
G36*
X135378387Y-82368079D02*
G01*
X135455438Y-82419562D01*
X135506921Y-82496613D01*
X135525000Y-82587500D01*
X135525000Y-83162500D01*
X135506921Y-83253387D01*
X135455438Y-83330438D01*
X135378387Y-83381921D01*
X135287500Y-83400000D01*
X134812500Y-83400000D01*
X134721613Y-83381921D01*
X134644562Y-83330438D01*
X134593079Y-83253387D01*
X134575000Y-83162500D01*
X134575000Y-82587500D01*
X134593079Y-82496613D01*
X134644562Y-82419562D01*
X134721613Y-82368079D01*
X134812500Y-82350000D01*
X135287500Y-82350000D01*
X135378387Y-82368079D01*
X135378387Y-82368079D01*
G37*
D27*
X135050000Y-82875000D03*
D17*
G36*
X135378387Y-80618079D02*
G01*
X135455438Y-80669562D01*
X135506921Y-80746613D01*
X135525000Y-80837500D01*
X135525000Y-81412500D01*
X135506921Y-81503387D01*
X135455438Y-81580438D01*
X135378387Y-81631921D01*
X135287500Y-81650000D01*
X134812500Y-81650000D01*
X134721613Y-81631921D01*
X134644562Y-81580438D01*
X134593079Y-81503387D01*
X134575000Y-81412500D01*
X134575000Y-80837500D01*
X134593079Y-80746613D01*
X134644562Y-80669562D01*
X134721613Y-80618079D01*
X134812500Y-80600000D01*
X135287500Y-80600000D01*
X135378387Y-80618079D01*
X135378387Y-80618079D01*
G37*
D27*
X135050000Y-81125000D03*
D17*
G36*
X133828387Y-82368079D02*
G01*
X133905438Y-82419562D01*
X133956921Y-82496613D01*
X133975000Y-82587500D01*
X133975000Y-83162500D01*
X133956921Y-83253387D01*
X133905438Y-83330438D01*
X133828387Y-83381921D01*
X133737500Y-83400000D01*
X133262500Y-83400000D01*
X133171613Y-83381921D01*
X133094562Y-83330438D01*
X133043079Y-83253387D01*
X133025000Y-83162500D01*
X133025000Y-82587500D01*
X133043079Y-82496613D01*
X133094562Y-82419562D01*
X133171613Y-82368079D01*
X133262500Y-82350000D01*
X133737500Y-82350000D01*
X133828387Y-82368079D01*
X133828387Y-82368079D01*
G37*
D27*
X133500000Y-82875000D03*
D17*
G36*
X133828387Y-80618079D02*
G01*
X133905438Y-80669562D01*
X133956921Y-80746613D01*
X133975000Y-80837500D01*
X133975000Y-81412500D01*
X133956921Y-81503387D01*
X133905438Y-81580438D01*
X133828387Y-81631921D01*
X133737500Y-81650000D01*
X133262500Y-81650000D01*
X133171613Y-81631921D01*
X133094562Y-81580438D01*
X133043079Y-81503387D01*
X133025000Y-81412500D01*
X133025000Y-80837500D01*
X133043079Y-80746613D01*
X133094562Y-80669562D01*
X133171613Y-80618079D01*
X133262500Y-80600000D01*
X133737500Y-80600000D01*
X133828387Y-80618079D01*
X133828387Y-80618079D01*
G37*
D27*
X133500000Y-81125000D03*
D17*
G36*
X123053387Y-113493079D02*
G01*
X123130438Y-113544562D01*
X123181921Y-113621613D01*
X123200000Y-113712500D01*
X123200000Y-114187500D01*
X123181921Y-114278387D01*
X123130438Y-114355438D01*
X123053387Y-114406921D01*
X122962500Y-114425000D01*
X122387500Y-114425000D01*
X122296613Y-114406921D01*
X122219562Y-114355438D01*
X122168079Y-114278387D01*
X122150000Y-114187500D01*
X122150000Y-113712500D01*
X122168079Y-113621613D01*
X122219562Y-113544562D01*
X122296613Y-113493079D01*
X122387500Y-113475000D01*
X122962500Y-113475000D01*
X123053387Y-113493079D01*
X123053387Y-113493079D01*
G37*
D27*
X122675000Y-113950000D03*
D17*
G36*
X121303387Y-113493079D02*
G01*
X121380438Y-113544562D01*
X121431921Y-113621613D01*
X121450000Y-113712500D01*
X121450000Y-114187500D01*
X121431921Y-114278387D01*
X121380438Y-114355438D01*
X121303387Y-114406921D01*
X121212500Y-114425000D01*
X120637500Y-114425000D01*
X120546613Y-114406921D01*
X120469562Y-114355438D01*
X120418079Y-114278387D01*
X120400000Y-114187500D01*
X120400000Y-113712500D01*
X120418079Y-113621613D01*
X120469562Y-113544562D01*
X120546613Y-113493079D01*
X120637500Y-113475000D01*
X121212500Y-113475000D01*
X121303387Y-113493079D01*
X121303387Y-113493079D01*
G37*
D27*
X120925000Y-113950000D03*
D17*
G36*
X120678387Y-83418079D02*
G01*
X120755438Y-83469562D01*
X120806921Y-83546613D01*
X120825000Y-83637500D01*
X120825000Y-84212500D01*
X120806921Y-84303387D01*
X120755438Y-84380438D01*
X120678387Y-84431921D01*
X120587500Y-84450000D01*
X120112500Y-84450000D01*
X120021613Y-84431921D01*
X119944562Y-84380438D01*
X119893079Y-84303387D01*
X119875000Y-84212500D01*
X119875000Y-83637500D01*
X119893079Y-83546613D01*
X119944562Y-83469562D01*
X120021613Y-83418079D01*
X120112500Y-83400000D01*
X120587500Y-83400000D01*
X120678387Y-83418079D01*
X120678387Y-83418079D01*
G37*
D27*
X120350000Y-83925000D03*
D17*
G36*
X120678387Y-81668079D02*
G01*
X120755438Y-81719562D01*
X120806921Y-81796613D01*
X120825000Y-81887500D01*
X120825000Y-82462500D01*
X120806921Y-82553387D01*
X120755438Y-82630438D01*
X120678387Y-82681921D01*
X120587500Y-82700000D01*
X120112500Y-82700000D01*
X120021613Y-82681921D01*
X119944562Y-82630438D01*
X119893079Y-82553387D01*
X119875000Y-82462500D01*
X119875000Y-81887500D01*
X119893079Y-81796613D01*
X119944562Y-81719562D01*
X120021613Y-81668079D01*
X120112500Y-81650000D01*
X120587500Y-81650000D01*
X120678387Y-81668079D01*
X120678387Y-81668079D01*
G37*
D27*
X120350000Y-82175000D03*
D17*
G36*
X130828387Y-46318079D02*
G01*
X130905438Y-46369562D01*
X130956921Y-46446613D01*
X130975000Y-46537500D01*
X130975000Y-47112500D01*
X130956921Y-47203387D01*
X130905438Y-47280438D01*
X130828387Y-47331921D01*
X130737500Y-47350000D01*
X130262500Y-47350000D01*
X130171613Y-47331921D01*
X130094562Y-47280438D01*
X130043079Y-47203387D01*
X130025000Y-47112500D01*
X130025000Y-46537500D01*
X130043079Y-46446613D01*
X130094562Y-46369562D01*
X130171613Y-46318079D01*
X130262500Y-46300000D01*
X130737500Y-46300000D01*
X130828387Y-46318079D01*
X130828387Y-46318079D01*
G37*
D27*
X130500000Y-46825000D03*
D17*
G36*
X130828387Y-44568079D02*
G01*
X130905438Y-44619562D01*
X130956921Y-44696613D01*
X130975000Y-44787500D01*
X130975000Y-45362500D01*
X130956921Y-45453387D01*
X130905438Y-45530438D01*
X130828387Y-45581921D01*
X130737500Y-45600000D01*
X130262500Y-45600000D01*
X130171613Y-45581921D01*
X130094562Y-45530438D01*
X130043079Y-45453387D01*
X130025000Y-45362500D01*
X130025000Y-44787500D01*
X130043079Y-44696613D01*
X130094562Y-44619562D01*
X130171613Y-44568079D01*
X130262500Y-44550000D01*
X130737500Y-44550000D01*
X130828387Y-44568079D01*
X130828387Y-44568079D01*
G37*
D27*
X130500000Y-45075000D03*
D17*
G36*
X129278387Y-46318079D02*
G01*
X129355438Y-46369562D01*
X129406921Y-46446613D01*
X129425000Y-46537500D01*
X129425000Y-47112500D01*
X129406921Y-47203387D01*
X129355438Y-47280438D01*
X129278387Y-47331921D01*
X129187500Y-47350000D01*
X128712500Y-47350000D01*
X128621613Y-47331921D01*
X128544562Y-47280438D01*
X128493079Y-47203387D01*
X128475000Y-47112500D01*
X128475000Y-46537500D01*
X128493079Y-46446613D01*
X128544562Y-46369562D01*
X128621613Y-46318079D01*
X128712500Y-46300000D01*
X129187500Y-46300000D01*
X129278387Y-46318079D01*
X129278387Y-46318079D01*
G37*
D27*
X128950000Y-46825000D03*
D17*
G36*
X129278387Y-44568079D02*
G01*
X129355438Y-44619562D01*
X129406921Y-44696613D01*
X129425000Y-44787500D01*
X129425000Y-45362500D01*
X129406921Y-45453387D01*
X129355438Y-45530438D01*
X129278387Y-45581921D01*
X129187500Y-45600000D01*
X128712500Y-45600000D01*
X128621613Y-45581921D01*
X128544562Y-45530438D01*
X128493079Y-45453387D01*
X128475000Y-45362500D01*
X128475000Y-44787500D01*
X128493079Y-44696613D01*
X128544562Y-44619562D01*
X128621613Y-44568079D01*
X128712500Y-44550000D01*
X129187500Y-44550000D01*
X129278387Y-44568079D01*
X129278387Y-44568079D01*
G37*
D27*
X128950000Y-45075000D03*
D37*
X120950000Y-64350000D03*
D16*
X122700000Y-71450000D03*
D37*
X126600000Y-70850000D03*
X127250000Y-45650000D03*
X126500000Y-56950000D03*
X128150000Y-59400000D03*
X144950000Y-50950000D03*
X120200000Y-45050000D03*
D38*
X120500000Y-42850000D03*
D37*
X141950000Y-85950000D03*
X133950000Y-95150000D03*
X135550000Y-97950000D03*
D16*
X137250000Y-90600000D03*
D37*
X139650000Y-88250000D03*
X129605000Y-77595000D03*
X140050000Y-51650000D03*
X137850000Y-51200000D03*
X136675000Y-57250000D03*
X141850000Y-110200000D03*
X128490678Y-92933157D03*
X129600000Y-91800000D03*
X130600000Y-90650000D03*
X132050000Y-90500000D03*
X133350000Y-87200000D03*
X133150000Y-88750000D03*
X151500000Y-50950000D03*
X151600000Y-36950000D03*
X128950000Y-48200000D03*
X130500000Y-48200000D03*
X133100000Y-101550000D03*
X123050000Y-94550000D03*
X127350000Y-94150000D03*
X126300000Y-92950000D03*
X122900000Y-93050000D03*
X127400000Y-106800000D03*
X120850000Y-110400000D03*
X120575503Y-84870262D03*
X126250000Y-109400000D03*
X123500000Y-109400000D03*
X121600000Y-97450000D03*
X120400000Y-88700000D03*
X125650000Y-84850000D03*
X121300000Y-87250000D03*
X125850000Y-83250000D03*
X121000000Y-80600000D03*
X125000000Y-73850000D03*
X124850000Y-75650000D03*
X121500000Y-69600000D03*
X152350000Y-100400000D03*
X149050000Y-91750000D03*
X151150000Y-104300000D03*
X128700000Y-54050000D03*
X124950000Y-49450000D03*
D38*
X133100000Y-117350000D03*
X138100000Y-117350000D03*
D37*
X119850000Y-108250000D03*
X133050000Y-53350000D03*
X128600000Y-55800000D03*
X146700000Y-36900000D03*
X145050000Y-116200000D03*
X144525000Y-96375000D03*
X144525000Y-94550000D03*
D16*
X144550000Y-88900000D03*
D37*
X135600000Y-43100000D03*
X142600000Y-43525000D03*
X137900000Y-48950000D03*
D16*
X134225000Y-83750000D03*
D37*
X145200000Y-112650000D03*
D16*
X119525000Y-71475000D03*
X122200000Y-111300000D03*
X135250000Y-83850000D03*
D37*
X124950000Y-52425000D03*
X134300000Y-55675000D03*
D39*
X111800001Y-66459999D02*
X118840001Y-66459999D01*
X110575000Y-67685000D02*
X111800001Y-66459999D01*
X118840001Y-66459999D02*
X120950000Y-64350000D01*
X123250000Y-72000000D02*
X122700000Y-71450000D01*
X123250000Y-73775000D02*
X123250000Y-72000000D01*
D40*
X128950000Y-45075000D02*
X127825000Y-45075000D01*
X127825000Y-45075000D02*
X127250000Y-45650000D01*
X128150000Y-58600000D02*
X126500000Y-56950000D01*
X128150000Y-59400000D02*
X128150000Y-58600000D01*
D39*
X144960000Y-50940000D02*
X144950000Y-50950000D01*
X149080000Y-50940000D02*
X144960000Y-50940000D01*
D41*
X116905001Y-46075001D02*
X119174999Y-46075001D01*
X115655000Y-44825000D02*
X116905001Y-46075001D01*
X119174999Y-46075001D02*
X120200000Y-45050000D01*
D39*
X133975000Y-95175000D02*
X133950000Y-95150000D01*
X133975000Y-96350000D02*
X133975000Y-95175000D01*
X135500000Y-97900000D02*
X135550000Y-97950000D01*
X134050000Y-97900000D02*
X135500000Y-97900000D01*
D40*
X138450000Y-80050000D02*
X135995000Y-77595000D01*
X135995000Y-77595000D02*
X129605000Y-77595000D01*
X138450000Y-82175000D02*
X138450000Y-80050000D01*
X136800000Y-83025000D02*
X137600000Y-83025000D01*
X137600000Y-83025000D02*
X138450000Y-82175000D01*
X147280000Y-38940000D02*
X149080000Y-38940000D01*
X147211472Y-38940000D02*
X147280000Y-38940000D01*
X136675000Y-57250000D02*
X146985000Y-46940000D01*
X146985000Y-46940000D02*
X149080000Y-46940000D01*
X140050000Y-51650000D02*
X146760000Y-44940000D01*
X146760000Y-44940000D02*
X149080000Y-44940000D01*
X138925001Y-51185673D02*
X147170674Y-42940000D01*
X147170674Y-42940000D02*
X149080000Y-42940000D01*
X137850000Y-51200000D02*
X148110000Y-40940000D01*
X148110000Y-40940000D02*
X149080000Y-40940000D01*
X134690000Y-40940000D02*
X133080000Y-40940000D01*
D39*
X133500000Y-83350000D02*
X133900000Y-83750000D01*
X133500000Y-82875000D02*
X133500000Y-83350000D01*
X133500000Y-82875000D02*
X135050000Y-82875000D01*
D40*
X133651676Y-84850000D02*
X141850000Y-93048324D01*
X131525000Y-84850000D02*
X133651676Y-84850000D01*
X141850000Y-93048324D02*
X141850000Y-110200000D01*
X131525000Y-82450000D02*
X133075000Y-82450000D01*
X133075000Y-82450000D02*
X133500000Y-82875000D01*
X131525000Y-85650000D02*
X131525000Y-85675000D01*
X130771120Y-93653880D02*
X130150000Y-94275000D01*
X131525000Y-85675000D02*
X131549990Y-85699990D01*
X133440992Y-85699990D02*
X134425001Y-86683999D01*
X131549990Y-85699990D02*
X133440992Y-85699990D01*
X134425001Y-86683999D02*
X134425001Y-89999999D01*
X134425001Y-89999999D02*
X130771120Y-93653880D01*
X127675000Y-91673324D02*
X128490678Y-92489002D01*
X127675000Y-88700000D02*
X127675000Y-91673324D01*
X128490678Y-92489002D02*
X128490678Y-92933157D01*
X128475000Y-90675000D02*
X129600000Y-91800000D01*
X128475000Y-88700000D02*
X128475000Y-90675000D01*
X129275000Y-90050000D02*
X129875000Y-90650000D01*
X129275000Y-88700000D02*
X129275000Y-90050000D01*
X129875000Y-90650000D02*
X130600000Y-90650000D01*
X130250000Y-88700000D02*
X132050000Y-90500000D01*
X130075000Y-88700000D02*
X130250000Y-88700000D01*
X132600000Y-86450000D02*
X133350000Y-87200000D01*
X131525000Y-86450000D02*
X132600000Y-86450000D01*
X131650000Y-87250000D02*
X133150000Y-88750000D01*
X131525000Y-87250000D02*
X131650000Y-87250000D01*
D39*
X151490000Y-50940000D02*
X151500000Y-50950000D01*
X149080000Y-50940000D02*
X151490000Y-50940000D01*
X151590000Y-36940000D02*
X151600000Y-36950000D01*
X149080000Y-36940000D02*
X151590000Y-36940000D01*
X128950000Y-46825000D02*
X128950000Y-48200000D01*
X130500000Y-46825000D02*
X130500000Y-48200000D01*
X128950000Y-46825000D02*
X130500000Y-46825000D01*
X130500000Y-46825000D02*
X130500000Y-47450000D01*
X130500000Y-47450000D02*
X131990000Y-48940000D01*
X131990000Y-48940000D02*
X133080000Y-48940000D01*
D40*
X130500000Y-45075000D02*
X130500000Y-44450000D01*
X130500000Y-44450000D02*
X132010000Y-42940000D01*
X132010000Y-42940000D02*
X133080000Y-42940000D01*
X128950000Y-45075000D02*
X130500000Y-45075000D01*
D39*
X135050000Y-82875000D02*
X135050000Y-83650000D01*
D42*
X133100000Y-99900000D02*
X133100000Y-101550000D01*
D40*
X118195000Y-95625000D02*
X121975000Y-95625000D01*
X121975000Y-95625000D02*
X123050000Y-94550000D01*
X126875000Y-91933998D02*
X127375001Y-92433999D01*
X126875000Y-88700000D02*
X126875000Y-91933998D01*
X127375001Y-92433999D02*
X127375001Y-94124999D01*
X127375001Y-94124999D02*
X127350000Y-94150000D01*
X126075000Y-88700000D02*
X126075000Y-92725000D01*
X126075000Y-92725000D02*
X126300000Y-92950000D01*
X122865000Y-93085000D02*
X122900000Y-93050000D01*
X118195000Y-93085000D02*
X122865000Y-93085000D01*
X132225000Y-96350000D02*
X130175000Y-96350000D01*
X130175000Y-96350000D02*
X130150000Y-96325000D01*
X132150000Y-97900000D02*
X132150000Y-96425000D01*
X132150000Y-96425000D02*
X132225000Y-96350000D01*
D39*
X125850000Y-117190000D02*
X125850000Y-116000000D01*
X125850000Y-111317002D02*
X127400000Y-109767002D01*
X127400000Y-109767002D02*
X127400000Y-106800000D01*
X122675000Y-113950000D02*
X122675000Y-112400000D01*
X123250000Y-117190000D02*
X123250000Y-114525000D01*
X123250000Y-114525000D02*
X122675000Y-113950000D01*
X121700000Y-100875000D02*
X121700000Y-109117002D01*
X121700000Y-109117002D02*
X123900000Y-111317002D01*
X123900000Y-111317002D02*
X123900000Y-116050000D01*
X123900000Y-116050000D02*
X123900000Y-117190000D01*
D40*
X120925000Y-110475000D02*
X120850000Y-110400000D01*
X120925000Y-112400000D02*
X120925000Y-110475000D01*
D39*
X120350000Y-83925000D02*
X120350000Y-84644759D01*
X120350000Y-84644759D02*
X120575503Y-84870262D01*
X120595765Y-84850000D02*
X120575503Y-84870262D01*
X123025000Y-84850000D02*
X120595765Y-84850000D01*
D40*
X123025000Y-84050000D02*
X121675000Y-84050000D01*
X121300010Y-83675010D02*
X121300010Y-83125010D01*
X121300010Y-83125010D02*
X120844812Y-82669812D01*
X120844812Y-82669812D02*
X120350000Y-82175000D01*
X121675000Y-84050000D02*
X121300010Y-83675010D01*
D39*
X125200000Y-109300000D02*
X125200000Y-89975001D01*
X125250000Y-109350000D02*
X125200000Y-109300000D01*
X125200000Y-117190000D02*
X125200000Y-109300000D01*
X126250000Y-109400000D02*
X125250000Y-109400000D01*
X124550000Y-109350000D02*
X124550000Y-89975001D01*
X123500000Y-109400000D02*
X124500000Y-109400000D01*
X124550000Y-117190000D02*
X124550000Y-109350000D01*
X124500000Y-109400000D02*
X124550000Y-109350000D01*
X124550000Y-89975001D02*
X124475000Y-89900001D01*
X124475000Y-89900001D02*
X124475000Y-88700000D01*
X125200000Y-89975001D02*
X125275000Y-89900001D01*
X125275000Y-89900001D02*
X125275000Y-88700000D01*
D40*
X120925000Y-112400000D02*
X120925000Y-113950000D01*
X122087500Y-117550000D02*
X122087500Y-115112500D01*
X122087500Y-115112500D02*
X120925000Y-113950000D01*
X127012500Y-117550000D02*
X127012500Y-119402500D01*
X127012500Y-119402500D02*
X127460000Y-119850000D01*
X125390000Y-119850000D02*
X127460000Y-119850000D01*
X123710000Y-119850000D02*
X125390000Y-119850000D01*
X121640000Y-119850000D02*
X123710000Y-119850000D01*
X122087500Y-117550000D02*
X122087500Y-119402500D01*
X122087500Y-119402500D02*
X121640000Y-119850000D01*
X121700000Y-99125000D02*
X121700000Y-97550000D01*
X121700000Y-97550000D02*
X121600000Y-97450000D01*
X120224999Y-88524999D02*
X120400000Y-88700000D01*
X120224999Y-86733999D02*
X120224999Y-88524999D01*
X121625010Y-85699990D02*
X121259008Y-85699990D01*
X123025000Y-85650000D02*
X121675000Y-85650000D01*
X121259008Y-85699990D02*
X120224999Y-86733999D01*
X121675000Y-85650000D02*
X121625010Y-85699990D01*
X121675000Y-86450000D02*
X121300000Y-86825000D01*
X123025000Y-86450000D02*
X121675000Y-86450000D01*
X121300000Y-86825000D02*
X121300000Y-87250000D01*
X123025000Y-83250000D02*
X125850000Y-83250000D01*
X121894998Y-82450000D02*
X121749999Y-82305001D01*
X123025000Y-82450000D02*
X121894998Y-82450000D01*
X121749999Y-82305001D02*
X121749999Y-81349999D01*
X121749999Y-81349999D02*
X121000000Y-80600000D01*
X125025000Y-73825000D02*
X125000000Y-73850000D01*
X126500000Y-73825000D02*
X125025000Y-73825000D01*
X124850000Y-75375000D02*
X124850000Y-75650000D01*
X123250000Y-73775000D02*
X124850000Y-75375000D01*
X126500000Y-75575000D02*
X126500000Y-77650000D01*
X123250000Y-75525000D02*
X123250000Y-77650000D01*
X125275000Y-80200000D02*
X125275000Y-78875000D01*
X125275000Y-78875000D02*
X126500000Y-77650000D01*
X124475000Y-80200000D02*
X124475000Y-78875000D01*
X124475000Y-78875000D02*
X123250000Y-77650000D01*
X123025000Y-80825000D02*
X121500000Y-79300000D01*
X123025000Y-81650000D02*
X123025000Y-80825000D01*
X121500000Y-79300000D02*
X121500000Y-69600000D01*
X135050000Y-81125000D02*
X136650000Y-81125000D01*
X136650000Y-81125000D02*
X136800000Y-80975000D01*
X133500000Y-81125000D02*
X135050000Y-81125000D01*
X131525000Y-81650000D02*
X132975000Y-81650000D01*
X132975000Y-81650000D02*
X133500000Y-81125000D01*
X150750000Y-96370000D02*
X150750000Y-93475000D01*
X152350000Y-97970000D02*
X150750000Y-96370000D01*
X152350000Y-100400000D02*
X152350000Y-97970000D01*
X147250000Y-93475000D02*
X150750000Y-93475000D01*
X136800000Y-83025000D02*
X147250000Y-93475000D01*
D39*
X147750000Y-96370000D02*
X145580000Y-96370000D01*
X147475000Y-94550000D02*
X145600000Y-94550000D01*
X150750000Y-91725000D02*
X149075000Y-91725000D01*
X149075000Y-91725000D02*
X149050000Y-91750000D01*
D40*
X151150000Y-102417000D02*
X149250000Y-100517000D01*
X151150000Y-104300000D02*
X151150000Y-102417000D01*
X149250000Y-100517000D02*
X149250000Y-96516500D01*
X149250000Y-94575000D02*
X149225000Y-94550000D01*
X149250000Y-96516500D02*
X149250000Y-94575000D01*
D43*
X130250000Y-50940000D02*
X133080000Y-50940000D01*
D39*
X128725000Y-52415000D02*
X128725000Y-54025000D01*
X128725000Y-54025000D02*
X128700000Y-54050000D01*
X125315000Y-49465000D02*
X125300000Y-49450000D01*
X128725000Y-52415000D02*
X125415000Y-52415000D01*
X149050000Y-91750000D02*
X147400000Y-91750000D01*
X147400000Y-91750000D02*
X145300000Y-89650000D01*
X128725000Y-52415000D02*
X132115000Y-52415000D01*
X132115000Y-52415000D02*
X133050000Y-53350000D01*
X149080000Y-36940000D02*
X146740000Y-36940000D01*
X146740000Y-36940000D02*
X146700000Y-36900000D01*
X125850000Y-116000000D02*
X125850000Y-112200000D01*
X125850000Y-112200000D02*
X125850000Y-111317002D01*
X127400000Y-109767002D02*
X127417002Y-109767002D01*
X130282998Y-112650000D02*
X127400000Y-109767002D01*
X141050000Y-112650000D02*
X130282998Y-112650000D01*
X141050000Y-112650000D02*
X143450000Y-112650000D01*
X145580000Y-96370000D02*
X144530000Y-96370000D01*
X144530000Y-96370000D02*
X144525000Y-96375000D01*
X145600000Y-94550000D02*
X144525000Y-94550000D01*
X145300000Y-89650000D02*
X144550000Y-88900000D01*
D40*
X135600000Y-41850000D02*
X135600000Y-43100000D01*
X134690000Y-40940000D02*
X135600000Y-41850000D01*
X147211472Y-38940000D02*
X147185000Y-38940000D01*
X147185000Y-38940000D02*
X142600000Y-43525000D01*
D39*
X133080000Y-48940000D02*
X137890000Y-48940000D01*
X137890000Y-48940000D02*
X137900000Y-48950000D01*
X133900000Y-83750000D02*
X134225000Y-83750000D01*
X143450000Y-112650000D02*
X145200000Y-112650000D01*
X114340000Y-71450000D02*
X113115000Y-70225000D01*
X119525000Y-71475000D02*
X114365000Y-71475000D01*
X114365000Y-71475000D02*
X114340000Y-71450000D01*
X122675000Y-112400000D02*
X122675000Y-111775000D01*
X122675000Y-111775000D02*
X122200000Y-111300000D01*
X135500000Y-84100000D02*
X139650000Y-88250000D01*
X135050000Y-83650000D02*
X135250000Y-83850000D01*
X125415000Y-52415000D02*
X124960000Y-52415000D01*
X124960000Y-52415000D02*
X124950000Y-52425000D01*
X124965000Y-49465000D02*
X124950000Y-49450000D01*
X128725000Y-49465000D02*
X124965000Y-49465000D01*
D40*
X138925001Y-51716001D02*
X138925001Y-51185673D01*
X135566001Y-55075001D02*
X138925001Y-51716001D01*
X134899999Y-55075001D02*
X135566001Y-55075001D01*
X134300000Y-55675000D02*
X134899999Y-55075001D01*
D44*
G36*
X122803000Y-111434811D02*
G01*
X122803000Y-112528000D01*
X122547000Y-112528000D01*
X122547000Y-111285776D01*
X122376396Y-111285776D01*
X122028069Y-111361550D01*
X121834000Y-111486270D01*
X121834000Y-111148708D01*
X121877561Y-111098330D01*
X122010651Y-110843210D01*
X122051309Y-110683120D01*
X122803000Y-111434811D01*
X122803000Y-111434811D01*
G37*
X122803000Y-111434811D02*
X122803000Y-112528000D01*
X122547000Y-112528000D01*
X122547000Y-111285776D01*
X122376396Y-111285776D01*
X122028069Y-111361550D01*
X121834000Y-111486270D01*
X121834000Y-111148708D01*
X121877561Y-111098330D01*
X122010651Y-110843210D01*
X122051309Y-110683120D01*
X122803000Y-111434811D01*
G36*
X129788977Y-81641837D02*
G01*
X130083163Y-81641837D01*
X130083163Y-81941588D01*
X130106813Y-82029852D01*
X130083163Y-82163977D01*
X130083163Y-82322000D01*
X130230494Y-82322000D01*
X130311185Y-82418165D01*
X130365150Y-82449321D01*
X130231835Y-82561185D01*
X130222127Y-82578000D01*
X130083163Y-82578000D01*
X130083163Y-82741588D01*
X130106813Y-82829852D01*
X130083163Y-82963977D01*
X130083163Y-83541588D01*
X130106813Y-83629852D01*
X130083163Y-83763977D01*
X130083163Y-84341588D01*
X130106813Y-84429852D01*
X130083163Y-84563977D01*
X130083163Y-85141588D01*
X130106813Y-85229852D01*
X130083163Y-85363977D01*
X130083163Y-85941588D01*
X130106813Y-86029852D01*
X130083163Y-86163977D01*
X130083163Y-86741588D01*
X130106813Y-86829852D01*
X130083163Y-86963977D01*
X130083163Y-87258163D01*
X129783412Y-87258163D01*
X129695148Y-87281813D01*
X129561023Y-87258163D01*
X128983412Y-87258163D01*
X128895148Y-87281813D01*
X128761023Y-87258163D01*
X128183412Y-87258163D01*
X128095148Y-87281813D01*
X127961023Y-87258163D01*
X127383412Y-87258163D01*
X127295148Y-87281813D01*
X127161023Y-87258163D01*
X126583412Y-87258163D01*
X126495148Y-87281813D01*
X126361023Y-87258163D01*
X125783412Y-87258163D01*
X125695148Y-87281813D01*
X125561023Y-87258163D01*
X124983412Y-87258163D01*
X124895148Y-87281813D01*
X124761023Y-87258163D01*
X124466837Y-87258163D01*
X124466837Y-86958412D01*
X124443187Y-86870148D01*
X124466837Y-86736023D01*
X124466837Y-86158412D01*
X124443187Y-86070148D01*
X124466837Y-85936023D01*
X124466837Y-85358412D01*
X124443187Y-85270148D01*
X124466837Y-85136023D01*
X124466837Y-84978000D01*
X124319506Y-84978000D01*
X124238815Y-84881835D01*
X124184850Y-84850679D01*
X124318165Y-84738814D01*
X124327873Y-84722000D01*
X124466837Y-84722000D01*
X124466837Y-84558412D01*
X124443187Y-84470148D01*
X124466837Y-84336023D01*
X124466837Y-84159000D01*
X125014868Y-84159000D01*
X125097122Y-84238293D01*
X125344672Y-84384984D01*
X125619328Y-84470794D01*
X125906358Y-84491117D01*
X126190366Y-84444863D01*
X126456115Y-84334514D01*
X126689350Y-84165990D01*
X126877561Y-83948330D01*
X127010651Y-83693210D01*
X127081606Y-83413829D01*
X127084277Y-83107691D01*
X127018210Y-82827114D01*
X126889592Y-82569710D01*
X126705208Y-82348798D01*
X126474950Y-82176229D01*
X126211168Y-82061259D01*
X125928010Y-82010056D01*
X125640670Y-82025366D01*
X125364557Y-82106369D01*
X125114485Y-82248718D01*
X125015352Y-82341000D01*
X124466837Y-82341000D01*
X124466837Y-82158412D01*
X124443187Y-82070148D01*
X124466837Y-81936023D01*
X124466837Y-81641837D01*
X124766588Y-81641837D01*
X124854852Y-81618187D01*
X124988977Y-81641837D01*
X125566588Y-81641837D01*
X125654852Y-81618187D01*
X125788977Y-81641837D01*
X126366588Y-81641837D01*
X126454852Y-81618187D01*
X126588977Y-81641837D01*
X127166588Y-81641837D01*
X127254852Y-81618187D01*
X127388977Y-81641837D01*
X127966588Y-81641837D01*
X128054852Y-81618187D01*
X128188977Y-81641837D01*
X128766588Y-81641837D01*
X128854852Y-81618187D01*
X128988977Y-81641837D01*
X129566588Y-81641837D01*
X129654852Y-81618187D01*
X129788977Y-81641837D01*
X129788977Y-81641837D01*
G37*
X129788977Y-81641837D02*
X130083163Y-81641837D01*
X130083163Y-81941588D01*
X130106813Y-82029852D01*
X130083163Y-82163977D01*
X130083163Y-82322000D01*
X130230494Y-82322000D01*
X130311185Y-82418165D01*
X130365150Y-82449321D01*
X130231835Y-82561185D01*
X130222127Y-82578000D01*
X130083163Y-82578000D01*
X130083163Y-82741588D01*
X130106813Y-82829852D01*
X130083163Y-82963977D01*
X130083163Y-83541588D01*
X130106813Y-83629852D01*
X130083163Y-83763977D01*
X130083163Y-84341588D01*
X130106813Y-84429852D01*
X130083163Y-84563977D01*
X130083163Y-85141588D01*
X130106813Y-85229852D01*
X130083163Y-85363977D01*
X130083163Y-85941588D01*
X130106813Y-86029852D01*
X130083163Y-86163977D01*
X130083163Y-86741588D01*
X130106813Y-86829852D01*
X130083163Y-86963977D01*
X130083163Y-87258163D01*
X129783412Y-87258163D01*
X129695148Y-87281813D01*
X129561023Y-87258163D01*
X128983412Y-87258163D01*
X128895148Y-87281813D01*
X128761023Y-87258163D01*
X128183412Y-87258163D01*
X128095148Y-87281813D01*
X127961023Y-87258163D01*
X127383412Y-87258163D01*
X127295148Y-87281813D01*
X127161023Y-87258163D01*
X126583412Y-87258163D01*
X126495148Y-87281813D01*
X126361023Y-87258163D01*
X125783412Y-87258163D01*
X125695148Y-87281813D01*
X125561023Y-87258163D01*
X124983412Y-87258163D01*
X124895148Y-87281813D01*
X124761023Y-87258163D01*
X124466837Y-87258163D01*
X124466837Y-86958412D01*
X124443187Y-86870148D01*
X124466837Y-86736023D01*
X124466837Y-86158412D01*
X124443187Y-86070148D01*
X124466837Y-85936023D01*
X124466837Y-85358412D01*
X124443187Y-85270148D01*
X124466837Y-85136023D01*
X124466837Y-84978000D01*
X124319506Y-84978000D01*
X124238815Y-84881835D01*
X124184850Y-84850679D01*
X124318165Y-84738814D01*
X124327873Y-84722000D01*
X124466837Y-84722000D01*
X124466837Y-84558412D01*
X124443187Y-84470148D01*
X124466837Y-84336023D01*
X124466837Y-84159000D01*
X125014868Y-84159000D01*
X125097122Y-84238293D01*
X125344672Y-84384984D01*
X125619328Y-84470794D01*
X125906358Y-84491117D01*
X126190366Y-84444863D01*
X126456115Y-84334514D01*
X126689350Y-84165990D01*
X126877561Y-83948330D01*
X127010651Y-83693210D01*
X127081606Y-83413829D01*
X127084277Y-83107691D01*
X127018210Y-82827114D01*
X126889592Y-82569710D01*
X126705208Y-82348798D01*
X126474950Y-82176229D01*
X126211168Y-82061259D01*
X125928010Y-82010056D01*
X125640670Y-82025366D01*
X125364557Y-82106369D01*
X125114485Y-82248718D01*
X125015352Y-82341000D01*
X124466837Y-82341000D01*
X124466837Y-82158412D01*
X124443187Y-82070148D01*
X124466837Y-81936023D01*
X124466837Y-81641837D01*
X124766588Y-81641837D01*
X124854852Y-81618187D01*
X124988977Y-81641837D01*
X125566588Y-81641837D01*
X125654852Y-81618187D01*
X125788977Y-81641837D01*
X126366588Y-81641837D01*
X126454852Y-81618187D01*
X126588977Y-81641837D01*
X127166588Y-81641837D01*
X127254852Y-81618187D01*
X127388977Y-81641837D01*
X127966588Y-81641837D01*
X128054852Y-81618187D01*
X128188977Y-81641837D01*
X128766588Y-81641837D01*
X128854852Y-81618187D01*
X128988977Y-81641837D01*
X129566588Y-81641837D01*
X129654852Y-81618187D01*
X129788977Y-81641837D01*
G36*
X120405191Y-83840854D02*
G01*
X120416272Y-83921754D01*
X120433508Y-83961582D01*
X120444495Y-84008431D01*
X120472326Y-84051287D01*
X120478000Y-84064399D01*
X120478000Y-85115459D01*
X120574038Y-85094567D01*
X120562069Y-85111409D01*
X119596533Y-86076946D01*
X119518023Y-86149140D01*
X119474993Y-86218541D01*
X119425628Y-86283577D01*
X119409655Y-86323920D01*
X119384293Y-86364825D01*
X119373668Y-86414812D01*
X119333947Y-86515135D01*
X119307915Y-86762819D01*
X119315999Y-86810616D01*
X119315999Y-87110047D01*
X119212864Y-86987136D01*
X119020651Y-86825850D01*
X118863294Y-86735000D01*
X119020651Y-86644150D01*
X119212864Y-86482864D01*
X119374150Y-86290651D01*
X119499609Y-86073349D01*
X119585429Y-85837564D01*
X119629000Y-85590459D01*
X119629000Y-85339541D01*
X119585429Y-85092436D01*
X119499609Y-84856651D01*
X119468852Y-84803378D01*
X119638929Y-84950750D01*
X119866888Y-85054854D01*
X120222000Y-85105913D01*
X120222000Y-84053000D01*
X119235776Y-84053000D01*
X119235776Y-84223604D01*
X119309440Y-84562230D01*
X119212864Y-84447136D01*
X119020651Y-84285850D01*
X118863294Y-84195000D01*
X119020651Y-84104150D01*
X119212864Y-83942864D01*
X119335259Y-83797000D01*
X120394905Y-83797000D01*
X120405191Y-83840854D01*
X120405191Y-83840854D01*
G37*
X120405191Y-83840854D02*
X120416272Y-83921754D01*
X120433508Y-83961582D01*
X120444495Y-84008431D01*
X120472326Y-84051287D01*
X120478000Y-84064399D01*
X120478000Y-85115459D01*
X120574038Y-85094567D01*
X120562069Y-85111409D01*
X119596533Y-86076946D01*
X119518023Y-86149140D01*
X119474993Y-86218541D01*
X119425628Y-86283577D01*
X119409655Y-86323920D01*
X119384293Y-86364825D01*
X119373668Y-86414812D01*
X119333947Y-86515135D01*
X119307915Y-86762819D01*
X119315999Y-86810616D01*
X119315999Y-87110047D01*
X119212864Y-86987136D01*
X119020651Y-86825850D01*
X118863294Y-86735000D01*
X119020651Y-86644150D01*
X119212864Y-86482864D01*
X119374150Y-86290651D01*
X119499609Y-86073349D01*
X119585429Y-85837564D01*
X119629000Y-85590459D01*
X119629000Y-85339541D01*
X119585429Y-85092436D01*
X119499609Y-84856651D01*
X119468852Y-84803378D01*
X119638929Y-84950750D01*
X119866888Y-85054854D01*
X120222000Y-85105913D01*
X120222000Y-84053000D01*
X119235776Y-84053000D01*
X119235776Y-84223604D01*
X119309440Y-84562230D01*
X119212864Y-84447136D01*
X119020651Y-84285850D01*
X118863294Y-84195000D01*
X119020651Y-84104150D01*
X119212864Y-83942864D01*
X119335259Y-83797000D01*
X120394905Y-83797000D01*
X120405191Y-83840854D01*
G36*
X128311205Y-116182489D02*
G01*
X128163815Y-116006835D01*
X127970186Y-115895044D01*
X127761024Y-115858163D01*
X126709000Y-115858163D01*
X126709000Y-111672810D01*
X127400000Y-110981810D01*
X129607543Y-113189353D01*
X129622118Y-113212453D01*
X129695088Y-113276898D01*
X129719154Y-113300965D01*
X129740188Y-113316729D01*
X129806544Y-113375333D01*
X129838236Y-113390212D01*
X129866247Y-113411206D01*
X129949132Y-113442277D01*
X130029627Y-113480070D01*
X130063407Y-113485118D01*
X130096645Y-113497578D01*
X130196362Y-113504989D01*
X130223203Y-113509000D01*
X130250339Y-113509000D01*
X130342024Y-113515813D01*
X130373940Y-113509000D01*
X144313002Y-113509000D01*
X144447122Y-113638293D01*
X144694672Y-113784984D01*
X144969328Y-113870794D01*
X145256358Y-113891117D01*
X145540366Y-113844863D01*
X145806115Y-113734514D01*
X146039350Y-113565990D01*
X146227561Y-113348330D01*
X146360651Y-113093210D01*
X146431606Y-112813829D01*
X146434277Y-112507691D01*
X146368210Y-112227114D01*
X146239592Y-111969710D01*
X146055208Y-111748798D01*
X145824950Y-111576229D01*
X145561168Y-111461259D01*
X145278010Y-111410056D01*
X144990670Y-111425366D01*
X144714557Y-111506369D01*
X144464485Y-111648718D01*
X144311640Y-111791000D01*
X130638807Y-111791000D01*
X128259000Y-109411195D01*
X128259000Y-108307603D01*
X131476000Y-108307603D01*
X131492323Y-108506148D01*
X131557380Y-108765149D01*
X131663865Y-109010048D01*
X131808918Y-109234266D01*
X131988644Y-109431783D01*
X132198216Y-109597293D01*
X132432006Y-109726353D01*
X132683736Y-109815495D01*
X132946645Y-109862326D01*
X133213671Y-109865588D01*
X133477646Y-109825195D01*
X133731478Y-109742230D01*
X133968352Y-109618921D01*
X134181905Y-109458581D01*
X134366405Y-109265514D01*
X134516893Y-109044907D01*
X134629329Y-108802683D01*
X134700901Y-108544602D01*
X134724000Y-108300243D01*
X134724000Y-106192396D01*
X134707677Y-105993851D01*
X134642620Y-105734850D01*
X134536135Y-105489951D01*
X134391082Y-105265733D01*
X134384934Y-105258976D01*
X136468163Y-105258976D01*
X136468163Y-109246588D01*
X136548795Y-109547512D01*
X136696185Y-109723165D01*
X136889814Y-109834956D01*
X137098976Y-109871837D01*
X139106588Y-109871837D01*
X139407512Y-109791205D01*
X139583165Y-109643815D01*
X139694956Y-109450186D01*
X139731837Y-109241024D01*
X139731837Y-105253412D01*
X139651205Y-104952489D01*
X139503815Y-104776835D01*
X139310186Y-104665044D01*
X139101024Y-104628163D01*
X137093412Y-104628163D01*
X136792489Y-104708795D01*
X136616835Y-104856185D01*
X136505044Y-105049814D01*
X136468163Y-105258976D01*
X134384934Y-105258976D01*
X134211356Y-105068216D01*
X134001784Y-104902707D01*
X133767994Y-104773647D01*
X133516264Y-104684505D01*
X133253355Y-104637674D01*
X132986329Y-104634412D01*
X132722354Y-104674805D01*
X132468522Y-104757770D01*
X132231648Y-104881079D01*
X132018095Y-105041420D01*
X131833596Y-105234486D01*
X131683108Y-105455093D01*
X131570672Y-105697317D01*
X131499100Y-105955398D01*
X131476001Y-106199757D01*
X131476000Y-108307603D01*
X128259000Y-108307603D01*
X128259000Y-107693265D01*
X128427561Y-107498330D01*
X128560651Y-107243210D01*
X128631606Y-106963829D01*
X128634277Y-106657691D01*
X128568210Y-106377114D01*
X128439592Y-106119710D01*
X128255208Y-105898798D01*
X128024950Y-105726229D01*
X127761168Y-105611259D01*
X127478010Y-105560056D01*
X127190670Y-105575366D01*
X126914557Y-105656369D01*
X126664485Y-105798718D01*
X126453868Y-105994779D01*
X126294003Y-106234034D01*
X126193467Y-106503647D01*
X126157651Y-106789158D01*
X126188479Y-107075251D01*
X126284295Y-107346579D01*
X126439959Y-107588587D01*
X126541001Y-107685991D01*
X126541000Y-108198571D01*
X126328010Y-108160056D01*
X126059000Y-108174389D01*
X126059000Y-94167567D01*
X126069328Y-94170794D01*
X126111381Y-94173771D01*
X126138479Y-94425251D01*
X126234295Y-94696579D01*
X126389959Y-94938587D01*
X126597122Y-95138293D01*
X126844672Y-95284984D01*
X127119328Y-95370794D01*
X127406358Y-95391117D01*
X127690366Y-95344863D01*
X127956115Y-95234514D01*
X128189350Y-95065990D01*
X128377561Y-94848330D01*
X128510651Y-94593210D01*
X128581606Y-94313829D01*
X128582874Y-94168437D01*
X128810776Y-94131321D01*
X128810776Y-94610976D01*
X128887691Y-94964549D01*
X129027618Y-95182279D01*
X129162291Y-95298974D01*
X129117721Y-95327618D01*
X128951255Y-95519730D01*
X128845657Y-95750958D01*
X128810776Y-95993558D01*
X128810776Y-96660976D01*
X128887691Y-97014549D01*
X129027618Y-97232279D01*
X129219730Y-97398745D01*
X129450958Y-97504343D01*
X129693558Y-97539224D01*
X130610976Y-97539224D01*
X130964549Y-97462309D01*
X131121877Y-97361199D01*
X131108163Y-97438976D01*
X131108163Y-98366588D01*
X131188795Y-98667512D01*
X131336185Y-98843165D01*
X131529814Y-98954956D01*
X131738976Y-98991837D01*
X132259687Y-98991837D01*
X132206835Y-99036185D01*
X132095044Y-99229814D01*
X132058163Y-99438976D01*
X132058163Y-100366588D01*
X132066000Y-100395837D01*
X132066001Y-100876282D01*
X131994003Y-100984033D01*
X131893467Y-101253647D01*
X131857651Y-101539158D01*
X131888479Y-101825251D01*
X131984295Y-102096579D01*
X132139959Y-102338587D01*
X132347122Y-102538293D01*
X132594672Y-102684984D01*
X132869328Y-102770794D01*
X133156358Y-102791117D01*
X133440366Y-102744863D01*
X133706115Y-102634514D01*
X133939350Y-102465990D01*
X134127561Y-102248330D01*
X134260651Y-101993210D01*
X134331606Y-101713829D01*
X134334277Y-101407691D01*
X134268210Y-101127114D01*
X134139592Y-100869710D01*
X134134000Y-100863010D01*
X134134000Y-100405471D01*
X134141837Y-100361024D01*
X134141837Y-99433412D01*
X134061205Y-99132489D01*
X133922000Y-98966590D01*
X133922000Y-98028000D01*
X134178000Y-98028000D01*
X134178000Y-98991837D01*
X134466588Y-98991837D01*
X134767512Y-98911205D01*
X134943165Y-98763815D01*
X135054956Y-98570186D01*
X135091837Y-98361024D01*
X135091837Y-98028000D01*
X134178000Y-98028000D01*
X133922000Y-98028000D01*
X133922000Y-97772000D01*
X135091837Y-97772000D01*
X135091837Y-97433412D01*
X135011205Y-97132489D01*
X134975617Y-97090076D01*
X135000750Y-97061071D01*
X135104854Y-96833112D01*
X135155913Y-96478000D01*
X133847000Y-96478000D01*
X133847000Y-95235776D01*
X134103000Y-95235776D01*
X134103000Y-96222000D01*
X135165459Y-96222000D01*
X135063450Y-95753070D01*
X134925467Y-95538362D01*
X134736071Y-95374250D01*
X134508112Y-95270146D01*
X134269070Y-95235776D01*
X134103000Y-95235776D01*
X133847000Y-95235776D01*
X133676396Y-95235776D01*
X133328069Y-95311550D01*
X133113362Y-95449533D01*
X133096033Y-95469532D01*
X132986071Y-95374250D01*
X132758112Y-95270146D01*
X132519070Y-95235776D01*
X131926396Y-95235776D01*
X131578069Y-95311550D01*
X131376640Y-95441000D01*
X131287342Y-95441000D01*
X131272382Y-95417721D01*
X131137709Y-95301026D01*
X131182279Y-95272382D01*
X131348745Y-95080270D01*
X131454343Y-94849042D01*
X131489224Y-94606442D01*
X131489224Y-94221294D01*
X135053470Y-90657049D01*
X135131976Y-90584859D01*
X135175007Y-90515458D01*
X135224372Y-90450422D01*
X135240345Y-90410079D01*
X135265707Y-90369174D01*
X135276332Y-90319187D01*
X135316053Y-90218864D01*
X135342085Y-89971179D01*
X135334001Y-89923382D01*
X135334001Y-87817843D01*
X140941000Y-93424843D01*
X140941001Y-109360213D01*
X140903868Y-109394779D01*
X140744003Y-109634034D01*
X140643467Y-109903647D01*
X140607651Y-110189158D01*
X140638479Y-110475251D01*
X140734295Y-110746579D01*
X140889959Y-110988587D01*
X141097122Y-111188293D01*
X141344672Y-111334984D01*
X141619328Y-111420794D01*
X141906358Y-111441117D01*
X142190366Y-111394863D01*
X142456115Y-111284514D01*
X142689350Y-111115990D01*
X142877561Y-110898330D01*
X143010651Y-110643210D01*
X143081606Y-110363829D01*
X143084277Y-110057691D01*
X143018210Y-109777114D01*
X142889592Y-109519710D01*
X142759000Y-109363247D01*
X142759000Y-96498000D01*
X146608163Y-96498000D01*
X146608163Y-97136588D01*
X146688795Y-97437512D01*
X146836185Y-97613165D01*
X147029814Y-97724956D01*
X147238976Y-97761837D01*
X147622000Y-97761837D01*
X147622000Y-96498000D01*
X146608163Y-96498000D01*
X142759000Y-96498000D01*
X142759000Y-93068498D01*
X142763465Y-92961976D01*
X142744819Y-92882479D01*
X142733738Y-92801579D01*
X142716502Y-92761751D01*
X142705515Y-92714902D01*
X142677684Y-92672046D01*
X142634829Y-92573015D01*
X142478097Y-92379468D01*
X142438580Y-92351385D01*
X134308737Y-84221543D01*
X134236537Y-84143025D01*
X134167128Y-84099989D01*
X134102098Y-84050629D01*
X134061760Y-84034657D01*
X134020850Y-84009294D01*
X133970863Y-83998669D01*
X133958157Y-83993638D01*
X134096931Y-83963450D01*
X134277424Y-83847455D01*
X134338929Y-83900750D01*
X134566888Y-84004854D01*
X134922000Y-84055913D01*
X134922000Y-82747000D01*
X135178000Y-82747000D01*
X135178000Y-84065459D01*
X135646930Y-83963450D01*
X135685205Y-83938853D01*
X135869730Y-84098745D01*
X136100958Y-84204343D01*
X136343558Y-84239224D01*
X136728706Y-84239224D01*
X146411366Y-93921885D01*
X146345146Y-94066888D01*
X146294087Y-94422000D01*
X147603000Y-94422000D01*
X147603000Y-94678000D01*
X146284541Y-94678000D01*
X146386550Y-95146930D01*
X146524533Y-95361638D01*
X146634911Y-95457281D01*
X146608163Y-95608976D01*
X146608163Y-96242000D01*
X147878000Y-96242000D01*
X147878000Y-97543142D01*
X147672791Y-97836297D01*
X147656836Y-97849684D01*
X147625845Y-97903363D01*
X147616276Y-97917032D01*
X147612022Y-97927306D01*
X147545044Y-98043314D01*
X147531004Y-98122938D01*
X147516000Y-98159168D01*
X147516000Y-98208029D01*
X147508163Y-98252476D01*
X147508163Y-100120089D01*
X147519940Y-100164040D01*
X147528792Y-100260983D01*
X147568517Y-100345336D01*
X147588795Y-100421012D01*
X147638023Y-100479680D01*
X148230333Y-101318786D01*
X148338737Y-101436638D01*
X148529814Y-101546956D01*
X148738976Y-101583837D01*
X149031319Y-101583837D01*
X149045474Y-101597992D01*
X148999058Y-101601931D01*
X148755292Y-101665200D01*
X148525671Y-101768637D01*
X148316760Y-101909284D01*
X148134534Y-102083119D01*
X147984203Y-102285172D01*
X147870064Y-102509666D01*
X147795382Y-102750181D01*
X147762292Y-102999841D01*
X147771740Y-103251508D01*
X147823456Y-103497983D01*
X147915961Y-103732222D01*
X148046610Y-103947526D01*
X148211669Y-104137739D01*
X148406416Y-104297422D01*
X148480061Y-104339343D01*
X148316760Y-104449284D01*
X148134534Y-104623119D01*
X147984203Y-104825172D01*
X147870064Y-105049666D01*
X147795382Y-105290181D01*
X147762292Y-105539841D01*
X147771740Y-105791508D01*
X147823456Y-106037983D01*
X147915961Y-106272222D01*
X148046610Y-106487526D01*
X148211669Y-106677739D01*
X148235975Y-106697669D01*
X148082489Y-106738795D01*
X147906835Y-106886185D01*
X147795044Y-107079814D01*
X147758163Y-107288976D01*
X147758163Y-109016588D01*
X147838795Y-109317512D01*
X147986185Y-109493165D01*
X148179814Y-109604956D01*
X148388976Y-109641837D01*
X150116588Y-109641837D01*
X150417512Y-109561205D01*
X150593165Y-109413815D01*
X150704956Y-109220186D01*
X150741837Y-109011024D01*
X150741837Y-107283412D01*
X150661205Y-106982489D01*
X150513815Y-106806835D01*
X150320186Y-106695044D01*
X150271554Y-106686469D01*
X150365466Y-106596881D01*
X150515797Y-106394828D01*
X150629936Y-106170334D01*
X150704618Y-105929819D01*
X150737708Y-105680159D01*
X150729499Y-105461486D01*
X150919328Y-105520794D01*
X151206358Y-105541117D01*
X151490366Y-105494863D01*
X151756115Y-105384514D01*
X151989350Y-105215990D01*
X152177561Y-104998330D01*
X152310651Y-104743210D01*
X152381606Y-104463829D01*
X152384277Y-104157691D01*
X152318210Y-103877114D01*
X152189592Y-103619710D01*
X152059000Y-103463247D01*
X152059000Y-102437174D01*
X152063465Y-102330652D01*
X152044820Y-102251155D01*
X152033738Y-102170256D01*
X152016506Y-102130435D01*
X152005515Y-102083578D01*
X151977683Y-102040720D01*
X151934829Y-101941691D01*
X151778097Y-101748144D01*
X151738577Y-101720058D01*
X150711448Y-100692930D01*
X150824146Y-100533273D01*
X150843164Y-100517316D01*
X150954956Y-100323686D01*
X150969385Y-100241856D01*
X150984000Y-100206761D01*
X150984000Y-100158971D01*
X150991837Y-100114524D01*
X150991837Y-98246911D01*
X150980307Y-98203884D01*
X150971868Y-98107264D01*
X150930827Y-98019219D01*
X150911205Y-97945989D01*
X150867703Y-97894145D01*
X150775087Y-97761837D01*
X150856318Y-97761837D01*
X151441001Y-98346521D01*
X151441000Y-99560214D01*
X151403868Y-99594779D01*
X151244003Y-99834034D01*
X151143467Y-100103647D01*
X151107651Y-100389158D01*
X151138479Y-100675251D01*
X151234295Y-100946579D01*
X151389959Y-101188587D01*
X151597122Y-101388293D01*
X151844672Y-101534984D01*
X152119328Y-101620794D01*
X152406358Y-101641117D01*
X152690366Y-101594863D01*
X152956115Y-101484514D01*
X153189350Y-101315990D01*
X153377561Y-101098330D01*
X153510651Y-100843210D01*
X153581606Y-100563829D01*
X153584277Y-100257691D01*
X153518210Y-99977114D01*
X153389592Y-99719710D01*
X153259000Y-99563247D01*
X153259000Y-97990174D01*
X153263465Y-97883652D01*
X153244820Y-97804155D01*
X153233738Y-97723256D01*
X153216506Y-97683435D01*
X153205515Y-97636578D01*
X153177683Y-97593720D01*
X153134829Y-97494691D01*
X152978097Y-97301144D01*
X152938577Y-97273058D01*
X151891837Y-96226319D01*
X151891837Y-95603412D01*
X151811205Y-95302489D01*
X151663815Y-95126835D01*
X151659000Y-95124055D01*
X151659000Y-94313105D01*
X151725750Y-94236071D01*
X151829854Y-94008112D01*
X151864224Y-93769070D01*
X151864224Y-93176396D01*
X151788450Y-92828069D01*
X151650467Y-92613362D01*
X151630468Y-92596033D01*
X151725750Y-92486071D01*
X151829854Y-92258112D01*
X151864224Y-92019070D01*
X151864224Y-91853000D01*
X149635776Y-91853000D01*
X149635776Y-92023604D01*
X149711550Y-92371931D01*
X149836270Y-92566000D01*
X147626519Y-92566000D01*
X146491449Y-91430930D01*
X149635776Y-91430930D01*
X149635776Y-91597000D01*
X150622000Y-91597000D01*
X150622000Y-90544087D01*
X150878000Y-90544087D01*
X150878000Y-91597000D01*
X151864224Y-91597000D01*
X151864224Y-91426396D01*
X151788450Y-91078069D01*
X151650467Y-90863362D01*
X151461071Y-90699250D01*
X151233112Y-90595146D01*
X150878000Y-90544087D01*
X150622000Y-90544087D01*
X150622000Y-90534541D01*
X150153070Y-90636550D01*
X149938362Y-90774533D01*
X149774250Y-90963929D01*
X149670146Y-91191888D01*
X149635776Y-91430930D01*
X146491449Y-91430930D01*
X138485519Y-83425001D01*
X139078485Y-82832036D01*
X139156975Y-82759860D01*
X139200007Y-82690457D01*
X139249371Y-82625423D01*
X139265345Y-82585077D01*
X139290705Y-82544176D01*
X139301329Y-82494193D01*
X139341053Y-82393864D01*
X139367084Y-82146179D01*
X139359000Y-82098382D01*
X139359000Y-80070173D01*
X139363465Y-79963651D01*
X139344820Y-79884154D01*
X139333738Y-79803255D01*
X139316502Y-79763427D01*
X139305515Y-79716578D01*
X139277682Y-79673720D01*
X139234829Y-79574691D01*
X139078097Y-79381144D01*
X139038581Y-79353061D01*
X136652061Y-76966543D01*
X136579861Y-76888025D01*
X136510452Y-76844989D01*
X136445422Y-76795629D01*
X136405084Y-76779657D01*
X136364174Y-76754294D01*
X136314187Y-76743669D01*
X136213864Y-76703948D01*
X135966180Y-76677916D01*
X135918383Y-76686000D01*
X130449803Y-76686000D01*
X130229950Y-76521229D01*
X129966168Y-76406259D01*
X129683010Y-76355056D01*
X129395670Y-76370366D01*
X129119557Y-76451369D01*
X128869485Y-76593718D01*
X128658868Y-76789779D01*
X128499003Y-77029034D01*
X128398467Y-77298647D01*
X128362651Y-77584158D01*
X128393479Y-77870251D01*
X128489295Y-78141579D01*
X128644959Y-78383587D01*
X128852122Y-78583293D01*
X129099672Y-78729984D01*
X129189866Y-78758163D01*
X128983412Y-78758163D01*
X128895148Y-78781813D01*
X128761023Y-78758163D01*
X128183412Y-78758163D01*
X128095148Y-78781813D01*
X127981441Y-78761763D01*
X128016837Y-78561024D01*
X128016837Y-76733412D01*
X127936205Y-76432489D01*
X127788815Y-76256835D01*
X127595186Y-76145044D01*
X127565387Y-76139790D01*
X127579854Y-76108112D01*
X127614224Y-75869070D01*
X127614224Y-75276396D01*
X127538450Y-74928069D01*
X127400467Y-74713362D01*
X127380468Y-74696033D01*
X127475750Y-74586071D01*
X127579854Y-74358112D01*
X127614224Y-74119070D01*
X127614224Y-73953000D01*
X125385776Y-73953000D01*
X125385776Y-74123604D01*
X125461550Y-74471931D01*
X125599533Y-74686638D01*
X125619532Y-74703967D01*
X125524250Y-74813929D01*
X125420146Y-75041888D01*
X125385776Y-75280930D01*
X125385776Y-75873604D01*
X125446253Y-76151613D01*
X125307489Y-76188795D01*
X125131835Y-76336185D01*
X125020044Y-76529814D01*
X124983163Y-76738976D01*
X124983163Y-77881318D01*
X124875000Y-77989481D01*
X124766837Y-77881318D01*
X124766837Y-76733412D01*
X124686205Y-76432489D01*
X124538815Y-76256835D01*
X124345186Y-76145044D01*
X124294255Y-76136064D01*
X124329854Y-76058112D01*
X124364224Y-75819070D01*
X124364224Y-75226396D01*
X124288450Y-74878069D01*
X124150467Y-74663362D01*
X124130468Y-74646033D01*
X124225750Y-74536071D01*
X124329854Y-74308112D01*
X124364224Y-74069070D01*
X124364224Y-73903000D01*
X123122000Y-73903000D01*
X123122000Y-73647000D01*
X123122000Y-72594087D01*
X123378000Y-72594087D01*
X123378000Y-73647000D01*
X124364224Y-73647000D01*
X124364224Y-73530930D01*
X125385776Y-73530930D01*
X125385776Y-73697000D01*
X126372000Y-73697000D01*
X126628000Y-73697000D01*
X127614224Y-73697000D01*
X127614224Y-73526396D01*
X127538450Y-73178069D01*
X127400467Y-72963362D01*
X127211071Y-72799250D01*
X126983112Y-72695146D01*
X126628000Y-72644087D01*
X126628000Y-73697000D01*
X126372000Y-73697000D01*
X126372000Y-72634541D01*
X125903070Y-72736550D01*
X125688362Y-72874533D01*
X125524250Y-73063929D01*
X125420146Y-73291888D01*
X125385776Y-73530930D01*
X124364224Y-73530930D01*
X124364224Y-73476396D01*
X124288450Y-73128069D01*
X124150467Y-72913362D01*
X123961071Y-72749250D01*
X123733112Y-72645146D01*
X123378000Y-72594087D01*
X123122000Y-72594087D01*
X123122000Y-72584541D01*
X122653070Y-72686550D01*
X122438362Y-72824533D01*
X122409000Y-72858419D01*
X122409000Y-70435443D01*
X122527561Y-70298330D01*
X122660651Y-70043210D01*
X122731606Y-69763829D01*
X122734277Y-69457691D01*
X122668210Y-69177114D01*
X122539592Y-68919710D01*
X122355208Y-68698798D01*
X122124950Y-68526229D01*
X121897989Y-68427308D01*
X121984708Y-68404800D01*
X122214329Y-68301363D01*
X122423240Y-68160716D01*
X122605466Y-67986881D01*
X122755797Y-67784828D01*
X122762436Y-67771770D01*
X122826610Y-67877526D01*
X122991669Y-68067739D01*
X123186416Y-68227422D01*
X123405284Y-68352009D01*
X123644831Y-68438960D01*
X123984648Y-68484000D01*
X124093190Y-68484000D01*
X124280942Y-68468069D01*
X124524708Y-68404800D01*
X124754329Y-68301363D01*
X124963240Y-68160716D01*
X125145466Y-67986881D01*
X125295797Y-67784828D01*
X125302436Y-67771770D01*
X125366610Y-67877526D01*
X125531669Y-68067739D01*
X125726416Y-68227422D01*
X125945284Y-68352009D01*
X126184831Y-68438960D01*
X126442000Y-68473047D01*
X126442000Y-65526953D01*
X126698000Y-65526953D01*
X126698000Y-68499978D01*
X127064708Y-68404800D01*
X127294329Y-68301363D01*
X127503240Y-68160716D01*
X127685466Y-67986881D01*
X127835797Y-67784828D01*
X127842436Y-67771770D01*
X127906610Y-67877526D01*
X128071669Y-68067739D01*
X128266416Y-68227422D01*
X128485284Y-68352009D01*
X128724831Y-68438960D01*
X129064648Y-68484000D01*
X129173190Y-68484000D01*
X129360942Y-68468069D01*
X129604708Y-68404800D01*
X129834329Y-68301363D01*
X130043240Y-68160716D01*
X130197535Y-68013526D01*
X130238795Y-68167512D01*
X130386185Y-68343165D01*
X130579814Y-68454956D01*
X130788976Y-68491837D01*
X132516588Y-68491837D01*
X132817512Y-68411205D01*
X132993165Y-68263815D01*
X133104956Y-68070186D01*
X133141837Y-67861024D01*
X133141837Y-66133412D01*
X133061205Y-65832489D01*
X132913815Y-65656835D01*
X132720186Y-65545044D01*
X132511024Y-65508163D01*
X130783412Y-65508163D01*
X130482489Y-65588795D01*
X130306835Y-65736185D01*
X130195044Y-65929814D01*
X130186796Y-65976588D01*
X130148331Y-65932261D01*
X129953584Y-65772578D01*
X129734716Y-65647991D01*
X129495169Y-65561040D01*
X129155352Y-65516000D01*
X129046810Y-65516000D01*
X128859058Y-65531931D01*
X128615292Y-65595200D01*
X128385671Y-65698637D01*
X128176760Y-65839284D01*
X127994534Y-66013119D01*
X127844203Y-66215172D01*
X127837564Y-66228230D01*
X127773390Y-66122474D01*
X127608331Y-65932261D01*
X127413584Y-65772578D01*
X127194716Y-65647991D01*
X126955169Y-65561040D01*
X126698000Y-65526953D01*
X126442000Y-65526953D01*
X126442000Y-65500022D01*
X126075292Y-65595200D01*
X125845671Y-65698637D01*
X125636760Y-65839284D01*
X125454534Y-66013119D01*
X125304203Y-66215172D01*
X125297564Y-66228230D01*
X125233390Y-66122474D01*
X125068331Y-65932261D01*
X124873584Y-65772578D01*
X124654716Y-65647991D01*
X124415169Y-65561040D01*
X124075352Y-65516000D01*
X123966810Y-65516000D01*
X123779058Y-65531931D01*
X123535292Y-65595200D01*
X123305671Y-65698637D01*
X123096760Y-65839284D01*
X122914534Y-66013119D01*
X122764203Y-66215172D01*
X122757564Y-66228230D01*
X122693390Y-66122474D01*
X122528331Y-65932261D01*
X122333584Y-65772578D01*
X122114716Y-65647991D01*
X121875169Y-65561040D01*
X121535352Y-65516000D01*
X121426810Y-65516000D01*
X121239058Y-65531931D01*
X120995292Y-65595200D01*
X120765671Y-65698637D01*
X120556760Y-65839284D01*
X120374534Y-66013119D01*
X120224203Y-66215172D01*
X120110064Y-66439666D01*
X120035382Y-66680181D01*
X120002292Y-66929841D01*
X120011740Y-67181508D01*
X120063456Y-67427983D01*
X120155961Y-67662222D01*
X120286610Y-67877526D01*
X120451669Y-68067739D01*
X120646416Y-68227422D01*
X120865284Y-68352009D01*
X121091005Y-68433941D01*
X121014557Y-68456369D01*
X120764485Y-68598718D01*
X120553868Y-68794779D01*
X120394003Y-69034034D01*
X120293467Y-69303647D01*
X120257651Y-69589158D01*
X120288479Y-69875251D01*
X120384295Y-70146579D01*
X120539959Y-70388587D01*
X120591001Y-70437791D01*
X120591000Y-79279825D01*
X120586535Y-79386347D01*
X120597267Y-79432104D01*
X120514557Y-79456369D01*
X120264485Y-79598718D01*
X120053868Y-79794779D01*
X119894003Y-80034034D01*
X119793467Y-80303647D01*
X119757651Y-80589158D01*
X119788479Y-80875251D01*
X119855247Y-81064322D01*
X119753070Y-81086550D01*
X119538362Y-81224533D01*
X119374250Y-81413929D01*
X119270146Y-81641888D01*
X119235776Y-81880930D01*
X119235776Y-81934441D01*
X119212864Y-81907136D01*
X119020651Y-81745850D01*
X118863294Y-81655000D01*
X119020651Y-81564150D01*
X119212864Y-81402864D01*
X119374150Y-81210651D01*
X119499609Y-80993349D01*
X119585429Y-80757564D01*
X119629000Y-80510459D01*
X119629000Y-80259541D01*
X119585429Y-80012436D01*
X119499609Y-79776651D01*
X119374150Y-79559349D01*
X119212864Y-79367136D01*
X119020651Y-79205850D01*
X118863294Y-79115000D01*
X119020651Y-79024150D01*
X119212864Y-78862864D01*
X119374150Y-78670651D01*
X119499609Y-78453349D01*
X119585429Y-78217564D01*
X119629000Y-77970459D01*
X119629000Y-77719541D01*
X119585429Y-77472436D01*
X119499609Y-77236651D01*
X119374150Y-77019349D01*
X119212864Y-76827136D01*
X119020651Y-76665850D01*
X118863294Y-76575000D01*
X119020651Y-76484150D01*
X119212864Y-76322864D01*
X119374150Y-76130651D01*
X119499609Y-75913349D01*
X119585429Y-75677564D01*
X119629000Y-75430459D01*
X119629000Y-75179541D01*
X119585429Y-74932436D01*
X119499609Y-74696651D01*
X119374150Y-74479349D01*
X119212864Y-74287136D01*
X119020651Y-74125850D01*
X118863294Y-74035000D01*
X119020651Y-73944150D01*
X119212864Y-73782864D01*
X119374150Y-73590651D01*
X119499609Y-73373349D01*
X119585429Y-73137564D01*
X119629000Y-72890459D01*
X119629000Y-72639541D01*
X119585429Y-72392436D01*
X119499609Y-72156651D01*
X119374150Y-71939349D01*
X119212864Y-71747136D01*
X119020651Y-71585850D01*
X118863294Y-71495000D01*
X119020651Y-71404150D01*
X119212864Y-71242864D01*
X119374150Y-71050651D01*
X119499609Y-70833349D01*
X119585429Y-70597564D01*
X119629000Y-70350459D01*
X119629000Y-70099541D01*
X119585429Y-69852436D01*
X119499609Y-69616651D01*
X119374150Y-69399349D01*
X119212864Y-69207136D01*
X119020651Y-69045850D01*
X118863294Y-68955000D01*
X119020651Y-68864150D01*
X119212864Y-68702864D01*
X119374150Y-68510651D01*
X119499609Y-68293349D01*
X119585429Y-68057564D01*
X119629000Y-67810459D01*
X119629000Y-67559541D01*
X119585429Y-67312436D01*
X119499609Y-67076651D01*
X119374150Y-66859349D01*
X119212864Y-66667136D01*
X119020651Y-66505850D01*
X118863294Y-66415000D01*
X119020651Y-66324150D01*
X119212864Y-66162864D01*
X119374150Y-65970651D01*
X119499609Y-65753349D01*
X119585429Y-65517564D01*
X119629000Y-65270459D01*
X119629000Y-65019541D01*
X119588038Y-64787231D01*
X125043788Y-64787231D01*
X125201960Y-64907509D01*
X125425246Y-65023992D01*
X125664966Y-65101190D01*
X125914266Y-65136892D01*
X126166017Y-65130080D01*
X126413022Y-65080948D01*
X126648216Y-64990901D01*
X126969497Y-64800516D01*
X126000000Y-63831019D01*
X125043788Y-64787231D01*
X119588038Y-64787231D01*
X119585429Y-64772436D01*
X119499609Y-64536651D01*
X119374150Y-64319349D01*
X119212864Y-64127136D01*
X119020651Y-63965850D01*
X118863294Y-63875000D01*
X119020651Y-63784150D01*
X119199111Y-63634404D01*
X124510720Y-63634404D01*
X124529384Y-63885554D01*
X124590097Y-64129970D01*
X124691123Y-64360662D01*
X124856712Y-64612269D01*
X125818981Y-63650000D01*
X126181019Y-63650000D01*
X127151807Y-64620788D01*
X127345393Y-64288840D01*
X127433796Y-64053022D01*
X127481318Y-63805082D01*
X127483104Y-63634404D01*
X131010720Y-63634404D01*
X131029384Y-63885554D01*
X131090097Y-64129970D01*
X131191123Y-64360662D01*
X131329575Y-64571033D01*
X131501493Y-64755071D01*
X131701960Y-64907510D01*
X131925246Y-65023992D01*
X132164966Y-65101190D01*
X132414266Y-65136892D01*
X132666017Y-65130080D01*
X132913022Y-65080948D01*
X133148216Y-64990901D01*
X133364877Y-64862512D01*
X133556807Y-64699455D01*
X133718521Y-64506391D01*
X133845393Y-64288840D01*
X133933796Y-64053022D01*
X133981318Y-63805082D01*
X133984240Y-63525974D01*
X133941922Y-63277094D01*
X133858477Y-63039476D01*
X133736188Y-62819315D01*
X133578554Y-62622907D01*
X133390080Y-62455866D01*
X133176156Y-62322969D01*
X132942899Y-62228016D01*
X132696977Y-62173721D01*
X132445424Y-62161638D01*
X132195431Y-62192113D01*
X131954147Y-62264272D01*
X131728470Y-62376053D01*
X131524854Y-62524261D01*
X131349120Y-62704656D01*
X131206293Y-62912083D01*
X131100457Y-63140609D01*
X131034639Y-63383699D01*
X131010720Y-63634404D01*
X127483104Y-63634404D01*
X127484240Y-63525974D01*
X127441922Y-63277094D01*
X127358477Y-63039476D01*
X127236187Y-62819314D01*
X127136235Y-62694784D01*
X126181019Y-63650000D01*
X125818981Y-63650000D01*
X124859118Y-62690137D01*
X124706293Y-62912083D01*
X124600457Y-63140609D01*
X124534639Y-63383699D01*
X124510720Y-63634404D01*
X119199111Y-63634404D01*
X119212864Y-63622864D01*
X119374150Y-63430651D01*
X119499609Y-63213349D01*
X119585429Y-62977564D01*
X119629000Y-62730459D01*
X119629000Y-62511443D01*
X125042462Y-62511443D01*
X126000000Y-63468981D01*
X126965969Y-62503012D01*
X126676157Y-62322969D01*
X126442899Y-62228016D01*
X126196977Y-62173721D01*
X125945424Y-62161638D01*
X125695431Y-62192113D01*
X125454147Y-62264272D01*
X125228470Y-62376053D01*
X125042462Y-62511443D01*
X119629000Y-62511443D01*
X119629000Y-62479541D01*
X119585429Y-62232436D01*
X119499609Y-61996651D01*
X119374150Y-61779349D01*
X119212864Y-61587136D01*
X119020651Y-61425850D01*
X118863294Y-61335000D01*
X119020651Y-61244150D01*
X119212864Y-61082864D01*
X119374150Y-60890651D01*
X119499609Y-60673349D01*
X119585429Y-60437564D01*
X119611936Y-60287231D01*
X125043788Y-60287231D01*
X125201960Y-60407509D01*
X125425246Y-60523992D01*
X125664966Y-60601190D01*
X125914266Y-60636892D01*
X126166017Y-60630080D01*
X126413022Y-60580948D01*
X126648216Y-60490901D01*
X126969497Y-60300516D01*
X126000000Y-59331019D01*
X125043788Y-60287231D01*
X119611936Y-60287231D01*
X119629000Y-60190459D01*
X119629000Y-59939541D01*
X119585429Y-59692436D01*
X119499609Y-59456651D01*
X119374150Y-59239349D01*
X119286091Y-59134404D01*
X124510720Y-59134404D01*
X124529384Y-59385554D01*
X124590097Y-59629970D01*
X124691123Y-59860662D01*
X124856712Y-60112269D01*
X125818981Y-59150000D01*
X124859118Y-58190137D01*
X124706293Y-58412083D01*
X124600457Y-58640609D01*
X124534639Y-58883699D01*
X124510720Y-59134404D01*
X119286091Y-59134404D01*
X119212864Y-59047136D01*
X119020651Y-58885850D01*
X118863294Y-58795000D01*
X119020651Y-58704150D01*
X119212864Y-58542864D01*
X119374150Y-58350651D01*
X119499609Y-58133349D01*
X119543979Y-58011443D01*
X125042462Y-58011443D01*
X127136510Y-60105491D01*
X127189959Y-60188587D01*
X127397122Y-60388293D01*
X127644672Y-60534984D01*
X127919328Y-60620794D01*
X128206358Y-60641117D01*
X128490366Y-60594863D01*
X128756115Y-60484514D01*
X128989350Y-60315990D01*
X129177561Y-60098330D01*
X129310651Y-59843210D01*
X129381606Y-59563829D01*
X129384277Y-59257691D01*
X129355247Y-59134404D01*
X131010720Y-59134404D01*
X131029384Y-59385554D01*
X131090097Y-59629970D01*
X131191123Y-59860662D01*
X131329575Y-60071033D01*
X131501493Y-60255071D01*
X131701960Y-60407510D01*
X131925246Y-60523992D01*
X132164966Y-60601190D01*
X132414266Y-60636892D01*
X132666017Y-60630080D01*
X132913022Y-60580948D01*
X133148216Y-60490901D01*
X133364877Y-60362512D01*
X133556807Y-60199455D01*
X133718521Y-60006391D01*
X133845393Y-59788840D01*
X133933796Y-59553022D01*
X133981318Y-59305082D01*
X133984240Y-59025974D01*
X133941922Y-58777094D01*
X133858477Y-58539476D01*
X133736188Y-58319315D01*
X133578554Y-58122907D01*
X133390080Y-57955866D01*
X133176156Y-57822969D01*
X132942899Y-57728016D01*
X132696977Y-57673721D01*
X132445424Y-57661638D01*
X132195431Y-57692113D01*
X131954147Y-57764272D01*
X131728470Y-57876053D01*
X131524854Y-58024261D01*
X131349120Y-58204656D01*
X131206293Y-58412083D01*
X131100457Y-58640609D01*
X131034639Y-58883699D01*
X131010720Y-59134404D01*
X129355247Y-59134404D01*
X129318210Y-58977114D01*
X129189592Y-58719710D01*
X129061272Y-58565969D01*
X129063465Y-58513651D01*
X129044820Y-58434154D01*
X129033738Y-58353255D01*
X129016502Y-58313427D01*
X129005515Y-58266578D01*
X128977682Y-58223720D01*
X128934829Y-58124691D01*
X128778097Y-57931144D01*
X128738581Y-57903061D01*
X127733489Y-56897970D01*
X127734277Y-56807691D01*
X127668210Y-56527114D01*
X127539592Y-56269710D01*
X127355208Y-56048798D01*
X127124950Y-55876229D01*
X126861168Y-55761259D01*
X126578010Y-55710056D01*
X126290670Y-55725366D01*
X126014557Y-55806369D01*
X125764485Y-55948718D01*
X125553868Y-56144779D01*
X125394003Y-56384034D01*
X125293467Y-56653647D01*
X125257651Y-56939158D01*
X125288479Y-57225251D01*
X125384295Y-57496579D01*
X125539959Y-57738587D01*
X125539976Y-57738604D01*
X125454147Y-57764272D01*
X125228470Y-57876053D01*
X125042462Y-58011443D01*
X119543979Y-58011443D01*
X119585429Y-57897564D01*
X119629000Y-57650459D01*
X119629000Y-57399541D01*
X119585429Y-57152436D01*
X119499609Y-56916651D01*
X119374150Y-56699349D01*
X119212864Y-56507136D01*
X119020651Y-56345850D01*
X118863294Y-56255000D01*
X119020651Y-56164150D01*
X119212864Y-56002864D01*
X119374150Y-55810651D01*
X119458727Y-55664158D01*
X133057651Y-55664158D01*
X133088479Y-55950251D01*
X133184295Y-56221579D01*
X133339959Y-56463587D01*
X133547122Y-56663293D01*
X133794672Y-56809984D01*
X134069328Y-56895794D01*
X134356358Y-56916117D01*
X134640366Y-56869863D01*
X134906115Y-56759514D01*
X135139350Y-56590990D01*
X135327561Y-56373330D01*
X135460651Y-56118209D01*
X135494736Y-55984001D01*
X135545827Y-55984001D01*
X135652349Y-55988466D01*
X135731847Y-55969820D01*
X135812744Y-55958739D01*
X135852575Y-55941504D01*
X135899423Y-55930515D01*
X135942277Y-55902685D01*
X136041310Y-55859830D01*
X136234857Y-55703098D01*
X136262945Y-55663575D01*
X139292594Y-52633927D01*
X139297123Y-52638293D01*
X139544672Y-52784984D01*
X139780743Y-52858739D01*
X136622471Y-56017011D01*
X136465670Y-56025366D01*
X136189557Y-56106369D01*
X135939485Y-56248718D01*
X135728868Y-56444779D01*
X135569003Y-56684034D01*
X135468467Y-56953647D01*
X135432651Y-57239158D01*
X135463479Y-57525251D01*
X135559295Y-57796579D01*
X135714959Y-58038587D01*
X135922122Y-58238293D01*
X136169672Y-58384984D01*
X136444328Y-58470794D01*
X136731358Y-58491117D01*
X137015366Y-58444863D01*
X137281115Y-58334514D01*
X137514350Y-58165990D01*
X137702561Y-57948330D01*
X137835651Y-57693210D01*
X137906606Y-57413829D01*
X137907573Y-57302945D01*
X144142518Y-51068000D01*
X147188163Y-51068000D01*
X147188163Y-51606588D01*
X147268795Y-51907512D01*
X147416185Y-52083165D01*
X147609814Y-52194956D01*
X147818976Y-52231837D01*
X148952000Y-52231837D01*
X148952000Y-51068000D01*
X149208000Y-51068000D01*
X149208000Y-52231837D01*
X150346588Y-52231837D01*
X150647512Y-52151205D01*
X150823165Y-52003815D01*
X150934956Y-51810186D01*
X150971837Y-51601024D01*
X150971837Y-51068000D01*
X149208000Y-51068000D01*
X148952000Y-51068000D01*
X147188163Y-51068000D01*
X144142518Y-51068000D01*
X147284404Y-47926115D01*
X147298388Y-47942779D01*
X147225044Y-48069814D01*
X147188163Y-48278976D01*
X147188163Y-49606588D01*
X147268795Y-49907512D01*
X147298388Y-49942779D01*
X147225044Y-50069814D01*
X147188163Y-50278976D01*
X147188163Y-50812000D01*
X150971837Y-50812000D01*
X150971837Y-50273412D01*
X150891205Y-49972489D01*
X150861612Y-49937221D01*
X150934956Y-49810186D01*
X150971837Y-49601024D01*
X150971837Y-48273412D01*
X150891205Y-47972489D01*
X150861612Y-47937221D01*
X150934956Y-47810186D01*
X150971837Y-47601024D01*
X150971837Y-46273412D01*
X150891205Y-45972489D01*
X150861612Y-45937221D01*
X150934956Y-45810186D01*
X150971837Y-45601024D01*
X150971837Y-44273412D01*
X150891205Y-43972489D01*
X150861612Y-43937221D01*
X150934956Y-43810186D01*
X150971837Y-43601024D01*
X150971837Y-42273412D01*
X150891205Y-41972489D01*
X150861612Y-41937221D01*
X150934956Y-41810186D01*
X150971837Y-41601024D01*
X150971837Y-40273412D01*
X150891205Y-39972489D01*
X150861612Y-39937221D01*
X150934956Y-39810186D01*
X150971837Y-39601024D01*
X150971837Y-38273412D01*
X150891205Y-37972489D01*
X150861612Y-37937221D01*
X150934956Y-37810186D01*
X150971837Y-37601024D01*
X150971837Y-37068000D01*
X147188163Y-37068000D01*
X147188163Y-37606588D01*
X147268795Y-37907512D01*
X147298388Y-37942779D01*
X147247453Y-38031000D01*
X147205174Y-38031000D01*
X147098652Y-38026535D01*
X147019155Y-38045181D01*
X146938255Y-38056262D01*
X146898427Y-38073498D01*
X146851578Y-38084485D01*
X146808722Y-38112316D01*
X146709691Y-38155171D01*
X146516144Y-38311903D01*
X146488058Y-38351423D01*
X142547471Y-42292011D01*
X142390670Y-42300366D01*
X142114557Y-42381369D01*
X141864485Y-42523718D01*
X141653868Y-42719779D01*
X141494003Y-42959034D01*
X141393467Y-43228647D01*
X141357651Y-43514158D01*
X141388479Y-43800251D01*
X141484295Y-44071579D01*
X141639959Y-44313587D01*
X141847122Y-44513293D01*
X142094672Y-44659984D01*
X142369328Y-44745794D01*
X142656358Y-44766117D01*
X142940366Y-44719863D01*
X143118648Y-44645834D01*
X137797471Y-49967011D01*
X137640670Y-49975366D01*
X137364557Y-50056369D01*
X137114485Y-50198718D01*
X136903868Y-50394779D01*
X136744003Y-50634034D01*
X136643467Y-50903647D01*
X136607651Y-51189158D01*
X136638479Y-51475251D01*
X136734295Y-51746579D01*
X136889959Y-51988587D01*
X137097122Y-52188293D01*
X137141119Y-52214364D01*
X135189483Y-54166001D01*
X134920173Y-54166001D01*
X134813651Y-54161536D01*
X134734154Y-54180181D01*
X134653255Y-54191263D01*
X134613434Y-54208495D01*
X134566577Y-54219486D01*
X134523719Y-54247318D01*
X134424690Y-54290172D01*
X134236461Y-54442597D01*
X134090669Y-54450366D01*
X133814557Y-54531369D01*
X133564485Y-54673718D01*
X133353868Y-54869779D01*
X133194003Y-55109034D01*
X133093467Y-55378647D01*
X133057651Y-55664158D01*
X119458727Y-55664158D01*
X119499609Y-55593349D01*
X119585429Y-55357564D01*
X119629000Y-55110459D01*
X119629000Y-54859541D01*
X119585429Y-54612436D01*
X119499609Y-54376651D01*
X119374150Y-54159349D01*
X119212864Y-53967136D01*
X119020651Y-53805850D01*
X118863294Y-53715000D01*
X119020651Y-53624150D01*
X119212864Y-53462864D01*
X119374150Y-53270651D01*
X119499609Y-53053349D01*
X119585429Y-52817564D01*
X119629000Y-52570459D01*
X119629000Y-52543000D01*
X126983163Y-52543000D01*
X126983163Y-52956588D01*
X127063795Y-53257512D01*
X127211185Y-53433165D01*
X127404814Y-53544956D01*
X127613976Y-53581837D01*
X128597000Y-53581837D01*
X128597000Y-52543000D01*
X128853000Y-52543000D01*
X128853000Y-53581837D01*
X129841588Y-53581837D01*
X130142512Y-53501205D01*
X130318165Y-53353815D01*
X130429956Y-53160186D01*
X130466837Y-52951024D01*
X130466837Y-52543000D01*
X128853000Y-52543000D01*
X128597000Y-52543000D01*
X126983163Y-52543000D01*
X119629000Y-52543000D01*
X119629000Y-52319541D01*
X119585429Y-52072436D01*
X119515015Y-51878976D01*
X126983163Y-51878976D01*
X126983163Y-52287000D01*
X128597000Y-52287000D01*
X128597000Y-51248163D01*
X128853000Y-51248163D01*
X128853000Y-52287000D01*
X130466837Y-52287000D01*
X130466837Y-52081837D01*
X130791588Y-52081837D01*
X130820837Y-52074000D01*
X131408495Y-52074000D01*
X131416185Y-52083165D01*
X131609814Y-52194956D01*
X131818976Y-52231837D01*
X134346588Y-52231837D01*
X134647512Y-52151205D01*
X134823165Y-52003815D01*
X134934956Y-51810186D01*
X134971837Y-51601024D01*
X134971837Y-50273412D01*
X134891205Y-49972489D01*
X134861612Y-49937221D01*
X134934956Y-49810186D01*
X134971837Y-49601024D01*
X134971837Y-49068000D01*
X131188163Y-49068000D01*
X131188163Y-49606588D01*
X131241595Y-49806000D01*
X130830471Y-49806000D01*
X130786024Y-49798163D01*
X130466837Y-49798163D01*
X130466837Y-49593000D01*
X128853000Y-49593000D01*
X128853000Y-50631837D01*
X129083163Y-50631837D01*
X129083163Y-51248163D01*
X128853000Y-51248163D01*
X128597000Y-51248163D01*
X127608412Y-51248163D01*
X127307489Y-51328795D01*
X127131835Y-51476185D01*
X127020044Y-51669814D01*
X126983163Y-51878976D01*
X119515015Y-51878976D01*
X119499609Y-51836651D01*
X119374150Y-51619349D01*
X119212864Y-51427136D01*
X119020651Y-51265850D01*
X118863294Y-51175000D01*
X119020651Y-51084150D01*
X119212864Y-50922864D01*
X119374150Y-50730651D01*
X119499609Y-50513349D01*
X119585429Y-50277564D01*
X119629000Y-50030459D01*
X119629000Y-49779541D01*
X119596108Y-49593000D01*
X126983163Y-49593000D01*
X126983163Y-50006588D01*
X127063795Y-50307512D01*
X127211185Y-50483165D01*
X127404814Y-50594956D01*
X127613976Y-50631837D01*
X128597000Y-50631837D01*
X128597000Y-49593000D01*
X126983163Y-49593000D01*
X119596108Y-49593000D01*
X119585429Y-49532436D01*
X119499609Y-49296651D01*
X119374150Y-49079349D01*
X119247972Y-48928976D01*
X126983163Y-48928976D01*
X126983163Y-49337000D01*
X128597000Y-49337000D01*
X128597000Y-48298163D01*
X128853000Y-48298163D01*
X128853000Y-49337000D01*
X130466837Y-49337000D01*
X130466837Y-48923412D01*
X130386205Y-48622489D01*
X130238815Y-48446835D01*
X130045186Y-48335044D01*
X129836024Y-48298163D01*
X128853000Y-48298163D01*
X128597000Y-48298163D01*
X127608412Y-48298163D01*
X127307489Y-48378795D01*
X127131835Y-48526185D01*
X127020044Y-48719814D01*
X126983163Y-48928976D01*
X119247972Y-48928976D01*
X119212864Y-48887136D01*
X119020651Y-48725850D01*
X118863294Y-48635000D01*
X119020651Y-48544150D01*
X119212864Y-48382864D01*
X119374150Y-48190651D01*
X119499609Y-47973349D01*
X119585429Y-47737564D01*
X119629000Y-47490459D01*
X119629000Y-47239541D01*
X119585428Y-46992436D01*
X119571075Y-46953000D01*
X127835776Y-46953000D01*
X127835776Y-47123604D01*
X127911550Y-47471931D01*
X128049533Y-47686638D01*
X128238929Y-47850750D01*
X128466888Y-47954854D01*
X128822000Y-48005913D01*
X128822000Y-46953000D01*
X127835776Y-46953000D01*
X119571075Y-46953000D01*
X119544990Y-46881335D01*
X119594642Y-46863410D01*
X119622894Y-46842505D01*
X119656165Y-46827377D01*
X119734156Y-46760175D01*
X119756583Y-46743580D01*
X119776307Y-46723856D01*
X119847991Y-46662089D01*
X119866260Y-46633903D01*
X120212175Y-46287988D01*
X120256358Y-46291117D01*
X120540366Y-46244863D01*
X120806115Y-46134514D01*
X121039350Y-45965990D01*
X121227561Y-45748330D01*
X121284513Y-45639158D01*
X126007651Y-45639158D01*
X126038479Y-45925251D01*
X126134295Y-46196579D01*
X126289959Y-46438587D01*
X126497122Y-46638293D01*
X126744672Y-46784984D01*
X127019328Y-46870794D01*
X127306358Y-46891117D01*
X127590366Y-46844863D01*
X127856115Y-46734514D01*
X127908034Y-46697000D01*
X129078000Y-46697000D01*
X129078000Y-48015459D01*
X129546930Y-47913450D01*
X129727424Y-47797455D01*
X129788929Y-47850750D01*
X130016888Y-47954854D01*
X130372000Y-48005913D01*
X130372000Y-46697000D01*
X130628000Y-46697000D01*
X130628000Y-48015459D01*
X131096930Y-47913450D01*
X131244905Y-47818353D01*
X131268795Y-47907512D01*
X131298388Y-47942779D01*
X131225044Y-48069814D01*
X131188163Y-48278976D01*
X131188163Y-48812000D01*
X134971837Y-48812000D01*
X134971837Y-48273412D01*
X134891205Y-47972489D01*
X134861612Y-47937221D01*
X134934956Y-47810186D01*
X134971837Y-47601024D01*
X134971837Y-46273412D01*
X134891205Y-45972489D01*
X134861612Y-45937221D01*
X134934956Y-45810186D01*
X134971837Y-45601024D01*
X134971837Y-44273412D01*
X134936412Y-44141204D01*
X135094672Y-44234984D01*
X135369328Y-44320794D01*
X135656358Y-44341117D01*
X135940366Y-44294863D01*
X136206115Y-44184514D01*
X136439350Y-44015990D01*
X136627561Y-43798330D01*
X136760651Y-43543210D01*
X136831606Y-43263829D01*
X136834277Y-42957691D01*
X136768210Y-42677114D01*
X136639592Y-42419710D01*
X136509000Y-42263247D01*
X136509000Y-41870173D01*
X136513465Y-41763651D01*
X136494820Y-41684154D01*
X136483738Y-41603255D01*
X136466502Y-41563427D01*
X136455515Y-41516578D01*
X136427682Y-41473720D01*
X136384829Y-41374691D01*
X136228097Y-41181144D01*
X136188584Y-41153063D01*
X135347049Y-40311530D01*
X135274861Y-40233025D01*
X135205452Y-40189989D01*
X135140422Y-40140629D01*
X135100084Y-40124657D01*
X135059174Y-40099294D01*
X135009187Y-40088669D01*
X134912028Y-40050201D01*
X134891205Y-39972489D01*
X134861612Y-39937221D01*
X134934956Y-39810186D01*
X134971837Y-39601024D01*
X134971837Y-38273412D01*
X134891205Y-37972489D01*
X134861612Y-37937221D01*
X134934956Y-37810186D01*
X134971837Y-37601024D01*
X134971837Y-36278976D01*
X147188163Y-36278976D01*
X147188163Y-36812000D01*
X148952000Y-36812000D01*
X148952000Y-35648163D01*
X149208000Y-35648163D01*
X149208000Y-36812000D01*
X150971837Y-36812000D01*
X150971837Y-36273412D01*
X150891205Y-35972489D01*
X150743815Y-35796835D01*
X150550186Y-35685044D01*
X150341024Y-35648163D01*
X149208000Y-35648163D01*
X148952000Y-35648163D01*
X147813412Y-35648163D01*
X147512489Y-35728795D01*
X147336835Y-35876185D01*
X147225044Y-36069814D01*
X147188163Y-36278976D01*
X134971837Y-36278976D01*
X134971837Y-36273412D01*
X134891205Y-35972489D01*
X134743815Y-35796835D01*
X134550186Y-35685044D01*
X134341024Y-35648163D01*
X131813412Y-35648163D01*
X131512489Y-35728795D01*
X131336835Y-35876185D01*
X131225044Y-36069814D01*
X131188163Y-36278976D01*
X131188163Y-37606588D01*
X131268795Y-37907512D01*
X131298388Y-37942779D01*
X131225044Y-38069814D01*
X131188163Y-38278976D01*
X131188163Y-39606588D01*
X131268795Y-39907512D01*
X131298388Y-39942779D01*
X131225044Y-40069814D01*
X131188163Y-40278976D01*
X131188163Y-41606588D01*
X131268795Y-41907512D01*
X131298388Y-41942779D01*
X131225044Y-42069814D01*
X131188163Y-42278976D01*
X131188163Y-42476316D01*
X129871519Y-43792962D01*
X129793026Y-43865139D01*
X129749996Y-43934539D01*
X129700629Y-43999578D01*
X129684658Y-44039917D01*
X129672650Y-44059283D01*
X129661071Y-44049250D01*
X129433112Y-43945146D01*
X129194070Y-43910776D01*
X128701396Y-43910776D01*
X128353069Y-43986550D01*
X128138362Y-44124533D01*
X128102431Y-44166000D01*
X127845174Y-44166000D01*
X127738652Y-44161535D01*
X127659155Y-44180180D01*
X127578256Y-44191262D01*
X127538435Y-44208494D01*
X127491578Y-44219485D01*
X127448720Y-44247317D01*
X127349691Y-44290171D01*
X127192746Y-44417263D01*
X127040670Y-44425366D01*
X126764557Y-44506369D01*
X126514485Y-44648718D01*
X126303868Y-44844779D01*
X126144003Y-45084034D01*
X126043467Y-45353647D01*
X126007651Y-45639158D01*
X121284513Y-45639158D01*
X121360651Y-45493210D01*
X121431606Y-45213829D01*
X121434277Y-44907691D01*
X121368210Y-44627114D01*
X121239592Y-44369710D01*
X121140799Y-44251345D01*
X121406629Y-44097868D01*
X121646263Y-43882100D01*
X121835800Y-43621224D01*
X121966956Y-43326643D01*
X122033999Y-43011230D01*
X122033999Y-42688770D01*
X121966956Y-42373357D01*
X121835800Y-42078776D01*
X121646263Y-41817900D01*
X121406629Y-41602132D01*
X121127370Y-41440902D01*
X120820693Y-41341258D01*
X120500000Y-41307551D01*
X120179307Y-41341258D01*
X119872630Y-41440902D01*
X119593371Y-41602132D01*
X119502325Y-41684111D01*
X119499609Y-41676650D01*
X119374150Y-41459349D01*
X119212864Y-41267136D01*
X119020651Y-41105850D01*
X118803349Y-40980391D01*
X118567564Y-40894571D01*
X118320459Y-40851000D01*
X118069541Y-40851000D01*
X117822436Y-40894571D01*
X117586651Y-40980391D01*
X117369349Y-41105850D01*
X117177136Y-41267136D01*
X117015850Y-41459349D01*
X116925000Y-41616706D01*
X116834150Y-41459349D01*
X116672864Y-41267136D01*
X116480651Y-41105850D01*
X116263349Y-40980391D01*
X116027564Y-40894571D01*
X115780459Y-40851000D01*
X115529541Y-40851000D01*
X115282436Y-40894571D01*
X115046651Y-40980391D01*
X114829349Y-41105850D01*
X114637136Y-41267136D01*
X114475850Y-41459349D01*
X114385000Y-41616706D01*
X114294150Y-41459349D01*
X114132864Y-41267136D01*
X113940651Y-41105850D01*
X113723349Y-40980391D01*
X113487564Y-40894571D01*
X113240459Y-40851000D01*
X112989541Y-40851000D01*
X112742436Y-40894571D01*
X112506651Y-40980391D01*
X112289349Y-41105850D01*
X112097136Y-41267136D01*
X111935850Y-41459349D01*
X111845000Y-41616706D01*
X111754150Y-41459349D01*
X111592864Y-41267136D01*
X111400651Y-41105850D01*
X111183349Y-40980391D01*
X110947564Y-40894571D01*
X110700459Y-40851000D01*
X110449541Y-40851000D01*
X110202436Y-40894571D01*
X109966651Y-40980391D01*
X109749349Y-41105850D01*
X109557136Y-41267136D01*
X109395850Y-41459349D01*
X109270391Y-41676651D01*
X109184571Y-41912436D01*
X109141000Y-42159541D01*
X109141000Y-42410459D01*
X109184571Y-42657564D01*
X109270391Y-42893349D01*
X109395850Y-43110651D01*
X109557136Y-43302864D01*
X109749349Y-43464150D01*
X109906706Y-43555000D01*
X109749349Y-43645850D01*
X109557136Y-43807136D01*
X109395850Y-43999349D01*
X109270391Y-44216651D01*
X109184571Y-44452436D01*
X109141000Y-44699541D01*
X109141000Y-44950459D01*
X109184571Y-45197564D01*
X109270391Y-45433349D01*
X109395850Y-45650651D01*
X109557136Y-45842864D01*
X109749349Y-46004150D01*
X109906706Y-46095000D01*
X109749349Y-46185850D01*
X109557136Y-46347136D01*
X109395850Y-46539349D01*
X109270391Y-46756651D01*
X109184571Y-46992436D01*
X109141000Y-47239541D01*
X109141000Y-47490459D01*
X109184571Y-47737564D01*
X109270391Y-47973349D01*
X109395850Y-48190651D01*
X109557136Y-48382864D01*
X109749349Y-48544150D01*
X109906706Y-48635000D01*
X109749349Y-48725850D01*
X109557136Y-48887136D01*
X109395850Y-49079349D01*
X109270391Y-49296651D01*
X109184571Y-49532436D01*
X109141000Y-49779541D01*
X109141000Y-50030459D01*
X109184571Y-50277564D01*
X109270391Y-50513349D01*
X109395850Y-50730651D01*
X109557136Y-50922864D01*
X109749349Y-51084150D01*
X109906706Y-51175000D01*
X109749349Y-51265850D01*
X109557136Y-51427136D01*
X109395850Y-51619349D01*
X109270391Y-51836651D01*
X109184571Y-52072436D01*
X109141000Y-52319541D01*
X109141000Y-52570459D01*
X109184571Y-52817564D01*
X109270391Y-53053349D01*
X109395850Y-53270651D01*
X109557136Y-53462864D01*
X109749349Y-53624150D01*
X109906706Y-53715000D01*
X109749349Y-53805850D01*
X109557136Y-53967136D01*
X109395850Y-54159349D01*
X109270391Y-54376651D01*
X109184571Y-54612436D01*
X109141000Y-54859541D01*
X109141000Y-55110459D01*
X109184571Y-55357564D01*
X109270391Y-55593349D01*
X109395850Y-55810651D01*
X109557136Y-56002864D01*
X109749349Y-56164150D01*
X109906706Y-56255000D01*
X109749349Y-56345850D01*
X109557136Y-56507136D01*
X109395850Y-56699349D01*
X109270391Y-56916651D01*
X109184571Y-57152436D01*
X109141000Y-57399541D01*
X109141000Y-57650459D01*
X109184571Y-57897564D01*
X109270391Y-58133349D01*
X109395850Y-58350651D01*
X109557136Y-58542864D01*
X109749349Y-58704150D01*
X109906706Y-58795000D01*
X109749349Y-58885850D01*
X109557136Y-59047136D01*
X109395850Y-59239349D01*
X109270391Y-59456651D01*
X109184571Y-59692436D01*
X109141000Y-59939541D01*
X109141000Y-60190459D01*
X109184571Y-60437564D01*
X109270391Y-60673349D01*
X109395850Y-60890651D01*
X109557136Y-61082864D01*
X109749349Y-61244150D01*
X109906706Y-61335000D01*
X109749349Y-61425850D01*
X109557136Y-61587136D01*
X109395850Y-61779349D01*
X109270391Y-61996651D01*
X109184571Y-62232436D01*
X109141000Y-62479541D01*
X109141000Y-62730459D01*
X109184571Y-62977564D01*
X109270391Y-63213349D01*
X109395850Y-63430651D01*
X109557136Y-63622864D01*
X109749349Y-63784150D01*
X109906706Y-63875000D01*
X109749349Y-63965850D01*
X109557136Y-64127136D01*
X109395850Y-64319349D01*
X109270391Y-64536651D01*
X109184571Y-64772436D01*
X109141000Y-65019541D01*
X109141000Y-65270459D01*
X109184571Y-65517564D01*
X109270391Y-65753349D01*
X109395850Y-65970651D01*
X109557136Y-66162864D01*
X109749349Y-66324150D01*
X109906706Y-66415000D01*
X109640001Y-66568982D01*
X110575000Y-67503981D01*
X111509999Y-66568982D01*
X111243294Y-66415000D01*
X111400651Y-66324150D01*
X111592864Y-66162864D01*
X111754150Y-65970651D01*
X111845000Y-65813294D01*
X111935850Y-65970651D01*
X112097136Y-66162864D01*
X112289349Y-66324150D01*
X112446706Y-66415000D01*
X112289349Y-66505850D01*
X112097136Y-66667136D01*
X111935850Y-66859349D01*
X111845000Y-67016706D01*
X111691018Y-66750001D01*
X110756019Y-67685000D01*
X111691018Y-68619999D01*
X111845000Y-68353294D01*
X111935850Y-68510651D01*
X112097136Y-68702864D01*
X112289349Y-68864150D01*
X112446706Y-68955000D01*
X112180001Y-69108982D01*
X113115000Y-70043981D01*
X114049999Y-69108982D01*
X113783294Y-68955000D01*
X113940651Y-68864150D01*
X114132864Y-68702864D01*
X114294150Y-68510651D01*
X114385000Y-68353294D01*
X114475850Y-68510651D01*
X114637136Y-68702864D01*
X114829349Y-68864150D01*
X114986706Y-68955000D01*
X114829349Y-69045850D01*
X114637136Y-69207136D01*
X114475850Y-69399349D01*
X114385000Y-69556706D01*
X114231018Y-69290001D01*
X113296019Y-70225000D01*
X114231018Y-71159999D01*
X114385000Y-70893294D01*
X114475850Y-71050651D01*
X114637136Y-71242864D01*
X114829349Y-71404150D01*
X114986706Y-71495000D01*
X114829349Y-71585850D01*
X114637136Y-71747136D01*
X114475850Y-71939349D01*
X114385000Y-72096706D01*
X114294150Y-71939349D01*
X114132864Y-71747136D01*
X113940651Y-71585850D01*
X113783294Y-71495000D01*
X114049999Y-71341018D01*
X113115000Y-70406019D01*
X112180001Y-71341018D01*
X112446706Y-71495000D01*
X112289349Y-71585850D01*
X112097136Y-71747136D01*
X111935850Y-71939349D01*
X111845000Y-72096706D01*
X111754150Y-71939349D01*
X111592864Y-71747136D01*
X111400651Y-71585850D01*
X111243294Y-71495000D01*
X111509999Y-71341018D01*
X110575000Y-70406019D01*
X109640001Y-71341018D01*
X109906706Y-71495000D01*
X109749349Y-71585850D01*
X109557136Y-71747136D01*
X109395850Y-71939349D01*
X109270391Y-72156651D01*
X109184571Y-72392436D01*
X109141000Y-72639541D01*
X109141000Y-72890459D01*
X109184571Y-73137564D01*
X109270391Y-73373349D01*
X109395850Y-73590651D01*
X109557136Y-73782864D01*
X109749349Y-73944150D01*
X109906706Y-74035000D01*
X109749349Y-74125850D01*
X109557136Y-74287136D01*
X109395850Y-74479349D01*
X109270391Y-74696651D01*
X109184571Y-74932436D01*
X109141000Y-75179541D01*
X109141000Y-75430459D01*
X109184571Y-75677564D01*
X109270391Y-75913349D01*
X109395850Y-76130651D01*
X109557136Y-76322864D01*
X109749349Y-76484150D01*
X109906706Y-76575000D01*
X109749349Y-76665850D01*
X109557136Y-76827136D01*
X109395850Y-77019349D01*
X109270391Y-77236651D01*
X109184571Y-77472436D01*
X109141000Y-77719541D01*
X109141000Y-77970459D01*
X109184571Y-78217564D01*
X109270391Y-78453349D01*
X109395850Y-78670651D01*
X109557136Y-78862864D01*
X109749349Y-79024150D01*
X109906706Y-79115000D01*
X109749349Y-79205850D01*
X109557136Y-79367136D01*
X109395850Y-79559349D01*
X109270391Y-79776651D01*
X109184571Y-80012436D01*
X109141000Y-80259541D01*
X109141000Y-80510459D01*
X109184571Y-80757564D01*
X109270391Y-80993349D01*
X109395850Y-81210651D01*
X109557136Y-81402864D01*
X109749349Y-81564150D01*
X109906706Y-81655000D01*
X109749349Y-81745850D01*
X109557136Y-81907136D01*
X109395850Y-82099349D01*
X109270391Y-82316651D01*
X109184571Y-82552436D01*
X109141000Y-82799541D01*
X109141000Y-83050459D01*
X109184571Y-83297564D01*
X109270391Y-83533349D01*
X109395850Y-83750651D01*
X109557136Y-83942864D01*
X109749349Y-84104150D01*
X109906706Y-84195000D01*
X109749349Y-84285850D01*
X109557136Y-84447136D01*
X109395850Y-84639349D01*
X109270391Y-84856651D01*
X109184571Y-85092436D01*
X109141000Y-85339541D01*
X109141000Y-85590459D01*
X109184571Y-85837564D01*
X109270391Y-86073349D01*
X109395850Y-86290651D01*
X109557136Y-86482864D01*
X109749349Y-86644150D01*
X109906706Y-86735000D01*
X109749349Y-86825850D01*
X109557136Y-86987136D01*
X109395850Y-87179349D01*
X109270391Y-87396651D01*
X109184571Y-87632436D01*
X109141000Y-87879541D01*
X109141000Y-88130459D01*
X109184571Y-88377564D01*
X109270391Y-88613349D01*
X109395850Y-88830651D01*
X109557136Y-89022864D01*
X109749349Y-89184150D01*
X109906706Y-89275000D01*
X109749349Y-89365850D01*
X109557136Y-89527136D01*
X109395850Y-89719349D01*
X109270391Y-89936651D01*
X109184571Y-90172436D01*
X109141000Y-90419541D01*
X109141000Y-90670459D01*
X109184571Y-90917564D01*
X109270391Y-91153349D01*
X109395850Y-91370651D01*
X109557136Y-91562864D01*
X109749349Y-91724150D01*
X109906706Y-91815000D01*
X109749349Y-91905850D01*
X109557136Y-92067136D01*
X109395850Y-92259349D01*
X109270391Y-92476651D01*
X109184571Y-92712436D01*
X109141000Y-92959541D01*
X109141000Y-93210459D01*
X109184571Y-93457564D01*
X109270391Y-93693349D01*
X109395850Y-93910651D01*
X109557136Y-94102864D01*
X109749349Y-94264150D01*
X109906706Y-94355000D01*
X109749349Y-94445850D01*
X109557136Y-94607136D01*
X109395850Y-94799349D01*
X109270391Y-95016651D01*
X109184571Y-95252436D01*
X109141000Y-95499541D01*
X109141000Y-95750459D01*
X109184571Y-95997564D01*
X109270391Y-96233349D01*
X109395850Y-96450651D01*
X109557136Y-96642864D01*
X109749349Y-96804150D01*
X109906706Y-96895000D01*
X109749349Y-96985850D01*
X109557136Y-97147136D01*
X109395850Y-97339349D01*
X109270391Y-97556651D01*
X109184571Y-97792436D01*
X109141000Y-98039541D01*
X109141000Y-98290459D01*
X109184571Y-98537564D01*
X109270391Y-98773349D01*
X109395850Y-98990651D01*
X109557136Y-99182864D01*
X109749349Y-99344150D01*
X109906706Y-99435000D01*
X109749349Y-99525850D01*
X109557136Y-99687136D01*
X109395850Y-99879349D01*
X109270391Y-100096651D01*
X109184571Y-100332436D01*
X109141000Y-100579541D01*
X109141000Y-100830459D01*
X109184571Y-101077564D01*
X109270391Y-101313349D01*
X109395850Y-101530651D01*
X109557136Y-101722864D01*
X109749349Y-101884150D01*
X109906706Y-101975000D01*
X109749349Y-102065850D01*
X109557136Y-102227136D01*
X109395850Y-102419349D01*
X109270391Y-102636651D01*
X109184571Y-102872436D01*
X109141000Y-103119541D01*
X109141000Y-103370459D01*
X109184571Y-103617564D01*
X109270391Y-103853349D01*
X109395850Y-104070651D01*
X109557136Y-104262864D01*
X109749349Y-104424150D01*
X109906706Y-104515000D01*
X109749349Y-104605850D01*
X109557136Y-104767136D01*
X109395850Y-104959349D01*
X109270391Y-105176651D01*
X109184571Y-105412436D01*
X109141000Y-105659541D01*
X109141000Y-105910459D01*
X109184571Y-106157564D01*
X109270391Y-106393349D01*
X109395850Y-106610651D01*
X109557136Y-106802864D01*
X109749349Y-106964150D01*
X109966651Y-107089609D01*
X110202436Y-107175429D01*
X110449541Y-107219000D01*
X110700459Y-107219000D01*
X110947564Y-107175429D01*
X111183349Y-107089609D01*
X111400651Y-106964150D01*
X111592864Y-106802864D01*
X111754150Y-106610651D01*
X111845000Y-106453294D01*
X111935850Y-106610651D01*
X112097136Y-106802864D01*
X112289349Y-106964150D01*
X112506651Y-107089609D01*
X112742436Y-107175429D01*
X112989541Y-107219000D01*
X113240459Y-107219000D01*
X113487564Y-107175429D01*
X113723349Y-107089609D01*
X113940651Y-106964150D01*
X114132864Y-106802864D01*
X114294150Y-106610651D01*
X114385000Y-106453294D01*
X114475850Y-106610651D01*
X114637136Y-106802864D01*
X114829349Y-106964150D01*
X115046651Y-107089609D01*
X115282436Y-107175429D01*
X115529541Y-107219000D01*
X115780459Y-107219000D01*
X116027564Y-107175429D01*
X116263349Y-107089609D01*
X116480651Y-106964150D01*
X116672864Y-106802864D01*
X116774606Y-106681613D01*
X116833795Y-106902512D01*
X116981185Y-107078165D01*
X117174814Y-107189956D01*
X117383976Y-107226837D01*
X119011588Y-107226837D01*
X119312512Y-107146205D01*
X119488165Y-106998815D01*
X119599956Y-106805186D01*
X119636837Y-106596024D01*
X119636837Y-104968412D01*
X119556205Y-104667489D01*
X119408815Y-104491835D01*
X119215186Y-104380044D01*
X119097868Y-104359358D01*
X119212864Y-104262864D01*
X119374150Y-104070651D01*
X119499609Y-103853349D01*
X119585429Y-103617564D01*
X119629000Y-103370459D01*
X119629000Y-103119541D01*
X119585429Y-102872436D01*
X119499609Y-102636651D01*
X119374150Y-102419349D01*
X119212864Y-102227136D01*
X119020651Y-102065850D01*
X118863294Y-101975000D01*
X119020651Y-101884150D01*
X119212864Y-101722864D01*
X119374150Y-101530651D01*
X119499609Y-101313349D01*
X119585429Y-101077564D01*
X119629000Y-100830459D01*
X119629000Y-100579541D01*
X119585429Y-100332436D01*
X119499609Y-100096651D01*
X119374150Y-99879349D01*
X119212864Y-99687136D01*
X119020651Y-99525850D01*
X118863294Y-99435000D01*
X119020651Y-99344150D01*
X119212864Y-99182864D01*
X119374150Y-98990651D01*
X119499609Y-98773349D01*
X119585429Y-98537564D01*
X119629000Y-98290459D01*
X119629000Y-98039541D01*
X119585429Y-97792436D01*
X119499609Y-97556651D01*
X119374150Y-97339349D01*
X119212864Y-97147136D01*
X119020651Y-96985850D01*
X118863294Y-96895000D01*
X119020651Y-96804150D01*
X119212864Y-96642864D01*
X119304211Y-96534000D01*
X120772871Y-96534000D01*
X120653868Y-96644779D01*
X120494003Y-96884034D01*
X120393467Y-97153647D01*
X120357651Y-97439158D01*
X120388479Y-97725251D01*
X120484295Y-97996579D01*
X120639959Y-98238587D01*
X120745064Y-98339908D01*
X120724250Y-98363929D01*
X120620146Y-98591888D01*
X120585776Y-98830930D01*
X120585776Y-99423604D01*
X120661550Y-99771931D01*
X120799533Y-99986638D01*
X120819532Y-100003967D01*
X120724250Y-100113929D01*
X120620146Y-100341888D01*
X120585776Y-100580930D01*
X120585776Y-101173604D01*
X120661550Y-101521931D01*
X120799533Y-101736638D01*
X120841000Y-101772569D01*
X120841001Y-109020766D01*
X120834973Y-109047405D01*
X120841001Y-109144559D01*
X120841001Y-109164692D01*
X120640670Y-109175366D01*
X120364557Y-109256369D01*
X120114485Y-109398718D01*
X120097928Y-109414131D01*
X119915662Y-109110792D01*
X119684229Y-108805889D01*
X119572881Y-108688138D01*
X117166019Y-111095000D01*
X119573106Y-113502087D01*
X119668190Y-113402888D01*
X119901739Y-113099619D01*
X119902131Y-113098977D01*
X119952545Y-113177424D01*
X119899250Y-113238929D01*
X119795146Y-113466888D01*
X119760776Y-113705930D01*
X119760776Y-114198604D01*
X119836550Y-114546931D01*
X119974533Y-114761638D01*
X120163929Y-114925750D01*
X120391888Y-115029854D01*
X120630930Y-115064224D01*
X120753705Y-115064224D01*
X121178501Y-115489021D01*
X121178501Y-115899671D01*
X121032489Y-115938795D01*
X120856835Y-116086185D01*
X120745044Y-116279814D01*
X120708163Y-116488976D01*
X120708163Y-118258163D01*
X120619000Y-118258163D01*
X120619000Y-117852739D01*
X120624299Y-117807966D01*
X120623808Y-117791955D01*
X120615408Y-117562892D01*
X120612325Y-117545840D01*
X120612743Y-117528118D01*
X120610747Y-117512226D01*
X120564445Y-117160522D01*
X120557963Y-117137383D01*
X120555729Y-117113066D01*
X120551922Y-117097507D01*
X120465499Y-116753446D01*
X120456401Y-116731207D01*
X120451385Y-116707303D01*
X120445813Y-116692284D01*
X120320421Y-116360443D01*
X120308828Y-116339399D01*
X120301097Y-116316227D01*
X120293837Y-116301949D01*
X120131134Y-115986718D01*
X120117196Y-115967143D01*
X120106857Y-115945019D01*
X120098002Y-115931669D01*
X119900147Y-115637228D01*
X119884051Y-115619383D01*
X119871237Y-115598594D01*
X119860907Y-115586351D01*
X119630521Y-115316602D01*
X119612484Y-115300728D01*
X119597363Y-115281547D01*
X119585695Y-115270572D01*
X119325828Y-115029089D01*
X119306082Y-115015391D01*
X119288863Y-114998081D01*
X119276010Y-114988518D01*
X118990112Y-114778505D01*
X118968921Y-114767166D01*
X118949827Y-114751951D01*
X118935963Y-114743930D01*
X118627817Y-114568167D01*
X118605470Y-114559342D01*
X118584743Y-114546415D01*
X118570046Y-114540042D01*
X118243748Y-114400863D01*
X118238499Y-114399461D01*
X118452678Y-114315525D01*
X118791909Y-114138180D01*
X119110001Y-113925236D01*
X119395040Y-113686059D01*
X116985000Y-111276019D01*
X114576164Y-113684855D01*
X114830478Y-113902828D01*
X115146324Y-114119092D01*
X115261781Y-114181000D01*
X111819056Y-114181000D01*
X112062678Y-114085525D01*
X112401909Y-113908180D01*
X112720001Y-113695236D01*
X113005040Y-113456059D01*
X110413981Y-110865000D01*
X110776019Y-110865000D01*
X113183106Y-113272087D01*
X113278190Y-113172888D01*
X113511739Y-112869619D01*
X113711177Y-112542888D01*
X113736483Y-112489110D01*
X113851424Y-112740164D01*
X114047429Y-113068966D01*
X114277798Y-113374675D01*
X114397178Y-113501803D01*
X116803981Y-111095000D01*
X114397035Y-108688055D01*
X114293780Y-108796480D01*
X114061281Y-109100575D01*
X113862986Y-109428000D01*
X113843428Y-109469941D01*
X113722815Y-109208907D01*
X113525662Y-108880792D01*
X113294229Y-108575889D01*
X113226602Y-108504373D01*
X114575392Y-108504373D01*
X116985000Y-110913981D01*
X119394206Y-108504775D01*
X119129707Y-108279669D01*
X118813110Y-108064508D01*
X118475125Y-107884799D01*
X118119710Y-107742644D01*
X117751020Y-107639703D01*
X117373371Y-107577183D01*
X116991177Y-107555816D01*
X116608911Y-107575850D01*
X116231045Y-107637051D01*
X115861999Y-107738703D01*
X115506090Y-107879617D01*
X115167480Y-108058145D01*
X114850132Y-108272199D01*
X114575392Y-108504373D01*
X113226602Y-108504373D01*
X113182881Y-108458138D01*
X110776019Y-110865000D01*
X110413981Y-110865000D01*
X108007035Y-108458055D01*
X107903780Y-108566480D01*
X107671281Y-108870575D01*
X107472986Y-109198000D01*
X107311211Y-109544926D01*
X107279000Y-109639545D01*
X107279000Y-108274373D01*
X108185392Y-108274373D01*
X110595000Y-110683981D01*
X113004206Y-108274775D01*
X112739707Y-108049669D01*
X112423110Y-107834508D01*
X112085125Y-107654799D01*
X111729710Y-107512644D01*
X111361020Y-107409703D01*
X110983371Y-107347183D01*
X110601177Y-107325816D01*
X110218911Y-107345850D01*
X109841045Y-107407051D01*
X109471999Y-107508703D01*
X109116090Y-107649617D01*
X108777480Y-107828145D01*
X108460132Y-108042199D01*
X108185392Y-108274373D01*
X107279000Y-108274373D01*
X107279000Y-96647609D01*
X108363088Y-95563522D01*
X108380126Y-95552772D01*
X108427661Y-95498949D01*
X108445440Y-95481171D01*
X108457084Y-95465634D01*
X108500343Y-95416653D01*
X108511325Y-95393262D01*
X108526818Y-95372589D01*
X108549753Y-95311412D01*
X108577689Y-95251911D01*
X108581422Y-95226935D01*
X108590567Y-95202539D01*
X108596006Y-95129343D01*
X108599000Y-95109313D01*
X108599000Y-95089062D01*
X108604025Y-95021435D01*
X108599000Y-94997895D01*
X108599000Y-70099541D01*
X109141000Y-70099541D01*
X109141000Y-70350459D01*
X109184571Y-70597564D01*
X109270391Y-70833349D01*
X109458982Y-71159999D01*
X110393981Y-70225000D01*
X110756019Y-70225000D01*
X111691018Y-71159999D01*
X111845000Y-70893294D01*
X111998982Y-71159999D01*
X112933981Y-70225000D01*
X111998982Y-69290001D01*
X111845000Y-69556706D01*
X111691018Y-69290001D01*
X110756019Y-70225000D01*
X110393981Y-70225000D01*
X109458982Y-69290001D01*
X109270391Y-69616651D01*
X109184571Y-69852436D01*
X109141000Y-70099541D01*
X108599000Y-70099541D01*
X108599000Y-69108982D01*
X109640001Y-69108982D01*
X110575000Y-70043981D01*
X111509999Y-69108982D01*
X111243294Y-68955000D01*
X111509999Y-68801018D01*
X110575000Y-67866019D01*
X109640001Y-68801018D01*
X109906706Y-68955000D01*
X109640001Y-69108982D01*
X108599000Y-69108982D01*
X108599000Y-68801018D01*
X108599000Y-67559541D01*
X109141000Y-67559541D01*
X109141000Y-67810459D01*
X109184571Y-68057564D01*
X109270391Y-68293349D01*
X109458982Y-68619999D01*
X110393981Y-67685000D01*
X109458982Y-66750001D01*
X109270391Y-67076651D01*
X109184571Y-67312436D01*
X109141000Y-67559541D01*
X108599000Y-67559541D01*
X108599000Y-55136010D01*
X108603445Y-55116368D01*
X108599000Y-55044728D01*
X108599000Y-55019553D01*
X108596245Y-55000316D01*
X108592200Y-54935111D01*
X108583427Y-54910810D01*
X108579764Y-54885232D01*
X108552720Y-54825751D01*
X108530402Y-54763930D01*
X108515383Y-54743631D01*
X108504597Y-54719911D01*
X108456681Y-54664302D01*
X108444638Y-54648027D01*
X108430326Y-54633716D01*
X108386054Y-54582336D01*
X108365852Y-54569242D01*
X107279000Y-53482390D01*
X107279000Y-39794855D01*
X108186164Y-39794855D01*
X108440478Y-40012828D01*
X108756324Y-40229092D01*
X109093677Y-40409980D01*
X109448595Y-40553375D01*
X109816923Y-40657601D01*
X110194352Y-40721440D01*
X110576469Y-40744141D01*
X110958802Y-40725442D01*
X111336880Y-40665560D01*
X111706279Y-40565197D01*
X112062678Y-40425525D01*
X112401909Y-40248180D01*
X112720001Y-40035236D01*
X113005040Y-39796059D01*
X110595000Y-37386019D01*
X108186164Y-39794855D01*
X107279000Y-39794855D01*
X107279000Y-38432749D01*
X107302076Y-38502118D01*
X107461424Y-38850164D01*
X107657429Y-39178966D01*
X107887798Y-39484675D01*
X108007178Y-39611803D01*
X110413981Y-37205000D01*
X110776019Y-37205000D01*
X113183106Y-39612087D01*
X113278190Y-39512888D01*
X113376788Y-39384855D01*
X114576164Y-39384855D01*
X114830478Y-39602828D01*
X115146324Y-39819092D01*
X115483677Y-39999980D01*
X115838595Y-40143375D01*
X116206923Y-40247601D01*
X116584352Y-40311440D01*
X116966469Y-40334141D01*
X117348802Y-40315442D01*
X117726880Y-40255560D01*
X118096279Y-40155197D01*
X118452678Y-40015525D01*
X118791909Y-39838180D01*
X119110001Y-39625236D01*
X119395040Y-39386059D01*
X116985000Y-36976019D01*
X114576164Y-39384855D01*
X113376788Y-39384855D01*
X113511739Y-39209619D01*
X113711177Y-38882888D01*
X113874161Y-38536529D01*
X113886869Y-38499623D01*
X114047429Y-38768966D01*
X114277798Y-39074675D01*
X114397178Y-39201803D01*
X116803981Y-36795000D01*
X117166019Y-36795000D01*
X119573106Y-39202087D01*
X119668190Y-39102888D01*
X119901739Y-38799619D01*
X120101177Y-38472888D01*
X120264161Y-38126529D01*
X120388785Y-37764593D01*
X120473592Y-37391316D01*
X120517614Y-37010843D01*
X120519035Y-36603824D01*
X120477669Y-36223053D01*
X120395471Y-35849193D01*
X120273376Y-35486396D01*
X120112815Y-35138907D01*
X119915662Y-34810792D01*
X119684229Y-34505889D01*
X119572881Y-34388138D01*
X117166019Y-36795000D01*
X116803981Y-36795000D01*
X114397035Y-34388055D01*
X114293780Y-34496480D01*
X114061281Y-34800575D01*
X113862986Y-35128000D01*
X113701211Y-35474926D01*
X113692948Y-35499200D01*
X113525662Y-35220792D01*
X113294229Y-34915889D01*
X113182881Y-34798138D01*
X110776019Y-37205000D01*
X110413981Y-37205000D01*
X113004206Y-34614775D01*
X112739707Y-34389669D01*
X112423110Y-34174508D01*
X112085125Y-33994799D01*
X111820607Y-33889000D01*
X114973480Y-33889000D01*
X114850132Y-33972199D01*
X114575392Y-34204373D01*
X116985000Y-36613981D01*
X119394206Y-34204775D01*
X119129707Y-33979669D01*
X118813110Y-33764508D01*
X118475125Y-33584799D01*
X118460431Y-33578922D01*
X118460602Y-33578827D01*
X118483772Y-33571098D01*
X118498051Y-33563837D01*
X118813281Y-33401134D01*
X118832854Y-33387198D01*
X118854987Y-33376854D01*
X118868336Y-33367999D01*
X119162772Y-33170147D01*
X119180617Y-33154051D01*
X119201401Y-33141240D01*
X119213645Y-33130911D01*
X119483398Y-32900521D01*
X119499272Y-32882484D01*
X119518453Y-32867363D01*
X119529428Y-32855695D01*
X119770910Y-32595829D01*
X119784607Y-32576084D01*
X119801920Y-32558862D01*
X119811482Y-32546010D01*
X120021495Y-32260112D01*
X120032834Y-32238920D01*
X120048048Y-32219828D01*
X120056070Y-32205963D01*
X120231833Y-31897817D01*
X120240658Y-31875470D01*
X120253583Y-31854746D01*
X120259957Y-31840051D01*
X120399136Y-31513748D01*
X120405333Y-31490535D01*
X120415792Y-31468460D01*
X120420434Y-31453128D01*
X120521187Y-31112997D01*
X120524676Y-31089223D01*
X120532529Y-31066089D01*
X120535378Y-31050325D01*
X120596367Y-30700868D01*
X120597101Y-30676852D01*
X120602241Y-30652976D01*
X120603260Y-30636991D01*
X120623681Y-30282834D01*
X120619000Y-30227668D01*
X120619000Y-26399000D01*
X153761001Y-26399000D01*
X153761000Y-62431000D01*
X151333539Y-62431000D01*
X151238075Y-62430417D01*
X151192322Y-62443492D01*
X151145230Y-62450237D01*
X151105459Y-62468319D01*
X151063462Y-62480322D01*
X151023231Y-62505706D01*
X150979912Y-62525402D01*
X150946817Y-62553919D01*
X150909875Y-62577228D01*
X150878383Y-62612886D01*
X150842336Y-62643946D01*
X150818576Y-62680604D01*
X150789659Y-62713346D01*
X150769440Y-62756411D01*
X150743561Y-62796338D01*
X150731043Y-62838194D01*
X150712312Y-62878089D01*
X150705519Y-62923540D01*
X150691527Y-62970327D01*
X150691228Y-63019173D01*
X150691001Y-63020692D01*
X150691001Y-63056299D01*
X150690417Y-63151932D01*
X150691001Y-63153975D01*
X150691000Y-84086461D01*
X150690417Y-84181927D01*
X150703493Y-84227678D01*
X150710237Y-84274769D01*
X150728318Y-84314538D01*
X150740322Y-84356539D01*
X150765706Y-84396771D01*
X150785402Y-84440089D01*
X150813920Y-84473184D01*
X150837227Y-84510126D01*
X150872889Y-84541621D01*
X150903946Y-84577664D01*
X150940601Y-84601422D01*
X150973346Y-84630342D01*
X151016416Y-84650564D01*
X151056338Y-84676439D01*
X151098183Y-84688953D01*
X151138088Y-84707689D01*
X151183546Y-84714483D01*
X151230327Y-84728473D01*
X151279168Y-84728772D01*
X151280694Y-84729000D01*
X151316461Y-84729000D01*
X151411926Y-84729583D01*
X151413966Y-84729000D01*
X153761000Y-84729000D01*
X153761001Y-120661000D01*
X148441837Y-120661000D01*
X148441837Y-119223412D01*
X148361205Y-118922489D01*
X148213815Y-118746835D01*
X148020186Y-118635044D01*
X147929685Y-118619086D01*
X147934999Y-118616018D01*
X147000000Y-117681019D01*
X146065001Y-118616018D01*
X146081413Y-118625494D01*
X145882489Y-118678795D01*
X145706835Y-118826185D01*
X145595044Y-119019814D01*
X145558163Y-119228976D01*
X145558163Y-120661000D01*
X129289337Y-120661000D01*
X129289337Y-118883412D01*
X129208705Y-118582489D01*
X129061315Y-118406835D01*
X128867686Y-118295044D01*
X128658524Y-118258163D01*
X128391837Y-118258163D01*
X128391837Y-117188770D01*
X131566001Y-117188770D01*
X131566001Y-117511230D01*
X131633044Y-117826643D01*
X131764200Y-118121224D01*
X131953737Y-118382100D01*
X131974000Y-118400345D01*
X131974000Y-118926000D01*
X139226000Y-118926000D01*
X139226000Y-118400345D01*
X139246263Y-118382100D01*
X139435800Y-118121224D01*
X139566956Y-117826643D01*
X139633999Y-117511230D01*
X139633999Y-117374541D01*
X145566000Y-117374541D01*
X145566000Y-117625459D01*
X145609571Y-117872564D01*
X145695391Y-118108349D01*
X145883982Y-118434999D01*
X146818981Y-117500000D01*
X147181019Y-117500000D01*
X148116018Y-118434999D01*
X148304609Y-118108349D01*
X148390429Y-117872564D01*
X148434000Y-117625459D01*
X148434000Y-117374541D01*
X148390429Y-117127436D01*
X148304609Y-116891651D01*
X148116018Y-116565001D01*
X147181019Y-117500000D01*
X146818981Y-117500000D01*
X145883982Y-116565001D01*
X145695391Y-116891651D01*
X145609571Y-117127436D01*
X145566000Y-117374541D01*
X139633999Y-117374541D01*
X139633999Y-117188770D01*
X139566956Y-116873357D01*
X139435800Y-116578776D01*
X139246263Y-116317900D01*
X139226000Y-116299655D01*
X139226000Y-114834541D01*
X145566000Y-114834541D01*
X145566000Y-115085459D01*
X145609571Y-115332564D01*
X145695391Y-115568349D01*
X145820850Y-115785651D01*
X145982136Y-115977864D01*
X146174349Y-116139150D01*
X146331706Y-116230000D01*
X146065001Y-116383982D01*
X147000000Y-117318981D01*
X147934999Y-116383982D01*
X147668294Y-116230000D01*
X147825651Y-116139150D01*
X148017864Y-115977864D01*
X148179150Y-115785651D01*
X148304609Y-115568349D01*
X148390429Y-115332564D01*
X148434000Y-115085459D01*
X148434000Y-114834541D01*
X148390429Y-114587436D01*
X148304609Y-114351651D01*
X148179150Y-114134349D01*
X148017864Y-113942136D01*
X147825651Y-113780850D01*
X147608349Y-113655391D01*
X147372564Y-113569571D01*
X147125459Y-113526000D01*
X146874541Y-113526000D01*
X146627436Y-113569571D01*
X146391651Y-113655391D01*
X146174349Y-113780850D01*
X145982136Y-113942136D01*
X145820850Y-114134349D01*
X145695391Y-114351651D01*
X145609571Y-114587436D01*
X145566000Y-114834541D01*
X139226000Y-114834541D01*
X139226000Y-113674000D01*
X131974000Y-113674000D01*
X131974000Y-116299655D01*
X131953737Y-116317900D01*
X131764200Y-116578776D01*
X131633044Y-116873357D01*
X131566001Y-117188770D01*
X128391837Y-117188770D01*
X128391837Y-116483412D01*
X128311205Y-116182489D01*
X128311205Y-116182489D01*
G37*
X128311205Y-116182489D02*
X128163815Y-116006835D01*
X127970186Y-115895044D01*
X127761024Y-115858163D01*
X126709000Y-115858163D01*
X126709000Y-111672810D01*
X127400000Y-110981810D01*
X129607543Y-113189353D01*
X129622118Y-113212453D01*
X129695088Y-113276898D01*
X129719154Y-113300965D01*
X129740188Y-113316729D01*
X129806544Y-113375333D01*
X129838236Y-113390212D01*
X129866247Y-113411206D01*
X129949132Y-113442277D01*
X130029627Y-113480070D01*
X130063407Y-113485118D01*
X130096645Y-113497578D01*
X130196362Y-113504989D01*
X130223203Y-113509000D01*
X130250339Y-113509000D01*
X130342024Y-113515813D01*
X130373940Y-113509000D01*
X144313002Y-113509000D01*
X144447122Y-113638293D01*
X144694672Y-113784984D01*
X144969328Y-113870794D01*
X145256358Y-113891117D01*
X145540366Y-113844863D01*
X145806115Y-113734514D01*
X146039350Y-113565990D01*
X146227561Y-113348330D01*
X146360651Y-113093210D01*
X146431606Y-112813829D01*
X146434277Y-112507691D01*
X146368210Y-112227114D01*
X146239592Y-111969710D01*
X146055208Y-111748798D01*
X145824950Y-111576229D01*
X145561168Y-111461259D01*
X145278010Y-111410056D01*
X144990670Y-111425366D01*
X144714557Y-111506369D01*
X144464485Y-111648718D01*
X144311640Y-111791000D01*
X130638807Y-111791000D01*
X128259000Y-109411195D01*
X128259000Y-108307603D01*
X131476000Y-108307603D01*
X131492323Y-108506148D01*
X131557380Y-108765149D01*
X131663865Y-109010048D01*
X131808918Y-109234266D01*
X131988644Y-109431783D01*
X132198216Y-109597293D01*
X132432006Y-109726353D01*
X132683736Y-109815495D01*
X132946645Y-109862326D01*
X133213671Y-109865588D01*
X133477646Y-109825195D01*
X133731478Y-109742230D01*
X133968352Y-109618921D01*
X134181905Y-109458581D01*
X134366405Y-109265514D01*
X134516893Y-109044907D01*
X134629329Y-108802683D01*
X134700901Y-108544602D01*
X134724000Y-108300243D01*
X134724000Y-106192396D01*
X134707677Y-105993851D01*
X134642620Y-105734850D01*
X134536135Y-105489951D01*
X134391082Y-105265733D01*
X134384934Y-105258976D01*
X136468163Y-105258976D01*
X136468163Y-109246588D01*
X136548795Y-109547512D01*
X136696185Y-109723165D01*
X136889814Y-109834956D01*
X137098976Y-109871837D01*
X139106588Y-109871837D01*
X139407512Y-109791205D01*
X139583165Y-109643815D01*
X139694956Y-109450186D01*
X139731837Y-109241024D01*
X139731837Y-105253412D01*
X139651205Y-104952489D01*
X139503815Y-104776835D01*
X139310186Y-104665044D01*
X139101024Y-104628163D01*
X137093412Y-104628163D01*
X136792489Y-104708795D01*
X136616835Y-104856185D01*
X136505044Y-105049814D01*
X136468163Y-105258976D01*
X134384934Y-105258976D01*
X134211356Y-105068216D01*
X134001784Y-104902707D01*
X133767994Y-104773647D01*
X133516264Y-104684505D01*
X133253355Y-104637674D01*
X132986329Y-104634412D01*
X132722354Y-104674805D01*
X132468522Y-104757770D01*
X132231648Y-104881079D01*
X132018095Y-105041420D01*
X131833596Y-105234486D01*
X131683108Y-105455093D01*
X131570672Y-105697317D01*
X131499100Y-105955398D01*
X131476001Y-106199757D01*
X131476000Y-108307603D01*
X128259000Y-108307603D01*
X128259000Y-107693265D01*
X128427561Y-107498330D01*
X128560651Y-107243210D01*
X128631606Y-106963829D01*
X128634277Y-106657691D01*
X128568210Y-106377114D01*
X128439592Y-106119710D01*
X128255208Y-105898798D01*
X128024950Y-105726229D01*
X127761168Y-105611259D01*
X127478010Y-105560056D01*
X127190670Y-105575366D01*
X126914557Y-105656369D01*
X126664485Y-105798718D01*
X126453868Y-105994779D01*
X126294003Y-106234034D01*
X126193467Y-106503647D01*
X126157651Y-106789158D01*
X126188479Y-107075251D01*
X126284295Y-107346579D01*
X126439959Y-107588587D01*
X126541001Y-107685991D01*
X126541000Y-108198571D01*
X126328010Y-108160056D01*
X126059000Y-108174389D01*
X126059000Y-94167567D01*
X126069328Y-94170794D01*
X126111381Y-94173771D01*
X126138479Y-94425251D01*
X126234295Y-94696579D01*
X126389959Y-94938587D01*
X126597122Y-95138293D01*
X126844672Y-95284984D01*
X127119328Y-95370794D01*
X127406358Y-95391117D01*
X127690366Y-95344863D01*
X127956115Y-95234514D01*
X128189350Y-95065990D01*
X128377561Y-94848330D01*
X128510651Y-94593210D01*
X128581606Y-94313829D01*
X128582874Y-94168437D01*
X128810776Y-94131321D01*
X128810776Y-94610976D01*
X128887691Y-94964549D01*
X129027618Y-95182279D01*
X129162291Y-95298974D01*
X129117721Y-95327618D01*
X128951255Y-95519730D01*
X128845657Y-95750958D01*
X128810776Y-95993558D01*
X128810776Y-96660976D01*
X128887691Y-97014549D01*
X129027618Y-97232279D01*
X129219730Y-97398745D01*
X129450958Y-97504343D01*
X129693558Y-97539224D01*
X130610976Y-97539224D01*
X130964549Y-97462309D01*
X131121877Y-97361199D01*
X131108163Y-97438976D01*
X131108163Y-98366588D01*
X131188795Y-98667512D01*
X131336185Y-98843165D01*
X131529814Y-98954956D01*
X131738976Y-98991837D01*
X132259687Y-98991837D01*
X132206835Y-99036185D01*
X132095044Y-99229814D01*
X132058163Y-99438976D01*
X132058163Y-100366588D01*
X132066000Y-100395837D01*
X132066001Y-100876282D01*
X131994003Y-100984033D01*
X131893467Y-101253647D01*
X131857651Y-101539158D01*
X131888479Y-101825251D01*
X131984295Y-102096579D01*
X132139959Y-102338587D01*
X132347122Y-102538293D01*
X132594672Y-102684984D01*
X132869328Y-102770794D01*
X133156358Y-102791117D01*
X133440366Y-102744863D01*
X133706115Y-102634514D01*
X133939350Y-102465990D01*
X134127561Y-102248330D01*
X134260651Y-101993210D01*
X134331606Y-101713829D01*
X134334277Y-101407691D01*
X134268210Y-101127114D01*
X134139592Y-100869710D01*
X134134000Y-100863010D01*
X134134000Y-100405471D01*
X134141837Y-100361024D01*
X134141837Y-99433412D01*
X134061205Y-99132489D01*
X133922000Y-98966590D01*
X133922000Y-98028000D01*
X134178000Y-98028000D01*
X134178000Y-98991837D01*
X134466588Y-98991837D01*
X134767512Y-98911205D01*
X134943165Y-98763815D01*
X135054956Y-98570186D01*
X135091837Y-98361024D01*
X135091837Y-98028000D01*
X134178000Y-98028000D01*
X133922000Y-98028000D01*
X133922000Y-97772000D01*
X135091837Y-97772000D01*
X135091837Y-97433412D01*
X135011205Y-97132489D01*
X134975617Y-97090076D01*
X135000750Y-97061071D01*
X135104854Y-96833112D01*
X135155913Y-96478000D01*
X133847000Y-96478000D01*
X133847000Y-95235776D01*
X134103000Y-95235776D01*
X134103000Y-96222000D01*
X135165459Y-96222000D01*
X135063450Y-95753070D01*
X134925467Y-95538362D01*
X134736071Y-95374250D01*
X134508112Y-95270146D01*
X134269070Y-95235776D01*
X134103000Y-95235776D01*
X133847000Y-95235776D01*
X133676396Y-95235776D01*
X133328069Y-95311550D01*
X133113362Y-95449533D01*
X133096033Y-95469532D01*
X132986071Y-95374250D01*
X132758112Y-95270146D01*
X132519070Y-95235776D01*
X131926396Y-95235776D01*
X131578069Y-95311550D01*
X131376640Y-95441000D01*
X131287342Y-95441000D01*
X131272382Y-95417721D01*
X131137709Y-95301026D01*
X131182279Y-95272382D01*
X131348745Y-95080270D01*
X131454343Y-94849042D01*
X131489224Y-94606442D01*
X131489224Y-94221294D01*
X135053470Y-90657049D01*
X135131976Y-90584859D01*
X135175007Y-90515458D01*
X135224372Y-90450422D01*
X135240345Y-90410079D01*
X135265707Y-90369174D01*
X135276332Y-90319187D01*
X135316053Y-90218864D01*
X135342085Y-89971179D01*
X135334001Y-89923382D01*
X135334001Y-87817843D01*
X140941000Y-93424843D01*
X140941001Y-109360213D01*
X140903868Y-109394779D01*
X140744003Y-109634034D01*
X140643467Y-109903647D01*
X140607651Y-110189158D01*
X140638479Y-110475251D01*
X140734295Y-110746579D01*
X140889959Y-110988587D01*
X141097122Y-111188293D01*
X141344672Y-111334984D01*
X141619328Y-111420794D01*
X141906358Y-111441117D01*
X142190366Y-111394863D01*
X142456115Y-111284514D01*
X142689350Y-111115990D01*
X142877561Y-110898330D01*
X143010651Y-110643210D01*
X143081606Y-110363829D01*
X143084277Y-110057691D01*
X143018210Y-109777114D01*
X142889592Y-109519710D01*
X142759000Y-109363247D01*
X142759000Y-96498000D01*
X146608163Y-96498000D01*
X146608163Y-97136588D01*
X146688795Y-97437512D01*
X146836185Y-97613165D01*
X147029814Y-97724956D01*
X147238976Y-97761837D01*
X147622000Y-97761837D01*
X147622000Y-96498000D01*
X146608163Y-96498000D01*
X142759000Y-96498000D01*
X142759000Y-93068498D01*
X142763465Y-92961976D01*
X142744819Y-92882479D01*
X142733738Y-92801579D01*
X142716502Y-92761751D01*
X142705515Y-92714902D01*
X142677684Y-92672046D01*
X142634829Y-92573015D01*
X142478097Y-92379468D01*
X142438580Y-92351385D01*
X134308737Y-84221543D01*
X134236537Y-84143025D01*
X134167128Y-84099989D01*
X134102098Y-84050629D01*
X134061760Y-84034657D01*
X134020850Y-84009294D01*
X133970863Y-83998669D01*
X133958157Y-83993638D01*
X134096931Y-83963450D01*
X134277424Y-83847455D01*
X134338929Y-83900750D01*
X134566888Y-84004854D01*
X134922000Y-84055913D01*
X134922000Y-82747000D01*
X135178000Y-82747000D01*
X135178000Y-84065459D01*
X135646930Y-83963450D01*
X135685205Y-83938853D01*
X135869730Y-84098745D01*
X136100958Y-84204343D01*
X136343558Y-84239224D01*
X136728706Y-84239224D01*
X146411366Y-93921885D01*
X146345146Y-94066888D01*
X146294087Y-94422000D01*
X147603000Y-94422000D01*
X147603000Y-94678000D01*
X146284541Y-94678000D01*
X146386550Y-95146930D01*
X146524533Y-95361638D01*
X146634911Y-95457281D01*
X146608163Y-95608976D01*
X146608163Y-96242000D01*
X147878000Y-96242000D01*
X147878000Y-97543142D01*
X147672791Y-97836297D01*
X147656836Y-97849684D01*
X147625845Y-97903363D01*
X147616276Y-97917032D01*
X147612022Y-97927306D01*
X147545044Y-98043314D01*
X147531004Y-98122938D01*
X147516000Y-98159168D01*
X147516000Y-98208029D01*
X147508163Y-98252476D01*
X147508163Y-100120089D01*
X147519940Y-100164040D01*
X147528792Y-100260983D01*
X147568517Y-100345336D01*
X147588795Y-100421012D01*
X147638023Y-100479680D01*
X148230333Y-101318786D01*
X148338737Y-101436638D01*
X148529814Y-101546956D01*
X148738976Y-101583837D01*
X149031319Y-101583837D01*
X149045474Y-101597992D01*
X148999058Y-101601931D01*
X148755292Y-101665200D01*
X148525671Y-101768637D01*
X148316760Y-101909284D01*
X148134534Y-102083119D01*
X147984203Y-102285172D01*
X147870064Y-102509666D01*
X147795382Y-102750181D01*
X147762292Y-102999841D01*
X147771740Y-103251508D01*
X147823456Y-103497983D01*
X147915961Y-103732222D01*
X148046610Y-103947526D01*
X148211669Y-104137739D01*
X148406416Y-104297422D01*
X148480061Y-104339343D01*
X148316760Y-104449284D01*
X148134534Y-104623119D01*
X147984203Y-104825172D01*
X147870064Y-105049666D01*
X147795382Y-105290181D01*
X147762292Y-105539841D01*
X147771740Y-105791508D01*
X147823456Y-106037983D01*
X147915961Y-106272222D01*
X148046610Y-106487526D01*
X148211669Y-106677739D01*
X148235975Y-106697669D01*
X148082489Y-106738795D01*
X147906835Y-106886185D01*
X147795044Y-107079814D01*
X147758163Y-107288976D01*
X147758163Y-109016588D01*
X147838795Y-109317512D01*
X147986185Y-109493165D01*
X148179814Y-109604956D01*
X148388976Y-109641837D01*
X150116588Y-109641837D01*
X150417512Y-109561205D01*
X150593165Y-109413815D01*
X150704956Y-109220186D01*
X150741837Y-109011024D01*
X150741837Y-107283412D01*
X150661205Y-106982489D01*
X150513815Y-106806835D01*
X150320186Y-106695044D01*
X150271554Y-106686469D01*
X150365466Y-106596881D01*
X150515797Y-106394828D01*
X150629936Y-106170334D01*
X150704618Y-105929819D01*
X150737708Y-105680159D01*
X150729499Y-105461486D01*
X150919328Y-105520794D01*
X151206358Y-105541117D01*
X151490366Y-105494863D01*
X151756115Y-105384514D01*
X151989350Y-105215990D01*
X152177561Y-104998330D01*
X152310651Y-104743210D01*
X152381606Y-104463829D01*
X152384277Y-104157691D01*
X152318210Y-103877114D01*
X152189592Y-103619710D01*
X152059000Y-103463247D01*
X152059000Y-102437174D01*
X152063465Y-102330652D01*
X152044820Y-102251155D01*
X152033738Y-102170256D01*
X152016506Y-102130435D01*
X152005515Y-102083578D01*
X151977683Y-102040720D01*
X151934829Y-101941691D01*
X151778097Y-101748144D01*
X151738577Y-101720058D01*
X150711448Y-100692930D01*
X150824146Y-100533273D01*
X150843164Y-100517316D01*
X150954956Y-100323686D01*
X150969385Y-100241856D01*
X150984000Y-100206761D01*
X150984000Y-100158971D01*
X150991837Y-100114524D01*
X150991837Y-98246911D01*
X150980307Y-98203884D01*
X150971868Y-98107264D01*
X150930827Y-98019219D01*
X150911205Y-97945989D01*
X150867703Y-97894145D01*
X150775087Y-97761837D01*
X150856318Y-97761837D01*
X151441001Y-98346521D01*
X151441000Y-99560214D01*
X151403868Y-99594779D01*
X151244003Y-99834034D01*
X151143467Y-100103647D01*
X151107651Y-100389158D01*
X151138479Y-100675251D01*
X151234295Y-100946579D01*
X151389959Y-101188587D01*
X151597122Y-101388293D01*
X151844672Y-101534984D01*
X152119328Y-101620794D01*
X152406358Y-101641117D01*
X152690366Y-101594863D01*
X152956115Y-101484514D01*
X153189350Y-101315990D01*
X153377561Y-101098330D01*
X153510651Y-100843210D01*
X153581606Y-100563829D01*
X153584277Y-100257691D01*
X153518210Y-99977114D01*
X153389592Y-99719710D01*
X153259000Y-99563247D01*
X153259000Y-97990174D01*
X153263465Y-97883652D01*
X153244820Y-97804155D01*
X153233738Y-97723256D01*
X153216506Y-97683435D01*
X153205515Y-97636578D01*
X153177683Y-97593720D01*
X153134829Y-97494691D01*
X152978097Y-97301144D01*
X152938577Y-97273058D01*
X151891837Y-96226319D01*
X151891837Y-95603412D01*
X151811205Y-95302489D01*
X151663815Y-95126835D01*
X151659000Y-95124055D01*
X151659000Y-94313105D01*
X151725750Y-94236071D01*
X151829854Y-94008112D01*
X151864224Y-93769070D01*
X151864224Y-93176396D01*
X151788450Y-92828069D01*
X151650467Y-92613362D01*
X151630468Y-92596033D01*
X151725750Y-92486071D01*
X151829854Y-92258112D01*
X151864224Y-92019070D01*
X151864224Y-91853000D01*
X149635776Y-91853000D01*
X149635776Y-92023604D01*
X149711550Y-92371931D01*
X149836270Y-92566000D01*
X147626519Y-92566000D01*
X146491449Y-91430930D01*
X149635776Y-91430930D01*
X149635776Y-91597000D01*
X150622000Y-91597000D01*
X150622000Y-90544087D01*
X150878000Y-90544087D01*
X150878000Y-91597000D01*
X151864224Y-91597000D01*
X151864224Y-91426396D01*
X151788450Y-91078069D01*
X151650467Y-90863362D01*
X151461071Y-90699250D01*
X151233112Y-90595146D01*
X150878000Y-90544087D01*
X150622000Y-90544087D01*
X150622000Y-90534541D01*
X150153070Y-90636550D01*
X149938362Y-90774533D01*
X149774250Y-90963929D01*
X149670146Y-91191888D01*
X149635776Y-91430930D01*
X146491449Y-91430930D01*
X138485519Y-83425001D01*
X139078485Y-82832036D01*
X139156975Y-82759860D01*
X139200007Y-82690457D01*
X139249371Y-82625423D01*
X139265345Y-82585077D01*
X139290705Y-82544176D01*
X139301329Y-82494193D01*
X139341053Y-82393864D01*
X139367084Y-82146179D01*
X139359000Y-82098382D01*
X139359000Y-80070173D01*
X139363465Y-79963651D01*
X139344820Y-79884154D01*
X139333738Y-79803255D01*
X139316502Y-79763427D01*
X139305515Y-79716578D01*
X139277682Y-79673720D01*
X139234829Y-79574691D01*
X139078097Y-79381144D01*
X139038581Y-79353061D01*
X136652061Y-76966543D01*
X136579861Y-76888025D01*
X136510452Y-76844989D01*
X136445422Y-76795629D01*
X136405084Y-76779657D01*
X136364174Y-76754294D01*
X136314187Y-76743669D01*
X136213864Y-76703948D01*
X135966180Y-76677916D01*
X135918383Y-76686000D01*
X130449803Y-76686000D01*
X130229950Y-76521229D01*
X129966168Y-76406259D01*
X129683010Y-76355056D01*
X129395670Y-76370366D01*
X129119557Y-76451369D01*
X128869485Y-76593718D01*
X128658868Y-76789779D01*
X128499003Y-77029034D01*
X128398467Y-77298647D01*
X128362651Y-77584158D01*
X128393479Y-77870251D01*
X128489295Y-78141579D01*
X128644959Y-78383587D01*
X128852122Y-78583293D01*
X129099672Y-78729984D01*
X129189866Y-78758163D01*
X128983412Y-78758163D01*
X128895148Y-78781813D01*
X128761023Y-78758163D01*
X128183412Y-78758163D01*
X128095148Y-78781813D01*
X127981441Y-78761763D01*
X128016837Y-78561024D01*
X128016837Y-76733412D01*
X127936205Y-76432489D01*
X127788815Y-76256835D01*
X127595186Y-76145044D01*
X127565387Y-76139790D01*
X127579854Y-76108112D01*
X127614224Y-75869070D01*
X127614224Y-75276396D01*
X127538450Y-74928069D01*
X127400467Y-74713362D01*
X127380468Y-74696033D01*
X127475750Y-74586071D01*
X127579854Y-74358112D01*
X127614224Y-74119070D01*
X127614224Y-73953000D01*
X125385776Y-73953000D01*
X125385776Y-74123604D01*
X125461550Y-74471931D01*
X125599533Y-74686638D01*
X125619532Y-74703967D01*
X125524250Y-74813929D01*
X125420146Y-75041888D01*
X125385776Y-75280930D01*
X125385776Y-75873604D01*
X125446253Y-76151613D01*
X125307489Y-76188795D01*
X125131835Y-76336185D01*
X125020044Y-76529814D01*
X124983163Y-76738976D01*
X124983163Y-77881318D01*
X124875000Y-77989481D01*
X124766837Y-77881318D01*
X124766837Y-76733412D01*
X124686205Y-76432489D01*
X124538815Y-76256835D01*
X124345186Y-76145044D01*
X124294255Y-76136064D01*
X124329854Y-76058112D01*
X124364224Y-75819070D01*
X124364224Y-75226396D01*
X124288450Y-74878069D01*
X124150467Y-74663362D01*
X124130468Y-74646033D01*
X124225750Y-74536071D01*
X124329854Y-74308112D01*
X124364224Y-74069070D01*
X124364224Y-73903000D01*
X123122000Y-73903000D01*
X123122000Y-73647000D01*
X123122000Y-72594087D01*
X123378000Y-72594087D01*
X123378000Y-73647000D01*
X124364224Y-73647000D01*
X124364224Y-73530930D01*
X125385776Y-73530930D01*
X125385776Y-73697000D01*
X126372000Y-73697000D01*
X126628000Y-73697000D01*
X127614224Y-73697000D01*
X127614224Y-73526396D01*
X127538450Y-73178069D01*
X127400467Y-72963362D01*
X127211071Y-72799250D01*
X126983112Y-72695146D01*
X126628000Y-72644087D01*
X126628000Y-73697000D01*
X126372000Y-73697000D01*
X126372000Y-72634541D01*
X125903070Y-72736550D01*
X125688362Y-72874533D01*
X125524250Y-73063929D01*
X125420146Y-73291888D01*
X125385776Y-73530930D01*
X124364224Y-73530930D01*
X124364224Y-73476396D01*
X124288450Y-73128069D01*
X124150467Y-72913362D01*
X123961071Y-72749250D01*
X123733112Y-72645146D01*
X123378000Y-72594087D01*
X123122000Y-72594087D01*
X123122000Y-72584541D01*
X122653070Y-72686550D01*
X122438362Y-72824533D01*
X122409000Y-72858419D01*
X122409000Y-70435443D01*
X122527561Y-70298330D01*
X122660651Y-70043210D01*
X122731606Y-69763829D01*
X122734277Y-69457691D01*
X122668210Y-69177114D01*
X122539592Y-68919710D01*
X122355208Y-68698798D01*
X122124950Y-68526229D01*
X121897989Y-68427308D01*
X121984708Y-68404800D01*
X122214329Y-68301363D01*
X122423240Y-68160716D01*
X122605466Y-67986881D01*
X122755797Y-67784828D01*
X122762436Y-67771770D01*
X122826610Y-67877526D01*
X122991669Y-68067739D01*
X123186416Y-68227422D01*
X123405284Y-68352009D01*
X123644831Y-68438960D01*
X123984648Y-68484000D01*
X124093190Y-68484000D01*
X124280942Y-68468069D01*
X124524708Y-68404800D01*
X124754329Y-68301363D01*
X124963240Y-68160716D01*
X125145466Y-67986881D01*
X125295797Y-67784828D01*
X125302436Y-67771770D01*
X125366610Y-67877526D01*
X125531669Y-68067739D01*
X125726416Y-68227422D01*
X125945284Y-68352009D01*
X126184831Y-68438960D01*
X126442000Y-68473047D01*
X126442000Y-65526953D01*
X126698000Y-65526953D01*
X126698000Y-68499978D01*
X127064708Y-68404800D01*
X127294329Y-68301363D01*
X127503240Y-68160716D01*
X127685466Y-67986881D01*
X127835797Y-67784828D01*
X127842436Y-67771770D01*
X127906610Y-67877526D01*
X128071669Y-68067739D01*
X128266416Y-68227422D01*
X128485284Y-68352009D01*
X128724831Y-68438960D01*
X129064648Y-68484000D01*
X129173190Y-68484000D01*
X129360942Y-68468069D01*
X129604708Y-68404800D01*
X129834329Y-68301363D01*
X130043240Y-68160716D01*
X130197535Y-68013526D01*
X130238795Y-68167512D01*
X130386185Y-68343165D01*
X130579814Y-68454956D01*
X130788976Y-68491837D01*
X132516588Y-68491837D01*
X132817512Y-68411205D01*
X132993165Y-68263815D01*
X133104956Y-68070186D01*
X133141837Y-67861024D01*
X133141837Y-66133412D01*
X133061205Y-65832489D01*
X132913815Y-65656835D01*
X132720186Y-65545044D01*
X132511024Y-65508163D01*
X130783412Y-65508163D01*
X130482489Y-65588795D01*
X130306835Y-65736185D01*
X130195044Y-65929814D01*
X130186796Y-65976588D01*
X130148331Y-65932261D01*
X129953584Y-65772578D01*
X129734716Y-65647991D01*
X129495169Y-65561040D01*
X129155352Y-65516000D01*
X129046810Y-65516000D01*
X128859058Y-65531931D01*
X128615292Y-65595200D01*
X128385671Y-65698637D01*
X128176760Y-65839284D01*
X127994534Y-66013119D01*
X127844203Y-66215172D01*
X127837564Y-66228230D01*
X127773390Y-66122474D01*
X127608331Y-65932261D01*
X127413584Y-65772578D01*
X127194716Y-65647991D01*
X126955169Y-65561040D01*
X126698000Y-65526953D01*
X126442000Y-65526953D01*
X126442000Y-65500022D01*
X126075292Y-65595200D01*
X125845671Y-65698637D01*
X125636760Y-65839284D01*
X125454534Y-66013119D01*
X125304203Y-66215172D01*
X125297564Y-66228230D01*
X125233390Y-66122474D01*
X125068331Y-65932261D01*
X124873584Y-65772578D01*
X124654716Y-65647991D01*
X124415169Y-65561040D01*
X124075352Y-65516000D01*
X123966810Y-65516000D01*
X123779058Y-65531931D01*
X123535292Y-65595200D01*
X123305671Y-65698637D01*
X123096760Y-65839284D01*
X122914534Y-66013119D01*
X122764203Y-66215172D01*
X122757564Y-66228230D01*
X122693390Y-66122474D01*
X122528331Y-65932261D01*
X122333584Y-65772578D01*
X122114716Y-65647991D01*
X121875169Y-65561040D01*
X121535352Y-65516000D01*
X121426810Y-65516000D01*
X121239058Y-65531931D01*
X120995292Y-65595200D01*
X120765671Y-65698637D01*
X120556760Y-65839284D01*
X120374534Y-66013119D01*
X120224203Y-66215172D01*
X120110064Y-66439666D01*
X120035382Y-66680181D01*
X120002292Y-66929841D01*
X120011740Y-67181508D01*
X120063456Y-67427983D01*
X120155961Y-67662222D01*
X120286610Y-67877526D01*
X120451669Y-68067739D01*
X120646416Y-68227422D01*
X120865284Y-68352009D01*
X121091005Y-68433941D01*
X121014557Y-68456369D01*
X120764485Y-68598718D01*
X120553868Y-68794779D01*
X120394003Y-69034034D01*
X120293467Y-69303647D01*
X120257651Y-69589158D01*
X120288479Y-69875251D01*
X120384295Y-70146579D01*
X120539959Y-70388587D01*
X120591001Y-70437791D01*
X120591000Y-79279825D01*
X120586535Y-79386347D01*
X120597267Y-79432104D01*
X120514557Y-79456369D01*
X120264485Y-79598718D01*
X120053868Y-79794779D01*
X119894003Y-80034034D01*
X119793467Y-80303647D01*
X119757651Y-80589158D01*
X119788479Y-80875251D01*
X119855247Y-81064322D01*
X119753070Y-81086550D01*
X119538362Y-81224533D01*
X119374250Y-81413929D01*
X119270146Y-81641888D01*
X119235776Y-81880930D01*
X119235776Y-81934441D01*
X119212864Y-81907136D01*
X119020651Y-81745850D01*
X118863294Y-81655000D01*
X119020651Y-81564150D01*
X119212864Y-81402864D01*
X119374150Y-81210651D01*
X119499609Y-80993349D01*
X119585429Y-80757564D01*
X119629000Y-80510459D01*
X119629000Y-80259541D01*
X119585429Y-80012436D01*
X119499609Y-79776651D01*
X119374150Y-79559349D01*
X119212864Y-79367136D01*
X119020651Y-79205850D01*
X118863294Y-79115000D01*
X119020651Y-79024150D01*
X119212864Y-78862864D01*
X119374150Y-78670651D01*
X119499609Y-78453349D01*
X119585429Y-78217564D01*
X119629000Y-77970459D01*
X119629000Y-77719541D01*
X119585429Y-77472436D01*
X119499609Y-77236651D01*
X119374150Y-77019349D01*
X119212864Y-76827136D01*
X119020651Y-76665850D01*
X118863294Y-76575000D01*
X119020651Y-76484150D01*
X119212864Y-76322864D01*
X119374150Y-76130651D01*
X119499609Y-75913349D01*
X119585429Y-75677564D01*
X119629000Y-75430459D01*
X119629000Y-75179541D01*
X119585429Y-74932436D01*
X119499609Y-74696651D01*
X119374150Y-74479349D01*
X119212864Y-74287136D01*
X119020651Y-74125850D01*
X118863294Y-74035000D01*
X119020651Y-73944150D01*
X119212864Y-73782864D01*
X119374150Y-73590651D01*
X119499609Y-73373349D01*
X119585429Y-73137564D01*
X119629000Y-72890459D01*
X119629000Y-72639541D01*
X119585429Y-72392436D01*
X119499609Y-72156651D01*
X119374150Y-71939349D01*
X119212864Y-71747136D01*
X119020651Y-71585850D01*
X118863294Y-71495000D01*
X119020651Y-71404150D01*
X119212864Y-71242864D01*
X119374150Y-71050651D01*
X119499609Y-70833349D01*
X119585429Y-70597564D01*
X119629000Y-70350459D01*
X119629000Y-70099541D01*
X119585429Y-69852436D01*
X119499609Y-69616651D01*
X119374150Y-69399349D01*
X119212864Y-69207136D01*
X119020651Y-69045850D01*
X118863294Y-68955000D01*
X119020651Y-68864150D01*
X119212864Y-68702864D01*
X119374150Y-68510651D01*
X119499609Y-68293349D01*
X119585429Y-68057564D01*
X119629000Y-67810459D01*
X119629000Y-67559541D01*
X119585429Y-67312436D01*
X119499609Y-67076651D01*
X119374150Y-66859349D01*
X119212864Y-66667136D01*
X119020651Y-66505850D01*
X118863294Y-66415000D01*
X119020651Y-66324150D01*
X119212864Y-66162864D01*
X119374150Y-65970651D01*
X119499609Y-65753349D01*
X119585429Y-65517564D01*
X119629000Y-65270459D01*
X119629000Y-65019541D01*
X119588038Y-64787231D01*
X125043788Y-64787231D01*
X125201960Y-64907509D01*
X125425246Y-65023992D01*
X125664966Y-65101190D01*
X125914266Y-65136892D01*
X126166017Y-65130080D01*
X126413022Y-65080948D01*
X126648216Y-64990901D01*
X126969497Y-64800516D01*
X126000000Y-63831019D01*
X125043788Y-64787231D01*
X119588038Y-64787231D01*
X119585429Y-64772436D01*
X119499609Y-64536651D01*
X119374150Y-64319349D01*
X119212864Y-64127136D01*
X119020651Y-63965850D01*
X118863294Y-63875000D01*
X119020651Y-63784150D01*
X119199111Y-63634404D01*
X124510720Y-63634404D01*
X124529384Y-63885554D01*
X124590097Y-64129970D01*
X124691123Y-64360662D01*
X124856712Y-64612269D01*
X125818981Y-63650000D01*
X126181019Y-63650000D01*
X127151807Y-64620788D01*
X127345393Y-64288840D01*
X127433796Y-64053022D01*
X127481318Y-63805082D01*
X127483104Y-63634404D01*
X131010720Y-63634404D01*
X131029384Y-63885554D01*
X131090097Y-64129970D01*
X131191123Y-64360662D01*
X131329575Y-64571033D01*
X131501493Y-64755071D01*
X131701960Y-64907510D01*
X131925246Y-65023992D01*
X132164966Y-65101190D01*
X132414266Y-65136892D01*
X132666017Y-65130080D01*
X132913022Y-65080948D01*
X133148216Y-64990901D01*
X133364877Y-64862512D01*
X133556807Y-64699455D01*
X133718521Y-64506391D01*
X133845393Y-64288840D01*
X133933796Y-64053022D01*
X133981318Y-63805082D01*
X133984240Y-63525974D01*
X133941922Y-63277094D01*
X133858477Y-63039476D01*
X133736188Y-62819315D01*
X133578554Y-62622907D01*
X133390080Y-62455866D01*
X133176156Y-62322969D01*
X132942899Y-62228016D01*
X132696977Y-62173721D01*
X132445424Y-62161638D01*
X132195431Y-62192113D01*
X131954147Y-62264272D01*
X131728470Y-62376053D01*
X131524854Y-62524261D01*
X131349120Y-62704656D01*
X131206293Y-62912083D01*
X131100457Y-63140609D01*
X131034639Y-63383699D01*
X131010720Y-63634404D01*
X127483104Y-63634404D01*
X127484240Y-63525974D01*
X127441922Y-63277094D01*
X127358477Y-63039476D01*
X127236187Y-62819314D01*
X127136235Y-62694784D01*
X126181019Y-63650000D01*
X125818981Y-63650000D01*
X124859118Y-62690137D01*
X124706293Y-62912083D01*
X124600457Y-63140609D01*
X124534639Y-63383699D01*
X124510720Y-63634404D01*
X119199111Y-63634404D01*
X119212864Y-63622864D01*
X119374150Y-63430651D01*
X119499609Y-63213349D01*
X119585429Y-62977564D01*
X119629000Y-62730459D01*
X119629000Y-62511443D01*
X125042462Y-62511443D01*
X126000000Y-63468981D01*
X126965969Y-62503012D01*
X126676157Y-62322969D01*
X126442899Y-62228016D01*
X126196977Y-62173721D01*
X125945424Y-62161638D01*
X125695431Y-62192113D01*
X125454147Y-62264272D01*
X125228470Y-62376053D01*
X125042462Y-62511443D01*
X119629000Y-62511443D01*
X119629000Y-62479541D01*
X119585429Y-62232436D01*
X119499609Y-61996651D01*
X119374150Y-61779349D01*
X119212864Y-61587136D01*
X119020651Y-61425850D01*
X118863294Y-61335000D01*
X119020651Y-61244150D01*
X119212864Y-61082864D01*
X119374150Y-60890651D01*
X119499609Y-60673349D01*
X119585429Y-60437564D01*
X119611936Y-60287231D01*
X125043788Y-60287231D01*
X125201960Y-60407509D01*
X125425246Y-60523992D01*
X125664966Y-60601190D01*
X125914266Y-60636892D01*
X126166017Y-60630080D01*
X126413022Y-60580948D01*
X126648216Y-60490901D01*
X126969497Y-60300516D01*
X126000000Y-59331019D01*
X125043788Y-60287231D01*
X119611936Y-60287231D01*
X119629000Y-60190459D01*
X119629000Y-59939541D01*
X119585429Y-59692436D01*
X119499609Y-59456651D01*
X119374150Y-59239349D01*
X119286091Y-59134404D01*
X124510720Y-59134404D01*
X124529384Y-59385554D01*
X124590097Y-59629970D01*
X124691123Y-59860662D01*
X124856712Y-60112269D01*
X125818981Y-59150000D01*
X124859118Y-58190137D01*
X124706293Y-58412083D01*
X124600457Y-58640609D01*
X124534639Y-58883699D01*
X124510720Y-59134404D01*
X119286091Y-59134404D01*
X119212864Y-59047136D01*
X119020651Y-58885850D01*
X118863294Y-58795000D01*
X119020651Y-58704150D01*
X119212864Y-58542864D01*
X119374150Y-58350651D01*
X119499609Y-58133349D01*
X119543979Y-58011443D01*
X125042462Y-58011443D01*
X127136510Y-60105491D01*
X127189959Y-60188587D01*
X127397122Y-60388293D01*
X127644672Y-60534984D01*
X127919328Y-60620794D01*
X128206358Y-60641117D01*
X128490366Y-60594863D01*
X128756115Y-60484514D01*
X128989350Y-60315990D01*
X129177561Y-60098330D01*
X129310651Y-59843210D01*
X129381606Y-59563829D01*
X129384277Y-59257691D01*
X129355247Y-59134404D01*
X131010720Y-59134404D01*
X131029384Y-59385554D01*
X131090097Y-59629970D01*
X131191123Y-59860662D01*
X131329575Y-60071033D01*
X131501493Y-60255071D01*
X131701960Y-60407510D01*
X131925246Y-60523992D01*
X132164966Y-60601190D01*
X132414266Y-60636892D01*
X132666017Y-60630080D01*
X132913022Y-60580948D01*
X133148216Y-60490901D01*
X133364877Y-60362512D01*
X133556807Y-60199455D01*
X133718521Y-60006391D01*
X133845393Y-59788840D01*
X133933796Y-59553022D01*
X133981318Y-59305082D01*
X133984240Y-59025974D01*
X133941922Y-58777094D01*
X133858477Y-58539476D01*
X133736188Y-58319315D01*
X133578554Y-58122907D01*
X133390080Y-57955866D01*
X133176156Y-57822969D01*
X132942899Y-57728016D01*
X132696977Y-57673721D01*
X132445424Y-57661638D01*
X132195431Y-57692113D01*
X131954147Y-57764272D01*
X131728470Y-57876053D01*
X131524854Y-58024261D01*
X131349120Y-58204656D01*
X131206293Y-58412083D01*
X131100457Y-58640609D01*
X131034639Y-58883699D01*
X131010720Y-59134404D01*
X129355247Y-59134404D01*
X129318210Y-58977114D01*
X129189592Y-58719710D01*
X129061272Y-58565969D01*
X129063465Y-58513651D01*
X129044820Y-58434154D01*
X129033738Y-58353255D01*
X129016502Y-58313427D01*
X129005515Y-58266578D01*
X128977682Y-58223720D01*
X128934829Y-58124691D01*
X128778097Y-57931144D01*
X128738581Y-57903061D01*
X127733489Y-56897970D01*
X127734277Y-56807691D01*
X127668210Y-56527114D01*
X127539592Y-56269710D01*
X127355208Y-56048798D01*
X127124950Y-55876229D01*
X126861168Y-55761259D01*
X126578010Y-55710056D01*
X126290670Y-55725366D01*
X126014557Y-55806369D01*
X125764485Y-55948718D01*
X125553868Y-56144779D01*
X125394003Y-56384034D01*
X125293467Y-56653647D01*
X125257651Y-56939158D01*
X125288479Y-57225251D01*
X125384295Y-57496579D01*
X125539959Y-57738587D01*
X125539976Y-57738604D01*
X125454147Y-57764272D01*
X125228470Y-57876053D01*
X125042462Y-58011443D01*
X119543979Y-58011443D01*
X119585429Y-57897564D01*
X119629000Y-57650459D01*
X119629000Y-57399541D01*
X119585429Y-57152436D01*
X119499609Y-56916651D01*
X119374150Y-56699349D01*
X119212864Y-56507136D01*
X119020651Y-56345850D01*
X118863294Y-56255000D01*
X119020651Y-56164150D01*
X119212864Y-56002864D01*
X119374150Y-55810651D01*
X119458727Y-55664158D01*
X133057651Y-55664158D01*
X133088479Y-55950251D01*
X133184295Y-56221579D01*
X133339959Y-56463587D01*
X133547122Y-56663293D01*
X133794672Y-56809984D01*
X134069328Y-56895794D01*
X134356358Y-56916117D01*
X134640366Y-56869863D01*
X134906115Y-56759514D01*
X135139350Y-56590990D01*
X135327561Y-56373330D01*
X135460651Y-56118209D01*
X135494736Y-55984001D01*
X135545827Y-55984001D01*
X135652349Y-55988466D01*
X135731847Y-55969820D01*
X135812744Y-55958739D01*
X135852575Y-55941504D01*
X135899423Y-55930515D01*
X135942277Y-55902685D01*
X136041310Y-55859830D01*
X136234857Y-55703098D01*
X136262945Y-55663575D01*
X139292594Y-52633927D01*
X139297123Y-52638293D01*
X139544672Y-52784984D01*
X139780743Y-52858739D01*
X136622471Y-56017011D01*
X136465670Y-56025366D01*
X136189557Y-56106369D01*
X135939485Y-56248718D01*
X135728868Y-56444779D01*
X135569003Y-56684034D01*
X135468467Y-56953647D01*
X135432651Y-57239158D01*
X135463479Y-57525251D01*
X135559295Y-57796579D01*
X135714959Y-58038587D01*
X135922122Y-58238293D01*
X136169672Y-58384984D01*
X136444328Y-58470794D01*
X136731358Y-58491117D01*
X137015366Y-58444863D01*
X137281115Y-58334514D01*
X137514350Y-58165990D01*
X137702561Y-57948330D01*
X137835651Y-57693210D01*
X137906606Y-57413829D01*
X137907573Y-57302945D01*
X144142518Y-51068000D01*
X147188163Y-51068000D01*
X147188163Y-51606588D01*
X147268795Y-51907512D01*
X147416185Y-52083165D01*
X147609814Y-52194956D01*
X147818976Y-52231837D01*
X148952000Y-52231837D01*
X148952000Y-51068000D01*
X149208000Y-51068000D01*
X149208000Y-52231837D01*
X150346588Y-52231837D01*
X150647512Y-52151205D01*
X150823165Y-52003815D01*
X150934956Y-51810186D01*
X150971837Y-51601024D01*
X150971837Y-51068000D01*
X149208000Y-51068000D01*
X148952000Y-51068000D01*
X147188163Y-51068000D01*
X144142518Y-51068000D01*
X147284404Y-47926115D01*
X147298388Y-47942779D01*
X147225044Y-48069814D01*
X147188163Y-48278976D01*
X147188163Y-49606588D01*
X147268795Y-49907512D01*
X147298388Y-49942779D01*
X147225044Y-50069814D01*
X147188163Y-50278976D01*
X147188163Y-50812000D01*
X150971837Y-50812000D01*
X150971837Y-50273412D01*
X150891205Y-49972489D01*
X150861612Y-49937221D01*
X150934956Y-49810186D01*
X150971837Y-49601024D01*
X150971837Y-48273412D01*
X150891205Y-47972489D01*
X150861612Y-47937221D01*
X150934956Y-47810186D01*
X150971837Y-47601024D01*
X150971837Y-46273412D01*
X150891205Y-45972489D01*
X150861612Y-45937221D01*
X150934956Y-45810186D01*
X150971837Y-45601024D01*
X150971837Y-44273412D01*
X150891205Y-43972489D01*
X150861612Y-43937221D01*
X150934956Y-43810186D01*
X150971837Y-43601024D01*
X150971837Y-42273412D01*
X150891205Y-41972489D01*
X150861612Y-41937221D01*
X150934956Y-41810186D01*
X150971837Y-41601024D01*
X150971837Y-40273412D01*
X150891205Y-39972489D01*
X150861612Y-39937221D01*
X150934956Y-39810186D01*
X150971837Y-39601024D01*
X150971837Y-38273412D01*
X150891205Y-37972489D01*
X150861612Y-37937221D01*
X150934956Y-37810186D01*
X150971837Y-37601024D01*
X150971837Y-37068000D01*
X147188163Y-37068000D01*
X147188163Y-37606588D01*
X147268795Y-37907512D01*
X147298388Y-37942779D01*
X147247453Y-38031000D01*
X147205174Y-38031000D01*
X147098652Y-38026535D01*
X147019155Y-38045181D01*
X146938255Y-38056262D01*
X146898427Y-38073498D01*
X146851578Y-38084485D01*
X146808722Y-38112316D01*
X146709691Y-38155171D01*
X146516144Y-38311903D01*
X146488058Y-38351423D01*
X142547471Y-42292011D01*
X142390670Y-42300366D01*
X142114557Y-42381369D01*
X141864485Y-42523718D01*
X141653868Y-42719779D01*
X141494003Y-42959034D01*
X141393467Y-43228647D01*
X141357651Y-43514158D01*
X141388479Y-43800251D01*
X141484295Y-44071579D01*
X141639959Y-44313587D01*
X141847122Y-44513293D01*
X142094672Y-44659984D01*
X142369328Y-44745794D01*
X142656358Y-44766117D01*
X142940366Y-44719863D01*
X143118648Y-44645834D01*
X137797471Y-49967011D01*
X137640670Y-49975366D01*
X137364557Y-50056369D01*
X137114485Y-50198718D01*
X136903868Y-50394779D01*
X136744003Y-50634034D01*
X136643467Y-50903647D01*
X136607651Y-51189158D01*
X136638479Y-51475251D01*
X136734295Y-51746579D01*
X136889959Y-51988587D01*
X137097122Y-52188293D01*
X137141119Y-52214364D01*
X135189483Y-54166001D01*
X134920173Y-54166001D01*
X134813651Y-54161536D01*
X134734154Y-54180181D01*
X134653255Y-54191263D01*
X134613434Y-54208495D01*
X134566577Y-54219486D01*
X134523719Y-54247318D01*
X134424690Y-54290172D01*
X134236461Y-54442597D01*
X134090669Y-54450366D01*
X133814557Y-54531369D01*
X133564485Y-54673718D01*
X133353868Y-54869779D01*
X133194003Y-55109034D01*
X133093467Y-55378647D01*
X133057651Y-55664158D01*
X119458727Y-55664158D01*
X119499609Y-55593349D01*
X119585429Y-55357564D01*
X119629000Y-55110459D01*
X119629000Y-54859541D01*
X119585429Y-54612436D01*
X119499609Y-54376651D01*
X119374150Y-54159349D01*
X119212864Y-53967136D01*
X119020651Y-53805850D01*
X118863294Y-53715000D01*
X119020651Y-53624150D01*
X119212864Y-53462864D01*
X119374150Y-53270651D01*
X119499609Y-53053349D01*
X119585429Y-52817564D01*
X119629000Y-52570459D01*
X119629000Y-52543000D01*
X126983163Y-52543000D01*
X126983163Y-52956588D01*
X127063795Y-53257512D01*
X127211185Y-53433165D01*
X127404814Y-53544956D01*
X127613976Y-53581837D01*
X128597000Y-53581837D01*
X128597000Y-52543000D01*
X128853000Y-52543000D01*
X128853000Y-53581837D01*
X129841588Y-53581837D01*
X130142512Y-53501205D01*
X130318165Y-53353815D01*
X130429956Y-53160186D01*
X130466837Y-52951024D01*
X130466837Y-52543000D01*
X128853000Y-52543000D01*
X128597000Y-52543000D01*
X126983163Y-52543000D01*
X119629000Y-52543000D01*
X119629000Y-52319541D01*
X119585429Y-52072436D01*
X119515015Y-51878976D01*
X126983163Y-51878976D01*
X126983163Y-52287000D01*
X128597000Y-52287000D01*
X128597000Y-51248163D01*
X128853000Y-51248163D01*
X128853000Y-52287000D01*
X130466837Y-52287000D01*
X130466837Y-52081837D01*
X130791588Y-52081837D01*
X130820837Y-52074000D01*
X131408495Y-52074000D01*
X131416185Y-52083165D01*
X131609814Y-52194956D01*
X131818976Y-52231837D01*
X134346588Y-52231837D01*
X134647512Y-52151205D01*
X134823165Y-52003815D01*
X134934956Y-51810186D01*
X134971837Y-51601024D01*
X134971837Y-50273412D01*
X134891205Y-49972489D01*
X134861612Y-49937221D01*
X134934956Y-49810186D01*
X134971837Y-49601024D01*
X134971837Y-49068000D01*
X131188163Y-49068000D01*
X131188163Y-49606588D01*
X131241595Y-49806000D01*
X130830471Y-49806000D01*
X130786024Y-49798163D01*
X130466837Y-49798163D01*
X130466837Y-49593000D01*
X128853000Y-49593000D01*
X128853000Y-50631837D01*
X129083163Y-50631837D01*
X129083163Y-51248163D01*
X128853000Y-51248163D01*
X128597000Y-51248163D01*
X127608412Y-51248163D01*
X127307489Y-51328795D01*
X127131835Y-51476185D01*
X127020044Y-51669814D01*
X126983163Y-51878976D01*
X119515015Y-51878976D01*
X119499609Y-51836651D01*
X119374150Y-51619349D01*
X119212864Y-51427136D01*
X119020651Y-51265850D01*
X118863294Y-51175000D01*
X119020651Y-51084150D01*
X119212864Y-50922864D01*
X119374150Y-50730651D01*
X119499609Y-50513349D01*
X119585429Y-50277564D01*
X119629000Y-50030459D01*
X119629000Y-49779541D01*
X119596108Y-49593000D01*
X126983163Y-49593000D01*
X126983163Y-50006588D01*
X127063795Y-50307512D01*
X127211185Y-50483165D01*
X127404814Y-50594956D01*
X127613976Y-50631837D01*
X128597000Y-50631837D01*
X128597000Y-49593000D01*
X126983163Y-49593000D01*
X119596108Y-49593000D01*
X119585429Y-49532436D01*
X119499609Y-49296651D01*
X119374150Y-49079349D01*
X119247972Y-48928976D01*
X126983163Y-48928976D01*
X126983163Y-49337000D01*
X128597000Y-49337000D01*
X128597000Y-48298163D01*
X128853000Y-48298163D01*
X128853000Y-49337000D01*
X130466837Y-49337000D01*
X130466837Y-48923412D01*
X130386205Y-48622489D01*
X130238815Y-48446835D01*
X130045186Y-48335044D01*
X129836024Y-48298163D01*
X128853000Y-48298163D01*
X128597000Y-48298163D01*
X127608412Y-48298163D01*
X127307489Y-48378795D01*
X127131835Y-48526185D01*
X127020044Y-48719814D01*
X126983163Y-48928976D01*
X119247972Y-48928976D01*
X119212864Y-48887136D01*
X119020651Y-48725850D01*
X118863294Y-48635000D01*
X119020651Y-48544150D01*
X119212864Y-48382864D01*
X119374150Y-48190651D01*
X119499609Y-47973349D01*
X119585429Y-47737564D01*
X119629000Y-47490459D01*
X119629000Y-47239541D01*
X119585428Y-46992436D01*
X119571075Y-46953000D01*
X127835776Y-46953000D01*
X127835776Y-47123604D01*
X127911550Y-47471931D01*
X128049533Y-47686638D01*
X128238929Y-47850750D01*
X128466888Y-47954854D01*
X128822000Y-48005913D01*
X128822000Y-46953000D01*
X127835776Y-46953000D01*
X119571075Y-46953000D01*
X119544990Y-46881335D01*
X119594642Y-46863410D01*
X119622894Y-46842505D01*
X119656165Y-46827377D01*
X119734156Y-46760175D01*
X119756583Y-46743580D01*
X119776307Y-46723856D01*
X119847991Y-46662089D01*
X119866260Y-46633903D01*
X120212175Y-46287988D01*
X120256358Y-46291117D01*
X120540366Y-46244863D01*
X120806115Y-46134514D01*
X121039350Y-45965990D01*
X121227561Y-45748330D01*
X121284513Y-45639158D01*
X126007651Y-45639158D01*
X126038479Y-45925251D01*
X126134295Y-46196579D01*
X126289959Y-46438587D01*
X126497122Y-46638293D01*
X126744672Y-46784984D01*
X127019328Y-46870794D01*
X127306358Y-46891117D01*
X127590366Y-46844863D01*
X127856115Y-46734514D01*
X127908034Y-46697000D01*
X129078000Y-46697000D01*
X129078000Y-48015459D01*
X129546930Y-47913450D01*
X129727424Y-47797455D01*
X129788929Y-47850750D01*
X130016888Y-47954854D01*
X130372000Y-48005913D01*
X130372000Y-46697000D01*
X130628000Y-46697000D01*
X130628000Y-48015459D01*
X131096930Y-47913450D01*
X131244905Y-47818353D01*
X131268795Y-47907512D01*
X131298388Y-47942779D01*
X131225044Y-48069814D01*
X131188163Y-48278976D01*
X131188163Y-48812000D01*
X134971837Y-48812000D01*
X134971837Y-48273412D01*
X134891205Y-47972489D01*
X134861612Y-47937221D01*
X134934956Y-47810186D01*
X134971837Y-47601024D01*
X134971837Y-46273412D01*
X134891205Y-45972489D01*
X134861612Y-45937221D01*
X134934956Y-45810186D01*
X134971837Y-45601024D01*
X134971837Y-44273412D01*
X134936412Y-44141204D01*
X135094672Y-44234984D01*
X135369328Y-44320794D01*
X135656358Y-44341117D01*
X135940366Y-44294863D01*
X136206115Y-44184514D01*
X136439350Y-44015990D01*
X136627561Y-43798330D01*
X136760651Y-43543210D01*
X136831606Y-43263829D01*
X136834277Y-42957691D01*
X136768210Y-42677114D01*
X136639592Y-42419710D01*
X136509000Y-42263247D01*
X136509000Y-41870173D01*
X136513465Y-41763651D01*
X136494820Y-41684154D01*
X136483738Y-41603255D01*
X136466502Y-41563427D01*
X136455515Y-41516578D01*
X136427682Y-41473720D01*
X136384829Y-41374691D01*
X136228097Y-41181144D01*
X136188584Y-41153063D01*
X135347049Y-40311530D01*
X135274861Y-40233025D01*
X135205452Y-40189989D01*
X135140422Y-40140629D01*
X135100084Y-40124657D01*
X135059174Y-40099294D01*
X135009187Y-40088669D01*
X134912028Y-40050201D01*
X134891205Y-39972489D01*
X134861612Y-39937221D01*
X134934956Y-39810186D01*
X134971837Y-39601024D01*
X134971837Y-38273412D01*
X134891205Y-37972489D01*
X134861612Y-37937221D01*
X134934956Y-37810186D01*
X134971837Y-37601024D01*
X134971837Y-36278976D01*
X147188163Y-36278976D01*
X147188163Y-36812000D01*
X148952000Y-36812000D01*
X148952000Y-35648163D01*
X149208000Y-35648163D01*
X149208000Y-36812000D01*
X150971837Y-36812000D01*
X150971837Y-36273412D01*
X150891205Y-35972489D01*
X150743815Y-35796835D01*
X150550186Y-35685044D01*
X150341024Y-35648163D01*
X149208000Y-35648163D01*
X148952000Y-35648163D01*
X147813412Y-35648163D01*
X147512489Y-35728795D01*
X147336835Y-35876185D01*
X147225044Y-36069814D01*
X147188163Y-36278976D01*
X134971837Y-36278976D01*
X134971837Y-36273412D01*
X134891205Y-35972489D01*
X134743815Y-35796835D01*
X134550186Y-35685044D01*
X134341024Y-35648163D01*
X131813412Y-35648163D01*
X131512489Y-35728795D01*
X131336835Y-35876185D01*
X131225044Y-36069814D01*
X131188163Y-36278976D01*
X131188163Y-37606588D01*
X131268795Y-37907512D01*
X131298388Y-37942779D01*
X131225044Y-38069814D01*
X131188163Y-38278976D01*
X131188163Y-39606588D01*
X131268795Y-39907512D01*
X131298388Y-39942779D01*
X131225044Y-40069814D01*
X131188163Y-40278976D01*
X131188163Y-41606588D01*
X131268795Y-41907512D01*
X131298388Y-41942779D01*
X131225044Y-42069814D01*
X131188163Y-42278976D01*
X131188163Y-42476316D01*
X129871519Y-43792962D01*
X129793026Y-43865139D01*
X129749996Y-43934539D01*
X129700629Y-43999578D01*
X129684658Y-44039917D01*
X129672650Y-44059283D01*
X129661071Y-44049250D01*
X129433112Y-43945146D01*
X129194070Y-43910776D01*
X128701396Y-43910776D01*
X128353069Y-43986550D01*
X128138362Y-44124533D01*
X128102431Y-44166000D01*
X127845174Y-44166000D01*
X127738652Y-44161535D01*
X127659155Y-44180180D01*
X127578256Y-44191262D01*
X127538435Y-44208494D01*
X127491578Y-44219485D01*
X127448720Y-44247317D01*
X127349691Y-44290171D01*
X127192746Y-44417263D01*
X127040670Y-44425366D01*
X126764557Y-44506369D01*
X126514485Y-44648718D01*
X126303868Y-44844779D01*
X126144003Y-45084034D01*
X126043467Y-45353647D01*
X126007651Y-45639158D01*
X121284513Y-45639158D01*
X121360651Y-45493210D01*
X121431606Y-45213829D01*
X121434277Y-44907691D01*
X121368210Y-44627114D01*
X121239592Y-44369710D01*
X121140799Y-44251345D01*
X121406629Y-44097868D01*
X121646263Y-43882100D01*
X121835800Y-43621224D01*
X121966956Y-43326643D01*
X122033999Y-43011230D01*
X122033999Y-42688770D01*
X121966956Y-42373357D01*
X121835800Y-42078776D01*
X121646263Y-41817900D01*
X121406629Y-41602132D01*
X121127370Y-41440902D01*
X120820693Y-41341258D01*
X120500000Y-41307551D01*
X120179307Y-41341258D01*
X119872630Y-41440902D01*
X119593371Y-41602132D01*
X119502325Y-41684111D01*
X119499609Y-41676650D01*
X119374150Y-41459349D01*
X119212864Y-41267136D01*
X119020651Y-41105850D01*
X118803349Y-40980391D01*
X118567564Y-40894571D01*
X118320459Y-40851000D01*
X118069541Y-40851000D01*
X117822436Y-40894571D01*
X117586651Y-40980391D01*
X117369349Y-41105850D01*
X117177136Y-41267136D01*
X117015850Y-41459349D01*
X116925000Y-41616706D01*
X116834150Y-41459349D01*
X116672864Y-41267136D01*
X116480651Y-41105850D01*
X116263349Y-40980391D01*
X116027564Y-40894571D01*
X115780459Y-40851000D01*
X115529541Y-40851000D01*
X115282436Y-40894571D01*
X115046651Y-40980391D01*
X114829349Y-41105850D01*
X114637136Y-41267136D01*
X114475850Y-41459349D01*
X114385000Y-41616706D01*
X114294150Y-41459349D01*
X114132864Y-41267136D01*
X113940651Y-41105850D01*
X113723349Y-40980391D01*
X113487564Y-40894571D01*
X113240459Y-40851000D01*
X112989541Y-40851000D01*
X112742436Y-40894571D01*
X112506651Y-40980391D01*
X112289349Y-41105850D01*
X112097136Y-41267136D01*
X111935850Y-41459349D01*
X111845000Y-41616706D01*
X111754150Y-41459349D01*
X111592864Y-41267136D01*
X111400651Y-41105850D01*
X111183349Y-40980391D01*
X110947564Y-40894571D01*
X110700459Y-40851000D01*
X110449541Y-40851000D01*
X110202436Y-40894571D01*
X109966651Y-40980391D01*
X109749349Y-41105850D01*
X109557136Y-41267136D01*
X109395850Y-41459349D01*
X109270391Y-41676651D01*
X109184571Y-41912436D01*
X109141000Y-42159541D01*
X109141000Y-42410459D01*
X109184571Y-42657564D01*
X109270391Y-42893349D01*
X109395850Y-43110651D01*
X109557136Y-43302864D01*
X109749349Y-43464150D01*
X109906706Y-43555000D01*
X109749349Y-43645850D01*
X109557136Y-43807136D01*
X109395850Y-43999349D01*
X109270391Y-44216651D01*
X109184571Y-44452436D01*
X109141000Y-44699541D01*
X109141000Y-44950459D01*
X109184571Y-45197564D01*
X109270391Y-45433349D01*
X109395850Y-45650651D01*
X109557136Y-45842864D01*
X109749349Y-46004150D01*
X109906706Y-46095000D01*
X109749349Y-46185850D01*
X109557136Y-46347136D01*
X109395850Y-46539349D01*
X109270391Y-46756651D01*
X109184571Y-46992436D01*
X109141000Y-47239541D01*
X109141000Y-47490459D01*
X109184571Y-47737564D01*
X109270391Y-47973349D01*
X109395850Y-48190651D01*
X109557136Y-48382864D01*
X109749349Y-48544150D01*
X109906706Y-48635000D01*
X109749349Y-48725850D01*
X109557136Y-48887136D01*
X109395850Y-49079349D01*
X109270391Y-49296651D01*
X109184571Y-49532436D01*
X109141000Y-49779541D01*
X109141000Y-50030459D01*
X109184571Y-50277564D01*
X109270391Y-50513349D01*
X109395850Y-50730651D01*
X109557136Y-50922864D01*
X109749349Y-51084150D01*
X109906706Y-51175000D01*
X109749349Y-51265850D01*
X109557136Y-51427136D01*
X109395850Y-51619349D01*
X109270391Y-51836651D01*
X109184571Y-52072436D01*
X109141000Y-52319541D01*
X109141000Y-52570459D01*
X109184571Y-52817564D01*
X109270391Y-53053349D01*
X109395850Y-53270651D01*
X109557136Y-53462864D01*
X109749349Y-53624150D01*
X109906706Y-53715000D01*
X109749349Y-53805850D01*
X109557136Y-53967136D01*
X109395850Y-54159349D01*
X109270391Y-54376651D01*
X109184571Y-54612436D01*
X109141000Y-54859541D01*
X109141000Y-55110459D01*
X109184571Y-55357564D01*
X109270391Y-55593349D01*
X109395850Y-55810651D01*
X109557136Y-56002864D01*
X109749349Y-56164150D01*
X109906706Y-56255000D01*
X109749349Y-56345850D01*
X109557136Y-56507136D01*
X109395850Y-56699349D01*
X109270391Y-56916651D01*
X109184571Y-57152436D01*
X109141000Y-57399541D01*
X109141000Y-57650459D01*
X109184571Y-57897564D01*
X109270391Y-58133349D01*
X109395850Y-58350651D01*
X109557136Y-58542864D01*
X109749349Y-58704150D01*
X109906706Y-58795000D01*
X109749349Y-58885850D01*
X109557136Y-59047136D01*
X109395850Y-59239349D01*
X109270391Y-59456651D01*
X109184571Y-59692436D01*
X109141000Y-59939541D01*
X109141000Y-60190459D01*
X109184571Y-60437564D01*
X109270391Y-60673349D01*
X109395850Y-60890651D01*
X109557136Y-61082864D01*
X109749349Y-61244150D01*
X109906706Y-61335000D01*
X109749349Y-61425850D01*
X109557136Y-61587136D01*
X109395850Y-61779349D01*
X109270391Y-61996651D01*
X109184571Y-62232436D01*
X109141000Y-62479541D01*
X109141000Y-62730459D01*
X109184571Y-62977564D01*
X109270391Y-63213349D01*
X109395850Y-63430651D01*
X109557136Y-63622864D01*
X109749349Y-63784150D01*
X109906706Y-63875000D01*
X109749349Y-63965850D01*
X109557136Y-64127136D01*
X109395850Y-64319349D01*
X109270391Y-64536651D01*
X109184571Y-64772436D01*
X109141000Y-65019541D01*
X109141000Y-65270459D01*
X109184571Y-65517564D01*
X109270391Y-65753349D01*
X109395850Y-65970651D01*
X109557136Y-66162864D01*
X109749349Y-66324150D01*
X109906706Y-66415000D01*
X109640001Y-66568982D01*
X110575000Y-67503981D01*
X111509999Y-66568982D01*
X111243294Y-66415000D01*
X111400651Y-66324150D01*
X111592864Y-66162864D01*
X111754150Y-65970651D01*
X111845000Y-65813294D01*
X111935850Y-65970651D01*
X112097136Y-66162864D01*
X112289349Y-66324150D01*
X112446706Y-66415000D01*
X112289349Y-66505850D01*
X112097136Y-66667136D01*
X111935850Y-66859349D01*
X111845000Y-67016706D01*
X111691018Y-66750001D01*
X110756019Y-67685000D01*
X111691018Y-68619999D01*
X111845000Y-68353294D01*
X111935850Y-68510651D01*
X112097136Y-68702864D01*
X112289349Y-68864150D01*
X112446706Y-68955000D01*
X112180001Y-69108982D01*
X113115000Y-70043981D01*
X114049999Y-69108982D01*
X113783294Y-68955000D01*
X113940651Y-68864150D01*
X114132864Y-68702864D01*
X114294150Y-68510651D01*
X114385000Y-68353294D01*
X114475850Y-68510651D01*
X114637136Y-68702864D01*
X114829349Y-68864150D01*
X114986706Y-68955000D01*
X114829349Y-69045850D01*
X114637136Y-69207136D01*
X114475850Y-69399349D01*
X114385000Y-69556706D01*
X114231018Y-69290001D01*
X113296019Y-70225000D01*
X114231018Y-71159999D01*
X114385000Y-70893294D01*
X114475850Y-71050651D01*
X114637136Y-71242864D01*
X114829349Y-71404150D01*
X114986706Y-71495000D01*
X114829349Y-71585850D01*
X114637136Y-71747136D01*
X114475850Y-71939349D01*
X114385000Y-72096706D01*
X114294150Y-71939349D01*
X114132864Y-71747136D01*
X113940651Y-71585850D01*
X113783294Y-71495000D01*
X114049999Y-71341018D01*
X113115000Y-70406019D01*
X112180001Y-71341018D01*
X112446706Y-71495000D01*
X112289349Y-71585850D01*
X112097136Y-71747136D01*
X111935850Y-71939349D01*
X111845000Y-72096706D01*
X111754150Y-71939349D01*
X111592864Y-71747136D01*
X111400651Y-71585850D01*
X111243294Y-71495000D01*
X111509999Y-71341018D01*
X110575000Y-70406019D01*
X109640001Y-71341018D01*
X109906706Y-71495000D01*
X109749349Y-71585850D01*
X109557136Y-71747136D01*
X109395850Y-71939349D01*
X109270391Y-72156651D01*
X109184571Y-72392436D01*
X109141000Y-72639541D01*
X109141000Y-72890459D01*
X109184571Y-73137564D01*
X109270391Y-73373349D01*
X109395850Y-73590651D01*
X109557136Y-73782864D01*
X109749349Y-73944150D01*
X109906706Y-74035000D01*
X109749349Y-74125850D01*
X109557136Y-74287136D01*
X109395850Y-74479349D01*
X109270391Y-74696651D01*
X109184571Y-74932436D01*
X109141000Y-75179541D01*
X109141000Y-75430459D01*
X109184571Y-75677564D01*
X109270391Y-75913349D01*
X109395850Y-76130651D01*
X109557136Y-76322864D01*
X109749349Y-76484150D01*
X109906706Y-76575000D01*
X109749349Y-76665850D01*
X109557136Y-76827136D01*
X109395850Y-77019349D01*
X109270391Y-77236651D01*
X109184571Y-77472436D01*
X109141000Y-77719541D01*
X109141000Y-77970459D01*
X109184571Y-78217564D01*
X109270391Y-78453349D01*
X109395850Y-78670651D01*
X109557136Y-78862864D01*
X109749349Y-79024150D01*
X109906706Y-79115000D01*
X109749349Y-79205850D01*
X109557136Y-79367136D01*
X109395850Y-79559349D01*
X109270391Y-79776651D01*
X109184571Y-80012436D01*
X109141000Y-80259541D01*
X109141000Y-80510459D01*
X109184571Y-80757564D01*
X109270391Y-80993349D01*
X109395850Y-81210651D01*
X109557136Y-81402864D01*
X109749349Y-81564150D01*
X109906706Y-81655000D01*
X109749349Y-81745850D01*
X109557136Y-81907136D01*
X109395850Y-82099349D01*
X109270391Y-82316651D01*
X109184571Y-82552436D01*
X109141000Y-82799541D01*
X109141000Y-83050459D01*
X109184571Y-83297564D01*
X109270391Y-83533349D01*
X109395850Y-83750651D01*
X109557136Y-83942864D01*
X109749349Y-84104150D01*
X109906706Y-84195000D01*
X109749349Y-84285850D01*
X109557136Y-84447136D01*
X109395850Y-84639349D01*
X109270391Y-84856651D01*
X109184571Y-85092436D01*
X109141000Y-85339541D01*
X109141000Y-85590459D01*
X109184571Y-85837564D01*
X109270391Y-86073349D01*
X109395850Y-86290651D01*
X109557136Y-86482864D01*
X109749349Y-86644150D01*
X109906706Y-86735000D01*
X109749349Y-86825850D01*
X109557136Y-86987136D01*
X109395850Y-87179349D01*
X109270391Y-87396651D01*
X109184571Y-87632436D01*
X109141000Y-87879541D01*
X109141000Y-88130459D01*
X109184571Y-88377564D01*
X109270391Y-88613349D01*
X109395850Y-88830651D01*
X109557136Y-89022864D01*
X109749349Y-89184150D01*
X109906706Y-89275000D01*
X109749349Y-89365850D01*
X109557136Y-89527136D01*
X109395850Y-89719349D01*
X109270391Y-89936651D01*
X109184571Y-90172436D01*
X109141000Y-90419541D01*
X109141000Y-90670459D01*
X109184571Y-90917564D01*
X109270391Y-91153349D01*
X109395850Y-91370651D01*
X109557136Y-91562864D01*
X109749349Y-91724150D01*
X109906706Y-91815000D01*
X109749349Y-91905850D01*
X109557136Y-92067136D01*
X109395850Y-92259349D01*
X109270391Y-92476651D01*
X109184571Y-92712436D01*
X109141000Y-92959541D01*
X109141000Y-93210459D01*
X109184571Y-93457564D01*
X109270391Y-93693349D01*
X109395850Y-93910651D01*
X109557136Y-94102864D01*
X109749349Y-94264150D01*
X109906706Y-94355000D01*
X109749349Y-94445850D01*
X109557136Y-94607136D01*
X109395850Y-94799349D01*
X109270391Y-95016651D01*
X109184571Y-95252436D01*
X109141000Y-95499541D01*
X109141000Y-95750459D01*
X109184571Y-95997564D01*
X109270391Y-96233349D01*
X109395850Y-96450651D01*
X109557136Y-96642864D01*
X109749349Y-96804150D01*
X109906706Y-96895000D01*
X109749349Y-96985850D01*
X109557136Y-97147136D01*
X109395850Y-97339349D01*
X109270391Y-97556651D01*
X109184571Y-97792436D01*
X109141000Y-98039541D01*
X109141000Y-98290459D01*
X109184571Y-98537564D01*
X109270391Y-98773349D01*
X109395850Y-98990651D01*
X109557136Y-99182864D01*
X109749349Y-99344150D01*
X109906706Y-99435000D01*
X109749349Y-99525850D01*
X109557136Y-99687136D01*
X109395850Y-99879349D01*
X109270391Y-100096651D01*
X109184571Y-100332436D01*
X109141000Y-100579541D01*
X109141000Y-100830459D01*
X109184571Y-101077564D01*
X109270391Y-101313349D01*
X109395850Y-101530651D01*
X109557136Y-101722864D01*
X109749349Y-101884150D01*
X109906706Y-101975000D01*
X109749349Y-102065850D01*
X109557136Y-102227136D01*
X109395850Y-102419349D01*
X109270391Y-102636651D01*
X109184571Y-102872436D01*
X109141000Y-103119541D01*
X109141000Y-103370459D01*
X109184571Y-103617564D01*
X109270391Y-103853349D01*
X109395850Y-104070651D01*
X109557136Y-104262864D01*
X109749349Y-104424150D01*
X109906706Y-104515000D01*
X109749349Y-104605850D01*
X109557136Y-104767136D01*
X109395850Y-104959349D01*
X109270391Y-105176651D01*
X109184571Y-105412436D01*
X109141000Y-105659541D01*
X109141000Y-105910459D01*
X109184571Y-106157564D01*
X109270391Y-106393349D01*
X109395850Y-106610651D01*
X109557136Y-106802864D01*
X109749349Y-106964150D01*
X109966651Y-107089609D01*
X110202436Y-107175429D01*
X110449541Y-107219000D01*
X110700459Y-107219000D01*
X110947564Y-107175429D01*
X111183349Y-107089609D01*
X111400651Y-106964150D01*
X111592864Y-106802864D01*
X111754150Y-106610651D01*
X111845000Y-106453294D01*
X111935850Y-106610651D01*
X112097136Y-106802864D01*
X112289349Y-106964150D01*
X112506651Y-107089609D01*
X112742436Y-107175429D01*
X112989541Y-107219000D01*
X113240459Y-107219000D01*
X113487564Y-107175429D01*
X113723349Y-107089609D01*
X113940651Y-106964150D01*
X114132864Y-106802864D01*
X114294150Y-106610651D01*
X114385000Y-106453294D01*
X114475850Y-106610651D01*
X114637136Y-106802864D01*
X114829349Y-106964150D01*
X115046651Y-107089609D01*
X115282436Y-107175429D01*
X115529541Y-107219000D01*
X115780459Y-107219000D01*
X116027564Y-107175429D01*
X116263349Y-107089609D01*
X116480651Y-106964150D01*
X116672864Y-106802864D01*
X116774606Y-106681613D01*
X116833795Y-106902512D01*
X116981185Y-107078165D01*
X117174814Y-107189956D01*
X117383976Y-107226837D01*
X119011588Y-107226837D01*
X119312512Y-107146205D01*
X119488165Y-106998815D01*
X119599956Y-106805186D01*
X119636837Y-106596024D01*
X119636837Y-104968412D01*
X119556205Y-104667489D01*
X119408815Y-104491835D01*
X119215186Y-104380044D01*
X119097868Y-104359358D01*
X119212864Y-104262864D01*
X119374150Y-104070651D01*
X119499609Y-103853349D01*
X119585429Y-103617564D01*
X119629000Y-103370459D01*
X119629000Y-103119541D01*
X119585429Y-102872436D01*
X119499609Y-102636651D01*
X119374150Y-102419349D01*
X119212864Y-102227136D01*
X119020651Y-102065850D01*
X118863294Y-101975000D01*
X119020651Y-101884150D01*
X119212864Y-101722864D01*
X119374150Y-101530651D01*
X119499609Y-101313349D01*
X119585429Y-101077564D01*
X119629000Y-100830459D01*
X119629000Y-100579541D01*
X119585429Y-100332436D01*
X119499609Y-100096651D01*
X119374150Y-99879349D01*
X119212864Y-99687136D01*
X119020651Y-99525850D01*
X118863294Y-99435000D01*
X119020651Y-99344150D01*
X119212864Y-99182864D01*
X119374150Y-98990651D01*
X119499609Y-98773349D01*
X119585429Y-98537564D01*
X119629000Y-98290459D01*
X119629000Y-98039541D01*
X119585429Y-97792436D01*
X119499609Y-97556651D01*
X119374150Y-97339349D01*
X119212864Y-97147136D01*
X119020651Y-96985850D01*
X118863294Y-96895000D01*
X119020651Y-96804150D01*
X119212864Y-96642864D01*
X119304211Y-96534000D01*
X120772871Y-96534000D01*
X120653868Y-96644779D01*
X120494003Y-96884034D01*
X120393467Y-97153647D01*
X120357651Y-97439158D01*
X120388479Y-97725251D01*
X120484295Y-97996579D01*
X120639959Y-98238587D01*
X120745064Y-98339908D01*
X120724250Y-98363929D01*
X120620146Y-98591888D01*
X120585776Y-98830930D01*
X120585776Y-99423604D01*
X120661550Y-99771931D01*
X120799533Y-99986638D01*
X120819532Y-100003967D01*
X120724250Y-100113929D01*
X120620146Y-100341888D01*
X120585776Y-100580930D01*
X120585776Y-101173604D01*
X120661550Y-101521931D01*
X120799533Y-101736638D01*
X120841000Y-101772569D01*
X120841001Y-109020766D01*
X120834973Y-109047405D01*
X120841001Y-109144559D01*
X120841001Y-109164692D01*
X120640670Y-109175366D01*
X120364557Y-109256369D01*
X120114485Y-109398718D01*
X120097928Y-109414131D01*
X119915662Y-109110792D01*
X119684229Y-108805889D01*
X119572881Y-108688138D01*
X117166019Y-111095000D01*
X119573106Y-113502087D01*
X119668190Y-113402888D01*
X119901739Y-113099619D01*
X119902131Y-113098977D01*
X119952545Y-113177424D01*
X119899250Y-113238929D01*
X119795146Y-113466888D01*
X119760776Y-113705930D01*
X119760776Y-114198604D01*
X119836550Y-114546931D01*
X119974533Y-114761638D01*
X120163929Y-114925750D01*
X120391888Y-115029854D01*
X120630930Y-115064224D01*
X120753705Y-115064224D01*
X121178501Y-115489021D01*
X121178501Y-115899671D01*
X121032489Y-115938795D01*
X120856835Y-116086185D01*
X120745044Y-116279814D01*
X120708163Y-116488976D01*
X120708163Y-118258163D01*
X120619000Y-118258163D01*
X120619000Y-117852739D01*
X120624299Y-117807966D01*
X120623808Y-117791955D01*
X120615408Y-117562892D01*
X120612325Y-117545840D01*
X120612743Y-117528118D01*
X120610747Y-117512226D01*
X120564445Y-117160522D01*
X120557963Y-117137383D01*
X120555729Y-117113066D01*
X120551922Y-117097507D01*
X120465499Y-116753446D01*
X120456401Y-116731207D01*
X120451385Y-116707303D01*
X120445813Y-116692284D01*
X120320421Y-116360443D01*
X120308828Y-116339399D01*
X120301097Y-116316227D01*
X120293837Y-116301949D01*
X120131134Y-115986718D01*
X120117196Y-115967143D01*
X120106857Y-115945019D01*
X120098002Y-115931669D01*
X119900147Y-115637228D01*
X119884051Y-115619383D01*
X119871237Y-115598594D01*
X119860907Y-115586351D01*
X119630521Y-115316602D01*
X119612484Y-115300728D01*
X119597363Y-115281547D01*
X119585695Y-115270572D01*
X119325828Y-115029089D01*
X119306082Y-115015391D01*
X119288863Y-114998081D01*
X119276010Y-114988518D01*
X118990112Y-114778505D01*
X118968921Y-114767166D01*
X118949827Y-114751951D01*
X118935963Y-114743930D01*
X118627817Y-114568167D01*
X118605470Y-114559342D01*
X118584743Y-114546415D01*
X118570046Y-114540042D01*
X118243748Y-114400863D01*
X118238499Y-114399461D01*
X118452678Y-114315525D01*
X118791909Y-114138180D01*
X119110001Y-113925236D01*
X119395040Y-113686059D01*
X116985000Y-111276019D01*
X114576164Y-113684855D01*
X114830478Y-113902828D01*
X115146324Y-114119092D01*
X115261781Y-114181000D01*
X111819056Y-114181000D01*
X112062678Y-114085525D01*
X112401909Y-113908180D01*
X112720001Y-113695236D01*
X113005040Y-113456059D01*
X110413981Y-110865000D01*
X110776019Y-110865000D01*
X113183106Y-113272087D01*
X113278190Y-113172888D01*
X113511739Y-112869619D01*
X113711177Y-112542888D01*
X113736483Y-112489110D01*
X113851424Y-112740164D01*
X114047429Y-113068966D01*
X114277798Y-113374675D01*
X114397178Y-113501803D01*
X116803981Y-111095000D01*
X114397035Y-108688055D01*
X114293780Y-108796480D01*
X114061281Y-109100575D01*
X113862986Y-109428000D01*
X113843428Y-109469941D01*
X113722815Y-109208907D01*
X113525662Y-108880792D01*
X113294229Y-108575889D01*
X113226602Y-108504373D01*
X114575392Y-108504373D01*
X116985000Y-110913981D01*
X119394206Y-108504775D01*
X119129707Y-108279669D01*
X118813110Y-108064508D01*
X118475125Y-107884799D01*
X118119710Y-107742644D01*
X117751020Y-107639703D01*
X117373371Y-107577183D01*
X116991177Y-107555816D01*
X116608911Y-107575850D01*
X116231045Y-107637051D01*
X115861999Y-107738703D01*
X115506090Y-107879617D01*
X115167480Y-108058145D01*
X114850132Y-108272199D01*
X114575392Y-108504373D01*
X113226602Y-108504373D01*
X113182881Y-108458138D01*
X110776019Y-110865000D01*
X110413981Y-110865000D01*
X108007035Y-108458055D01*
X107903780Y-108566480D01*
X107671281Y-108870575D01*
X107472986Y-109198000D01*
X107311211Y-109544926D01*
X107279000Y-109639545D01*
X107279000Y-108274373D01*
X108185392Y-108274373D01*
X110595000Y-110683981D01*
X113004206Y-108274775D01*
X112739707Y-108049669D01*
X112423110Y-107834508D01*
X112085125Y-107654799D01*
X111729710Y-107512644D01*
X111361020Y-107409703D01*
X110983371Y-107347183D01*
X110601177Y-107325816D01*
X110218911Y-107345850D01*
X109841045Y-107407051D01*
X109471999Y-107508703D01*
X109116090Y-107649617D01*
X108777480Y-107828145D01*
X108460132Y-108042199D01*
X108185392Y-108274373D01*
X107279000Y-108274373D01*
X107279000Y-96647609D01*
X108363088Y-95563522D01*
X108380126Y-95552772D01*
X108427661Y-95498949D01*
X108445440Y-95481171D01*
X108457084Y-95465634D01*
X108500343Y-95416653D01*
X108511325Y-95393262D01*
X108526818Y-95372589D01*
X108549753Y-95311412D01*
X108577689Y-95251911D01*
X108581422Y-95226935D01*
X108590567Y-95202539D01*
X108596006Y-95129343D01*
X108599000Y-95109313D01*
X108599000Y-95089062D01*
X108604025Y-95021435D01*
X108599000Y-94997895D01*
X108599000Y-70099541D01*
X109141000Y-70099541D01*
X109141000Y-70350459D01*
X109184571Y-70597564D01*
X109270391Y-70833349D01*
X109458982Y-71159999D01*
X110393981Y-70225000D01*
X110756019Y-70225000D01*
X111691018Y-71159999D01*
X111845000Y-70893294D01*
X111998982Y-71159999D01*
X112933981Y-70225000D01*
X111998982Y-69290001D01*
X111845000Y-69556706D01*
X111691018Y-69290001D01*
X110756019Y-70225000D01*
X110393981Y-70225000D01*
X109458982Y-69290001D01*
X109270391Y-69616651D01*
X109184571Y-69852436D01*
X109141000Y-70099541D01*
X108599000Y-70099541D01*
X108599000Y-69108982D01*
X109640001Y-69108982D01*
X110575000Y-70043981D01*
X111509999Y-69108982D01*
X111243294Y-68955000D01*
X111509999Y-68801018D01*
X110575000Y-67866019D01*
X109640001Y-68801018D01*
X109906706Y-68955000D01*
X109640001Y-69108982D01*
X108599000Y-69108982D01*
X108599000Y-68801018D01*
X108599000Y-67559541D01*
X109141000Y-67559541D01*
X109141000Y-67810459D01*
X109184571Y-68057564D01*
X109270391Y-68293349D01*
X109458982Y-68619999D01*
X110393981Y-67685000D01*
X109458982Y-66750001D01*
X109270391Y-67076651D01*
X109184571Y-67312436D01*
X109141000Y-67559541D01*
X108599000Y-67559541D01*
X108599000Y-55136010D01*
X108603445Y-55116368D01*
X108599000Y-55044728D01*
X108599000Y-55019553D01*
X108596245Y-55000316D01*
X108592200Y-54935111D01*
X108583427Y-54910810D01*
X108579764Y-54885232D01*
X108552720Y-54825751D01*
X108530402Y-54763930D01*
X108515383Y-54743631D01*
X108504597Y-54719911D01*
X108456681Y-54664302D01*
X108444638Y-54648027D01*
X108430326Y-54633716D01*
X108386054Y-54582336D01*
X108365852Y-54569242D01*
X107279000Y-53482390D01*
X107279000Y-39794855D01*
X108186164Y-39794855D01*
X108440478Y-40012828D01*
X108756324Y-40229092D01*
X109093677Y-40409980D01*
X109448595Y-40553375D01*
X109816923Y-40657601D01*
X110194352Y-40721440D01*
X110576469Y-40744141D01*
X110958802Y-40725442D01*
X111336880Y-40665560D01*
X111706279Y-40565197D01*
X112062678Y-40425525D01*
X112401909Y-40248180D01*
X112720001Y-40035236D01*
X113005040Y-39796059D01*
X110595000Y-37386019D01*
X108186164Y-39794855D01*
X107279000Y-39794855D01*
X107279000Y-38432749D01*
X107302076Y-38502118D01*
X107461424Y-38850164D01*
X107657429Y-39178966D01*
X107887798Y-39484675D01*
X108007178Y-39611803D01*
X110413981Y-37205000D01*
X110776019Y-37205000D01*
X113183106Y-39612087D01*
X113278190Y-39512888D01*
X113376788Y-39384855D01*
X114576164Y-39384855D01*
X114830478Y-39602828D01*
X115146324Y-39819092D01*
X115483677Y-39999980D01*
X115838595Y-40143375D01*
X116206923Y-40247601D01*
X116584352Y-40311440D01*
X116966469Y-40334141D01*
X117348802Y-40315442D01*
X117726880Y-40255560D01*
X118096279Y-40155197D01*
X118452678Y-40015525D01*
X118791909Y-39838180D01*
X119110001Y-39625236D01*
X119395040Y-39386059D01*
X116985000Y-36976019D01*
X114576164Y-39384855D01*
X113376788Y-39384855D01*
X113511739Y-39209619D01*
X113711177Y-38882888D01*
X113874161Y-38536529D01*
X113886869Y-38499623D01*
X114047429Y-38768966D01*
X114277798Y-39074675D01*
X114397178Y-39201803D01*
X116803981Y-36795000D01*
X117166019Y-36795000D01*
X119573106Y-39202087D01*
X119668190Y-39102888D01*
X119901739Y-38799619D01*
X120101177Y-38472888D01*
X120264161Y-38126529D01*
X120388785Y-37764593D01*
X120473592Y-37391316D01*
X120517614Y-37010843D01*
X120519035Y-36603824D01*
X120477669Y-36223053D01*
X120395471Y-35849193D01*
X120273376Y-35486396D01*
X120112815Y-35138907D01*
X119915662Y-34810792D01*
X119684229Y-34505889D01*
X119572881Y-34388138D01*
X117166019Y-36795000D01*
X116803981Y-36795000D01*
X114397035Y-34388055D01*
X114293780Y-34496480D01*
X114061281Y-34800575D01*
X113862986Y-35128000D01*
X113701211Y-35474926D01*
X113692948Y-35499200D01*
X113525662Y-35220792D01*
X113294229Y-34915889D01*
X113182881Y-34798138D01*
X110776019Y-37205000D01*
X110413981Y-37205000D01*
X113004206Y-34614775D01*
X112739707Y-34389669D01*
X112423110Y-34174508D01*
X112085125Y-33994799D01*
X111820607Y-33889000D01*
X114973480Y-33889000D01*
X114850132Y-33972199D01*
X114575392Y-34204373D01*
X116985000Y-36613981D01*
X119394206Y-34204775D01*
X119129707Y-33979669D01*
X118813110Y-33764508D01*
X118475125Y-33584799D01*
X118460431Y-33578922D01*
X118460602Y-33578827D01*
X118483772Y-33571098D01*
X118498051Y-33563837D01*
X118813281Y-33401134D01*
X118832854Y-33387198D01*
X118854987Y-33376854D01*
X118868336Y-33367999D01*
X119162772Y-33170147D01*
X119180617Y-33154051D01*
X119201401Y-33141240D01*
X119213645Y-33130911D01*
X119483398Y-32900521D01*
X119499272Y-32882484D01*
X119518453Y-32867363D01*
X119529428Y-32855695D01*
X119770910Y-32595829D01*
X119784607Y-32576084D01*
X119801920Y-32558862D01*
X119811482Y-32546010D01*
X120021495Y-32260112D01*
X120032834Y-32238920D01*
X120048048Y-32219828D01*
X120056070Y-32205963D01*
X120231833Y-31897817D01*
X120240658Y-31875470D01*
X120253583Y-31854746D01*
X120259957Y-31840051D01*
X120399136Y-31513748D01*
X120405333Y-31490535D01*
X120415792Y-31468460D01*
X120420434Y-31453128D01*
X120521187Y-31112997D01*
X120524676Y-31089223D01*
X120532529Y-31066089D01*
X120535378Y-31050325D01*
X120596367Y-30700868D01*
X120597101Y-30676852D01*
X120602241Y-30652976D01*
X120603260Y-30636991D01*
X120623681Y-30282834D01*
X120619000Y-30227668D01*
X120619000Y-26399000D01*
X153761001Y-26399000D01*
X153761000Y-62431000D01*
X151333539Y-62431000D01*
X151238075Y-62430417D01*
X151192322Y-62443492D01*
X151145230Y-62450237D01*
X151105459Y-62468319D01*
X151063462Y-62480322D01*
X151023231Y-62505706D01*
X150979912Y-62525402D01*
X150946817Y-62553919D01*
X150909875Y-62577228D01*
X150878383Y-62612886D01*
X150842336Y-62643946D01*
X150818576Y-62680604D01*
X150789659Y-62713346D01*
X150769440Y-62756411D01*
X150743561Y-62796338D01*
X150731043Y-62838194D01*
X150712312Y-62878089D01*
X150705519Y-62923540D01*
X150691527Y-62970327D01*
X150691228Y-63019173D01*
X150691001Y-63020692D01*
X150691001Y-63056299D01*
X150690417Y-63151932D01*
X150691001Y-63153975D01*
X150691000Y-84086461D01*
X150690417Y-84181927D01*
X150703493Y-84227678D01*
X150710237Y-84274769D01*
X150728318Y-84314538D01*
X150740322Y-84356539D01*
X150765706Y-84396771D01*
X150785402Y-84440089D01*
X150813920Y-84473184D01*
X150837227Y-84510126D01*
X150872889Y-84541621D01*
X150903946Y-84577664D01*
X150940601Y-84601422D01*
X150973346Y-84630342D01*
X151016416Y-84650564D01*
X151056338Y-84676439D01*
X151098183Y-84688953D01*
X151138088Y-84707689D01*
X151183546Y-84714483D01*
X151230327Y-84728473D01*
X151279168Y-84728772D01*
X151280694Y-84729000D01*
X151316461Y-84729000D01*
X151411926Y-84729583D01*
X151413966Y-84729000D01*
X153761000Y-84729000D01*
X153761001Y-120661000D01*
X148441837Y-120661000D01*
X148441837Y-119223412D01*
X148361205Y-118922489D01*
X148213815Y-118746835D01*
X148020186Y-118635044D01*
X147929685Y-118619086D01*
X147934999Y-118616018D01*
X147000000Y-117681019D01*
X146065001Y-118616018D01*
X146081413Y-118625494D01*
X145882489Y-118678795D01*
X145706835Y-118826185D01*
X145595044Y-119019814D01*
X145558163Y-119228976D01*
X145558163Y-120661000D01*
X129289337Y-120661000D01*
X129289337Y-118883412D01*
X129208705Y-118582489D01*
X129061315Y-118406835D01*
X128867686Y-118295044D01*
X128658524Y-118258163D01*
X128391837Y-118258163D01*
X128391837Y-117188770D01*
X131566001Y-117188770D01*
X131566001Y-117511230D01*
X131633044Y-117826643D01*
X131764200Y-118121224D01*
X131953737Y-118382100D01*
X131974000Y-118400345D01*
X131974000Y-118926000D01*
X139226000Y-118926000D01*
X139226000Y-118400345D01*
X139246263Y-118382100D01*
X139435800Y-118121224D01*
X139566956Y-117826643D01*
X139633999Y-117511230D01*
X139633999Y-117374541D01*
X145566000Y-117374541D01*
X145566000Y-117625459D01*
X145609571Y-117872564D01*
X145695391Y-118108349D01*
X145883982Y-118434999D01*
X146818981Y-117500000D01*
X147181019Y-117500000D01*
X148116018Y-118434999D01*
X148304609Y-118108349D01*
X148390429Y-117872564D01*
X148434000Y-117625459D01*
X148434000Y-117374541D01*
X148390429Y-117127436D01*
X148304609Y-116891651D01*
X148116018Y-116565001D01*
X147181019Y-117500000D01*
X146818981Y-117500000D01*
X145883982Y-116565001D01*
X145695391Y-116891651D01*
X145609571Y-117127436D01*
X145566000Y-117374541D01*
X139633999Y-117374541D01*
X139633999Y-117188770D01*
X139566956Y-116873357D01*
X139435800Y-116578776D01*
X139246263Y-116317900D01*
X139226000Y-116299655D01*
X139226000Y-114834541D01*
X145566000Y-114834541D01*
X145566000Y-115085459D01*
X145609571Y-115332564D01*
X145695391Y-115568349D01*
X145820850Y-115785651D01*
X145982136Y-115977864D01*
X146174349Y-116139150D01*
X146331706Y-116230000D01*
X146065001Y-116383982D01*
X147000000Y-117318981D01*
X147934999Y-116383982D01*
X147668294Y-116230000D01*
X147825651Y-116139150D01*
X148017864Y-115977864D01*
X148179150Y-115785651D01*
X148304609Y-115568349D01*
X148390429Y-115332564D01*
X148434000Y-115085459D01*
X148434000Y-114834541D01*
X148390429Y-114587436D01*
X148304609Y-114351651D01*
X148179150Y-114134349D01*
X148017864Y-113942136D01*
X147825651Y-113780850D01*
X147608349Y-113655391D01*
X147372564Y-113569571D01*
X147125459Y-113526000D01*
X146874541Y-113526000D01*
X146627436Y-113569571D01*
X146391651Y-113655391D01*
X146174349Y-113780850D01*
X145982136Y-113942136D01*
X145820850Y-114134349D01*
X145695391Y-114351651D01*
X145609571Y-114587436D01*
X145566000Y-114834541D01*
X139226000Y-114834541D01*
X139226000Y-113674000D01*
X131974000Y-113674000D01*
X131974000Y-116299655D01*
X131953737Y-116317900D01*
X131764200Y-116578776D01*
X131633044Y-116873357D01*
X131566001Y-117188770D01*
X128391837Y-117188770D01*
X128391837Y-116483412D01*
X128311205Y-116182489D01*
M02*
