M48
; DRILL file {KiCad 5.99.0-unknown-c7daca1~86~ubuntu18.04.1} date Thu Mar 26 17:53:56 2020
; FORMAT={-:-/ absolute / inch / decimal}
; #@! TF.CreationDate,2020-03-26T17:53:56-03:00
; #@! TF.GenerationSoftware,Kicad,Pcbnew,5.99.0-unknown-c7daca1~86~ubuntu18.04.1
FMAT,2
INCH
T1C0.0157
T2C0.0197
T3C0.0394
T4C0.0984
T5C0.1024
T6C0.1181
T7C0.1299
%
G90
G05
T1
X4.189Y-3.374
X4.1969Y-3.5433
X4.2402Y-3.5433
X4.2598Y-3.3602
X4.3425Y-3.2362
X4.3642Y-3.5689
X4.4429Y-3.3976
X4.4429Y-3.4843
X4.4882Y-3.2854
X4.4882Y-3.6496
X4.5059Y-3.5177
X4.5787Y-3.6083
X4.626Y-4.1358
X4.6634Y-3.5394
X4.7402Y-3.6004
X4.7421Y-3.4921
X4.7421Y-3.7087
X4.7815Y-3.7539
X4.7972Y-3.187
X4.7992Y-3.2854
X4.8209Y-3.624
X4.8465Y-3.2362
X4.8602Y-3.6673
X4.8622Y-4.1102
X4.874Y-3.4921
X4.9016Y-3.9508
X4.9331Y-3.8504
X4.9783Y-3.9528
X5.0059Y-4.1654
X5.0118Y-3.7539
X5.0217Y-3.2362
X5.0236Y-3.2972
X5.0276Y-3.6673
X5.0394Y-3.502
X5.0709Y-4.1693
X5.1043Y-3.7106
X5.1063Y-3.6339
X5.1121Y-3.8879
X5.1294Y-3.501
X5.1437Y-3.8583
X5.1496Y-3.5394
X5.1496Y-3.7106
X5.1594Y-3.937
X5.187Y-4.065
X5.1969Y-3.5807
X5.2185Y-3.3976
X5.2275Y-3.5501
X5.2323Y-3.7362
X5.2343Y-4.0157
X5.252Y-3.3602
X5.2543Y-3.6339
X5.2618Y-3.2343
X5.2774Y-3.7145
X5.2776Y-3.6712
X5.2992Y-3.8228
X5.3012Y-4.124
X5.3051Y-3.7618
X5.3228Y-3.3799
X5.3563Y-3.7776
X5.372Y-3.8209
X5.374Y-4.0669
X5.4114Y-3.8583
X5.4409Y-3.5335
X5.4646Y-3.189
X5.4646Y-3.8602
X5.4882Y-3.3209
X5.4882Y-3.3642
X5.5059Y-3.8917
X5.5177Y-3.3996
X5.5384Y-3.8441
X5.5443Y-4.0118
X5.5581Y-3.7461
X5.5709Y-3.3996
X5.6181Y-3.7106
X5.626Y-3.248
X5.628Y-3.189
X5.6299Y-3.5217
X5.6309Y-4.0118
X5.689Y-3.4528
X5.7067Y-3.8248
X5.7539Y-3.5079
X5.7559Y-3.6949
X5.7579Y-3.189
X5.7579Y-3.9508
X5.7757Y-3.5809
X5.7886Y-3.5339
X5.7933Y-3.6437
X5.8268Y-3.9409
X5.8386Y-3.876
X5.8602Y-4.0866
X5.876Y-3.4252
X5.876Y-3.6575
X5.8917Y-3.7283
X5.8976Y-3.8445
X5.8976Y-3.998
X5.8976Y-4.124
X5.9252Y-3.6949
X5.9567Y-4.1535
X5.9941Y-4.0433
X6.0197Y-3.5728
X6.0433Y-4.0335
X6.0669Y-3.563
X6.0925Y-4.0335
X6.0925Y-4.1614
X6.1319Y-3.252
X6.1319Y-3.4429
X6.1319Y-3.5453
X6.1417Y-4.0335
X6.1654Y-3.9902
X6.1909Y-4.0335
X6.2087Y-3.5591
X6.2598Y-3.8799
X6.2598Y-3.9902
X6.311Y-3.3839
X6.4173Y-3.4232
X6.4173Y-3.7992
X6.4173Y-4.0177
X6.4665Y-3.4232
X6.4665Y-3.7598
X6.4665Y-4.0177
X6.4902Y-4.1555
X6.5157Y-3.4232
X6.5157Y-4.0177
X6.565Y-3.2362
X6.565Y-3.4232
X6.565Y-4.0177
X6.6102Y-3.9587
X6.6142Y-3.4213
X6.6142Y-3.7933
X6.6634Y-3.4213
X6.6634Y-3.7185
X6.7559Y-3.5591
X6.7559Y-3.6378
X6.7697Y-3.2913
X6.7854Y-4.2067
X6.872Y-3.5413
T2
X6.4173Y-3.3445
X6.4665Y-3.3445
X6.5157Y-3.3445
X6.565Y-3.3445
X6.6142Y-3.3445
X6.6634Y-3.3445
X5.9941Y-4.0965
X6.0433Y-4.0965
X6.0925Y-4.0965
X6.1417Y-4.0965
X6.1909Y-4.0965
X6.2402Y-4.0965
X6.4173Y-4.0965
X6.4665Y-4.0965
X6.5157Y-4.0965
X6.565Y-4.0965
X6.6142Y-4.0965
X6.6634Y-4.0965
T3
X4.1421Y-3.4685
X4.2421Y-3.4685
X4.3421Y-3.4685
X5.9764Y-3.622
X5.9764Y-3.878
X6.1535Y-3.622
X6.1535Y-3.878
X6.7839Y-3.4685
X6.8839Y-3.4685
X6.9839Y-3.4685
T4
X4.0669Y-3.2874
X4.0669Y-4.1535
X7.0551Y-3.2874
X7.0551Y-4.1535
T5
X4.2421Y-3.7008
X4.2421Y-4.0079
X6.8839Y-3.7008
X6.8839Y-4.0079
T6
X4.1142Y-3.8543
X4.3701Y-3.8543
X6.7559Y-3.8543
X7.0118Y-3.8543
T7
X6.3071Y-3.6417
T0
M30
