%TF.GenerationSoftware,KiCad,Pcbnew,5.99.0-unknown-57e35c9~88~ubuntu19.10.1*%
%TF.CreationDate,2021-08-07T12:38:00-04:00*%
%TF.ProjectId,FOD,464f442e-6b69-4636-9164-5f7063625858,rev?*%
%TF.SameCoordinates,Original*%
%TF.FileFunction,Paste,Top*%
%TF.FilePolarity,Positive*%
%FSLAX46Y46*%
G04 Gerber Fmt 4.6, Leading zero omitted, Abs format (unit mm)*
G04 Created by KiCad (PCBNEW 5.99.0-unknown-57e35c9~88~ubuntu19.10.1) date 2021-08-07 12:38:00*
%MOMM*%
%LPD*%
G01*
G04 APERTURE LIST*
%ADD10R,0.900000X0.800000*%
%ADD11R,1.400000X1.000000*%
%ADD12R,1.400000X1.200000*%
G04 APERTURE END LIST*
%TO.C,J4*%
G36*
G01*
X103899900Y-67549999D02*
X106400100Y-67549999D01*
G75*
G02*
X106650000Y-67799899I0J-249900D01*
G01*
X106650000Y-69400099D01*
G75*
G02*
X106400100Y-69649999I-249900J0D01*
G01*
X103899900Y-69649999D01*
G75*
G02*
X103650000Y-69400099I0J249900D01*
G01*
X103650000Y-67799899D01*
G75*
G02*
X103899900Y-67549999I249900J0D01*
G01*
G37*
G36*
G01*
X103899900Y-56199999D02*
X106400100Y-56199999D01*
G75*
G02*
X106650000Y-56449899I0J-249900D01*
G01*
X106650000Y-58050099D01*
G75*
G02*
X106400100Y-58299999I-249900J0D01*
G01*
X103899900Y-58299999D01*
G75*
G02*
X103650000Y-58050099I0J249900D01*
G01*
X103650000Y-56449899D01*
G75*
G02*
X103899900Y-56199999I249900J0D01*
G01*
G37*
G36*
G01*
X107450000Y-65649999D02*
X108350000Y-65649999D01*
G75*
G02*
X108550000Y-65849999I0J-200000D01*
G01*
X108550000Y-66249999D01*
G75*
G02*
X108350000Y-66449999I-200000J0D01*
G01*
X107450000Y-66449999D01*
G75*
G02*
X107250000Y-66249999I0J200000D01*
G01*
X107250000Y-65849999D01*
G75*
G02*
X107450000Y-65649999I200000J0D01*
G01*
G37*
G36*
G01*
X107450000Y-64399999D02*
X108350000Y-64399999D01*
G75*
G02*
X108550000Y-64599999I0J-200000D01*
G01*
X108550000Y-64999999D01*
G75*
G02*
X108350000Y-65199999I-200000J0D01*
G01*
X107450000Y-65199999D01*
G75*
G02*
X107250000Y-64999999I0J200000D01*
G01*
X107250000Y-64599999D01*
G75*
G02*
X107450000Y-64399999I200000J0D01*
G01*
G37*
G36*
G01*
X107450000Y-63149999D02*
X108350000Y-63149999D01*
G75*
G02*
X108550000Y-63349999I0J-200000D01*
G01*
X108550000Y-63749999D01*
G75*
G02*
X108350000Y-63949999I-200000J0D01*
G01*
X107450000Y-63949999D01*
G75*
G02*
X107250000Y-63749999I0J200000D01*
G01*
X107250000Y-63349999D01*
G75*
G02*
X107450000Y-63149999I200000J0D01*
G01*
G37*
G36*
G01*
X107450000Y-61899999D02*
X108350000Y-61899999D01*
G75*
G02*
X108550000Y-62099999I0J-200000D01*
G01*
X108550000Y-62499999D01*
G75*
G02*
X108350000Y-62699999I-200000J0D01*
G01*
X107450000Y-62699999D01*
G75*
G02*
X107250000Y-62499999I0J200000D01*
G01*
X107250000Y-62099999D01*
G75*
G02*
X107450000Y-61899999I200000J0D01*
G01*
G37*
G36*
G01*
X107450000Y-60649999D02*
X108350000Y-60649999D01*
G75*
G02*
X108550000Y-60849999I0J-200000D01*
G01*
X108550000Y-61249999D01*
G75*
G02*
X108350000Y-61449999I-200000J0D01*
G01*
X107450000Y-61449999D01*
G75*
G02*
X107250000Y-61249999I0J200000D01*
G01*
X107250000Y-60849999D01*
G75*
G02*
X107450000Y-60649999I200000J0D01*
G01*
G37*
G36*
G01*
X107450000Y-59399999D02*
X108350000Y-59399999D01*
G75*
G02*
X108550000Y-59599999I0J-200000D01*
G01*
X108550000Y-59999999D01*
G75*
G02*
X108350000Y-60199999I-200000J0D01*
G01*
X107450000Y-60199999D01*
G75*
G02*
X107250000Y-59999999I0J200000D01*
G01*
X107250000Y-59599999D01*
G75*
G02*
X107450000Y-59399999I200000J0D01*
G01*
G37*
%TD*%
%TO.C,R6*%
G36*
G01*
X132712500Y-50150000D02*
X132237500Y-50150000D01*
G75*
G02*
X132000000Y-49912500I0J237500D01*
G01*
X132000000Y-49337500D01*
G75*
G02*
X132237500Y-49100000I237500J0D01*
G01*
X132712500Y-49100000D01*
G75*
G02*
X132950000Y-49337500I0J-237500D01*
G01*
X132950000Y-49912500D01*
G75*
G02*
X132712500Y-50150000I-237500J0D01*
G01*
G37*
G36*
G01*
X132712500Y-51900000D02*
X132237500Y-51900000D01*
G75*
G02*
X132000000Y-51662500I0J237500D01*
G01*
X132000000Y-51087500D01*
G75*
G02*
X132237500Y-50850000I237500J0D01*
G01*
X132712500Y-50850000D01*
G75*
G02*
X132950000Y-51087500I0J-237500D01*
G01*
X132950000Y-51662500D01*
G75*
G02*
X132712500Y-51900000I-237500J0D01*
G01*
G37*
%TD*%
%TO.C,R2*%
G36*
G01*
X110087500Y-59525000D02*
X109612500Y-59525000D01*
G75*
G02*
X109375000Y-59287500I0J237500D01*
G01*
X109375000Y-58712500D01*
G75*
G02*
X109612500Y-58475000I237500J0D01*
G01*
X110087500Y-58475000D01*
G75*
G02*
X110325000Y-58712500I0J-237500D01*
G01*
X110325000Y-59287500D01*
G75*
G02*
X110087500Y-59525000I-237500J0D01*
G01*
G37*
G36*
G01*
X110087500Y-61275000D02*
X109612500Y-61275000D01*
G75*
G02*
X109375000Y-61037500I0J237500D01*
G01*
X109375000Y-60462500D01*
G75*
G02*
X109612500Y-60225000I237500J0D01*
G01*
X110087500Y-60225000D01*
G75*
G02*
X110325000Y-60462500I0J-237500D01*
G01*
X110325000Y-61037500D01*
G75*
G02*
X110087500Y-61275000I-237500J0D01*
G01*
G37*
%TD*%
D10*
%TO.C,Q1*%
X136025000Y-52350000D03*
X134025000Y-53300000D03*
X134025000Y-51400000D03*
%TD*%
%TO.C,L1*%
G36*
G01*
X125550000Y-56399999D02*
X125550000Y-57300001D01*
G75*
G02*
X125300001Y-57550000I-249999J0D01*
G01*
X124649999Y-57550000D01*
G75*
G02*
X124400000Y-57300001I0J249999D01*
G01*
X124400000Y-56399999D01*
G75*
G02*
X124649999Y-56150000I249999J0D01*
G01*
X125300001Y-56150000D01*
G75*
G02*
X125550000Y-56399999I0J-249999D01*
G01*
G37*
G36*
G01*
X127600000Y-56399999D02*
X127600000Y-57300001D01*
G75*
G02*
X127350001Y-57550000I-249999J0D01*
G01*
X126699999Y-57550000D01*
G75*
G02*
X126450000Y-57300001I0J249999D01*
G01*
X126450000Y-56399999D01*
G75*
G02*
X126699999Y-56150000I249999J0D01*
G01*
X127350001Y-56150000D01*
G75*
G02*
X127600000Y-56399999I0J-249999D01*
G01*
G37*
%TD*%
%TO.C,D2*%
G36*
G01*
X134725000Y-49099999D02*
X134725000Y-50000001D01*
G75*
G02*
X134475001Y-50250000I-249999J0D01*
G01*
X133824999Y-50250000D01*
G75*
G02*
X133575000Y-50000001I0J249999D01*
G01*
X133575000Y-49099999D01*
G75*
G02*
X133824999Y-48850000I249999J0D01*
G01*
X134475001Y-48850000D01*
G75*
G02*
X134725000Y-49099999I0J-249999D01*
G01*
G37*
G36*
G01*
X136775000Y-49099999D02*
X136775000Y-50000001D01*
G75*
G02*
X136525001Y-50250000I-249999J0D01*
G01*
X135874999Y-50250000D01*
G75*
G02*
X135625000Y-50000001I0J249999D01*
G01*
X135625000Y-49099999D01*
G75*
G02*
X135874999Y-48850000I249999J0D01*
G01*
X136525001Y-48850000D01*
G75*
G02*
X136775000Y-49099999I0J-249999D01*
G01*
G37*
%TD*%
D11*
%TO.C,D1*%
X127675000Y-66950000D03*
X127675000Y-68850000D03*
X125475000Y-68850000D03*
D12*
X125475000Y-67130000D03*
%TD*%
%TO.C,C3b1*%
G36*
G01*
X127462500Y-60350000D02*
X127937500Y-60350000D01*
G75*
G02*
X128175000Y-60587500I0J-237500D01*
G01*
X128175000Y-61162500D01*
G75*
G02*
X127937500Y-61400000I-237500J0D01*
G01*
X127462500Y-61400000D01*
G75*
G02*
X127225000Y-61162500I0J237500D01*
G01*
X127225000Y-60587500D01*
G75*
G02*
X127462500Y-60350000I237500J0D01*
G01*
G37*
G36*
G01*
X127462500Y-58600000D02*
X127937500Y-58600000D01*
G75*
G02*
X128175000Y-58837500I0J-237500D01*
G01*
X128175000Y-59412500D01*
G75*
G02*
X127937500Y-59650000I-237500J0D01*
G01*
X127462500Y-59650000D01*
G75*
G02*
X127225000Y-59412500I0J237500D01*
G01*
X127225000Y-58837500D01*
G75*
G02*
X127462500Y-58600000I237500J0D01*
G01*
G37*
%TD*%
%TO.C,C3a1*%
G36*
G01*
X125887500Y-60350000D02*
X126362500Y-60350000D01*
G75*
G02*
X126600000Y-60587500I0J-237500D01*
G01*
X126600000Y-61162500D01*
G75*
G02*
X126362500Y-61400000I-237500J0D01*
G01*
X125887500Y-61400000D01*
G75*
G02*
X125650000Y-61162500I0J237500D01*
G01*
X125650000Y-60587500D01*
G75*
G02*
X125887500Y-60350000I237500J0D01*
G01*
G37*
G36*
G01*
X125887500Y-58600000D02*
X126362500Y-58600000D01*
G75*
G02*
X126600000Y-58837500I0J-237500D01*
G01*
X126600000Y-59412500D01*
G75*
G02*
X126362500Y-59650000I-237500J0D01*
G01*
X125887500Y-59650000D01*
G75*
G02*
X125650000Y-59412500I0J237500D01*
G01*
X125650000Y-58837500D01*
G75*
G02*
X125887500Y-58600000I237500J0D01*
G01*
G37*
%TD*%
%TO.C,C2b1*%
G36*
G01*
X129237500Y-56350000D02*
X128762500Y-56350000D01*
G75*
G02*
X128525000Y-56112500I0J237500D01*
G01*
X128525000Y-55537500D01*
G75*
G02*
X128762500Y-55300000I237500J0D01*
G01*
X129237500Y-55300000D01*
G75*
G02*
X129475000Y-55537500I0J-237500D01*
G01*
X129475000Y-56112500D01*
G75*
G02*
X129237500Y-56350000I-237500J0D01*
G01*
G37*
G36*
G01*
X129237500Y-58100000D02*
X128762500Y-58100000D01*
G75*
G02*
X128525000Y-57862500I0J237500D01*
G01*
X128525000Y-57287500D01*
G75*
G02*
X128762500Y-57050000I237500J0D01*
G01*
X129237500Y-57050000D01*
G75*
G02*
X129475000Y-57287500I0J-237500D01*
G01*
X129475000Y-57862500D01*
G75*
G02*
X129237500Y-58100000I-237500J0D01*
G01*
G37*
%TD*%
%TO.C,C2a1*%
G36*
G01*
X130787500Y-56350000D02*
X130312500Y-56350000D01*
G75*
G02*
X130075000Y-56112500I0J237500D01*
G01*
X130075000Y-55537500D01*
G75*
G02*
X130312500Y-55300000I237500J0D01*
G01*
X130787500Y-55300000D01*
G75*
G02*
X131025000Y-55537500I0J-237500D01*
G01*
X131025000Y-56112500D01*
G75*
G02*
X130787500Y-56350000I-237500J0D01*
G01*
G37*
G36*
G01*
X130787500Y-58100000D02*
X130312500Y-58100000D01*
G75*
G02*
X130075000Y-57862500I0J237500D01*
G01*
X130075000Y-57287500D01*
G75*
G02*
X130312500Y-57050000I237500J0D01*
G01*
X130787500Y-57050000D01*
G75*
G02*
X131025000Y-57287500I0J-237500D01*
G01*
X131025000Y-57862500D01*
G75*
G02*
X130787500Y-58100000I-237500J0D01*
G01*
G37*
%TD*%
M02*
