%TF.GenerationSoftware,KiCad,Pcbnew,5.99.0-unknown-57e35c9~88~ubuntu19.10.1*%
%TF.CreationDate,2021-08-07T12:38:01-04:00*%
%TF.ProjectId,FOD,464f442e-6b69-4636-9164-5f7063625858,rev?*%
%TF.SameCoordinates,Original*%
%TF.FileFunction,Soldermask,Top*%
%TF.FilePolarity,Negative*%
%FSLAX46Y46*%
G04 Gerber Fmt 4.6, Leading zero omitted, Abs format (unit mm)*
G04 Created by KiCad (PCBNEW 5.99.0-unknown-57e35c9~88~ubuntu19.10.1) date 2021-08-07 12:38:01*
%MOMM*%
%LPD*%
G01*
G04 APERTURE LIST*
%ADD10C,4.100000*%
%ADD11C,3.600000*%
%ADD12C,3.100000*%
%ADD13C,5.100000*%
%ADD14C,1.800000*%
%ADD15C,1.624000*%
%ADD16O,1.800000X1.800000*%
G04 APERTURE END LIST*
D10*
%TO.C,U6*%
X180654999Y-57104999D03*
X180654999Y-68744999D03*
X146954999Y-57104999D03*
D11*
X146954999Y-68744999D03*
D12*
X140004999Y-62600000D03*
X140004999Y-70049998D03*
D13*
X137154999Y-66324999D03*
X142854999Y-66324999D03*
X180354999Y-51924999D03*
X180354999Y-73924999D03*
X104454999Y-73924999D03*
X104454999Y-51924999D03*
%TD*%
%TO.C,J4*%
G36*
G01*
X103861800Y-67499999D02*
X106438200Y-67499999D01*
G75*
G02*
X106700000Y-67761799I0J-261800D01*
G01*
X106700000Y-69438199D01*
G75*
G02*
X106438200Y-69699999I-261800J0D01*
G01*
X103861800Y-69699999D01*
G75*
G02*
X103600000Y-69438199I0J261800D01*
G01*
X103600000Y-67761799D01*
G75*
G02*
X103861800Y-67499999I261800J0D01*
G01*
G37*
G36*
G01*
X103861800Y-56149999D02*
X106438200Y-56149999D01*
G75*
G02*
X106700000Y-56411799I0J-261800D01*
G01*
X106700000Y-58088199D01*
G75*
G02*
X106438200Y-58349999I-261800J0D01*
G01*
X103861800Y-58349999D01*
G75*
G02*
X103600000Y-58088199I0J261800D01*
G01*
X103600000Y-56411799D01*
G75*
G02*
X103861800Y-56149999I261800J0D01*
G01*
G37*
G36*
G01*
X107425000Y-65599999D02*
X108375000Y-65599999D01*
G75*
G02*
X108600000Y-65824999I0J-225000D01*
G01*
X108600000Y-66274999D01*
G75*
G02*
X108375000Y-66499999I-225000J0D01*
G01*
X107425000Y-66499999D01*
G75*
G02*
X107200000Y-66274999I0J225000D01*
G01*
X107200000Y-65824999D01*
G75*
G02*
X107425000Y-65599999I225000J0D01*
G01*
G37*
G36*
G01*
X107425000Y-64349999D02*
X108375000Y-64349999D01*
G75*
G02*
X108600000Y-64574999I0J-225000D01*
G01*
X108600000Y-65024999D01*
G75*
G02*
X108375000Y-65249999I-225000J0D01*
G01*
X107425000Y-65249999D01*
G75*
G02*
X107200000Y-65024999I0J225000D01*
G01*
X107200000Y-64574999D01*
G75*
G02*
X107425000Y-64349999I225000J0D01*
G01*
G37*
G36*
G01*
X107425000Y-63099999D02*
X108375000Y-63099999D01*
G75*
G02*
X108600000Y-63324999I0J-225000D01*
G01*
X108600000Y-63774999D01*
G75*
G02*
X108375000Y-63999999I-225000J0D01*
G01*
X107425000Y-63999999D01*
G75*
G02*
X107200000Y-63774999I0J225000D01*
G01*
X107200000Y-63324999D01*
G75*
G02*
X107425000Y-63099999I225000J0D01*
G01*
G37*
G36*
G01*
X107425000Y-61849999D02*
X108375000Y-61849999D01*
G75*
G02*
X108600000Y-62074999I0J-225000D01*
G01*
X108600000Y-62524999D01*
G75*
G02*
X108375000Y-62749999I-225000J0D01*
G01*
X107425000Y-62749999D01*
G75*
G02*
X107200000Y-62524999I0J225000D01*
G01*
X107200000Y-62074999D01*
G75*
G02*
X107425000Y-61849999I225000J0D01*
G01*
G37*
G36*
G01*
X107425000Y-60599999D02*
X108375000Y-60599999D01*
G75*
G02*
X108600000Y-60824999I0J-225000D01*
G01*
X108600000Y-61274999D01*
G75*
G02*
X108375000Y-61499999I-225000J0D01*
G01*
X107425000Y-61499999D01*
G75*
G02*
X107200000Y-61274999I0J225000D01*
G01*
X107200000Y-60824999D01*
G75*
G02*
X107425000Y-60599999I225000J0D01*
G01*
G37*
G36*
G01*
X107425000Y-59349999D02*
X108375000Y-59349999D01*
G75*
G02*
X108600000Y-59574999I0J-225000D01*
G01*
X108600000Y-60024999D01*
G75*
G02*
X108375000Y-60249999I-225000J0D01*
G01*
X107425000Y-60249999D01*
G75*
G02*
X107200000Y-60024999I0J225000D01*
G01*
X107200000Y-59574999D01*
G75*
G02*
X107425000Y-59349999I225000J0D01*
G01*
G37*
%TD*%
D14*
%TO.C,U4*%
X137464999Y-56800000D03*
X140004999Y-56800000D03*
G36*
G01*
X141694999Y-55900000D02*
X143394999Y-55900000D01*
G75*
G02*
X143444999Y-55950000I0J-50000D01*
G01*
X143444999Y-57650000D01*
G75*
G02*
X143394999Y-57700000I-50000J0D01*
G01*
X141694999Y-57700000D01*
G75*
G02*
X141644999Y-57650000I0J50000D01*
G01*
X141644999Y-55950000D01*
G75*
G02*
X141694999Y-55900000I50000J0D01*
G01*
G37*
%TD*%
D15*
%TO.C,U3*%
X174260000Y-60905000D03*
X176800000Y-60905000D03*
X174260000Y-63445000D03*
X176800000Y-63445000D03*
X174260000Y-65985000D03*
X176800000Y-65985000D03*
X174260000Y-68525000D03*
G36*
G01*
X177612000Y-67763000D02*
X177612000Y-69287000D01*
G75*
G02*
X177562000Y-69337000I-50000J0D01*
G01*
X176038000Y-69337000D01*
G75*
G02*
X175988000Y-69287000I0J50000D01*
G01*
X175988000Y-67763000D01*
G75*
G02*
X176038000Y-67713000I50000J0D01*
G01*
X177562000Y-67713000D01*
G75*
G02*
X177612000Y-67763000I0J-50000D01*
G01*
G37*
%TD*%
D14*
%TO.C,SW1*%
X111800000Y-57500000D03*
X118300000Y-57500000D03*
X111800000Y-62000000D03*
X118300000Y-62000000D03*
%TD*%
%TO.C,R6*%
G36*
G01*
X132737500Y-50200000D02*
X132212500Y-50200000D01*
G75*
G02*
X131950000Y-49937500I0J262500D01*
G01*
X131950000Y-49312500D01*
G75*
G02*
X132212500Y-49050000I262500J0D01*
G01*
X132737500Y-49050000D01*
G75*
G02*
X133000000Y-49312500I0J-262500D01*
G01*
X133000000Y-49937500D01*
G75*
G02*
X132737500Y-50200000I-262500J0D01*
G01*
G37*
G36*
G01*
X132737500Y-51950000D02*
X132212500Y-51950000D01*
G75*
G02*
X131950000Y-51687500I0J262500D01*
G01*
X131950000Y-51062500D01*
G75*
G02*
X132212500Y-50800000I262500J0D01*
G01*
X132737500Y-50800000D01*
G75*
G02*
X133000000Y-51062500I0J-262500D01*
G01*
X133000000Y-51687500D01*
G75*
G02*
X132737500Y-51950000I-262500J0D01*
G01*
G37*
%TD*%
%TO.C,R2*%
G36*
G01*
X110112500Y-59575000D02*
X109587500Y-59575000D01*
G75*
G02*
X109325000Y-59312500I0J262500D01*
G01*
X109325000Y-58687500D01*
G75*
G02*
X109587500Y-58425000I262500J0D01*
G01*
X110112500Y-58425000D01*
G75*
G02*
X110375000Y-58687500I0J-262500D01*
G01*
X110375000Y-59312500D01*
G75*
G02*
X110112500Y-59575000I-262500J0D01*
G01*
G37*
G36*
G01*
X110112500Y-61325000D02*
X109587500Y-61325000D01*
G75*
G02*
X109325000Y-61062500I0J262500D01*
G01*
X109325000Y-60437500D01*
G75*
G02*
X109587500Y-60175000I262500J0D01*
G01*
X110112500Y-60175000D01*
G75*
G02*
X110375000Y-60437500I0J-262500D01*
G01*
X110375000Y-61062500D01*
G75*
G02*
X110112500Y-61325000I-262500J0D01*
G01*
G37*
%TD*%
%TO.C,Q1*%
G36*
G01*
X135525000Y-52750000D02*
X135525000Y-51950000D01*
G75*
G02*
X135575000Y-51900000I50000J0D01*
G01*
X136475000Y-51900000D01*
G75*
G02*
X136525000Y-51950000I0J-50000D01*
G01*
X136525000Y-52750000D01*
G75*
G02*
X136475000Y-52800000I-50000J0D01*
G01*
X135575000Y-52800000D01*
G75*
G02*
X135525000Y-52750000I0J50000D01*
G01*
G37*
G36*
G01*
X133525000Y-53700000D02*
X133525000Y-52900000D01*
G75*
G02*
X133575000Y-52850000I50000J0D01*
G01*
X134475000Y-52850000D01*
G75*
G02*
X134525000Y-52900000I0J-50000D01*
G01*
X134525000Y-53700000D01*
G75*
G02*
X134475000Y-53750000I-50000J0D01*
G01*
X133575000Y-53750000D01*
G75*
G02*
X133525000Y-53700000I0J50000D01*
G01*
G37*
G36*
G01*
X133525000Y-51800000D02*
X133525000Y-51000000D01*
G75*
G02*
X133575000Y-50950000I50000J0D01*
G01*
X134475000Y-50950000D01*
G75*
G02*
X134525000Y-51000000I0J-50000D01*
G01*
X134525000Y-51800000D01*
G75*
G02*
X134475000Y-51850000I-50000J0D01*
G01*
X133575000Y-51850000D01*
G75*
G02*
X133525000Y-51800000I0J50000D01*
G01*
G37*
%TD*%
%TO.C,L1*%
G36*
G01*
X125600000Y-56371738D02*
X125600000Y-57328262D01*
G75*
G02*
X125328262Y-57600000I-271738J0D01*
G01*
X124621738Y-57600000D01*
G75*
G02*
X124350000Y-57328262I0J271738D01*
G01*
X124350000Y-56371738D01*
G75*
G02*
X124621738Y-56100000I271738J0D01*
G01*
X125328262Y-56100000D01*
G75*
G02*
X125600000Y-56371738I0J-271738D01*
G01*
G37*
G36*
G01*
X127650000Y-56371738D02*
X127650000Y-57328262D01*
G75*
G02*
X127378262Y-57600000I-271738J0D01*
G01*
X126671738Y-57600000D01*
G75*
G02*
X126400000Y-57328262I0J271738D01*
G01*
X126400000Y-56371738D01*
G75*
G02*
X126671738Y-56100000I271738J0D01*
G01*
X127378262Y-56100000D01*
G75*
G02*
X127650000Y-56371738I0J-271738D01*
G01*
G37*
%TD*%
D16*
%TO.C,J3*%
X111960000Y-66925000D03*
G36*
G01*
X113650000Y-66025000D02*
X115350000Y-66025000D01*
G75*
G02*
X115400000Y-66075000I0J-50000D01*
G01*
X115400000Y-67775000D01*
G75*
G02*
X115350000Y-67825000I-50000J0D01*
G01*
X113650000Y-67825000D01*
G75*
G02*
X113600000Y-67775000I0J50000D01*
G01*
X113600000Y-66075000D01*
G75*
G02*
X113650000Y-66025000I50000J0D01*
G01*
G37*
%TD*%
%TO.C,D2*%
G36*
G01*
X134775000Y-49071738D02*
X134775000Y-50028262D01*
G75*
G02*
X134503262Y-50300000I-271738J0D01*
G01*
X133796738Y-50300000D01*
G75*
G02*
X133525000Y-50028262I0J271738D01*
G01*
X133525000Y-49071738D01*
G75*
G02*
X133796738Y-48800000I271738J0D01*
G01*
X134503262Y-48800000D01*
G75*
G02*
X134775000Y-49071738I0J-271738D01*
G01*
G37*
G36*
G01*
X136825000Y-49071738D02*
X136825000Y-50028262D01*
G75*
G02*
X136553262Y-50300000I-271738J0D01*
G01*
X135846738Y-50300000D01*
G75*
G02*
X135575000Y-50028262I0J271738D01*
G01*
X135575000Y-49071738D01*
G75*
G02*
X135846738Y-48800000I271738J0D01*
G01*
X136553262Y-48800000D01*
G75*
G02*
X136825000Y-49071738I0J-271738D01*
G01*
G37*
%TD*%
%TO.C,D1*%
G36*
G01*
X126975000Y-66400000D02*
X128375000Y-66400000D01*
G75*
G02*
X128425000Y-66450000I0J-50000D01*
G01*
X128425000Y-67450000D01*
G75*
G02*
X128375000Y-67500000I-50000J0D01*
G01*
X126975000Y-67500000D01*
G75*
G02*
X126925000Y-67450000I0J50000D01*
G01*
X126925000Y-66450000D01*
G75*
G02*
X126975000Y-66400000I50000J0D01*
G01*
G37*
G36*
G01*
X126975000Y-68300000D02*
X128375000Y-68300000D01*
G75*
G02*
X128425000Y-68350000I0J-50000D01*
G01*
X128425000Y-69350000D01*
G75*
G02*
X128375000Y-69400000I-50000J0D01*
G01*
X126975000Y-69400000D01*
G75*
G02*
X126925000Y-69350000I0J50000D01*
G01*
X126925000Y-68350000D01*
G75*
G02*
X126975000Y-68300000I50000J0D01*
G01*
G37*
G36*
G01*
X124775000Y-68300000D02*
X126175000Y-68300000D01*
G75*
G02*
X126225000Y-68350000I0J-50000D01*
G01*
X126225000Y-69350000D01*
G75*
G02*
X126175000Y-69400000I-50000J0D01*
G01*
X124775000Y-69400000D01*
G75*
G02*
X124725000Y-69350000I0J50000D01*
G01*
X124725000Y-68350000D01*
G75*
G02*
X124775000Y-68300000I50000J0D01*
G01*
G37*
G36*
G01*
X124775000Y-66480000D02*
X126175000Y-66480000D01*
G75*
G02*
X126225000Y-66530000I0J-50000D01*
G01*
X126225000Y-67730000D01*
G75*
G02*
X126175000Y-67780000I-50000J0D01*
G01*
X124775000Y-67780000D01*
G75*
G02*
X124725000Y-67730000I0J50000D01*
G01*
X124725000Y-66530000D01*
G75*
G02*
X124775000Y-66480000I50000J0D01*
G01*
G37*
%TD*%
%TO.C,C3b1*%
G36*
G01*
X127437500Y-60300000D02*
X127962500Y-60300000D01*
G75*
G02*
X128225000Y-60562500I0J-262500D01*
G01*
X128225000Y-61187500D01*
G75*
G02*
X127962500Y-61450000I-262500J0D01*
G01*
X127437500Y-61450000D01*
G75*
G02*
X127175000Y-61187500I0J262500D01*
G01*
X127175000Y-60562500D01*
G75*
G02*
X127437500Y-60300000I262500J0D01*
G01*
G37*
G36*
G01*
X127437500Y-58550000D02*
X127962500Y-58550000D01*
G75*
G02*
X128225000Y-58812500I0J-262500D01*
G01*
X128225000Y-59437500D01*
G75*
G02*
X127962500Y-59700000I-262500J0D01*
G01*
X127437500Y-59700000D01*
G75*
G02*
X127175000Y-59437500I0J262500D01*
G01*
X127175000Y-58812500D01*
G75*
G02*
X127437500Y-58550000I262500J0D01*
G01*
G37*
%TD*%
%TO.C,C3a1*%
G36*
G01*
X125862500Y-60300000D02*
X126387500Y-60300000D01*
G75*
G02*
X126650000Y-60562500I0J-262500D01*
G01*
X126650000Y-61187500D01*
G75*
G02*
X126387500Y-61450000I-262500J0D01*
G01*
X125862500Y-61450000D01*
G75*
G02*
X125600000Y-61187500I0J262500D01*
G01*
X125600000Y-60562500D01*
G75*
G02*
X125862500Y-60300000I262500J0D01*
G01*
G37*
G36*
G01*
X125862500Y-58550000D02*
X126387500Y-58550000D01*
G75*
G02*
X126650000Y-58812500I0J-262500D01*
G01*
X126650000Y-59437500D01*
G75*
G02*
X126387500Y-59700000I-262500J0D01*
G01*
X125862500Y-59700000D01*
G75*
G02*
X125600000Y-59437500I0J262500D01*
G01*
X125600000Y-58812500D01*
G75*
G02*
X125862500Y-58550000I262500J0D01*
G01*
G37*
%TD*%
%TO.C,C2b1*%
G36*
G01*
X129262500Y-56400000D02*
X128737500Y-56400000D01*
G75*
G02*
X128475000Y-56137500I0J262500D01*
G01*
X128475000Y-55512500D01*
G75*
G02*
X128737500Y-55250000I262500J0D01*
G01*
X129262500Y-55250000D01*
G75*
G02*
X129525000Y-55512500I0J-262500D01*
G01*
X129525000Y-56137500D01*
G75*
G02*
X129262500Y-56400000I-262500J0D01*
G01*
G37*
G36*
G01*
X129262500Y-58150000D02*
X128737500Y-58150000D01*
G75*
G02*
X128475000Y-57887500I0J262500D01*
G01*
X128475000Y-57262500D01*
G75*
G02*
X128737500Y-57000000I262500J0D01*
G01*
X129262500Y-57000000D01*
G75*
G02*
X129525000Y-57262500I0J-262500D01*
G01*
X129525000Y-57887500D01*
G75*
G02*
X129262500Y-58150000I-262500J0D01*
G01*
G37*
%TD*%
%TO.C,C2a1*%
G36*
G01*
X130812500Y-56400000D02*
X130287500Y-56400000D01*
G75*
G02*
X130025000Y-56137500I0J262500D01*
G01*
X130025000Y-55512500D01*
G75*
G02*
X130287500Y-55250000I262500J0D01*
G01*
X130812500Y-55250000D01*
G75*
G02*
X131075000Y-55512500I0J-262500D01*
G01*
X131075000Y-56137500D01*
G75*
G02*
X130812500Y-56400000I-262500J0D01*
G01*
G37*
G36*
G01*
X130812500Y-58150000D02*
X130287500Y-58150000D01*
G75*
G02*
X130025000Y-57887500I0J262500D01*
G01*
X130025000Y-57262500D01*
G75*
G02*
X130287500Y-57000000I262500J0D01*
G01*
X130812500Y-57000000D01*
G75*
G02*
X131075000Y-57262500I0J-262500D01*
G01*
X131075000Y-57887500D01*
G75*
G02*
X130812500Y-58150000I-262500J0D01*
G01*
G37*
%TD*%
M02*
