%TF.GenerationSoftware,KiCad,Pcbnew,5.99.0-unknown-57e35c9~88~ubuntu19.10.1*%
%TF.CreationDate,2021-08-07T12:38:00-04:00*%
%TF.ProjectId,FOD,464f442e-6b69-4636-9164-5f7063625858,rev?*%
%TF.SameCoordinates,Original*%
%TF.FileFunction,Copper,L1,Top*%
%TF.FilePolarity,Positive*%
%FSLAX46Y46*%
G04 Gerber Fmt 4.6, Leading zero omitted, Abs format (unit mm)*
G04 Created by KiCad (PCBNEW 5.99.0-unknown-57e35c9~88~ubuntu19.10.1) date 2021-08-07 12:38:00*
%MOMM*%
%LPD*%
G01*
G04 APERTURE LIST*
%TA.AperFunction,ComponentPad*%
%ADD10C,4.000000*%
%TD*%
%TA.AperFunction,ComponentPad*%
%ADD11C,3.500000*%
%TD*%
%TA.AperFunction,ComponentPad*%
%ADD12C,3.000000*%
%TD*%
%TA.AperFunction,ComponentPad*%
%ADD13C,5.000000*%
%TD*%
%TA.AperFunction,ComponentPad*%
%ADD14C,1.700000*%
%TD*%
%TA.AperFunction,ComponentPad*%
%ADD15R,1.700000X1.700000*%
%TD*%
%TA.AperFunction,ComponentPad*%
%ADD16C,1.524000*%
%TD*%
%TA.AperFunction,ComponentPad*%
%ADD17R,1.524000X1.524000*%
%TD*%
%TA.AperFunction,SMDPad,CuDef*%
%ADD18R,0.900000X0.800000*%
%TD*%
%TA.AperFunction,ComponentPad*%
%ADD19O,1.700000X1.700000*%
%TD*%
%TA.AperFunction,SMDPad,CuDef*%
%ADD20R,1.400000X1.000000*%
%TD*%
%TA.AperFunction,SMDPad,CuDef*%
%ADD21R,1.400000X1.200000*%
%TD*%
%TA.AperFunction,ViaPad*%
%ADD22C,0.900000*%
%TD*%
%TA.AperFunction,Conductor*%
%ADD23C,0.250000*%
%TD*%
%TA.AperFunction,Conductor*%
%ADD24C,0.450000*%
%TD*%
%TA.AperFunction,Conductor*%
%ADD25C,0.800000*%
%TD*%
%TA.AperFunction,Conductor*%
%ADD26C,0.500000*%
%TD*%
%TA.AperFunction,Conductor*%
%ADD27C,0.254000*%
%TD*%
G04 APERTURE END LIST*
D10*
%TO.P,U6,3,PORT2*%
%TO.N,GND*%
X180654999Y-57104999D03*
X180654999Y-68744999D03*
X146954999Y-57104999D03*
D11*
X146954999Y-68744999D03*
D12*
X140004999Y-62600000D03*
X140004999Y-70049998D03*
D13*
%TO.P,U6,2,PORT1*%
%TO.N,/Deploy/PORT*%
X137154999Y-66324999D03*
%TO.P,U6,1,VIN*%
%TO.N,/VAUX*%
X142854999Y-66324999D03*
%TO.P,U6,4,GND*%
%TO.N,GND*%
X180354999Y-51924999D03*
X180354999Y-73924999D03*
X104454999Y-73924999D03*
X104454999Y-51924999D03*
%TD*%
%TO.P,J4,MP*%
%TO.N,GND*%
%TA.AperFunction,SMDPad,CuDef*%
G36*
G01*
X103899900Y-67549999D02*
X106400100Y-67549999D01*
G75*
G02*
X106650000Y-67799899I0J-249900D01*
G01*
X106650000Y-69400099D01*
G75*
G02*
X106400100Y-69649999I-249900J0D01*
G01*
X103899900Y-69649999D01*
G75*
G02*
X103650000Y-69400099I0J249900D01*
G01*
X103650000Y-67799899D01*
G75*
G02*
X103899900Y-67549999I249900J0D01*
G01*
G37*
%TD.AperFunction*%
%TA.AperFunction,SMDPad,CuDef*%
G36*
G01*
X103899900Y-56199999D02*
X106400100Y-56199999D01*
G75*
G02*
X106650000Y-56449899I0J-249900D01*
G01*
X106650000Y-58050099D01*
G75*
G02*
X106400100Y-58299999I-249900J0D01*
G01*
X103899900Y-58299999D01*
G75*
G02*
X103650000Y-58050099I0J249900D01*
G01*
X103650000Y-56449899D01*
G75*
G02*
X103899900Y-56199999I249900J0D01*
G01*
G37*
%TD.AperFunction*%
%TO.P,J4,6,Pin_6*%
%TO.N,Net-(J4-Pad6)*%
%TA.AperFunction,SMDPad,CuDef*%
G36*
G01*
X107450000Y-65649999D02*
X108350000Y-65649999D01*
G75*
G02*
X108550000Y-65849999I0J-200000D01*
G01*
X108550000Y-66249999D01*
G75*
G02*
X108350000Y-66449999I-200000J0D01*
G01*
X107450000Y-66449999D01*
G75*
G02*
X107250000Y-66249999I0J200000D01*
G01*
X107250000Y-65849999D01*
G75*
G02*
X107450000Y-65649999I200000J0D01*
G01*
G37*
%TD.AperFunction*%
%TO.P,J4,5,Pin_5*%
%TO.N,/SWDIO*%
%TA.AperFunction,SMDPad,CuDef*%
G36*
G01*
X107450000Y-64399999D02*
X108350000Y-64399999D01*
G75*
G02*
X108550000Y-64599999I0J-200000D01*
G01*
X108550000Y-64999999D01*
G75*
G02*
X108350000Y-65199999I-200000J0D01*
G01*
X107450000Y-65199999D01*
G75*
G02*
X107250000Y-64999999I0J200000D01*
G01*
X107250000Y-64599999D01*
G75*
G02*
X107450000Y-64399999I200000J0D01*
G01*
G37*
%TD.AperFunction*%
%TO.P,J4,4,Pin_4*%
%TO.N,/SWCLK*%
%TA.AperFunction,SMDPad,CuDef*%
G36*
G01*
X107450000Y-63149999D02*
X108350000Y-63149999D01*
G75*
G02*
X108550000Y-63349999I0J-200000D01*
G01*
X108550000Y-63749999D01*
G75*
G02*
X108350000Y-63949999I-200000J0D01*
G01*
X107450000Y-63949999D01*
G75*
G02*
X107250000Y-63749999I0J200000D01*
G01*
X107250000Y-63349999D01*
G75*
G02*
X107450000Y-63149999I200000J0D01*
G01*
G37*
%TD.AperFunction*%
%TO.P,J4,3,Pin_3*%
%TO.N,GND*%
%TA.AperFunction,SMDPad,CuDef*%
G36*
G01*
X107450000Y-61899999D02*
X108350000Y-61899999D01*
G75*
G02*
X108550000Y-62099999I0J-200000D01*
G01*
X108550000Y-62499999D01*
G75*
G02*
X108350000Y-62699999I-200000J0D01*
G01*
X107450000Y-62699999D01*
G75*
G02*
X107250000Y-62499999I0J200000D01*
G01*
X107250000Y-62099999D01*
G75*
G02*
X107450000Y-61899999I200000J0D01*
G01*
G37*
%TD.AperFunction*%
%TO.P,J4,2,Pin_2*%
%TO.N,/3V3*%
%TA.AperFunction,SMDPad,CuDef*%
G36*
G01*
X107450000Y-60649999D02*
X108350000Y-60649999D01*
G75*
G02*
X108550000Y-60849999I0J-200000D01*
G01*
X108550000Y-61249999D01*
G75*
G02*
X108350000Y-61449999I-200000J0D01*
G01*
X107450000Y-61449999D01*
G75*
G02*
X107250000Y-61249999I0J200000D01*
G01*
X107250000Y-60849999D01*
G75*
G02*
X107450000Y-60649999I200000J0D01*
G01*
G37*
%TD.AperFunction*%
%TO.P,J4,1,Pin_1*%
%TO.N,/RESET*%
%TA.AperFunction,SMDPad,CuDef*%
G36*
G01*
X107450000Y-59399999D02*
X108350000Y-59399999D01*
G75*
G02*
X108550000Y-59599999I0J-200000D01*
G01*
X108550000Y-59999999D01*
G75*
G02*
X108350000Y-60199999I-200000J0D01*
G01*
X107450000Y-60199999D01*
G75*
G02*
X107250000Y-59999999I0J200000D01*
G01*
X107250000Y-59599999D01*
G75*
G02*
X107450000Y-59399999I200000J0D01*
G01*
G37*
%TD.AperFunction*%
%TD*%
D14*
%TO.P,U4,3,NC*%
%TO.N,/3V3*%
X137464999Y-56800000D03*
%TO.P,U4,2,NO*%
%TO.N,GND*%
X140004999Y-56800000D03*
D15*
%TO.P,U4,1,COM*%
%TO.N,/DPL_STA*%
X142544999Y-56800000D03*
%TD*%
D16*
%TO.P,U3,8,IRQ*%
%TO.N,/TRX_IRQ*%
X174260000Y-60905000D03*
%TO.P,U3,7,MISO*%
%TO.N,/MISO*%
X176800000Y-60905000D03*
%TO.P,U3,6,MOSI*%
%TO.N,/MOSI*%
X174260000Y-63445000D03*
%TO.P,U3,5,SCK*%
%TO.N,/SCK*%
X176800000Y-63445000D03*
%TO.P,U3,4,~CSN*%
%TO.N,/TRX_CSN*%
X174260000Y-65985000D03*
%TO.P,U3,3,CE*%
%TO.N,/TRX_CE*%
X176800000Y-65985000D03*
%TO.P,U3,2,VCC*%
%TO.N,/3V3*%
X174260000Y-68525000D03*
D17*
%TO.P,U3,1,GND*%
%TO.N,GND*%
X176800000Y-68525000D03*
%TD*%
D14*
%TO.P,SW1,1,1*%
%TO.N,/RESET*%
X111800000Y-57500000D03*
%TO.P,SW1,2,2*%
X118300000Y-57500000D03*
%TO.P,SW1,3,3*%
%TO.N,GND*%
X111800000Y-62000000D03*
%TO.P,SW1,4,4*%
X118300000Y-62000000D03*
%TD*%
%TO.P,R6,2*%
%TO.N,Net-(D2-Pad2)*%
%TA.AperFunction,SMDPad,CuDef*%
G36*
G01*
X132712500Y-50150000D02*
X132237500Y-50150000D01*
G75*
G02*
X132000000Y-49912500I0J237500D01*
G01*
X132000000Y-49337500D01*
G75*
G02*
X132237500Y-49100000I237500J0D01*
G01*
X132712500Y-49100000D01*
G75*
G02*
X132950000Y-49337500I0J-237500D01*
G01*
X132950000Y-49912500D01*
G75*
G02*
X132712500Y-50150000I-237500J0D01*
G01*
G37*
%TD.AperFunction*%
%TO.P,R6,1*%
%TO.N,/DPL_EN*%
%TA.AperFunction,SMDPad,CuDef*%
G36*
G01*
X132712500Y-51900000D02*
X132237500Y-51900000D01*
G75*
G02*
X132000000Y-51662500I0J237500D01*
G01*
X132000000Y-51087500D01*
G75*
G02*
X132237500Y-50850000I237500J0D01*
G01*
X132712500Y-50850000D01*
G75*
G02*
X132950000Y-51087500I0J-237500D01*
G01*
X132950000Y-51662500D01*
G75*
G02*
X132712500Y-51900000I-237500J0D01*
G01*
G37*
%TD.AperFunction*%
%TD*%
%TO.P,R2,2*%
%TO.N,/RESET*%
%TA.AperFunction,SMDPad,CuDef*%
G36*
G01*
X110087500Y-59525000D02*
X109612500Y-59525000D01*
G75*
G02*
X109375000Y-59287500I0J237500D01*
G01*
X109375000Y-58712500D01*
G75*
G02*
X109612500Y-58475000I237500J0D01*
G01*
X110087500Y-58475000D01*
G75*
G02*
X110325000Y-58712500I0J-237500D01*
G01*
X110325000Y-59287500D01*
G75*
G02*
X110087500Y-59525000I-237500J0D01*
G01*
G37*
%TD.AperFunction*%
%TO.P,R2,1*%
%TO.N,/3V3*%
%TA.AperFunction,SMDPad,CuDef*%
G36*
G01*
X110087500Y-61275000D02*
X109612500Y-61275000D01*
G75*
G02*
X109375000Y-61037500I0J237500D01*
G01*
X109375000Y-60462500D01*
G75*
G02*
X109612500Y-60225000I237500J0D01*
G01*
X110087500Y-60225000D01*
G75*
G02*
X110325000Y-60462500I0J-237500D01*
G01*
X110325000Y-61037500D01*
G75*
G02*
X110087500Y-61275000I-237500J0D01*
G01*
G37*
%TD.AperFunction*%
%TD*%
D18*
%TO.P,Q1,3,D*%
%TO.N,/Deploy/PORT*%
X136025000Y-52350000D03*
%TO.P,Q1,2,S*%
%TO.N,GND*%
X134025000Y-53300000D03*
%TO.P,Q1,1,G*%
%TO.N,/DPL_EN*%
X134025000Y-51400000D03*
%TD*%
%TO.P,L1,2*%
%TO.N,/3V3*%
%TA.AperFunction,SMDPad,CuDef*%
G36*
G01*
X125550000Y-56399999D02*
X125550000Y-57300001D01*
G75*
G02*
X125300001Y-57550000I-249999J0D01*
G01*
X124649999Y-57550000D01*
G75*
G02*
X124400000Y-57300001I0J249999D01*
G01*
X124400000Y-56399999D01*
G75*
G02*
X124649999Y-56150000I249999J0D01*
G01*
X125300001Y-56150000D01*
G75*
G02*
X125550000Y-56399999I0J-249999D01*
G01*
G37*
%TD.AperFunction*%
%TO.P,L1,1*%
%TO.N,/VDDANA*%
%TA.AperFunction,SMDPad,CuDef*%
G36*
G01*
X127600000Y-56399999D02*
X127600000Y-57300001D01*
G75*
G02*
X127350001Y-57550000I-249999J0D01*
G01*
X126699999Y-57550000D01*
G75*
G02*
X126450000Y-57300001I0J249999D01*
G01*
X126450000Y-56399999D01*
G75*
G02*
X126699999Y-56150000I249999J0D01*
G01*
X127350001Y-56150000D01*
G75*
G02*
X127600000Y-56399999I0J-249999D01*
G01*
G37*
%TD.AperFunction*%
%TD*%
D19*
%TO.P,J3,2,Pin_2*%
%TO.N,Net-(Cr1-Pad1)*%
X111960000Y-66925000D03*
D15*
%TO.P,J3,1,Pin_1*%
%TO.N,/VUSB*%
X114500000Y-66925000D03*
%TD*%
%TO.P,D2,2,A*%
%TO.N,Net-(D2-Pad2)*%
%TA.AperFunction,SMDPad,CuDef*%
G36*
G01*
X134725000Y-49099999D02*
X134725000Y-50000001D01*
G75*
G02*
X134475001Y-50250000I-249999J0D01*
G01*
X133824999Y-50250000D01*
G75*
G02*
X133575000Y-50000001I0J249999D01*
G01*
X133575000Y-49099999D01*
G75*
G02*
X133824999Y-48850000I249999J0D01*
G01*
X134475001Y-48850000D01*
G75*
G02*
X134725000Y-49099999I0J-249999D01*
G01*
G37*
%TD.AperFunction*%
%TO.P,D2,1,K*%
%TO.N,GND*%
%TA.AperFunction,SMDPad,CuDef*%
G36*
G01*
X136775000Y-49099999D02*
X136775000Y-50000001D01*
G75*
G02*
X136525001Y-50250000I-249999J0D01*
G01*
X135874999Y-50250000D01*
G75*
G02*
X135625000Y-50000001I0J249999D01*
G01*
X135625000Y-49099999D01*
G75*
G02*
X135874999Y-48850000I249999J0D01*
G01*
X136525001Y-48850000D01*
G75*
G02*
X136775000Y-49099999I0J-249999D01*
G01*
G37*
%TD.AperFunction*%
%TD*%
D20*
%TO.P,D1,4,VCC*%
%TO.N,/VUSB*%
X127675000Y-66950000D03*
%TO.P,D1,3,I/O2*%
%TO.N,/USB_N*%
X127675000Y-68850000D03*
%TO.P,D1,2,I/O1*%
%TO.N,/USB_P*%
X125475000Y-68850000D03*
D21*
%TO.P,D1,1,GND*%
%TO.N,/USB/SHIELD*%
X125475000Y-67130000D03*
%TD*%
%TO.P,C3b1,2*%
%TO.N,GND*%
%TA.AperFunction,SMDPad,CuDef*%
G36*
G01*
X127462500Y-60350000D02*
X127937500Y-60350000D01*
G75*
G02*
X128175000Y-60587500I0J-237500D01*
G01*
X128175000Y-61162500D01*
G75*
G02*
X127937500Y-61400000I-237500J0D01*
G01*
X127462500Y-61400000D01*
G75*
G02*
X127225000Y-61162500I0J237500D01*
G01*
X127225000Y-60587500D01*
G75*
G02*
X127462500Y-60350000I237500J0D01*
G01*
G37*
%TD.AperFunction*%
%TO.P,C3b1,1*%
%TO.N,/3V3*%
%TA.AperFunction,SMDPad,CuDef*%
G36*
G01*
X127462500Y-58600000D02*
X127937500Y-58600000D01*
G75*
G02*
X128175000Y-58837500I0J-237500D01*
G01*
X128175000Y-59412500D01*
G75*
G02*
X127937500Y-59650000I-237500J0D01*
G01*
X127462500Y-59650000D01*
G75*
G02*
X127225000Y-59412500I0J237500D01*
G01*
X127225000Y-58837500D01*
G75*
G02*
X127462500Y-58600000I237500J0D01*
G01*
G37*
%TD.AperFunction*%
%TD*%
%TO.P,C3a1,2*%
%TO.N,GND*%
%TA.AperFunction,SMDPad,CuDef*%
G36*
G01*
X125887500Y-60350000D02*
X126362500Y-60350000D01*
G75*
G02*
X126600000Y-60587500I0J-237500D01*
G01*
X126600000Y-61162500D01*
G75*
G02*
X126362500Y-61400000I-237500J0D01*
G01*
X125887500Y-61400000D01*
G75*
G02*
X125650000Y-61162500I0J237500D01*
G01*
X125650000Y-60587500D01*
G75*
G02*
X125887500Y-60350000I237500J0D01*
G01*
G37*
%TD.AperFunction*%
%TO.P,C3a1,1*%
%TO.N,/3V3*%
%TA.AperFunction,SMDPad,CuDef*%
G36*
G01*
X125887500Y-58600000D02*
X126362500Y-58600000D01*
G75*
G02*
X126600000Y-58837500I0J-237500D01*
G01*
X126600000Y-59412500D01*
G75*
G02*
X126362500Y-59650000I-237500J0D01*
G01*
X125887500Y-59650000D01*
G75*
G02*
X125650000Y-59412500I0J237500D01*
G01*
X125650000Y-58837500D01*
G75*
G02*
X125887500Y-58600000I237500J0D01*
G01*
G37*
%TD.AperFunction*%
%TD*%
%TO.P,C2b1,2*%
%TO.N,GND*%
%TA.AperFunction,SMDPad,CuDef*%
G36*
G01*
X129237500Y-56350000D02*
X128762500Y-56350000D01*
G75*
G02*
X128525000Y-56112500I0J237500D01*
G01*
X128525000Y-55537500D01*
G75*
G02*
X128762500Y-55300000I237500J0D01*
G01*
X129237500Y-55300000D01*
G75*
G02*
X129475000Y-55537500I0J-237500D01*
G01*
X129475000Y-56112500D01*
G75*
G02*
X129237500Y-56350000I-237500J0D01*
G01*
G37*
%TD.AperFunction*%
%TO.P,C2b1,1*%
%TO.N,/VDDANA*%
%TA.AperFunction,SMDPad,CuDef*%
G36*
G01*
X129237500Y-58100000D02*
X128762500Y-58100000D01*
G75*
G02*
X128525000Y-57862500I0J237500D01*
G01*
X128525000Y-57287500D01*
G75*
G02*
X128762500Y-57050000I237500J0D01*
G01*
X129237500Y-57050000D01*
G75*
G02*
X129475000Y-57287500I0J-237500D01*
G01*
X129475000Y-57862500D01*
G75*
G02*
X129237500Y-58100000I-237500J0D01*
G01*
G37*
%TD.AperFunction*%
%TD*%
%TO.P,C2a1,2*%
%TO.N,GND*%
%TA.AperFunction,SMDPad,CuDef*%
G36*
G01*
X130787500Y-56350000D02*
X130312500Y-56350000D01*
G75*
G02*
X130075000Y-56112500I0J237500D01*
G01*
X130075000Y-55537500D01*
G75*
G02*
X130312500Y-55300000I237500J0D01*
G01*
X130787500Y-55300000D01*
G75*
G02*
X131025000Y-55537500I0J-237500D01*
G01*
X131025000Y-56112500D01*
G75*
G02*
X130787500Y-56350000I-237500J0D01*
G01*
G37*
%TD.AperFunction*%
%TO.P,C2a1,1*%
%TO.N,/VDDANA*%
%TA.AperFunction,SMDPad,CuDef*%
G36*
G01*
X130787500Y-58100000D02*
X130312500Y-58100000D01*
G75*
G02*
X130075000Y-57862500I0J237500D01*
G01*
X130075000Y-57287500D01*
G75*
G02*
X130312500Y-57050000I237500J0D01*
G01*
X130787500Y-57050000D01*
G75*
G02*
X131025000Y-57287500I0J-237500D01*
G01*
X131025000Y-57862500D01*
G75*
G02*
X130787500Y-58100000I-237500J0D01*
G01*
G37*
%TD.AperFunction*%
%TD*%
D22*
%TO.N,GND*%
X120725000Y-58450000D03*
X128425000Y-62200000D03*
%TO.N,/3V3*%
X130241688Y-58813939D03*
X125075000Y-59125000D03*
%TO.N,GND*%
X125575000Y-49750000D03*
%TO.N,/TRX_CE*%
X175225000Y-57600000D03*
%TO.N,GND*%
X172575000Y-64750000D03*
%TO.N,/SCL*%
X131725000Y-72975000D03*
X155400000Y-72975000D03*
%TO.N,/SDA*%
X154000000Y-71875000D03*
X133475000Y-71300000D03*
%TO.N,GND*%
X172575000Y-59425000D03*
X154550000Y-55025000D03*
%TO.N,/TRX_CE*%
X172475000Y-54850000D03*
%TO.N,/MOSI*%
X165850000Y-62650000D03*
%TO.N,/MISO*%
X168350000Y-57525000D03*
%TO.N,/TRX_CSN*%
X133907770Y-57000000D03*
%TO.N,/Deploy/PORT*%
X136025000Y-53475000D03*
%TO.N,/MISO*%
X154525000Y-64150000D03*
%TO.N,/SCK*%
X154375000Y-61575000D03*
%TO.N,/MOSI*%
X154500000Y-59000000D03*
%TO.N,/uC_MISO*%
X150275000Y-64150000D03*
%TO.N,/uC_SCK*%
X150225000Y-61575000D03*
%TO.N,/uC_MOSI*%
X150025000Y-59525000D03*
%TO.N,/VAUX*%
X163350000Y-64500000D03*
%TO.N,GND*%
X132375000Y-53975000D03*
X143700000Y-49375000D03*
X147400000Y-75725000D03*
X140000000Y-75725000D03*
X160150000Y-69700000D03*
%TO.N,/SCK*%
X167100000Y-61575000D03*
%TO.N,GND*%
X164600000Y-58500000D03*
X164600000Y-51650000D03*
X160850000Y-57700000D03*
X140000000Y-53075000D03*
%TO.N,/DPL_STA*%
X142550000Y-54300000D03*
%TO.N,/TRX_CSN*%
X168900000Y-51575000D03*
%TO.N,/3V3*%
X159600000Y-50500000D03*
X139375000Y-50500000D03*
%TO.N,/uC_MISO*%
X134550000Y-62125000D03*
%TO.N,/uC_SCK*%
X134525000Y-61000000D03*
%TO.N,/uC_MOSI*%
X134550000Y-59900000D03*
%TO.N,/3V3*%
X137425000Y-59275000D03*
%TO.N,/MOSI*%
X165850000Y-60300000D03*
%TO.N,/MISO*%
X168350000Y-64575000D03*
%TO.N,/TRX_CE*%
X134500000Y-58000000D03*
%TO.N,/3V3*%
X168875000Y-66375000D03*
X160900000Y-66375000D03*
%TO.N,GND*%
X171650000Y-71325000D03*
X168825000Y-69700000D03*
X160850000Y-50425000D03*
%TO.N,/3V3*%
X133850000Y-59000000D03*
%TO.N,/DPL_STA*%
X134350000Y-55400000D03*
%TO.N,/DPL_EN*%
X162075000Y-51575000D03*
X130325000Y-52525000D03*
%TO.N,/VUSB*%
X128167499Y-71742499D03*
X129375000Y-66950000D03*
%TO.N,/3V3*%
X120325000Y-67300000D03*
%TO.N,GND*%
X116325000Y-65050000D03*
X132400000Y-52700000D03*
X138600000Y-49550000D03*
X108862500Y-73112500D03*
X108762500Y-71287500D03*
X113562500Y-71262500D03*
X109850000Y-57150000D03*
X121575000Y-50275000D03*
X109850000Y-66100000D03*
X109850000Y-62325000D03*
X130675000Y-59825000D03*
X125825000Y-62750000D03*
X125575000Y-50775000D03*
X129000000Y-53975000D03*
%TO.N,/SWCLK*%
X114450000Y-56200000D03*
%TO.N,/SWDIO*%
X115675000Y-55125000D03*
X115675000Y-63975000D03*
%TO.N,/SWCLK*%
X114475000Y-63575000D03*
%TO.N,/SWDIO*%
X119125000Y-55125000D03*
%TO.N,/SWCLK*%
X119875000Y-56200000D03*
%TO.N,/RESET*%
X122075000Y-61325020D03*
%TO.N,/3V3*%
X122675000Y-67250000D03*
%TO.N,GND*%
X120675000Y-70600000D03*
X117900000Y-71625000D03*
%TO.N,/USB/ID*%
X122700000Y-70825000D03*
X124647164Y-70799356D03*
%TO.N,GND*%
X124675000Y-71950000D03*
%TO.N,/USB/SHIELD*%
X123750000Y-67950000D03*
%TO.N,/SWCLK*%
X106750000Y-63175000D03*
%TO.N,/3V3*%
X106825000Y-61050000D03*
%TO.N,/VDDANA*%
X128050000Y-56850000D03*
%TO.N,/USB_N*%
X127675000Y-70075000D03*
%TO.N,/USB_P*%
X125475000Y-70075000D03*
%TD*%
D23*
%TO.N,GND*%
X130550000Y-55825000D02*
X130550000Y-54825000D01*
X130550000Y-54825000D02*
X131400000Y-53975000D01*
X129000000Y-53975000D02*
X129000000Y-55825000D01*
X129000000Y-55825000D02*
X130550000Y-55825000D01*
X126125000Y-60875000D02*
X126125000Y-62450000D01*
X126125000Y-62450000D02*
X125825000Y-62750000D01*
X127700000Y-60875000D02*
X126125000Y-60875000D01*
D24*
%TO.N,/VDDANA*%
X130550000Y-57575000D02*
X129000000Y-57575000D01*
D23*
X129000000Y-57575000D02*
X128775000Y-57575000D01*
D24*
X128775000Y-57575000D02*
X128050000Y-56850000D01*
D23*
%TO.N,GND*%
X127700000Y-61475000D02*
X128425000Y-62200000D01*
X127700000Y-60875000D02*
X127700000Y-61475000D01*
D24*
%TO.N,/3V3*%
X124975000Y-56850000D02*
X124975000Y-59025000D01*
D23*
X124975000Y-59025000D02*
X125075000Y-59125000D01*
D24*
X129930627Y-59125000D02*
X130241688Y-58813939D01*
X127700000Y-59125000D02*
X129930627Y-59125000D01*
X126125000Y-59125000D02*
X127700000Y-59125000D01*
X125075000Y-59125000D02*
X126125000Y-59125000D01*
%TO.N,/TRX_CE*%
X172475000Y-54850000D02*
X175225000Y-57600000D01*
%TO.N,/MOSI*%
X165850000Y-62650000D02*
X166645000Y-63445000D01*
X166645000Y-63445000D02*
X174260000Y-63445000D01*
%TO.N,/SCK*%
X167100000Y-61575000D02*
X167617001Y-62092001D01*
X167617001Y-62092001D02*
X175447001Y-62092001D01*
X175447001Y-62092001D02*
X176800000Y-63445000D01*
%TO.N,/MISO*%
X168350000Y-57525000D02*
X173420000Y-57525000D01*
X173420000Y-57525000D02*
X176800000Y-60905000D01*
D23*
%TO.N,/SDA*%
X134250000Y-72075000D02*
X134300000Y-72125000D01*
D24*
X134049999Y-71874999D02*
X134250000Y-72075000D01*
X134300000Y-72125000D02*
X153750000Y-72125000D01*
X153750000Y-72125000D02*
X154000000Y-71875000D01*
%TO.N,/SCL*%
X131725000Y-72975000D02*
X155400000Y-72975000D01*
D23*
%TO.N,/SDA*%
X153999999Y-71874999D02*
X154000000Y-71875000D01*
D24*
X133475000Y-71300000D02*
X134049999Y-71874999D01*
%TO.N,GND*%
X172200000Y-59050000D02*
X172575000Y-59425000D01*
X171525000Y-59050000D02*
X172200000Y-59050000D01*
D23*
X131400000Y-53975000D02*
X132375000Y-53975000D01*
D24*
%TO.N,/TRX_CE*%
X143775000Y-58350000D02*
X144200000Y-57925000D01*
X144200000Y-57925000D02*
X144200000Y-56150000D01*
X144200000Y-56150000D02*
X146850000Y-53500000D01*
X169000000Y-53500000D02*
X169025000Y-53500000D01*
X169025000Y-53500000D02*
X170375000Y-54850000D01*
X170375000Y-54850000D02*
X172475000Y-54850000D01*
%TO.N,/SCK*%
X164850000Y-61575000D02*
X167100000Y-61575000D01*
%TO.N,/DPL_STA*%
X134350000Y-55400000D02*
X135150010Y-54599990D01*
X135150010Y-54599990D02*
X142250010Y-54599990D01*
X142250010Y-54599990D02*
X142550000Y-54300000D01*
%TO.N,/TRX_CSN*%
X133907770Y-57000000D02*
X135377997Y-57000000D01*
X135377997Y-57000000D02*
X137127997Y-55250000D01*
X137127997Y-55250000D02*
X143175000Y-55250000D01*
D23*
%TO.N,GND*%
X133000000Y-53300000D02*
X133000000Y-53350000D01*
X133000000Y-53350000D02*
X132375000Y-53975000D01*
X134025000Y-53300000D02*
X133000000Y-53300000D01*
X133000000Y-53300000D02*
X132400000Y-52700000D01*
D24*
%TO.N,/DPL_EN*%
X138125000Y-51400000D02*
X161900000Y-51400000D01*
X161900000Y-51400000D02*
X162075000Y-51575000D01*
%TO.N,GND*%
X138600000Y-49550000D02*
X136200000Y-49550000D01*
D25*
%TO.N,/Deploy/PORT*%
X136025000Y-52350000D02*
X136025000Y-53475000D01*
D24*
%TO.N,/DPL_EN*%
X134025000Y-51400000D02*
X138125000Y-51400000D01*
X132475000Y-51375000D02*
X131475000Y-51375000D01*
X131475000Y-51375000D02*
X130325000Y-52525000D01*
%TO.N,/MISO*%
X154525000Y-64150000D02*
X155050001Y-63624999D01*
X155050001Y-63624999D02*
X165299999Y-63624999D01*
X165299999Y-63624999D02*
X166250000Y-64575000D01*
%TO.N,/SCK*%
X154375000Y-61575000D02*
X164850000Y-61575000D01*
%TO.N,/MOSI*%
X154500000Y-59000000D02*
X155800000Y-60300000D01*
X155800000Y-60300000D02*
X165850000Y-60300000D01*
%TO.N,/uC_MISO*%
X148325000Y-64150000D02*
X150275000Y-64150000D01*
X144750000Y-60575000D02*
X148325000Y-64150000D01*
%TO.N,/uC_SCK*%
X147100000Y-61575000D02*
X150225000Y-61575000D01*
X145449990Y-59924990D02*
X147100000Y-61575000D01*
%TO.N,/uC_MOSI*%
X150020000Y-59530000D02*
X150025000Y-59525000D01*
X146005000Y-59530000D02*
X150020000Y-59530000D01*
X145749980Y-59274980D02*
X146005000Y-59530000D01*
D25*
%TO.N,/VAUX*%
X160975000Y-64500000D02*
X163350000Y-64500000D01*
X143254998Y-65925000D02*
X159550000Y-65925000D01*
X142854999Y-66324999D02*
X143254998Y-65925000D01*
X159550000Y-65925000D02*
X160975000Y-64500000D01*
D23*
%TO.N,GND*%
X140000000Y-75725000D02*
X147400000Y-75725000D01*
D24*
X168825000Y-69700000D02*
X160150000Y-69700000D01*
X164600000Y-58500000D02*
X165236396Y-58500000D01*
X165786396Y-59050000D02*
X171525000Y-59050000D01*
X165236396Y-58500000D02*
X165786396Y-59050000D01*
%TO.N,/SCK*%
X167000000Y-61475000D02*
X167100000Y-61575000D01*
%TO.N,/TRX_CSN*%
X145798499Y-52626501D02*
X143175000Y-55250000D01*
D23*
X145798499Y-52625000D02*
X145798499Y-52626501D01*
D24*
X168900000Y-51575000D02*
X167850000Y-52625000D01*
X167850000Y-52625000D02*
X145798499Y-52625000D01*
%TO.N,/uC_MOSI*%
X134550000Y-59900000D02*
X135186396Y-59900000D01*
X135536396Y-60250000D02*
X137705748Y-60250000D01*
X135186396Y-59900000D02*
X135536396Y-60250000D01*
X137705748Y-60250000D02*
X138680768Y-59274980D01*
X138680768Y-59274980D02*
X145749980Y-59274980D01*
%TO.N,/uC_SCK*%
X137875000Y-61000000D02*
X138950010Y-59924990D01*
X138950010Y-59924990D02*
X145449990Y-59924990D01*
%TO.N,/3V3*%
X139375000Y-50500000D02*
X159600000Y-50500000D01*
%TO.N,/uC_MISO*%
X139225000Y-60575000D02*
X144750000Y-60575000D01*
X134550000Y-62125000D02*
X137675000Y-62125000D01*
X137675000Y-62125000D02*
X139225000Y-60575000D01*
%TO.N,/MISO*%
X166250000Y-64575000D02*
X168350000Y-64575000D01*
%TO.N,/uC_SCK*%
X134525000Y-61000000D02*
X137875000Y-61000000D01*
%TO.N,/3V3*%
X135625000Y-59275000D02*
X137425000Y-59275000D01*
X135350000Y-59000000D02*
X135625000Y-59275000D01*
X133850000Y-59000000D02*
X135350000Y-59000000D01*
%TO.N,/TRX_CE*%
X136150000Y-58350000D02*
X143775000Y-58350000D01*
X134500000Y-58000000D02*
X135800000Y-58000000D01*
X135800000Y-58000000D02*
X136150000Y-58350000D01*
X134650000Y-58150000D02*
X134500000Y-58000000D01*
X146850000Y-53500000D02*
X169000000Y-53500000D01*
%TO.N,/3V3*%
X160900000Y-66375000D02*
X168875000Y-66375000D01*
D25*
%TO.N,/VAUX*%
X142854999Y-66324999D02*
X143150001Y-66324999D01*
D23*
%TO.N,/DPL_EN*%
X132325000Y-51525000D02*
X132475000Y-51375000D01*
D24*
%TO.N,/VUSB*%
X114500000Y-66925000D02*
X114975000Y-66925000D01*
X127084997Y-72825001D02*
X128167499Y-71742499D01*
X114975000Y-66925000D02*
X120875001Y-72825001D01*
X120875001Y-72825001D02*
X127084997Y-72825001D01*
X127675000Y-66950000D02*
X129375000Y-66950000D01*
D25*
%TO.N,Net-(D2-Pad2)*%
X132475000Y-49625000D02*
X134075000Y-49625000D01*
D23*
X134075000Y-49625000D02*
X134150000Y-49550000D01*
D25*
%TO.N,/DPL_EN*%
X134025000Y-51400000D02*
X132500000Y-51400000D01*
D23*
X132500000Y-51400000D02*
X132475000Y-51375000D01*
D24*
%TO.N,GND*%
X111800000Y-62000000D02*
X110175000Y-62000000D01*
X110175000Y-62000000D02*
X109850000Y-62325000D01*
X107900000Y-62299999D02*
X109824999Y-62299999D01*
D23*
X109824999Y-62299999D02*
X109850000Y-62325000D01*
D24*
%TO.N,/RESET*%
X111800000Y-57500000D02*
X118300000Y-57500000D01*
%TO.N,/SWCLK*%
X119875000Y-56200000D02*
X114450000Y-56200000D01*
%TO.N,/SWDIO*%
X119125000Y-55125000D02*
X115675000Y-55125000D01*
X114850001Y-64799999D02*
X115675000Y-63975000D01*
X107900000Y-64799999D02*
X114850001Y-64799999D01*
D23*
%TO.N,/SWCLK*%
X114449999Y-63549999D02*
X114475000Y-63575000D01*
D24*
X107900000Y-63549999D02*
X114449999Y-63549999D01*
%TO.N,/RESET*%
X121574979Y-60824999D02*
X119399999Y-60824999D01*
X119399999Y-60824999D02*
X118300000Y-59725000D01*
X118300000Y-59725000D02*
X118300000Y-57500000D01*
X122075000Y-61325020D02*
X121574979Y-60824999D01*
%TO.N,/3V3*%
X122625000Y-67300000D02*
X122675000Y-67250000D01*
X120325000Y-67300000D02*
X122625000Y-67300000D01*
X113749999Y-60724999D02*
X120325000Y-67300000D01*
X109875001Y-60724999D02*
X113749999Y-60724999D01*
X109850000Y-60750000D02*
X109875001Y-60724999D01*
%TO.N,/USB/ID*%
X122725644Y-70799356D02*
X122700000Y-70825000D01*
X124647164Y-70799356D02*
X122725644Y-70799356D01*
%TO.N,/USB/SHIELD*%
X124570000Y-67130000D02*
X125475000Y-67130000D01*
X123750000Y-67950000D02*
X124570000Y-67130000D01*
%TO.N,/RESET*%
X109850000Y-59000000D02*
X110300000Y-59000000D01*
X110300000Y-59000000D02*
X111800000Y-57500000D01*
X109850000Y-59000000D02*
X108699999Y-59000000D01*
X108699999Y-59000000D02*
X107900000Y-59799999D01*
%TO.N,/3V3*%
X107900000Y-61049999D02*
X109550001Y-61049999D01*
X109550001Y-61049999D02*
X109850000Y-60750000D01*
%TO.N,/SWCLK*%
X107124999Y-63549999D02*
X106750000Y-63175000D01*
X107900000Y-63549999D02*
X107124999Y-63549999D01*
%TO.N,/3V3*%
X106825000Y-61050000D02*
X107899999Y-61050000D01*
D23*
X107899999Y-61050000D02*
X107900000Y-61049999D01*
D26*
%TO.N,/VDDANA*%
X128050000Y-56850000D02*
X127025000Y-56850000D01*
D23*
%TO.N,/USB_N*%
X127675000Y-68850000D02*
X127675000Y-70075000D01*
%TO.N,/USB_P*%
X125475000Y-68850000D02*
X125475000Y-70075000D01*
%TD*%
%TO.N,GND*%
G36*
X103106859Y-49090134D02*
G01*
X103100307Y-49093259D01*
X102789962Y-49263872D01*
X102783813Y-49267729D01*
X102495134Y-49472882D01*
X102489469Y-49477421D01*
X102389509Y-49567426D01*
X102386675Y-49675656D01*
X104402808Y-51691789D01*
X104507190Y-51691789D01*
X106527308Y-49671671D01*
X106519515Y-49557359D01*
X106208828Y-49321534D01*
X106202802Y-49317485D01*
X105897970Y-49137208D01*
X105891520Y-49133879D01*
X105723337Y-49058999D01*
X131410165Y-49058999D01*
X131398928Y-49083606D01*
X131393850Y-49100899D01*
X131361418Y-49326464D01*
X131360776Y-49335442D01*
X131360776Y-49916812D01*
X131362220Y-49930242D01*
X131434114Y-50260735D01*
X131442744Y-50281569D01*
X131569611Y-50478979D01*
X131581414Y-50492600D01*
X131594533Y-50503967D01*
X131585839Y-50514000D01*
X131571459Y-50514000D01*
X131553605Y-50509960D01*
X131535709Y-50508520D01*
X131447384Y-50514000D01*
X131417742Y-50514000D01*
X131408800Y-50514637D01*
X131387162Y-50517736D01*
X131307658Y-50522669D01*
X131290078Y-50526309D01*
X131265601Y-50535145D01*
X131239841Y-50538834D01*
X131222609Y-50543873D01*
X131150086Y-50576847D01*
X131074982Y-50603960D01*
X131058815Y-50612619D01*
X131038742Y-50627472D01*
X131014607Y-50638445D01*
X130999483Y-50648118D01*
X130930420Y-50707627D01*
X130912330Y-50721012D01*
X130905247Y-50727116D01*
X130889337Y-50743026D01*
X130826387Y-50797268D01*
X130814585Y-50810797D01*
X130801725Y-50830637D01*
X130186532Y-51445831D01*
X129994589Y-51482446D01*
X129979511Y-51487346D01*
X129745697Y-51597370D01*
X129732311Y-51605865D01*
X129533205Y-51770580D01*
X129522351Y-51782138D01*
X129370463Y-51991193D01*
X129362825Y-52005087D01*
X129267700Y-52245347D01*
X129263757Y-52260703D01*
X129231370Y-52517073D01*
X129231370Y-52532927D01*
X129263757Y-52789297D01*
X129267700Y-52804653D01*
X129362825Y-53044913D01*
X129370463Y-53058807D01*
X129522351Y-53267862D01*
X129533205Y-53279420D01*
X129732311Y-53444135D01*
X129745697Y-53452630D01*
X129979511Y-53562654D01*
X129994589Y-53567554D01*
X130248419Y-53615975D01*
X130264242Y-53616970D01*
X130522139Y-53600745D01*
X130537713Y-53597774D01*
X130783472Y-53517921D01*
X130797818Y-53511171D01*
X130812570Y-53501809D01*
X132933163Y-53501809D01*
X132933163Y-53708258D01*
X132935319Y-53724634D01*
X133010137Y-54003859D01*
X133022880Y-54028339D01*
X133153990Y-54184590D01*
X133170879Y-54198761D01*
X133345120Y-54299359D01*
X133365837Y-54306900D01*
X133558538Y-54340878D01*
X133569499Y-54341837D01*
X133823191Y-54341837D01*
X133897000Y-54268028D01*
X133897000Y-53501809D01*
X133823191Y-53428000D01*
X133006972Y-53428000D01*
X132933163Y-53501809D01*
X130812570Y-53501809D01*
X131015998Y-53372710D01*
X131028215Y-53362604D01*
X131205106Y-53174233D01*
X131214425Y-53161407D01*
X131338914Y-52934962D01*
X131344750Y-52920221D01*
X131409013Y-52669933D01*
X131410648Y-52656988D01*
X131711937Y-52355699D01*
X131757048Y-52394788D01*
X131772211Y-52404532D01*
X131983606Y-52501072D01*
X132000899Y-52506150D01*
X132226464Y-52538582D01*
X132235442Y-52539224D01*
X132716812Y-52539224D01*
X132730242Y-52537780D01*
X133060735Y-52465886D01*
X133081569Y-52457256D01*
X133114644Y-52436000D01*
X133141644Y-52436000D01*
X133090410Y-52478990D01*
X133076239Y-52495879D01*
X132975641Y-52670120D01*
X132968100Y-52690837D01*
X132934122Y-52883538D01*
X132933163Y-52894499D01*
X132933163Y-53098191D01*
X133006972Y-53172000D01*
X134153000Y-53172000D01*
X134153000Y-54268028D01*
X134206721Y-54321749D01*
X134019589Y-54357446D01*
X134004511Y-54362346D01*
X133770697Y-54472370D01*
X133757311Y-54480865D01*
X133558205Y-54645580D01*
X133547351Y-54657138D01*
X133395463Y-54866193D01*
X133387825Y-54880087D01*
X133292700Y-55120347D01*
X133288757Y-55135703D01*
X133256370Y-55392073D01*
X133256370Y-55407927D01*
X133288757Y-55664297D01*
X133292700Y-55679653D01*
X133387825Y-55919913D01*
X133395463Y-55933807D01*
X133453417Y-56013573D01*
X133328467Y-56072370D01*
X133315081Y-56080865D01*
X133115975Y-56245580D01*
X133105121Y-56257138D01*
X132953233Y-56466193D01*
X132945595Y-56480087D01*
X132850470Y-56720347D01*
X132846527Y-56735703D01*
X132814140Y-56992073D01*
X132814140Y-57007927D01*
X132846527Y-57264297D01*
X132850470Y-57279653D01*
X132945595Y-57519913D01*
X132953233Y-57533807D01*
X133105121Y-57742862D01*
X133115975Y-57754420D01*
X133315081Y-57919135D01*
X133328467Y-57927630D01*
X133409683Y-57965847D01*
X133406370Y-57992073D01*
X133406370Y-58007928D01*
X133406441Y-58008494D01*
X133270697Y-58072370D01*
X133257311Y-58080865D01*
X133058205Y-58245580D01*
X133047351Y-58257138D01*
X132895463Y-58466193D01*
X132887825Y-58480087D01*
X132792700Y-58720347D01*
X132788757Y-58735703D01*
X132756370Y-58992073D01*
X132756370Y-59007927D01*
X132788757Y-59264297D01*
X132792700Y-59279653D01*
X132887825Y-59519913D01*
X132895463Y-59533807D01*
X133047351Y-59742862D01*
X133058205Y-59754420D01*
X133257311Y-59919135D01*
X133270697Y-59927630D01*
X133470752Y-60021769D01*
X133488757Y-60164297D01*
X133492700Y-60179653D01*
X133587825Y-60419913D01*
X133594830Y-60432655D01*
X133570463Y-60466193D01*
X133562825Y-60480087D01*
X133467700Y-60720347D01*
X133463757Y-60735703D01*
X133431370Y-60992073D01*
X133431370Y-61007927D01*
X133463757Y-61264297D01*
X133467700Y-61279653D01*
X133562825Y-61519913D01*
X133570463Y-61533807D01*
X133603810Y-61579705D01*
X133595463Y-61591193D01*
X133587825Y-61605087D01*
X133492700Y-61845347D01*
X133488757Y-61860703D01*
X133456370Y-62117073D01*
X133456370Y-62132927D01*
X133488757Y-62389297D01*
X133492700Y-62404653D01*
X133587825Y-62644913D01*
X133595463Y-62658807D01*
X133747351Y-62867862D01*
X133758205Y-62879420D01*
X133957311Y-63044135D01*
X133970697Y-63052630D01*
X134204511Y-63162654D01*
X134219589Y-63167554D01*
X134473419Y-63215975D01*
X134489242Y-63216970D01*
X134747139Y-63200745D01*
X134762713Y-63197774D01*
X135008472Y-63117921D01*
X135022818Y-63111171D01*
X135220056Y-62986000D01*
X137578542Y-62986000D01*
X137596396Y-62990040D01*
X137614292Y-62991480D01*
X137702617Y-62986000D01*
X137732258Y-62986000D01*
X137741200Y-62985363D01*
X137762838Y-62982264D01*
X137842342Y-62977331D01*
X137859922Y-62973691D01*
X137884399Y-62964855D01*
X137900390Y-62962565D01*
X137947740Y-63185332D01*
X137950166Y-63193791D01*
X137989608Y-63302156D01*
X137923251Y-63281361D01*
X137916210Y-63279593D01*
X137568332Y-63213231D01*
X137561135Y-63212283D01*
X137207935Y-63186347D01*
X137200677Y-63186233D01*
X136846836Y-63201063D01*
X136839613Y-63201783D01*
X136489822Y-63257185D01*
X136482730Y-63258731D01*
X136141624Y-63353970D01*
X136134757Y-63356321D01*
X135806859Y-63490134D01*
X135800307Y-63493259D01*
X135489962Y-63663872D01*
X135483813Y-63667729D01*
X135195134Y-63872882D01*
X135189469Y-63877421D01*
X134926283Y-64114395D01*
X134921177Y-64119555D01*
X134686973Y-64385207D01*
X134682494Y-64390920D01*
X134480375Y-64681730D01*
X134476582Y-64687920D01*
X134309228Y-65000034D01*
X134306171Y-65006619D01*
X134175800Y-65335900D01*
X134173521Y-65342792D01*
X134081860Y-65684876D01*
X134080388Y-65691984D01*
X134028652Y-66042336D01*
X134028007Y-66049567D01*
X134016883Y-66403543D01*
X134017073Y-66410800D01*
X134046708Y-66763708D01*
X134047730Y-66770895D01*
X134117730Y-67118059D01*
X134119572Y-67125080D01*
X134229011Y-67461898D01*
X134231648Y-67468661D01*
X134379074Y-67790668D01*
X134382471Y-67797084D01*
X134565931Y-68100012D01*
X134570043Y-68105994D01*
X134787104Y-68385828D01*
X134791876Y-68391298D01*
X135039663Y-68644330D01*
X135045032Y-68649215D01*
X135320259Y-68872090D01*
X135326154Y-68876325D01*
X135625173Y-69066089D01*
X135631516Y-69069619D01*
X135950366Y-69223758D01*
X135957072Y-69226536D01*
X136291523Y-69343004D01*
X136298505Y-69344993D01*
X136644127Y-69422248D01*
X136651291Y-69423421D01*
X137003502Y-69460440D01*
X137010753Y-69460782D01*
X137364885Y-69457074D01*
X137372127Y-69456580D01*
X137723485Y-69412193D01*
X137730622Y-69410870D01*
X137989842Y-69347200D01*
X137950166Y-69456207D01*
X137947740Y-69464666D01*
X137887524Y-69747963D01*
X137886299Y-69756678D01*
X137866096Y-70045598D01*
X137866096Y-70054398D01*
X137886299Y-70343318D01*
X137887524Y-70352033D01*
X137947740Y-70635330D01*
X137950166Y-70643789D01*
X138049225Y-70915948D01*
X138052804Y-70923987D01*
X138188774Y-71179712D01*
X138193438Y-71187175D01*
X138249255Y-71264000D01*
X134656637Y-71264000D01*
X134560648Y-71168011D01*
X134559013Y-71155067D01*
X134494750Y-70904779D01*
X134488914Y-70890038D01*
X134364425Y-70663593D01*
X134355106Y-70650767D01*
X134178215Y-70462396D01*
X134165998Y-70452290D01*
X133947818Y-70313829D01*
X133933472Y-70307079D01*
X133687713Y-70227226D01*
X133672139Y-70224255D01*
X133414242Y-70208030D01*
X133398419Y-70209025D01*
X133144589Y-70257446D01*
X133129511Y-70262346D01*
X132895697Y-70372370D01*
X132882311Y-70380865D01*
X132683205Y-70545580D01*
X132672351Y-70557138D01*
X132520463Y-70766193D01*
X132512825Y-70780087D01*
X132417700Y-71020347D01*
X132413757Y-71035703D01*
X132381370Y-71292073D01*
X132381370Y-71307927D01*
X132413757Y-71564297D01*
X132417700Y-71579653D01*
X132512825Y-71819913D01*
X132520463Y-71833807D01*
X132672351Y-72042862D01*
X132683205Y-72054420D01*
X132755225Y-72114000D01*
X132395056Y-72114000D01*
X132197818Y-71988829D01*
X132183472Y-71982079D01*
X131937713Y-71902226D01*
X131922139Y-71899255D01*
X131664242Y-71883030D01*
X131648419Y-71884025D01*
X131394589Y-71932446D01*
X131379511Y-71937346D01*
X131145697Y-72047370D01*
X131132311Y-72055865D01*
X130933205Y-72220580D01*
X130922351Y-72232138D01*
X130770463Y-72441193D01*
X130762825Y-72455087D01*
X130667700Y-72695347D01*
X130663757Y-72710703D01*
X130631370Y-72967073D01*
X130631370Y-72982927D01*
X130663757Y-73239297D01*
X130667700Y-73254653D01*
X130762825Y-73494913D01*
X130770463Y-73508807D01*
X130922351Y-73717862D01*
X130933205Y-73729420D01*
X131132311Y-73894135D01*
X131145697Y-73902630D01*
X131379511Y-74012654D01*
X131394589Y-74017554D01*
X131648419Y-74065975D01*
X131664242Y-74066970D01*
X131922139Y-74050745D01*
X131937713Y-74047774D01*
X132183472Y-73967921D01*
X132197818Y-73961171D01*
X132395056Y-73836000D01*
X154737037Y-73836000D01*
X154807310Y-73894135D01*
X154820697Y-73902630D01*
X155054511Y-74012654D01*
X155069589Y-74017554D01*
X155323419Y-74065975D01*
X155339242Y-74066970D01*
X155597139Y-74050745D01*
X155612713Y-74047774D01*
X155748840Y-74003543D01*
X177216883Y-74003543D01*
X177217073Y-74010800D01*
X177246708Y-74363708D01*
X177247730Y-74370895D01*
X177317730Y-74718059D01*
X177319572Y-74725080D01*
X177429011Y-75061898D01*
X177431648Y-75068661D01*
X177579074Y-75390668D01*
X177582471Y-75397084D01*
X177765931Y-75700012D01*
X177770043Y-75705994D01*
X177989438Y-75988838D01*
X178102996Y-75995983D01*
X180121789Y-73977190D01*
X180121789Y-73872808D01*
X178105981Y-71857000D01*
X177996985Y-71860425D01*
X177886973Y-71985207D01*
X177882494Y-71990920D01*
X177680375Y-72281730D01*
X177676582Y-72287920D01*
X177509228Y-72600034D01*
X177506171Y-72606619D01*
X177375800Y-72935900D01*
X177373521Y-72942792D01*
X177281860Y-73284876D01*
X177280388Y-73291984D01*
X177228652Y-73642336D01*
X177228007Y-73649567D01*
X177216883Y-74003543D01*
X155748840Y-74003543D01*
X155858472Y-73967921D01*
X155872818Y-73961171D01*
X156090998Y-73822710D01*
X156103215Y-73812604D01*
X156280106Y-73624233D01*
X156289425Y-73611407D01*
X156413914Y-73384962D01*
X156419750Y-73370221D01*
X156484013Y-73119933D01*
X156486000Y-73104203D01*
X156486000Y-72845797D01*
X156484013Y-72830067D01*
X156419750Y-72579779D01*
X156413914Y-72565038D01*
X156289425Y-72338593D01*
X156280106Y-72325767D01*
X156103215Y-72137396D01*
X156090998Y-72127290D01*
X155872818Y-71988829D01*
X155858472Y-71982079D01*
X155612713Y-71902226D01*
X155597139Y-71899255D01*
X155339242Y-71883030D01*
X155323419Y-71884025D01*
X155086000Y-71929315D01*
X155086000Y-71745797D01*
X155084013Y-71730067D01*
X155070043Y-71675656D01*
X178286675Y-71675656D01*
X180302808Y-73691789D01*
X180407190Y-73691789D01*
X182427308Y-71671671D01*
X182419515Y-71557359D01*
X182108828Y-71321534D01*
X182102802Y-71317485D01*
X181797970Y-71137208D01*
X181791520Y-71133879D01*
X181777725Y-71127737D01*
X181922857Y-71059443D01*
X181929797Y-71055628D01*
X182202936Y-70882289D01*
X182209343Y-70877634D01*
X182362981Y-70750534D01*
X182368229Y-70639249D01*
X180707190Y-68978209D01*
X180602808Y-68978209D01*
X178941769Y-70639249D01*
X178947017Y-70750534D01*
X179100655Y-70877634D01*
X179107062Y-70882289D01*
X179267176Y-70983900D01*
X179006859Y-71090134D01*
X179000307Y-71093259D01*
X178689962Y-71263872D01*
X178683813Y-71267729D01*
X178395134Y-71472882D01*
X178389469Y-71477421D01*
X178289509Y-71567426D01*
X178286675Y-71675656D01*
X155070043Y-71675656D01*
X155019750Y-71479779D01*
X155013914Y-71465038D01*
X154889425Y-71238593D01*
X154880106Y-71225767D01*
X154703215Y-71037396D01*
X154690998Y-71027290D01*
X154472818Y-70888829D01*
X154458472Y-70882079D01*
X154212713Y-70802226D01*
X154197139Y-70799255D01*
X153939242Y-70783030D01*
X153923419Y-70784025D01*
X153669589Y-70832446D01*
X153654511Y-70837346D01*
X153420697Y-70947370D01*
X153407311Y-70955865D01*
X153208205Y-71120580D01*
X153197351Y-71132138D01*
X153101548Y-71264000D01*
X141762773Y-71264000D01*
X141891473Y-71058037D01*
X141895604Y-71050267D01*
X142013405Y-70785680D01*
X142016415Y-70777411D01*
X142096247Y-70499005D01*
X142098076Y-70490397D01*
X142101888Y-70463269D01*
X145417748Y-70463269D01*
X145420584Y-70571502D01*
X145474306Y-70619870D01*
X145480874Y-70625038D01*
X145735274Y-70799230D01*
X145742470Y-70803485D01*
X146017674Y-70942500D01*
X146025369Y-70945767D01*
X146316541Y-71047164D01*
X146324601Y-71049384D01*
X146626626Y-71111381D01*
X146634908Y-71112516D01*
X146942479Y-71134023D01*
X146950839Y-71134052D01*
X147258553Y-71114692D01*
X147266843Y-71113615D01*
X147569294Y-71053729D01*
X147577368Y-71051565D01*
X147869242Y-70952204D01*
X147876960Y-70948991D01*
X148153128Y-70811900D01*
X148160353Y-70807695D01*
X148415964Y-70635283D01*
X148422569Y-70630160D01*
X148488572Y-70571560D01*
X148491799Y-70462818D01*
X147007190Y-68978209D01*
X146902808Y-68978209D01*
X145417748Y-70463269D01*
X142101888Y-70463269D01*
X142138385Y-70203590D01*
X142138999Y-70194811D01*
X142138999Y-69905185D01*
X142138385Y-69896406D01*
X142098076Y-69609599D01*
X142096247Y-69600991D01*
X142024507Y-69350805D01*
X142344127Y-69422248D01*
X142351291Y-69423421D01*
X142703502Y-69460440D01*
X142710753Y-69460782D01*
X143064885Y-69457074D01*
X143072127Y-69456580D01*
X143423485Y-69412193D01*
X143430622Y-69410870D01*
X143774551Y-69326393D01*
X143781489Y-69324259D01*
X144113429Y-69200811D01*
X144120076Y-69197894D01*
X144435627Y-69037113D01*
X144441894Y-69033451D01*
X144577152Y-68943585D01*
X144579469Y-68998860D01*
X144580371Y-69007170D01*
X144633911Y-69310809D01*
X144635905Y-69318927D01*
X144729132Y-69612818D01*
X144732182Y-69620601D01*
X144863460Y-69899579D01*
X144867513Y-69906891D01*
X145034534Y-70166056D01*
X145039518Y-70172767D01*
X145127791Y-70276489D01*
X145238061Y-70280918D01*
X146826171Y-68692808D01*
X147188209Y-68692808D01*
X147188209Y-68797190D01*
X148672153Y-70281134D01*
X148781914Y-70277109D01*
X148860466Y-70186104D01*
X148865497Y-70179428D01*
X149034323Y-69921436D01*
X149038427Y-69914152D01*
X149171649Y-69636097D01*
X149174754Y-69628335D01*
X149270030Y-69335104D01*
X149272080Y-69327000D01*
X149327878Y-69022984D01*
X149328895Y-69013136D01*
X149339160Y-68593148D01*
X149338625Y-68583261D01*
X149297745Y-68276883D01*
X149296093Y-68268688D01*
X149215254Y-67971151D01*
X149212532Y-67963247D01*
X149093052Y-67679016D01*
X149089309Y-67671541D01*
X148933288Y-67405610D01*
X148928589Y-67398695D01*
X148785589Y-67215664D01*
X148672283Y-67208734D01*
X147188209Y-68692808D01*
X146826171Y-68692808D01*
X148492501Y-67026478D01*
X148487807Y-66961000D01*
X159482108Y-66961000D01*
X159541741Y-66968851D01*
X159558259Y-66968851D01*
X159621988Y-66960461D01*
X159621999Y-66960460D01*
X159812192Y-66935421D01*
X159828146Y-66931146D01*
X159934697Y-66887011D01*
X159937825Y-66894913D01*
X159945463Y-66908807D01*
X160097351Y-67117862D01*
X160108205Y-67129420D01*
X160307311Y-67294135D01*
X160320697Y-67302630D01*
X160554511Y-67412654D01*
X160569589Y-67417554D01*
X160823419Y-67465975D01*
X160839242Y-67466970D01*
X161097139Y-67450745D01*
X161112713Y-67447774D01*
X161358472Y-67367921D01*
X161372818Y-67361171D01*
X161570056Y-67236000D01*
X168212037Y-67236000D01*
X168282310Y-67294135D01*
X168295697Y-67302630D01*
X168529511Y-67412654D01*
X168544589Y-67417554D01*
X168798419Y-67465975D01*
X168814242Y-67466970D01*
X169072139Y-67450745D01*
X169087713Y-67447774D01*
X169333472Y-67367921D01*
X169347818Y-67361171D01*
X169565998Y-67222710D01*
X169578215Y-67212604D01*
X169755106Y-67024233D01*
X169764425Y-67011407D01*
X169888914Y-66784962D01*
X169894750Y-66770221D01*
X169959013Y-66519933D01*
X169961000Y-66504203D01*
X169961000Y-66245797D01*
X169959013Y-66230067D01*
X169894750Y-65979779D01*
X169888914Y-65965038D01*
X169764425Y-65738593D01*
X169755106Y-65725767D01*
X169578215Y-65537396D01*
X169565998Y-65527290D01*
X169347818Y-65388829D01*
X169333472Y-65382079D01*
X169140699Y-65319442D01*
X169230106Y-65224233D01*
X169239425Y-65211407D01*
X169363914Y-64984962D01*
X169369750Y-64970221D01*
X169434013Y-64719933D01*
X169436000Y-64704203D01*
X169436000Y-64445797D01*
X169434013Y-64430067D01*
X169402158Y-64306000D01*
X173157168Y-64306000D01*
X173172193Y-64328109D01*
X173179301Y-64336793D01*
X173345769Y-64506786D01*
X173354304Y-64514075D01*
X173548245Y-64651901D01*
X173557934Y-64657563D01*
X173678668Y-64714376D01*
X173622358Y-64737356D01*
X173612385Y-64742503D01*
X173411496Y-64869990D01*
X173402592Y-64876823D01*
X173227455Y-65037870D01*
X173219902Y-65046171D01*
X173076052Y-65235686D01*
X173070088Y-65245193D01*
X172962071Y-65457188D01*
X172957885Y-65467601D01*
X172889117Y-65695373D01*
X172886841Y-65706363D01*
X172859494Y-65942713D01*
X172859200Y-65953932D01*
X172874140Y-66191390D01*
X172875838Y-66202484D01*
X172932591Y-66433543D01*
X172936226Y-66444161D01*
X173033000Y-66661517D01*
X173038458Y-66671323D01*
X173172193Y-66868109D01*
X173179301Y-66876793D01*
X173345769Y-67046786D01*
X173354304Y-67054075D01*
X173548245Y-67191901D01*
X173557934Y-67197563D01*
X173678668Y-67254376D01*
X173622358Y-67277356D01*
X173612385Y-67282503D01*
X173411496Y-67409990D01*
X173402592Y-67416823D01*
X173227455Y-67577870D01*
X173219902Y-67586171D01*
X173076052Y-67775686D01*
X173070088Y-67785193D01*
X172962071Y-67997188D01*
X172957885Y-68007601D01*
X172889117Y-68235373D01*
X172886841Y-68246363D01*
X172859494Y-68482713D01*
X172859200Y-68493932D01*
X172874140Y-68731390D01*
X172875838Y-68742484D01*
X172932591Y-68973543D01*
X172936226Y-68984161D01*
X173033000Y-69201517D01*
X173038458Y-69211323D01*
X173172193Y-69408109D01*
X173179301Y-69416793D01*
X173345769Y-69586786D01*
X173354304Y-69594075D01*
X173548245Y-69731901D01*
X173557934Y-69737563D01*
X173773217Y-69838867D01*
X173783757Y-69842724D01*
X174013577Y-69904304D01*
X174024633Y-69906233D01*
X174261725Y-69926144D01*
X174272948Y-69926085D01*
X174509819Y-69903694D01*
X174520854Y-69901649D01*
X174750016Y-69837665D01*
X174760514Y-69833698D01*
X174974724Y-69730145D01*
X174984354Y-69724382D01*
X175176841Y-69584532D01*
X175185299Y-69577154D01*
X175349979Y-69405428D01*
X175356996Y-69396669D01*
X175402680Y-69327909D01*
X175473137Y-69590859D01*
X175485880Y-69615339D01*
X175616990Y-69771590D01*
X175633879Y-69785761D01*
X175808120Y-69886359D01*
X175828837Y-69893900D01*
X176021538Y-69927878D01*
X176032499Y-69928837D01*
X176598191Y-69928837D01*
X176672000Y-69855028D01*
X176672001Y-68397000D01*
X176928000Y-68397001D01*
X176927999Y-69855028D01*
X177001808Y-69928837D01*
X177570258Y-69928837D01*
X177586634Y-69926681D01*
X177865859Y-69851863D01*
X177890339Y-69839120D01*
X178046590Y-69708010D01*
X178060761Y-69691121D01*
X178142248Y-69549981D01*
X178143977Y-69556716D01*
X178146425Y-69564248D01*
X178265513Y-69865029D01*
X178268885Y-69872195D01*
X178424731Y-70155680D01*
X178428974Y-70162366D01*
X178640517Y-70453530D01*
X178756333Y-70462645D01*
X180421789Y-68797190D01*
X180421789Y-68692808D01*
X178756333Y-67027353D01*
X178640517Y-67036468D01*
X178428974Y-67327632D01*
X178424731Y-67334318D01*
X178268885Y-67617803D01*
X178265513Y-67624969D01*
X178203837Y-67780744D01*
X178203837Y-67754742D01*
X178201681Y-67738366D01*
X178126863Y-67459142D01*
X178114120Y-67434662D01*
X177983010Y-67278410D01*
X177966121Y-67264239D01*
X177791880Y-67163641D01*
X177771163Y-67156100D01*
X177603879Y-67126604D01*
X177716841Y-67044532D01*
X177725299Y-67037154D01*
X177889979Y-66865428D01*
X177896996Y-66856669D01*
X177900929Y-66850749D01*
X178941769Y-66850749D01*
X180602808Y-68511789D01*
X180707190Y-68511789D01*
X182368229Y-66850749D01*
X182362981Y-66739464D01*
X182209343Y-66612364D01*
X182202936Y-66607709D01*
X181929797Y-66434370D01*
X181922857Y-66430555D01*
X181630146Y-66292816D01*
X181622783Y-66289901D01*
X181315116Y-66189933D01*
X181307446Y-66187964D01*
X180989677Y-66127346D01*
X180981819Y-66126353D01*
X180658959Y-66106041D01*
X180651039Y-66106041D01*
X180328179Y-66126353D01*
X180320321Y-66127346D01*
X180002552Y-66187964D01*
X179994882Y-66189933D01*
X179687215Y-66289901D01*
X179679852Y-66292816D01*
X179387141Y-66430555D01*
X179380201Y-66434370D01*
X179107062Y-66607709D01*
X179100655Y-66612364D01*
X178947017Y-66739464D01*
X178941769Y-66850749D01*
X177900929Y-66850749D01*
X178028662Y-66658494D01*
X178034018Y-66648631D01*
X178128510Y-66430273D01*
X178132034Y-66419617D01*
X178186553Y-66187172D01*
X178188200Y-66174402D01*
X178196210Y-65868510D01*
X178195234Y-65855671D01*
X178152954Y-65620691D01*
X178149992Y-65609866D01*
X178067058Y-65386861D01*
X178062226Y-65376732D01*
X177941112Y-65171938D01*
X177934563Y-65162824D01*
X177779096Y-64982714D01*
X177771036Y-64974904D01*
X177586132Y-64825172D01*
X177576817Y-64818913D01*
X177384416Y-64713138D01*
X177514724Y-64650145D01*
X177524354Y-64644382D01*
X177716841Y-64504532D01*
X177725299Y-64497154D01*
X177889979Y-64325428D01*
X177896996Y-64316669D01*
X178028662Y-64118494D01*
X178034018Y-64108631D01*
X178128510Y-63890273D01*
X178132034Y-63879617D01*
X178186553Y-63647172D01*
X178188200Y-63634402D01*
X178196210Y-63328510D01*
X178195234Y-63315671D01*
X178152954Y-63080691D01*
X178149992Y-63069866D01*
X178067058Y-62846861D01*
X178062226Y-62836732D01*
X177941112Y-62631938D01*
X177934563Y-62622824D01*
X177779096Y-62442714D01*
X177771036Y-62434904D01*
X177586132Y-62285172D01*
X177576817Y-62278913D01*
X177384416Y-62173138D01*
X177514724Y-62110145D01*
X177524354Y-62104382D01*
X177716841Y-61964532D01*
X177725299Y-61957154D01*
X177889979Y-61785428D01*
X177896996Y-61776669D01*
X178028662Y-61578494D01*
X178034018Y-61568631D01*
X178128510Y-61350273D01*
X178132034Y-61339617D01*
X178186553Y-61107172D01*
X178188200Y-61094402D01*
X178196210Y-60788510D01*
X178195234Y-60775671D01*
X178152954Y-60540691D01*
X178149992Y-60529866D01*
X178067058Y-60306861D01*
X178062226Y-60296732D01*
X177941112Y-60091938D01*
X177934563Y-60082824D01*
X177779096Y-59902714D01*
X177771036Y-59894904D01*
X177586132Y-59745172D01*
X177576817Y-59738913D01*
X177368321Y-59624290D01*
X177358044Y-59619779D01*
X177132544Y-59543890D01*
X177121632Y-59541270D01*
X176886257Y-59506513D01*
X176875053Y-59505867D01*
X176637244Y-59513340D01*
X176627194Y-59514557D01*
X176111886Y-58999249D01*
X178941769Y-58999249D01*
X178947017Y-59110534D01*
X179100655Y-59237634D01*
X179107062Y-59242289D01*
X179380201Y-59415628D01*
X179387141Y-59419443D01*
X179679852Y-59557182D01*
X179687215Y-59560097D01*
X179994882Y-59660065D01*
X180002552Y-59662034D01*
X180320321Y-59722652D01*
X180328179Y-59723645D01*
X180651039Y-59743957D01*
X180658959Y-59743957D01*
X180981819Y-59723645D01*
X180989677Y-59722652D01*
X181307446Y-59662034D01*
X181315116Y-59660065D01*
X181622783Y-59560097D01*
X181630146Y-59557182D01*
X181922857Y-59419443D01*
X181929797Y-59415628D01*
X182202936Y-59242289D01*
X182209343Y-59237634D01*
X182362981Y-59110534D01*
X182368229Y-58999249D01*
X180707190Y-57338209D01*
X180602808Y-57338209D01*
X178941769Y-58999249D01*
X176111886Y-58999249D01*
X175698424Y-58585787D01*
X175915998Y-58447710D01*
X175928215Y-58437604D01*
X176105106Y-58249233D01*
X176114425Y-58236407D01*
X176238914Y-58009962D01*
X176244750Y-57995221D01*
X176309013Y-57744933D01*
X176311000Y-57729203D01*
X176311000Y-57470797D01*
X176309013Y-57455067D01*
X176244750Y-57204779D01*
X176238914Y-57190038D01*
X176114425Y-56963593D01*
X176105106Y-56950767D01*
X176098047Y-56943249D01*
X178021000Y-56943249D01*
X178021000Y-57266749D01*
X178021497Y-57274652D01*
X178062042Y-57595600D01*
X178063526Y-57603380D01*
X178143977Y-57916716D01*
X178146425Y-57924248D01*
X178265513Y-58225029D01*
X178268885Y-58232195D01*
X178424731Y-58515680D01*
X178428974Y-58522366D01*
X178640517Y-58813530D01*
X178756333Y-58822645D01*
X180421789Y-57157190D01*
X180421789Y-57052808D01*
X178756333Y-55387353D01*
X178640517Y-55396468D01*
X178428974Y-55687632D01*
X178424731Y-55694318D01*
X178268885Y-55977803D01*
X178265513Y-55984969D01*
X178146425Y-56285750D01*
X178143977Y-56293282D01*
X178063526Y-56606618D01*
X178062042Y-56614398D01*
X178021497Y-56935346D01*
X178021000Y-56943249D01*
X176098047Y-56943249D01*
X175928215Y-56762396D01*
X175915998Y-56752290D01*
X175697818Y-56613829D01*
X175683472Y-56607079D01*
X175437713Y-56527226D01*
X175422139Y-56524255D01*
X175363183Y-56520546D01*
X173560648Y-54718012D01*
X173559013Y-54705067D01*
X173494750Y-54454779D01*
X173488914Y-54440038D01*
X173364425Y-54213593D01*
X173355106Y-54200767D01*
X173330969Y-54175063D01*
X178285954Y-54175063D01*
X178291826Y-54287107D01*
X178520259Y-54472089D01*
X178526154Y-54476325D01*
X178825173Y-54666089D01*
X178831516Y-54669619D01*
X179150366Y-54823758D01*
X179157072Y-54826536D01*
X179268417Y-54865310D01*
X179107062Y-54967709D01*
X179100655Y-54972364D01*
X178947017Y-55099464D01*
X178941769Y-55210749D01*
X180602808Y-56871789D01*
X180707190Y-56871789D01*
X182368229Y-55210749D01*
X182362981Y-55099464D01*
X182209343Y-54972364D01*
X182202936Y-54967709D01*
X181929797Y-54794370D01*
X181922857Y-54790555D01*
X181772936Y-54720008D01*
X181935627Y-54637113D01*
X181941894Y-54633451D01*
X182236874Y-54437465D01*
X182242679Y-54433107D01*
X182418419Y-54284594D01*
X182423052Y-54174071D01*
X180407190Y-52158209D01*
X180302808Y-52158209D01*
X178285954Y-54175063D01*
X173330969Y-54175063D01*
X173178215Y-54012396D01*
X173165998Y-54002290D01*
X172947818Y-53863829D01*
X172933472Y-53857079D01*
X172687713Y-53777226D01*
X172672139Y-53774255D01*
X172414242Y-53758030D01*
X172398419Y-53759025D01*
X172144589Y-53807446D01*
X172129511Y-53812346D01*
X171895697Y-53922370D01*
X171882310Y-53930865D01*
X171812037Y-53989000D01*
X170731637Y-53989000D01*
X169702030Y-52959394D01*
X169692258Y-52943906D01*
X169680622Y-52930234D01*
X169614272Y-52871636D01*
X169593331Y-52850694D01*
X169586558Y-52844822D01*
X169569071Y-52831716D01*
X169509360Y-52778982D01*
X169494357Y-52769126D01*
X169470797Y-52758064D01*
X169449973Y-52742458D01*
X169434228Y-52733838D01*
X169359644Y-52705877D01*
X169287351Y-52671936D01*
X169269795Y-52666627D01*
X169245098Y-52662937D01*
X169220278Y-52653631D01*
X169202742Y-52649776D01*
X169124456Y-52643958D01*
X169358472Y-52567921D01*
X169372818Y-52561171D01*
X169590998Y-52422710D01*
X169603215Y-52412604D01*
X169780106Y-52224233D01*
X169789425Y-52211407D01*
X169903699Y-52003543D01*
X177216883Y-52003543D01*
X177217073Y-52010800D01*
X177246708Y-52363708D01*
X177247730Y-52370895D01*
X177317730Y-52718059D01*
X177319572Y-52725080D01*
X177429011Y-53061898D01*
X177431648Y-53068661D01*
X177579074Y-53390668D01*
X177582471Y-53397084D01*
X177765931Y-53700012D01*
X177770043Y-53705994D01*
X177989438Y-53988838D01*
X178102996Y-53995983D01*
X180121789Y-51977190D01*
X180121789Y-51872808D01*
X178105981Y-49857000D01*
X177996985Y-49860425D01*
X177886973Y-49985207D01*
X177882494Y-49990920D01*
X177680375Y-50281730D01*
X177676582Y-50287920D01*
X177509228Y-50600034D01*
X177506171Y-50606619D01*
X177375800Y-50935900D01*
X177373521Y-50942792D01*
X177281860Y-51284876D01*
X177280388Y-51291984D01*
X177228652Y-51642336D01*
X177228007Y-51649567D01*
X177216883Y-52003543D01*
X169903699Y-52003543D01*
X169913914Y-51984962D01*
X169919750Y-51970221D01*
X169984013Y-51719933D01*
X169986000Y-51704203D01*
X169986000Y-51445797D01*
X169984013Y-51430067D01*
X169919750Y-51179779D01*
X169913914Y-51165038D01*
X169789425Y-50938593D01*
X169780106Y-50925767D01*
X169603215Y-50737396D01*
X169590998Y-50727290D01*
X169372818Y-50588829D01*
X169358472Y-50582079D01*
X169112713Y-50502226D01*
X169097139Y-50499255D01*
X168839242Y-50483030D01*
X168823419Y-50484025D01*
X168569589Y-50532446D01*
X168554511Y-50537346D01*
X168320697Y-50647370D01*
X168307311Y-50655865D01*
X168108205Y-50820580D01*
X168097351Y-50832138D01*
X167945463Y-51041193D01*
X167937825Y-51055087D01*
X167842700Y-51295347D01*
X167838757Y-51310703D01*
X167823155Y-51434207D01*
X167493363Y-51764000D01*
X163147698Y-51764000D01*
X163159013Y-51719933D01*
X163161000Y-51704203D01*
X163161000Y-51445797D01*
X163159013Y-51430067D01*
X163094750Y-51179779D01*
X163088914Y-51165038D01*
X162964425Y-50938593D01*
X162955106Y-50925767D01*
X162778215Y-50737396D01*
X162765998Y-50727290D01*
X162547818Y-50588829D01*
X162533472Y-50582079D01*
X162287713Y-50502226D01*
X162272139Y-50499255D01*
X162014242Y-50483030D01*
X161998419Y-50484025D01*
X161744589Y-50532446D01*
X161729511Y-50537346D01*
X161725996Y-50539000D01*
X160686000Y-50539000D01*
X160686000Y-50370797D01*
X160684013Y-50355067D01*
X160619750Y-50104779D01*
X160613914Y-50090038D01*
X160489425Y-49863593D01*
X160480106Y-49850767D01*
X160303215Y-49662396D01*
X160290998Y-49652290D01*
X160072818Y-49513829D01*
X160058472Y-49507079D01*
X159812713Y-49427226D01*
X159797139Y-49424255D01*
X159539242Y-49408030D01*
X159523419Y-49409025D01*
X159269589Y-49457446D01*
X159254511Y-49462346D01*
X159020697Y-49572370D01*
X159007310Y-49580865D01*
X158937037Y-49639000D01*
X140045056Y-49639000D01*
X139847818Y-49513829D01*
X139833472Y-49507079D01*
X139587713Y-49427226D01*
X139572139Y-49424255D01*
X139314242Y-49408030D01*
X139298419Y-49409025D01*
X139044589Y-49457446D01*
X139029511Y-49462346D01*
X138795697Y-49572370D01*
X138782311Y-49580865D01*
X138583205Y-49745580D01*
X138572351Y-49757138D01*
X138420463Y-49966193D01*
X138412825Y-49980087D01*
X138317700Y-50220347D01*
X138313757Y-50235703D01*
X138281370Y-50492073D01*
X138281370Y-50507927D01*
X138285295Y-50539000D01*
X137222855Y-50539000D01*
X137267783Y-50487151D01*
X137277527Y-50471989D01*
X137375561Y-50257324D01*
X137380639Y-50240031D01*
X137413582Y-50010907D01*
X137414224Y-50001930D01*
X137414224Y-49751809D01*
X137340415Y-49678000D01*
X136072000Y-49677999D01*
X136072001Y-49422000D01*
X137340415Y-49422001D01*
X137414224Y-49348192D01*
X137414224Y-49095816D01*
X137412780Y-49082386D01*
X137407692Y-49058999D01*
X179083153Y-49058999D01*
X179006859Y-49090134D01*
X179000307Y-49093259D01*
X178689962Y-49263872D01*
X178683813Y-49267729D01*
X178395134Y-49472882D01*
X178389469Y-49477421D01*
X178289509Y-49567426D01*
X178286675Y-49675656D01*
X180302808Y-51691789D01*
X180407190Y-51691789D01*
X182427308Y-49671671D01*
X182419515Y-49557359D01*
X182108828Y-49321534D01*
X182102802Y-49317485D01*
X181797970Y-49137208D01*
X181791520Y-49133879D01*
X181623337Y-49058999D01*
X183020999Y-49058999D01*
X183020999Y-50275824D01*
X182887035Y-50069538D01*
X182882737Y-50063687D01*
X182715735Y-49861815D01*
X182604450Y-49856567D01*
X180588209Y-51872808D01*
X180588209Y-51977190D01*
X182605689Y-53994670D01*
X182712383Y-53992995D01*
X182760875Y-53941358D01*
X182765533Y-53935788D01*
X182976687Y-53651469D01*
X182980672Y-53645401D01*
X183020999Y-53575553D01*
X183020999Y-55941215D01*
X182885267Y-55694318D01*
X182881024Y-55687632D01*
X182669481Y-55396468D01*
X182553665Y-55387353D01*
X180888209Y-57052808D01*
X180888209Y-57157190D01*
X182553665Y-58822645D01*
X182669481Y-58813530D01*
X182881024Y-58522366D01*
X182885267Y-58515680D01*
X183020999Y-58268782D01*
X183021000Y-67581217D01*
X182885267Y-67334318D01*
X182881024Y-67327632D01*
X182669481Y-67036468D01*
X182553665Y-67027353D01*
X180888209Y-68692808D01*
X180888209Y-68797190D01*
X182553665Y-70462645D01*
X182669481Y-70453530D01*
X182881024Y-70162366D01*
X182885267Y-70155680D01*
X183021000Y-69908781D01*
X183021000Y-72275826D01*
X182887035Y-72069538D01*
X182882737Y-72063687D01*
X182715735Y-71861815D01*
X182604450Y-71856567D01*
X180588209Y-73872808D01*
X180588209Y-73977190D01*
X182605689Y-75994670D01*
X182712383Y-75992995D01*
X182760875Y-75941358D01*
X182765533Y-75935788D01*
X182976687Y-75651469D01*
X182980672Y-75645401D01*
X183021000Y-75575551D01*
X183021000Y-76790999D01*
X181633608Y-76790999D01*
X181935627Y-76637113D01*
X181941894Y-76633451D01*
X182236874Y-76437465D01*
X182242679Y-76433107D01*
X182418419Y-76284594D01*
X182423052Y-76174071D01*
X180407190Y-74158209D01*
X180302808Y-74158209D01*
X178285954Y-76175063D01*
X178291826Y-76287107D01*
X178520259Y-76472089D01*
X178526154Y-76476325D01*
X178825173Y-76666089D01*
X178831516Y-76669619D01*
X179082601Y-76790999D01*
X105733608Y-76790999D01*
X106035627Y-76637113D01*
X106041894Y-76633451D01*
X106336874Y-76437465D01*
X106342679Y-76433107D01*
X106518419Y-76284594D01*
X106523052Y-76174071D01*
X104507190Y-74158209D01*
X104402808Y-74158209D01*
X102385954Y-76175063D01*
X102391826Y-76287107D01*
X102620259Y-76472089D01*
X102626154Y-76476325D01*
X102925173Y-76666089D01*
X102931516Y-76669619D01*
X103182601Y-76790999D01*
X101788999Y-76790999D01*
X101788999Y-75572982D01*
X101865931Y-75700012D01*
X101870043Y-75705994D01*
X102089438Y-75988838D01*
X102202996Y-75995983D01*
X104221789Y-73977190D01*
X104221789Y-73872808D01*
X104688209Y-73872808D01*
X104688209Y-73977190D01*
X106705689Y-75994670D01*
X106812383Y-75992995D01*
X106860875Y-75941358D01*
X106865533Y-75935788D01*
X107076687Y-75651469D01*
X107080672Y-75645401D01*
X107257748Y-75338698D01*
X107261010Y-75332213D01*
X107401660Y-75007189D01*
X107404154Y-75000372D01*
X107506515Y-74661336D01*
X107508210Y-74654278D01*
X107571100Y-74304748D01*
X107572066Y-74295559D01*
X107589183Y-73750893D01*
X107588796Y-73741660D01*
X107547977Y-73388872D01*
X107546729Y-73381721D01*
X107465858Y-73036927D01*
X107463796Y-73029967D01*
X107343831Y-72696753D01*
X107340984Y-72690076D01*
X107183516Y-72372859D01*
X107179919Y-72366553D01*
X106987035Y-72069538D01*
X106982737Y-72063687D01*
X106815735Y-71861815D01*
X106704450Y-71856567D01*
X104688209Y-73872808D01*
X104221789Y-73872808D01*
X102205981Y-71857000D01*
X102096985Y-71860425D01*
X101986973Y-71985207D01*
X101982494Y-71990920D01*
X101788999Y-72269322D01*
X101788999Y-71675656D01*
X102386675Y-71675656D01*
X104402808Y-73691789D01*
X104507190Y-73691789D01*
X106527308Y-71671671D01*
X106519515Y-71557359D01*
X106208828Y-71321534D01*
X106202802Y-71317485D01*
X105897970Y-71137208D01*
X105891520Y-71133879D01*
X105567986Y-70989832D01*
X105561195Y-70987266D01*
X105223251Y-70881361D01*
X105216210Y-70879593D01*
X104868332Y-70813231D01*
X104861135Y-70812283D01*
X104507935Y-70786347D01*
X104500677Y-70786233D01*
X104146836Y-70801063D01*
X104139613Y-70801783D01*
X103789822Y-70857185D01*
X103782730Y-70858731D01*
X103441624Y-70953970D01*
X103434757Y-70956321D01*
X103106859Y-71090134D01*
X103100307Y-71093259D01*
X102789962Y-71263872D01*
X102783813Y-71267729D01*
X102495134Y-71472882D01*
X102489469Y-71477421D01*
X102389509Y-71567426D01*
X102386675Y-71675656D01*
X101788999Y-71675656D01*
X101788999Y-68801807D01*
X103010776Y-68801807D01*
X103010776Y-69404283D01*
X103012220Y-69417713D01*
X103085246Y-69753411D01*
X103093876Y-69774245D01*
X103222671Y-69974654D01*
X103234474Y-69988275D01*
X103412803Y-70142798D01*
X103427965Y-70152542D01*
X103642604Y-70250564D01*
X103659897Y-70255642D01*
X103888993Y-70288581D01*
X103897970Y-70289223D01*
X104948191Y-70289223D01*
X105022000Y-70215414D01*
X105277999Y-70215414D01*
X105351808Y-70289223D01*
X106404284Y-70289223D01*
X106417714Y-70287779D01*
X106753412Y-70214753D01*
X106774246Y-70206123D01*
X106974655Y-70077328D01*
X106988276Y-70065525D01*
X107142799Y-69887196D01*
X107152543Y-69872034D01*
X107250565Y-69657395D01*
X107255643Y-69640102D01*
X107288582Y-69411006D01*
X107289224Y-69402029D01*
X107289224Y-68801808D01*
X107215415Y-68727999D01*
X105351809Y-68727998D01*
X105278000Y-68801807D01*
X105277999Y-70215414D01*
X105022000Y-70215414D01*
X105022001Y-68801808D01*
X104948192Y-68727999D01*
X103084585Y-68727998D01*
X103010776Y-68801807D01*
X101788999Y-68801807D01*
X101788999Y-67797969D01*
X103010776Y-67797969D01*
X103010776Y-68398190D01*
X103084585Y-68471999D01*
X104948191Y-68472000D01*
X105022000Y-68398191D01*
X105022000Y-68398190D01*
X105277999Y-68398190D01*
X105351808Y-68471999D01*
X107215415Y-68472000D01*
X107289224Y-68398191D01*
X107289224Y-67795715D01*
X107287780Y-67782285D01*
X107214754Y-67446587D01*
X107206124Y-67425753D01*
X107077329Y-67225344D01*
X107065526Y-67211723D01*
X106887197Y-67057200D01*
X106872035Y-67047456D01*
X106657396Y-66949434D01*
X106640103Y-66944356D01*
X106411007Y-66911417D01*
X106402030Y-66910775D01*
X105351809Y-66910775D01*
X105278000Y-66984584D01*
X105277999Y-68398190D01*
X105022000Y-68398190D01*
X105022001Y-66984584D01*
X104948192Y-66910775D01*
X103895716Y-66910775D01*
X103882286Y-66912219D01*
X103546588Y-66985245D01*
X103525754Y-66993875D01*
X103325345Y-67122670D01*
X103311724Y-67134473D01*
X103157201Y-67312802D01*
X103147457Y-67327964D01*
X103049435Y-67542603D01*
X103044357Y-67559896D01*
X103011418Y-67788992D01*
X103010776Y-67797969D01*
X101788999Y-67797969D01*
X101788999Y-63167073D01*
X105656370Y-63167073D01*
X105656370Y-63182927D01*
X105688757Y-63439297D01*
X105692700Y-63454653D01*
X105787825Y-63694913D01*
X105795463Y-63708807D01*
X105947351Y-63917862D01*
X105958205Y-63929420D01*
X106157311Y-64094135D01*
X106170697Y-64102630D01*
X106404511Y-64212654D01*
X106419589Y-64217554D01*
X106624325Y-64256609D01*
X106640639Y-64271017D01*
X106655642Y-64280873D01*
X106677249Y-64291018D01*
X106647393Y-64356393D01*
X106642315Y-64373686D01*
X106611418Y-64588579D01*
X106610776Y-64597556D01*
X106610776Y-65004696D01*
X106612220Y-65018126D01*
X106680691Y-65332881D01*
X106689321Y-65353715D01*
X106732268Y-65420542D01*
X106647393Y-65606393D01*
X106642315Y-65623686D01*
X106611418Y-65838579D01*
X106610776Y-65847556D01*
X106610776Y-66254696D01*
X106612220Y-66268126D01*
X106680691Y-66582881D01*
X106689321Y-66603715D01*
X106810358Y-66792053D01*
X106822161Y-66805674D01*
X106989645Y-66950801D01*
X107004807Y-66960545D01*
X107206394Y-67052606D01*
X107223687Y-67057684D01*
X107438580Y-67088581D01*
X107447557Y-67089223D01*
X108354697Y-67089223D01*
X108368127Y-67087779D01*
X108682882Y-67019308D01*
X108703716Y-67010678D01*
X108892054Y-66889641D01*
X108905675Y-66877838D01*
X109050802Y-66710354D01*
X109060546Y-66695192D01*
X109152607Y-66493605D01*
X109157685Y-66476312D01*
X109188582Y-66261419D01*
X109189224Y-66252442D01*
X109189224Y-65845302D01*
X109187780Y-65831872D01*
X109150609Y-65660999D01*
X111174644Y-65660999D01*
X110988199Y-65796957D01*
X110980138Y-65803952D01*
X110812029Y-65976822D01*
X110805263Y-65985074D01*
X110668683Y-66183798D01*
X110663403Y-66193073D01*
X110562260Y-66411968D01*
X110558618Y-66422000D01*
X110495802Y-66654807D01*
X110493903Y-66665309D01*
X110471211Y-66905372D01*
X110471109Y-66916043D01*
X110489188Y-67156497D01*
X110490885Y-67167034D01*
X110549221Y-67401005D01*
X110552669Y-67411104D01*
X110649591Y-67631900D01*
X110654692Y-67641275D01*
X110787430Y-67842584D01*
X110794038Y-67850965D01*
X110958798Y-68027032D01*
X110966722Y-68034180D01*
X111158792Y-68179968D01*
X111167808Y-68185679D01*
X111381696Y-68297021D01*
X111391545Y-68301131D01*
X111621134Y-68374844D01*
X111631535Y-68377236D01*
X111870262Y-68411212D01*
X111880917Y-68411817D01*
X112121956Y-68405084D01*
X112132561Y-68403885D01*
X112369019Y-68356636D01*
X112379270Y-68353667D01*
X112604387Y-68267253D01*
X112613991Y-68262600D01*
X112821330Y-68139491D01*
X112830012Y-68133286D01*
X113013645Y-67977004D01*
X113021158Y-67969424D01*
X113047403Y-67938035D01*
X113085137Y-68078859D01*
X113097880Y-68103339D01*
X113228990Y-68259590D01*
X113245879Y-68273761D01*
X113420120Y-68374359D01*
X113440837Y-68381900D01*
X113633538Y-68415878D01*
X113644499Y-68416837D01*
X115249201Y-68416837D01*
X120197971Y-73365608D01*
X120207743Y-73381095D01*
X120219379Y-73394767D01*
X120285713Y-73453350D01*
X120306668Y-73474306D01*
X120313442Y-73480179D01*
X120330931Y-73493286D01*
X120390641Y-73546020D01*
X120405647Y-73555877D01*
X120429200Y-73566935D01*
X120450023Y-73582541D01*
X120465771Y-73591163D01*
X120540356Y-73619123D01*
X120612649Y-73653065D01*
X120630203Y-73658373D01*
X120654903Y-73662065D01*
X120679725Y-73671370D01*
X120697258Y-73675224D01*
X120788157Y-73681980D01*
X120810428Y-73685308D01*
X120819753Y-73686001D01*
X120842266Y-73686001D01*
X120925120Y-73692158D01*
X120943032Y-73690937D01*
X120966155Y-73686001D01*
X126988539Y-73686001D01*
X127006393Y-73690041D01*
X127024289Y-73691481D01*
X127112614Y-73686001D01*
X127142255Y-73686001D01*
X127151197Y-73685364D01*
X127172835Y-73682265D01*
X127252339Y-73677332D01*
X127269919Y-73673692D01*
X127294396Y-73664856D01*
X127320156Y-73661167D01*
X127337388Y-73656128D01*
X127409911Y-73623154D01*
X127485016Y-73596041D01*
X127501184Y-73587381D01*
X127521254Y-73572529D01*
X127545389Y-73561556D01*
X127560514Y-73551883D01*
X127629578Y-73492373D01*
X127647664Y-73478990D01*
X127654749Y-73472886D01*
X127670653Y-73456981D01*
X127733610Y-73402733D01*
X127745412Y-73389205D01*
X127758275Y-73369360D01*
X128305683Y-72821953D01*
X128364638Y-72818244D01*
X128380212Y-72815273D01*
X128625971Y-72735420D01*
X128640317Y-72728670D01*
X128858497Y-72590209D01*
X128870714Y-72580103D01*
X129047605Y-72391732D01*
X129056924Y-72378906D01*
X129181413Y-72152461D01*
X129187249Y-72137720D01*
X129251512Y-71887432D01*
X129253499Y-71871702D01*
X129253499Y-71613296D01*
X129251512Y-71597566D01*
X129187249Y-71347278D01*
X129181413Y-71332537D01*
X129056924Y-71106092D01*
X129047605Y-71093266D01*
X128870714Y-70904895D01*
X128858497Y-70894789D01*
X128640317Y-70756328D01*
X128625971Y-70749578D01*
X128553437Y-70726010D01*
X128555106Y-70724233D01*
X128564425Y-70711407D01*
X128688914Y-70484962D01*
X128694750Y-70470221D01*
X128759013Y-70219933D01*
X128761000Y-70204203D01*
X128761000Y-69945797D01*
X128759013Y-69930067D01*
X128743241Y-69868639D01*
X128859590Y-69771010D01*
X128873761Y-69754121D01*
X128974359Y-69579880D01*
X128981900Y-69559163D01*
X129015878Y-69366462D01*
X129016837Y-69355501D01*
X129016837Y-68341742D01*
X129014681Y-68325366D01*
X128939863Y-68046142D01*
X128927120Y-68021662D01*
X128825037Y-67900003D01*
X128831578Y-67894514D01*
X129029511Y-67987654D01*
X129044589Y-67992554D01*
X129298419Y-68040975D01*
X129314242Y-68041970D01*
X129572139Y-68025745D01*
X129587713Y-68022774D01*
X129833472Y-67942921D01*
X129847818Y-67936171D01*
X130065998Y-67797710D01*
X130078215Y-67787604D01*
X130255106Y-67599233D01*
X130264425Y-67586407D01*
X130388914Y-67359962D01*
X130394750Y-67345221D01*
X130459013Y-67094933D01*
X130461000Y-67079203D01*
X130461000Y-66820797D01*
X130459013Y-66805067D01*
X130394750Y-66554779D01*
X130388914Y-66540038D01*
X130264425Y-66313593D01*
X130255106Y-66300767D01*
X130078215Y-66112396D01*
X130065998Y-66102290D01*
X129847818Y-65963829D01*
X129833472Y-65957079D01*
X129587713Y-65877226D01*
X129572139Y-65874255D01*
X129314242Y-65858030D01*
X129298419Y-65859025D01*
X129044589Y-65907446D01*
X129029511Y-65912346D01*
X128830187Y-66006140D01*
X128796010Y-65965410D01*
X128779121Y-65951239D01*
X128604880Y-65850641D01*
X128584163Y-65843100D01*
X128391462Y-65809122D01*
X128380501Y-65808163D01*
X126966742Y-65808163D01*
X126950366Y-65810319D01*
X126671142Y-65885137D01*
X126646662Y-65897880D01*
X126524981Y-65999981D01*
X126404880Y-65930641D01*
X126384163Y-65923100D01*
X126191462Y-65889122D01*
X126180501Y-65888163D01*
X124766742Y-65888163D01*
X124750366Y-65890319D01*
X124471142Y-65965137D01*
X124446662Y-65977880D01*
X124290410Y-66108990D01*
X124276239Y-66125879D01*
X124175641Y-66300120D01*
X124168100Y-66320838D01*
X124160481Y-66364049D01*
X124153813Y-66367620D01*
X124133743Y-66382471D01*
X124109609Y-66393444D01*
X124094483Y-66403117D01*
X124025419Y-66462627D01*
X124007330Y-66476012D01*
X124000247Y-66482116D01*
X123984338Y-66498025D01*
X123921387Y-66552268D01*
X123909585Y-66565797D01*
X123896724Y-66585638D01*
X123672387Y-66809976D01*
X123564425Y-66613593D01*
X123555106Y-66600767D01*
X123378215Y-66412396D01*
X123365998Y-66402290D01*
X123147818Y-66263829D01*
X123133472Y-66257079D01*
X122887713Y-66177226D01*
X122872139Y-66174255D01*
X122614242Y-66158030D01*
X122598419Y-66159025D01*
X122344589Y-66207446D01*
X122329511Y-66212346D01*
X122095697Y-66322370D01*
X122082311Y-66330865D01*
X121951598Y-66439000D01*
X120995056Y-66439000D01*
X120797818Y-66313829D01*
X120783472Y-66307079D01*
X120537713Y-66227226D01*
X120522139Y-66224255D01*
X120463183Y-66220546D01*
X117493864Y-63251227D01*
X117498792Y-63254968D01*
X117507808Y-63260679D01*
X117721696Y-63372021D01*
X117731545Y-63376131D01*
X117961134Y-63449844D01*
X117971535Y-63452236D01*
X118210262Y-63486212D01*
X118220917Y-63486817D01*
X118461956Y-63480084D01*
X118472561Y-63478885D01*
X118709019Y-63431636D01*
X118719270Y-63428667D01*
X118944387Y-63342253D01*
X118953991Y-63337600D01*
X119182936Y-63201662D01*
X119198285Y-63079304D01*
X117224370Y-61105389D01*
X117106686Y-61116202D01*
X117008683Y-61258799D01*
X117003403Y-61268073D01*
X116902260Y-61486968D01*
X116898618Y-61497000D01*
X116835802Y-61729807D01*
X116833903Y-61740309D01*
X116811211Y-61980372D01*
X116811109Y-61991043D01*
X116829188Y-62231497D01*
X116830885Y-62242034D01*
X116889221Y-62476005D01*
X116892669Y-62486104D01*
X116989591Y-62706900D01*
X116994692Y-62716275D01*
X117063955Y-62821319D01*
X114427028Y-60184392D01*
X114417256Y-60168904D01*
X114405621Y-60155233D01*
X114339271Y-60096635D01*
X114318330Y-60075693D01*
X114311557Y-60069821D01*
X114294070Y-60056715D01*
X114234359Y-60003981D01*
X114219356Y-59994125D01*
X114195796Y-59983063D01*
X114174972Y-59967457D01*
X114159227Y-59958837D01*
X114084643Y-59930876D01*
X114012350Y-59896935D01*
X113994794Y-59891626D01*
X113970097Y-59887936D01*
X113945277Y-59878630D01*
X113927741Y-59874775D01*
X113836836Y-59868019D01*
X113814572Y-59864692D01*
X113805247Y-59863999D01*
X113782738Y-59863999D01*
X113699879Y-59857842D01*
X113681968Y-59859063D01*
X113658845Y-59863999D01*
X110736563Y-59863999D01*
X110819788Y-59767952D01*
X110829532Y-59752789D01*
X110883903Y-59633733D01*
X110885656Y-59631980D01*
X110948613Y-59577732D01*
X110960415Y-59564204D01*
X110973280Y-59544356D01*
X111553705Y-58963931D01*
X111710262Y-58986212D01*
X111720917Y-58986817D01*
X111961956Y-58980084D01*
X111972561Y-58978885D01*
X112209019Y-58931636D01*
X112219270Y-58928667D01*
X112444387Y-58842253D01*
X112453991Y-58837600D01*
X112661330Y-58714491D01*
X112670012Y-58708286D01*
X112853645Y-58552004D01*
X112861158Y-58544424D01*
X113014524Y-58361000D01*
X117090120Y-58361000D01*
X117127431Y-58417584D01*
X117134038Y-58425965D01*
X117298798Y-58602032D01*
X117306722Y-58609180D01*
X117439000Y-58709584D01*
X117439000Y-59628542D01*
X117434960Y-59646396D01*
X117433520Y-59664292D01*
X117439000Y-59752617D01*
X117439000Y-59782257D01*
X117439637Y-59791200D01*
X117442736Y-59812838D01*
X117447669Y-59892342D01*
X117451309Y-59909921D01*
X117460145Y-59934397D01*
X117463834Y-59960159D01*
X117468873Y-59977390D01*
X117501844Y-60049906D01*
X117528960Y-60125019D01*
X117537619Y-60141186D01*
X117552473Y-60161260D01*
X117563445Y-60185391D01*
X117573117Y-60200515D01*
X117632621Y-60269572D01*
X117646013Y-60287670D01*
X117652116Y-60294753D01*
X117668023Y-60310659D01*
X117722267Y-60373613D01*
X117735796Y-60385415D01*
X117755644Y-60398280D01*
X117921532Y-60564168D01*
X117758068Y-60613210D01*
X117748142Y-60617130D01*
X117532156Y-60724346D01*
X117523032Y-60729882D01*
X117414638Y-60808924D01*
X117405634Y-60924615D01*
X119380119Y-62899100D01*
X119503085Y-62883129D01*
X119643256Y-62642294D01*
X119647825Y-62632650D01*
X119732272Y-62406787D01*
X119735151Y-62396511D01*
X119780392Y-62159351D01*
X119781507Y-62148128D01*
X119784077Y-61880341D01*
X119783178Y-61869099D01*
X119751881Y-61685999D01*
X121049899Y-61685999D01*
X121112825Y-61844933D01*
X121120463Y-61858827D01*
X121272351Y-62067882D01*
X121283205Y-62079440D01*
X121482311Y-62244155D01*
X121495697Y-62252650D01*
X121729511Y-62362674D01*
X121744589Y-62367574D01*
X121998419Y-62415995D01*
X122014242Y-62416990D01*
X122272139Y-62400765D01*
X122287713Y-62397794D01*
X122533472Y-62317941D01*
X122547818Y-62311191D01*
X122765998Y-62172730D01*
X122778215Y-62162624D01*
X122955106Y-61974253D01*
X122964425Y-61961427D01*
X123088914Y-61734982D01*
X123094750Y-61720241D01*
X123159013Y-61469953D01*
X123161000Y-61454223D01*
X123161000Y-61195817D01*
X123159013Y-61180087D01*
X123132496Y-61076808D01*
X125010776Y-61076808D01*
X125010776Y-61166812D01*
X125012220Y-61180242D01*
X125084114Y-61510735D01*
X125092744Y-61531569D01*
X125219611Y-61728979D01*
X125231414Y-61742600D01*
X125407048Y-61894788D01*
X125422211Y-61904532D01*
X125633606Y-62001072D01*
X125650899Y-62006150D01*
X125910024Y-62043408D01*
X125995450Y-61969387D01*
X126252999Y-61969387D01*
X126346877Y-62045039D01*
X126710735Y-61965886D01*
X126731569Y-61957256D01*
X126916778Y-61838230D01*
X126982048Y-61894788D01*
X126997211Y-61904532D01*
X127208606Y-62001072D01*
X127225899Y-62006150D01*
X127485024Y-62043408D01*
X127570450Y-61969387D01*
X127827999Y-61969387D01*
X127921877Y-62045039D01*
X128285735Y-61965886D01*
X128306569Y-61957256D01*
X128503979Y-61830389D01*
X128517600Y-61818586D01*
X128669788Y-61642952D01*
X128679532Y-61627789D01*
X128776072Y-61416394D01*
X128781150Y-61399101D01*
X128813582Y-61173536D01*
X128814224Y-61164558D01*
X128814224Y-61076809D01*
X128740415Y-61003000D01*
X127901809Y-61002999D01*
X127828000Y-61076808D01*
X127827999Y-61969387D01*
X127570450Y-61969387D01*
X127572000Y-61968044D01*
X127572001Y-61076809D01*
X127498192Y-61003000D01*
X127095809Y-61002999D01*
X127095808Y-61003000D01*
X126326809Y-61002999D01*
X126253000Y-61076808D01*
X126252999Y-61969387D01*
X125995450Y-61969387D01*
X125997000Y-61968044D01*
X125997001Y-61076809D01*
X125923192Y-61003000D01*
X125084585Y-61002999D01*
X125010776Y-61076808D01*
X123132496Y-61076808D01*
X123094750Y-60929799D01*
X123088914Y-60915058D01*
X122964425Y-60688613D01*
X122955106Y-60675787D01*
X122778215Y-60487416D01*
X122765998Y-60477310D01*
X122547818Y-60338849D01*
X122533472Y-60332099D01*
X122287713Y-60252246D01*
X122272139Y-60249275D01*
X122220152Y-60246005D01*
X122164251Y-60196635D01*
X122143310Y-60175693D01*
X122136537Y-60169821D01*
X122119050Y-60156715D01*
X122059339Y-60103981D01*
X122044336Y-60094125D01*
X122020776Y-60083063D01*
X121999952Y-60067457D01*
X121984207Y-60058837D01*
X121909623Y-60030876D01*
X121837330Y-59996935D01*
X121819774Y-59991626D01*
X121795077Y-59987936D01*
X121770257Y-59978630D01*
X121752721Y-59974775D01*
X121661816Y-59968019D01*
X121639552Y-59964692D01*
X121630227Y-59963999D01*
X121607718Y-59963999D01*
X121524859Y-59957842D01*
X121506948Y-59959063D01*
X121483825Y-59963999D01*
X119756637Y-59963999D01*
X119161000Y-59368363D01*
X119161000Y-58714686D01*
X119161329Y-58714491D01*
X119170012Y-58708286D01*
X119353645Y-58552004D01*
X119361158Y-58544424D01*
X119515833Y-58359435D01*
X119521962Y-58350698D01*
X119643256Y-58142294D01*
X119647825Y-58132650D01*
X119732272Y-57906787D01*
X119735151Y-57896511D01*
X119780392Y-57659351D01*
X119781507Y-57648128D01*
X119784077Y-57380341D01*
X119783178Y-57369099D01*
X119768860Y-57285336D01*
X119798419Y-57290975D01*
X119814242Y-57291970D01*
X120072139Y-57275745D01*
X120087713Y-57272774D01*
X120333472Y-57192921D01*
X120347818Y-57186171D01*
X120565998Y-57047710D01*
X120578215Y-57037604D01*
X120755106Y-56849233D01*
X120764425Y-56836407D01*
X120888914Y-56609962D01*
X120894750Y-56595221D01*
X120945369Y-56398070D01*
X123760776Y-56398070D01*
X123760776Y-57304184D01*
X123762220Y-57317614D01*
X123835255Y-57653353D01*
X123843885Y-57674188D01*
X123972696Y-57874620D01*
X123984499Y-57888241D01*
X124114001Y-58000455D01*
X124114001Y-58602948D01*
X124112825Y-58605087D01*
X124017700Y-58845347D01*
X124013757Y-58860703D01*
X123981370Y-59117073D01*
X123981370Y-59132927D01*
X124013757Y-59389297D01*
X124017700Y-59404653D01*
X124112825Y-59644913D01*
X124120463Y-59658807D01*
X124272351Y-59867862D01*
X124283205Y-59879420D01*
X124482311Y-60044135D01*
X124495697Y-60052630D01*
X124729511Y-60162654D01*
X124744589Y-60167554D01*
X124998419Y-60215975D01*
X125014242Y-60216970D01*
X125104795Y-60211273D01*
X125048928Y-60333606D01*
X125043850Y-60350899D01*
X125011418Y-60576464D01*
X125010776Y-60585442D01*
X125010776Y-60673191D01*
X125084585Y-60747000D01*
X125923192Y-60747001D01*
X125923193Y-60747000D01*
X126729191Y-60747001D01*
X126729192Y-60747000D01*
X127498192Y-60747001D01*
X127498193Y-60747000D01*
X128740415Y-60747001D01*
X128814224Y-60673192D01*
X128814224Y-60583188D01*
X128812780Y-60569758D01*
X128740886Y-60239265D01*
X128732256Y-60218431D01*
X128605389Y-60021021D01*
X128593586Y-60007400D01*
X128580467Y-59996033D01*
X128589161Y-59986000D01*
X129834169Y-59986000D01*
X129852023Y-59990040D01*
X129869919Y-59991480D01*
X129958244Y-59986000D01*
X129987885Y-59986000D01*
X129996827Y-59985363D01*
X130018465Y-59982264D01*
X130097969Y-59977331D01*
X130115549Y-59973691D01*
X130140026Y-59964855D01*
X130165786Y-59961166D01*
X130183018Y-59956127D01*
X130255541Y-59923153D01*
X130329138Y-59896584D01*
X130438827Y-59889684D01*
X130454401Y-59886713D01*
X130700160Y-59806860D01*
X130714506Y-59800110D01*
X130932686Y-59661649D01*
X130944903Y-59651543D01*
X131121794Y-59463172D01*
X131131113Y-59450346D01*
X131255602Y-59223901D01*
X131261438Y-59209160D01*
X131325701Y-58958872D01*
X131327688Y-58943142D01*
X131327688Y-58684736D01*
X131325701Y-58669006D01*
X131299156Y-58565621D01*
X131353979Y-58530389D01*
X131367600Y-58518586D01*
X131519788Y-58342952D01*
X131529532Y-58327789D01*
X131626072Y-58116394D01*
X131631150Y-58099101D01*
X131663582Y-57873536D01*
X131664224Y-57864558D01*
X131664224Y-57283188D01*
X131662780Y-57269758D01*
X131590886Y-56939265D01*
X131582256Y-56918431D01*
X131455389Y-56721021D01*
X131443586Y-56707400D01*
X131430468Y-56696033D01*
X131519788Y-56592952D01*
X131529532Y-56577789D01*
X131626072Y-56366394D01*
X131631150Y-56349101D01*
X131663582Y-56123536D01*
X131664224Y-56114558D01*
X131664224Y-56026809D01*
X131590415Y-55953000D01*
X130751808Y-55952999D01*
X130751807Y-55953000D01*
X129970809Y-55952999D01*
X129970808Y-55953000D01*
X129201808Y-55952999D01*
X129201807Y-55953000D01*
X128872000Y-55952999D01*
X128872000Y-55623191D01*
X129127999Y-55623191D01*
X129201808Y-55697000D01*
X129579191Y-55697001D01*
X129579192Y-55697000D01*
X130348191Y-55697001D01*
X130422000Y-55623192D01*
X130422000Y-55623191D01*
X130677999Y-55623191D01*
X130751808Y-55697000D01*
X131590415Y-55697001D01*
X131664224Y-55623192D01*
X131664224Y-55533188D01*
X131662780Y-55519758D01*
X131590886Y-55189265D01*
X131582256Y-55168431D01*
X131455389Y-54971021D01*
X131443586Y-54957400D01*
X131267952Y-54805212D01*
X131252789Y-54795468D01*
X131041394Y-54698928D01*
X131024101Y-54693850D01*
X130764976Y-54656592D01*
X130678000Y-54731956D01*
X130677999Y-55623191D01*
X130422000Y-55623191D01*
X130422001Y-54730613D01*
X130328123Y-54654961D01*
X129964265Y-54734114D01*
X129943431Y-54742744D01*
X129772577Y-54852545D01*
X129717952Y-54805212D01*
X129702789Y-54795468D01*
X129491394Y-54698928D01*
X129474101Y-54693850D01*
X129214976Y-54656592D01*
X129128000Y-54731956D01*
X129127999Y-55623191D01*
X128872000Y-55623191D01*
X128872001Y-54730613D01*
X128778123Y-54654961D01*
X128414265Y-54734114D01*
X128393431Y-54742744D01*
X128196021Y-54869611D01*
X128182400Y-54881414D01*
X128030212Y-55057048D01*
X128020468Y-55072211D01*
X127923928Y-55283606D01*
X127918850Y-55300899D01*
X127886418Y-55526464D01*
X127885776Y-55535442D01*
X127885776Y-55699351D01*
X127837151Y-55657217D01*
X127821989Y-55647473D01*
X127607324Y-55549439D01*
X127590031Y-55544361D01*
X127360907Y-55511418D01*
X127351930Y-55510776D01*
X126695816Y-55510776D01*
X126682386Y-55512220D01*
X126346647Y-55585255D01*
X126325812Y-55593885D01*
X126125380Y-55722696D01*
X126111759Y-55734499D01*
X126001026Y-55862291D01*
X125977304Y-55825380D01*
X125965501Y-55811759D01*
X125787151Y-55657217D01*
X125771989Y-55647473D01*
X125557324Y-55549439D01*
X125540031Y-55544361D01*
X125310907Y-55511418D01*
X125301930Y-55510776D01*
X124645816Y-55510776D01*
X124632386Y-55512220D01*
X124296647Y-55585255D01*
X124275812Y-55593885D01*
X124075380Y-55722696D01*
X124061759Y-55734499D01*
X123907217Y-55912849D01*
X123897473Y-55928011D01*
X123799439Y-56142676D01*
X123794361Y-56159969D01*
X123761418Y-56389093D01*
X123760776Y-56398070D01*
X120945369Y-56398070D01*
X120959013Y-56344933D01*
X120961000Y-56329203D01*
X120961000Y-56070797D01*
X120959013Y-56055067D01*
X120894750Y-55804779D01*
X120888914Y-55790038D01*
X120764425Y-55563593D01*
X120755106Y-55550767D01*
X120578215Y-55362396D01*
X120565998Y-55352290D01*
X120347818Y-55213829D01*
X120333473Y-55207079D01*
X120211000Y-55167285D01*
X120211000Y-54995797D01*
X120209013Y-54980067D01*
X120144750Y-54729779D01*
X120138914Y-54715038D01*
X120014425Y-54488593D01*
X120005106Y-54475767D01*
X119828215Y-54287396D01*
X119815998Y-54277290D01*
X119597818Y-54138829D01*
X119583472Y-54132079D01*
X119337713Y-54052226D01*
X119322139Y-54049255D01*
X119064242Y-54033030D01*
X119048419Y-54034025D01*
X118794589Y-54082446D01*
X118779511Y-54087346D01*
X118545697Y-54197370D01*
X118532310Y-54205865D01*
X118462037Y-54264000D01*
X116345056Y-54264000D01*
X116147818Y-54138829D01*
X116133472Y-54132079D01*
X115887713Y-54052226D01*
X115872139Y-54049255D01*
X115614242Y-54033030D01*
X115598419Y-54034025D01*
X115344589Y-54082446D01*
X115329511Y-54087346D01*
X115095697Y-54197370D01*
X115082311Y-54205865D01*
X114883205Y-54370580D01*
X114872351Y-54382138D01*
X114720463Y-54591193D01*
X114712825Y-54605087D01*
X114617700Y-54845347D01*
X114613757Y-54860703D01*
X114581370Y-55117073D01*
X114581370Y-55120117D01*
X114389242Y-55108030D01*
X114373419Y-55109025D01*
X114119589Y-55157446D01*
X114104511Y-55162346D01*
X113870697Y-55272370D01*
X113857311Y-55280865D01*
X113658205Y-55445580D01*
X113647351Y-55457138D01*
X113495463Y-55666193D01*
X113487825Y-55680087D01*
X113392700Y-55920347D01*
X113388757Y-55935703D01*
X113356370Y-56192073D01*
X113356370Y-56207927D01*
X113388757Y-56464297D01*
X113392700Y-56479653D01*
X113455790Y-56639000D01*
X113011955Y-56639000D01*
X112881013Y-56476140D01*
X112873647Y-56468417D01*
X112693049Y-56308638D01*
X112684486Y-56302267D01*
X112479549Y-56175202D01*
X112470036Y-56170365D01*
X112246619Y-56079645D01*
X112236427Y-56076480D01*
X112000919Y-56024700D01*
X111990340Y-56023298D01*
X111749475Y-56011939D01*
X111738809Y-56012339D01*
X111499474Y-56041727D01*
X111489030Y-56043918D01*
X111258068Y-56113210D01*
X111248142Y-56117130D01*
X111032155Y-56224346D01*
X111023032Y-56229882D01*
X110828199Y-56371957D01*
X110820138Y-56378952D01*
X110652029Y-56551822D01*
X110645263Y-56560074D01*
X110508683Y-56758798D01*
X110503403Y-56768073D01*
X110402260Y-56986968D01*
X110398618Y-56997000D01*
X110335802Y-57229807D01*
X110333903Y-57240309D01*
X110311211Y-57480372D01*
X110311109Y-57491043D01*
X110329188Y-57731497D01*
X110330885Y-57742034D01*
X110332770Y-57749594D01*
X110227415Y-57854949D01*
X110098536Y-57836418D01*
X110089558Y-57835776D01*
X109608188Y-57835776D01*
X109594758Y-57837220D01*
X109264265Y-57909114D01*
X109243431Y-57917744D01*
X109046021Y-58044611D01*
X109032400Y-58056414D01*
X108960839Y-58139000D01*
X108796453Y-58139000D01*
X108778603Y-58134961D01*
X108760707Y-58133521D01*
X108672398Y-58139000D01*
X108642741Y-58139000D01*
X108633797Y-58139637D01*
X108612144Y-58142739D01*
X108532657Y-58147670D01*
X108515078Y-58151310D01*
X108490608Y-58160144D01*
X108464838Y-58163834D01*
X108447608Y-58168873D01*
X108375082Y-58201848D01*
X108299978Y-58228961D01*
X108283810Y-58237621D01*
X108263743Y-58252471D01*
X108239609Y-58263444D01*
X108224483Y-58273117D01*
X108155414Y-58332629D01*
X108137327Y-58346015D01*
X108130245Y-58352117D01*
X108114343Y-58368020D01*
X108051386Y-58422268D01*
X108039584Y-58435796D01*
X108026719Y-58455644D01*
X107721588Y-58760775D01*
X107445303Y-58760775D01*
X107431873Y-58762219D01*
X107117118Y-58830690D01*
X107096284Y-58839320D01*
X106907946Y-58960357D01*
X106894325Y-58972160D01*
X106749198Y-59139644D01*
X106739454Y-59154806D01*
X106647393Y-59356393D01*
X106642315Y-59373686D01*
X106611418Y-59588579D01*
X106610776Y-59597556D01*
X106610776Y-59985282D01*
X106494589Y-60007446D01*
X106479511Y-60012346D01*
X106245697Y-60122370D01*
X106232311Y-60130865D01*
X106033205Y-60295580D01*
X106022351Y-60307138D01*
X105870463Y-60516193D01*
X105862825Y-60530087D01*
X105767700Y-60770347D01*
X105763757Y-60785703D01*
X105731370Y-61042073D01*
X105731370Y-61057927D01*
X105763757Y-61314297D01*
X105767700Y-61329653D01*
X105862825Y-61569913D01*
X105870463Y-61583807D01*
X106022351Y-61792862D01*
X106033205Y-61804420D01*
X106232311Y-61969135D01*
X106245697Y-61977630D01*
X106479511Y-62087654D01*
X106494589Y-62092554D01*
X106561649Y-62105346D01*
X106419589Y-62132446D01*
X106404511Y-62137346D01*
X106170697Y-62247370D01*
X106157311Y-62255865D01*
X105958205Y-62420580D01*
X105947351Y-62432138D01*
X105795463Y-62641193D01*
X105787825Y-62655087D01*
X105692700Y-62895347D01*
X105688757Y-62910703D01*
X105656370Y-63167073D01*
X101788999Y-63167073D01*
X101788999Y-57451807D01*
X103010776Y-57451807D01*
X103010776Y-58054283D01*
X103012220Y-58067713D01*
X103085246Y-58403411D01*
X103093876Y-58424245D01*
X103222671Y-58624654D01*
X103234474Y-58638275D01*
X103412803Y-58792798D01*
X103427965Y-58802542D01*
X103642604Y-58900564D01*
X103659897Y-58905642D01*
X103888993Y-58938581D01*
X103897970Y-58939223D01*
X104948191Y-58939223D01*
X105022000Y-58865414D01*
X105277999Y-58865414D01*
X105351808Y-58939223D01*
X106404284Y-58939223D01*
X106417714Y-58937779D01*
X106753412Y-58864753D01*
X106774246Y-58856123D01*
X106974655Y-58727328D01*
X106988276Y-58715525D01*
X107142799Y-58537196D01*
X107152543Y-58522034D01*
X107250565Y-58307395D01*
X107255643Y-58290102D01*
X107288582Y-58061006D01*
X107289224Y-58052029D01*
X107289224Y-57451808D01*
X107215415Y-57377999D01*
X105351809Y-57377998D01*
X105278000Y-57451807D01*
X105277999Y-58865414D01*
X105022000Y-58865414D01*
X105022001Y-57451808D01*
X104948192Y-57377999D01*
X103084585Y-57377998D01*
X103010776Y-57451807D01*
X101788999Y-57451807D01*
X101788999Y-56447969D01*
X103010776Y-56447969D01*
X103010776Y-57048190D01*
X103084585Y-57121999D01*
X104948191Y-57122000D01*
X105022000Y-57048191D01*
X105022000Y-57048190D01*
X105277999Y-57048190D01*
X105351808Y-57121999D01*
X107215415Y-57122000D01*
X107289224Y-57048191D01*
X107289224Y-56445715D01*
X107287780Y-56432285D01*
X107214754Y-56096587D01*
X107206124Y-56075753D01*
X107077329Y-55875344D01*
X107065526Y-55861723D01*
X106887197Y-55707200D01*
X106872035Y-55697456D01*
X106657396Y-55599434D01*
X106640103Y-55594356D01*
X106411007Y-55561417D01*
X106402030Y-55560775D01*
X105351809Y-55560775D01*
X105278000Y-55634584D01*
X105277999Y-57048190D01*
X105022000Y-57048190D01*
X105022001Y-55634584D01*
X104948192Y-55560775D01*
X103895716Y-55560775D01*
X103882286Y-55562219D01*
X103546588Y-55635245D01*
X103525754Y-55643875D01*
X103325345Y-55772670D01*
X103311724Y-55784473D01*
X103157201Y-55962802D01*
X103147457Y-55977964D01*
X103049435Y-56192603D01*
X103044357Y-56209896D01*
X103011418Y-56438992D01*
X103010776Y-56447969D01*
X101788999Y-56447969D01*
X101788999Y-54175063D01*
X102385954Y-54175063D01*
X102391826Y-54287107D01*
X102620259Y-54472089D01*
X102626154Y-54476325D01*
X102925173Y-54666089D01*
X102931516Y-54669619D01*
X103250366Y-54823758D01*
X103257072Y-54826536D01*
X103591523Y-54943004D01*
X103598505Y-54944993D01*
X103944127Y-55022248D01*
X103951291Y-55023421D01*
X104303502Y-55060440D01*
X104310753Y-55060782D01*
X104664885Y-55057074D01*
X104672127Y-55056580D01*
X105023485Y-55012193D01*
X105030622Y-55010870D01*
X105374551Y-54926393D01*
X105381489Y-54924259D01*
X105713429Y-54800811D01*
X105720076Y-54797894D01*
X106035627Y-54637113D01*
X106041894Y-54633451D01*
X106336874Y-54437465D01*
X106342679Y-54433107D01*
X106518419Y-54284594D01*
X106523052Y-54174071D01*
X104507190Y-52158209D01*
X104402808Y-52158209D01*
X102385954Y-54175063D01*
X101788999Y-54175063D01*
X101788999Y-53572982D01*
X101865931Y-53700012D01*
X101870043Y-53705994D01*
X102089438Y-53988838D01*
X102202996Y-53995983D01*
X104221789Y-51977190D01*
X104221789Y-51872808D01*
X104688209Y-51872808D01*
X104688209Y-51977190D01*
X106705689Y-53994670D01*
X106812383Y-53992995D01*
X106860875Y-53941358D01*
X106865533Y-53935788D01*
X107076687Y-53651469D01*
X107080672Y-53645401D01*
X107257748Y-53338698D01*
X107261010Y-53332213D01*
X107401660Y-53007189D01*
X107404154Y-53000372D01*
X107506515Y-52661336D01*
X107508210Y-52654278D01*
X107571100Y-52304748D01*
X107572066Y-52295559D01*
X107589183Y-51750893D01*
X107588796Y-51741660D01*
X107547977Y-51388872D01*
X107546729Y-51381721D01*
X107465858Y-51036927D01*
X107463796Y-51029967D01*
X107343831Y-50696753D01*
X107340984Y-50690076D01*
X107183516Y-50372859D01*
X107179919Y-50366553D01*
X106987035Y-50069538D01*
X106982737Y-50063687D01*
X106815735Y-49861815D01*
X106704450Y-49856567D01*
X104688209Y-51872808D01*
X104221789Y-51872808D01*
X102205981Y-49857000D01*
X102096985Y-49860425D01*
X101986973Y-49985207D01*
X101982494Y-49990920D01*
X101788999Y-50269322D01*
X101788999Y-49058999D01*
X103183153Y-49058999D01*
X103106859Y-49090134D01*
G37*
D27*
X103106859Y-49090134D02*
X103100307Y-49093259D01*
X102789962Y-49263872D01*
X102783813Y-49267729D01*
X102495134Y-49472882D01*
X102489469Y-49477421D01*
X102389509Y-49567426D01*
X102386675Y-49675656D01*
X104402808Y-51691789D01*
X104507190Y-51691789D01*
X106527308Y-49671671D01*
X106519515Y-49557359D01*
X106208828Y-49321534D01*
X106202802Y-49317485D01*
X105897970Y-49137208D01*
X105891520Y-49133879D01*
X105723337Y-49058999D01*
X131410165Y-49058999D01*
X131398928Y-49083606D01*
X131393850Y-49100899D01*
X131361418Y-49326464D01*
X131360776Y-49335442D01*
X131360776Y-49916812D01*
X131362220Y-49930242D01*
X131434114Y-50260735D01*
X131442744Y-50281569D01*
X131569611Y-50478979D01*
X131581414Y-50492600D01*
X131594533Y-50503967D01*
X131585839Y-50514000D01*
X131571459Y-50514000D01*
X131553605Y-50509960D01*
X131535709Y-50508520D01*
X131447384Y-50514000D01*
X131417742Y-50514000D01*
X131408800Y-50514637D01*
X131387162Y-50517736D01*
X131307658Y-50522669D01*
X131290078Y-50526309D01*
X131265601Y-50535145D01*
X131239841Y-50538834D01*
X131222609Y-50543873D01*
X131150086Y-50576847D01*
X131074982Y-50603960D01*
X131058815Y-50612619D01*
X131038742Y-50627472D01*
X131014607Y-50638445D01*
X130999483Y-50648118D01*
X130930420Y-50707627D01*
X130912330Y-50721012D01*
X130905247Y-50727116D01*
X130889337Y-50743026D01*
X130826387Y-50797268D01*
X130814585Y-50810797D01*
X130801725Y-50830637D01*
X130186532Y-51445831D01*
X129994589Y-51482446D01*
X129979511Y-51487346D01*
X129745697Y-51597370D01*
X129732311Y-51605865D01*
X129533205Y-51770580D01*
X129522351Y-51782138D01*
X129370463Y-51991193D01*
X129362825Y-52005087D01*
X129267700Y-52245347D01*
X129263757Y-52260703D01*
X129231370Y-52517073D01*
X129231370Y-52532927D01*
X129263757Y-52789297D01*
X129267700Y-52804653D01*
X129362825Y-53044913D01*
X129370463Y-53058807D01*
X129522351Y-53267862D01*
X129533205Y-53279420D01*
X129732311Y-53444135D01*
X129745697Y-53452630D01*
X129979511Y-53562654D01*
X129994589Y-53567554D01*
X130248419Y-53615975D01*
X130264242Y-53616970D01*
X130522139Y-53600745D01*
X130537713Y-53597774D01*
X130783472Y-53517921D01*
X130797818Y-53511171D01*
X130812570Y-53501809D01*
X132933163Y-53501809D01*
X132933163Y-53708258D01*
X132935319Y-53724634D01*
X133010137Y-54003859D01*
X133022880Y-54028339D01*
X133153990Y-54184590D01*
X133170879Y-54198761D01*
X133345120Y-54299359D01*
X133365837Y-54306900D01*
X133558538Y-54340878D01*
X133569499Y-54341837D01*
X133823191Y-54341837D01*
X133897000Y-54268028D01*
X133897000Y-53501809D01*
X133823191Y-53428000D01*
X133006972Y-53428000D01*
X132933163Y-53501809D01*
X130812570Y-53501809D01*
X131015998Y-53372710D01*
X131028215Y-53362604D01*
X131205106Y-53174233D01*
X131214425Y-53161407D01*
X131338914Y-52934962D01*
X131344750Y-52920221D01*
X131409013Y-52669933D01*
X131410648Y-52656988D01*
X131711937Y-52355699D01*
X131757048Y-52394788D01*
X131772211Y-52404532D01*
X131983606Y-52501072D01*
X132000899Y-52506150D01*
X132226464Y-52538582D01*
X132235442Y-52539224D01*
X132716812Y-52539224D01*
X132730242Y-52537780D01*
X133060735Y-52465886D01*
X133081569Y-52457256D01*
X133114644Y-52436000D01*
X133141644Y-52436000D01*
X133090410Y-52478990D01*
X133076239Y-52495879D01*
X132975641Y-52670120D01*
X132968100Y-52690837D01*
X132934122Y-52883538D01*
X132933163Y-52894499D01*
X132933163Y-53098191D01*
X133006972Y-53172000D01*
X134153000Y-53172000D01*
X134153000Y-54268028D01*
X134206721Y-54321749D01*
X134019589Y-54357446D01*
X134004511Y-54362346D01*
X133770697Y-54472370D01*
X133757311Y-54480865D01*
X133558205Y-54645580D01*
X133547351Y-54657138D01*
X133395463Y-54866193D01*
X133387825Y-54880087D01*
X133292700Y-55120347D01*
X133288757Y-55135703D01*
X133256370Y-55392073D01*
X133256370Y-55407927D01*
X133288757Y-55664297D01*
X133292700Y-55679653D01*
X133387825Y-55919913D01*
X133395463Y-55933807D01*
X133453417Y-56013573D01*
X133328467Y-56072370D01*
X133315081Y-56080865D01*
X133115975Y-56245580D01*
X133105121Y-56257138D01*
X132953233Y-56466193D01*
X132945595Y-56480087D01*
X132850470Y-56720347D01*
X132846527Y-56735703D01*
X132814140Y-56992073D01*
X132814140Y-57007927D01*
X132846527Y-57264297D01*
X132850470Y-57279653D01*
X132945595Y-57519913D01*
X132953233Y-57533807D01*
X133105121Y-57742862D01*
X133115975Y-57754420D01*
X133315081Y-57919135D01*
X133328467Y-57927630D01*
X133409683Y-57965847D01*
X133406370Y-57992073D01*
X133406370Y-58007928D01*
X133406441Y-58008494D01*
X133270697Y-58072370D01*
X133257311Y-58080865D01*
X133058205Y-58245580D01*
X133047351Y-58257138D01*
X132895463Y-58466193D01*
X132887825Y-58480087D01*
X132792700Y-58720347D01*
X132788757Y-58735703D01*
X132756370Y-58992073D01*
X132756370Y-59007927D01*
X132788757Y-59264297D01*
X132792700Y-59279653D01*
X132887825Y-59519913D01*
X132895463Y-59533807D01*
X133047351Y-59742862D01*
X133058205Y-59754420D01*
X133257311Y-59919135D01*
X133270697Y-59927630D01*
X133470752Y-60021769D01*
X133488757Y-60164297D01*
X133492700Y-60179653D01*
X133587825Y-60419913D01*
X133594830Y-60432655D01*
X133570463Y-60466193D01*
X133562825Y-60480087D01*
X133467700Y-60720347D01*
X133463757Y-60735703D01*
X133431370Y-60992073D01*
X133431370Y-61007927D01*
X133463757Y-61264297D01*
X133467700Y-61279653D01*
X133562825Y-61519913D01*
X133570463Y-61533807D01*
X133603810Y-61579705D01*
X133595463Y-61591193D01*
X133587825Y-61605087D01*
X133492700Y-61845347D01*
X133488757Y-61860703D01*
X133456370Y-62117073D01*
X133456370Y-62132927D01*
X133488757Y-62389297D01*
X133492700Y-62404653D01*
X133587825Y-62644913D01*
X133595463Y-62658807D01*
X133747351Y-62867862D01*
X133758205Y-62879420D01*
X133957311Y-63044135D01*
X133970697Y-63052630D01*
X134204511Y-63162654D01*
X134219589Y-63167554D01*
X134473419Y-63215975D01*
X134489242Y-63216970D01*
X134747139Y-63200745D01*
X134762713Y-63197774D01*
X135008472Y-63117921D01*
X135022818Y-63111171D01*
X135220056Y-62986000D01*
X137578542Y-62986000D01*
X137596396Y-62990040D01*
X137614292Y-62991480D01*
X137702617Y-62986000D01*
X137732258Y-62986000D01*
X137741200Y-62985363D01*
X137762838Y-62982264D01*
X137842342Y-62977331D01*
X137859922Y-62973691D01*
X137884399Y-62964855D01*
X137900390Y-62962565D01*
X137947740Y-63185332D01*
X137950166Y-63193791D01*
X137989608Y-63302156D01*
X137923251Y-63281361D01*
X137916210Y-63279593D01*
X137568332Y-63213231D01*
X137561135Y-63212283D01*
X137207935Y-63186347D01*
X137200677Y-63186233D01*
X136846836Y-63201063D01*
X136839613Y-63201783D01*
X136489822Y-63257185D01*
X136482730Y-63258731D01*
X136141624Y-63353970D01*
X136134757Y-63356321D01*
X135806859Y-63490134D01*
X135800307Y-63493259D01*
X135489962Y-63663872D01*
X135483813Y-63667729D01*
X135195134Y-63872882D01*
X135189469Y-63877421D01*
X134926283Y-64114395D01*
X134921177Y-64119555D01*
X134686973Y-64385207D01*
X134682494Y-64390920D01*
X134480375Y-64681730D01*
X134476582Y-64687920D01*
X134309228Y-65000034D01*
X134306171Y-65006619D01*
X134175800Y-65335900D01*
X134173521Y-65342792D01*
X134081860Y-65684876D01*
X134080388Y-65691984D01*
X134028652Y-66042336D01*
X134028007Y-66049567D01*
X134016883Y-66403543D01*
X134017073Y-66410800D01*
X134046708Y-66763708D01*
X134047730Y-66770895D01*
X134117730Y-67118059D01*
X134119572Y-67125080D01*
X134229011Y-67461898D01*
X134231648Y-67468661D01*
X134379074Y-67790668D01*
X134382471Y-67797084D01*
X134565931Y-68100012D01*
X134570043Y-68105994D01*
X134787104Y-68385828D01*
X134791876Y-68391298D01*
X135039663Y-68644330D01*
X135045032Y-68649215D01*
X135320259Y-68872090D01*
X135326154Y-68876325D01*
X135625173Y-69066089D01*
X135631516Y-69069619D01*
X135950366Y-69223758D01*
X135957072Y-69226536D01*
X136291523Y-69343004D01*
X136298505Y-69344993D01*
X136644127Y-69422248D01*
X136651291Y-69423421D01*
X137003502Y-69460440D01*
X137010753Y-69460782D01*
X137364885Y-69457074D01*
X137372127Y-69456580D01*
X137723485Y-69412193D01*
X137730622Y-69410870D01*
X137989842Y-69347200D01*
X137950166Y-69456207D01*
X137947740Y-69464666D01*
X137887524Y-69747963D01*
X137886299Y-69756678D01*
X137866096Y-70045598D01*
X137866096Y-70054398D01*
X137886299Y-70343318D01*
X137887524Y-70352033D01*
X137947740Y-70635330D01*
X137950166Y-70643789D01*
X138049225Y-70915948D01*
X138052804Y-70923987D01*
X138188774Y-71179712D01*
X138193438Y-71187175D01*
X138249255Y-71264000D01*
X134656637Y-71264000D01*
X134560648Y-71168011D01*
X134559013Y-71155067D01*
X134494750Y-70904779D01*
X134488914Y-70890038D01*
X134364425Y-70663593D01*
X134355106Y-70650767D01*
X134178215Y-70462396D01*
X134165998Y-70452290D01*
X133947818Y-70313829D01*
X133933472Y-70307079D01*
X133687713Y-70227226D01*
X133672139Y-70224255D01*
X133414242Y-70208030D01*
X133398419Y-70209025D01*
X133144589Y-70257446D01*
X133129511Y-70262346D01*
X132895697Y-70372370D01*
X132882311Y-70380865D01*
X132683205Y-70545580D01*
X132672351Y-70557138D01*
X132520463Y-70766193D01*
X132512825Y-70780087D01*
X132417700Y-71020347D01*
X132413757Y-71035703D01*
X132381370Y-71292073D01*
X132381370Y-71307927D01*
X132413757Y-71564297D01*
X132417700Y-71579653D01*
X132512825Y-71819913D01*
X132520463Y-71833807D01*
X132672351Y-72042862D01*
X132683205Y-72054420D01*
X132755225Y-72114000D01*
X132395056Y-72114000D01*
X132197818Y-71988829D01*
X132183472Y-71982079D01*
X131937713Y-71902226D01*
X131922139Y-71899255D01*
X131664242Y-71883030D01*
X131648419Y-71884025D01*
X131394589Y-71932446D01*
X131379511Y-71937346D01*
X131145697Y-72047370D01*
X131132311Y-72055865D01*
X130933205Y-72220580D01*
X130922351Y-72232138D01*
X130770463Y-72441193D01*
X130762825Y-72455087D01*
X130667700Y-72695347D01*
X130663757Y-72710703D01*
X130631370Y-72967073D01*
X130631370Y-72982927D01*
X130663757Y-73239297D01*
X130667700Y-73254653D01*
X130762825Y-73494913D01*
X130770463Y-73508807D01*
X130922351Y-73717862D01*
X130933205Y-73729420D01*
X131132311Y-73894135D01*
X131145697Y-73902630D01*
X131379511Y-74012654D01*
X131394589Y-74017554D01*
X131648419Y-74065975D01*
X131664242Y-74066970D01*
X131922139Y-74050745D01*
X131937713Y-74047774D01*
X132183472Y-73967921D01*
X132197818Y-73961171D01*
X132395056Y-73836000D01*
X154737037Y-73836000D01*
X154807310Y-73894135D01*
X154820697Y-73902630D01*
X155054511Y-74012654D01*
X155069589Y-74017554D01*
X155323419Y-74065975D01*
X155339242Y-74066970D01*
X155597139Y-74050745D01*
X155612713Y-74047774D01*
X155748840Y-74003543D01*
X177216883Y-74003543D01*
X177217073Y-74010800D01*
X177246708Y-74363708D01*
X177247730Y-74370895D01*
X177317730Y-74718059D01*
X177319572Y-74725080D01*
X177429011Y-75061898D01*
X177431648Y-75068661D01*
X177579074Y-75390668D01*
X177582471Y-75397084D01*
X177765931Y-75700012D01*
X177770043Y-75705994D01*
X177989438Y-75988838D01*
X178102996Y-75995983D01*
X180121789Y-73977190D01*
X180121789Y-73872808D01*
X178105981Y-71857000D01*
X177996985Y-71860425D01*
X177886973Y-71985207D01*
X177882494Y-71990920D01*
X177680375Y-72281730D01*
X177676582Y-72287920D01*
X177509228Y-72600034D01*
X177506171Y-72606619D01*
X177375800Y-72935900D01*
X177373521Y-72942792D01*
X177281860Y-73284876D01*
X177280388Y-73291984D01*
X177228652Y-73642336D01*
X177228007Y-73649567D01*
X177216883Y-74003543D01*
X155748840Y-74003543D01*
X155858472Y-73967921D01*
X155872818Y-73961171D01*
X156090998Y-73822710D01*
X156103215Y-73812604D01*
X156280106Y-73624233D01*
X156289425Y-73611407D01*
X156413914Y-73384962D01*
X156419750Y-73370221D01*
X156484013Y-73119933D01*
X156486000Y-73104203D01*
X156486000Y-72845797D01*
X156484013Y-72830067D01*
X156419750Y-72579779D01*
X156413914Y-72565038D01*
X156289425Y-72338593D01*
X156280106Y-72325767D01*
X156103215Y-72137396D01*
X156090998Y-72127290D01*
X155872818Y-71988829D01*
X155858472Y-71982079D01*
X155612713Y-71902226D01*
X155597139Y-71899255D01*
X155339242Y-71883030D01*
X155323419Y-71884025D01*
X155086000Y-71929315D01*
X155086000Y-71745797D01*
X155084013Y-71730067D01*
X155070043Y-71675656D01*
X178286675Y-71675656D01*
X180302808Y-73691789D01*
X180407190Y-73691789D01*
X182427308Y-71671671D01*
X182419515Y-71557359D01*
X182108828Y-71321534D01*
X182102802Y-71317485D01*
X181797970Y-71137208D01*
X181791520Y-71133879D01*
X181777725Y-71127737D01*
X181922857Y-71059443D01*
X181929797Y-71055628D01*
X182202936Y-70882289D01*
X182209343Y-70877634D01*
X182362981Y-70750534D01*
X182368229Y-70639249D01*
X180707190Y-68978209D01*
X180602808Y-68978209D01*
X178941769Y-70639249D01*
X178947017Y-70750534D01*
X179100655Y-70877634D01*
X179107062Y-70882289D01*
X179267176Y-70983900D01*
X179006859Y-71090134D01*
X179000307Y-71093259D01*
X178689962Y-71263872D01*
X178683813Y-71267729D01*
X178395134Y-71472882D01*
X178389469Y-71477421D01*
X178289509Y-71567426D01*
X178286675Y-71675656D01*
X155070043Y-71675656D01*
X155019750Y-71479779D01*
X155013914Y-71465038D01*
X154889425Y-71238593D01*
X154880106Y-71225767D01*
X154703215Y-71037396D01*
X154690998Y-71027290D01*
X154472818Y-70888829D01*
X154458472Y-70882079D01*
X154212713Y-70802226D01*
X154197139Y-70799255D01*
X153939242Y-70783030D01*
X153923419Y-70784025D01*
X153669589Y-70832446D01*
X153654511Y-70837346D01*
X153420697Y-70947370D01*
X153407311Y-70955865D01*
X153208205Y-71120580D01*
X153197351Y-71132138D01*
X153101548Y-71264000D01*
X141762773Y-71264000D01*
X141891473Y-71058037D01*
X141895604Y-71050267D01*
X142013405Y-70785680D01*
X142016415Y-70777411D01*
X142096247Y-70499005D01*
X142098076Y-70490397D01*
X142101888Y-70463269D01*
X145417748Y-70463269D01*
X145420584Y-70571502D01*
X145474306Y-70619870D01*
X145480874Y-70625038D01*
X145735274Y-70799230D01*
X145742470Y-70803485D01*
X146017674Y-70942500D01*
X146025369Y-70945767D01*
X146316541Y-71047164D01*
X146324601Y-71049384D01*
X146626626Y-71111381D01*
X146634908Y-71112516D01*
X146942479Y-71134023D01*
X146950839Y-71134052D01*
X147258553Y-71114692D01*
X147266843Y-71113615D01*
X147569294Y-71053729D01*
X147577368Y-71051565D01*
X147869242Y-70952204D01*
X147876960Y-70948991D01*
X148153128Y-70811900D01*
X148160353Y-70807695D01*
X148415964Y-70635283D01*
X148422569Y-70630160D01*
X148488572Y-70571560D01*
X148491799Y-70462818D01*
X147007190Y-68978209D01*
X146902808Y-68978209D01*
X145417748Y-70463269D01*
X142101888Y-70463269D01*
X142138385Y-70203590D01*
X142138999Y-70194811D01*
X142138999Y-69905185D01*
X142138385Y-69896406D01*
X142098076Y-69609599D01*
X142096247Y-69600991D01*
X142024507Y-69350805D01*
X142344127Y-69422248D01*
X142351291Y-69423421D01*
X142703502Y-69460440D01*
X142710753Y-69460782D01*
X143064885Y-69457074D01*
X143072127Y-69456580D01*
X143423485Y-69412193D01*
X143430622Y-69410870D01*
X143774551Y-69326393D01*
X143781489Y-69324259D01*
X144113429Y-69200811D01*
X144120076Y-69197894D01*
X144435627Y-69037113D01*
X144441894Y-69033451D01*
X144577152Y-68943585D01*
X144579469Y-68998860D01*
X144580371Y-69007170D01*
X144633911Y-69310809D01*
X144635905Y-69318927D01*
X144729132Y-69612818D01*
X144732182Y-69620601D01*
X144863460Y-69899579D01*
X144867513Y-69906891D01*
X145034534Y-70166056D01*
X145039518Y-70172767D01*
X145127791Y-70276489D01*
X145238061Y-70280918D01*
X146826171Y-68692808D01*
X147188209Y-68692808D01*
X147188209Y-68797190D01*
X148672153Y-70281134D01*
X148781914Y-70277109D01*
X148860466Y-70186104D01*
X148865497Y-70179428D01*
X149034323Y-69921436D01*
X149038427Y-69914152D01*
X149171649Y-69636097D01*
X149174754Y-69628335D01*
X149270030Y-69335104D01*
X149272080Y-69327000D01*
X149327878Y-69022984D01*
X149328895Y-69013136D01*
X149339160Y-68593148D01*
X149338625Y-68583261D01*
X149297745Y-68276883D01*
X149296093Y-68268688D01*
X149215254Y-67971151D01*
X149212532Y-67963247D01*
X149093052Y-67679016D01*
X149089309Y-67671541D01*
X148933288Y-67405610D01*
X148928589Y-67398695D01*
X148785589Y-67215664D01*
X148672283Y-67208734D01*
X147188209Y-68692808D01*
X146826171Y-68692808D01*
X148492501Y-67026478D01*
X148487807Y-66961000D01*
X159482108Y-66961000D01*
X159541741Y-66968851D01*
X159558259Y-66968851D01*
X159621988Y-66960461D01*
X159621999Y-66960460D01*
X159812192Y-66935421D01*
X159828146Y-66931146D01*
X159934697Y-66887011D01*
X159937825Y-66894913D01*
X159945463Y-66908807D01*
X160097351Y-67117862D01*
X160108205Y-67129420D01*
X160307311Y-67294135D01*
X160320697Y-67302630D01*
X160554511Y-67412654D01*
X160569589Y-67417554D01*
X160823419Y-67465975D01*
X160839242Y-67466970D01*
X161097139Y-67450745D01*
X161112713Y-67447774D01*
X161358472Y-67367921D01*
X161372818Y-67361171D01*
X161570056Y-67236000D01*
X168212037Y-67236000D01*
X168282310Y-67294135D01*
X168295697Y-67302630D01*
X168529511Y-67412654D01*
X168544589Y-67417554D01*
X168798419Y-67465975D01*
X168814242Y-67466970D01*
X169072139Y-67450745D01*
X169087713Y-67447774D01*
X169333472Y-67367921D01*
X169347818Y-67361171D01*
X169565998Y-67222710D01*
X169578215Y-67212604D01*
X169755106Y-67024233D01*
X169764425Y-67011407D01*
X169888914Y-66784962D01*
X169894750Y-66770221D01*
X169959013Y-66519933D01*
X169961000Y-66504203D01*
X169961000Y-66245797D01*
X169959013Y-66230067D01*
X169894750Y-65979779D01*
X169888914Y-65965038D01*
X169764425Y-65738593D01*
X169755106Y-65725767D01*
X169578215Y-65537396D01*
X169565998Y-65527290D01*
X169347818Y-65388829D01*
X169333472Y-65382079D01*
X169140699Y-65319442D01*
X169230106Y-65224233D01*
X169239425Y-65211407D01*
X169363914Y-64984962D01*
X169369750Y-64970221D01*
X169434013Y-64719933D01*
X169436000Y-64704203D01*
X169436000Y-64445797D01*
X169434013Y-64430067D01*
X169402158Y-64306000D01*
X173157168Y-64306000D01*
X173172193Y-64328109D01*
X173179301Y-64336793D01*
X173345769Y-64506786D01*
X173354304Y-64514075D01*
X173548245Y-64651901D01*
X173557934Y-64657563D01*
X173678668Y-64714376D01*
X173622358Y-64737356D01*
X173612385Y-64742503D01*
X173411496Y-64869990D01*
X173402592Y-64876823D01*
X173227455Y-65037870D01*
X173219902Y-65046171D01*
X173076052Y-65235686D01*
X173070088Y-65245193D01*
X172962071Y-65457188D01*
X172957885Y-65467601D01*
X172889117Y-65695373D01*
X172886841Y-65706363D01*
X172859494Y-65942713D01*
X172859200Y-65953932D01*
X172874140Y-66191390D01*
X172875838Y-66202484D01*
X172932591Y-66433543D01*
X172936226Y-66444161D01*
X173033000Y-66661517D01*
X173038458Y-66671323D01*
X173172193Y-66868109D01*
X173179301Y-66876793D01*
X173345769Y-67046786D01*
X173354304Y-67054075D01*
X173548245Y-67191901D01*
X173557934Y-67197563D01*
X173678668Y-67254376D01*
X173622358Y-67277356D01*
X173612385Y-67282503D01*
X173411496Y-67409990D01*
X173402592Y-67416823D01*
X173227455Y-67577870D01*
X173219902Y-67586171D01*
X173076052Y-67775686D01*
X173070088Y-67785193D01*
X172962071Y-67997188D01*
X172957885Y-68007601D01*
X172889117Y-68235373D01*
X172886841Y-68246363D01*
X172859494Y-68482713D01*
X172859200Y-68493932D01*
X172874140Y-68731390D01*
X172875838Y-68742484D01*
X172932591Y-68973543D01*
X172936226Y-68984161D01*
X173033000Y-69201517D01*
X173038458Y-69211323D01*
X173172193Y-69408109D01*
X173179301Y-69416793D01*
X173345769Y-69586786D01*
X173354304Y-69594075D01*
X173548245Y-69731901D01*
X173557934Y-69737563D01*
X173773217Y-69838867D01*
X173783757Y-69842724D01*
X174013577Y-69904304D01*
X174024633Y-69906233D01*
X174261725Y-69926144D01*
X174272948Y-69926085D01*
X174509819Y-69903694D01*
X174520854Y-69901649D01*
X174750016Y-69837665D01*
X174760514Y-69833698D01*
X174974724Y-69730145D01*
X174984354Y-69724382D01*
X175176841Y-69584532D01*
X175185299Y-69577154D01*
X175349979Y-69405428D01*
X175356996Y-69396669D01*
X175402680Y-69327909D01*
X175473137Y-69590859D01*
X175485880Y-69615339D01*
X175616990Y-69771590D01*
X175633879Y-69785761D01*
X175808120Y-69886359D01*
X175828837Y-69893900D01*
X176021538Y-69927878D01*
X176032499Y-69928837D01*
X176598191Y-69928837D01*
X176672000Y-69855028D01*
X176672001Y-68397000D01*
X176928000Y-68397001D01*
X176927999Y-69855028D01*
X177001808Y-69928837D01*
X177570258Y-69928837D01*
X177586634Y-69926681D01*
X177865859Y-69851863D01*
X177890339Y-69839120D01*
X178046590Y-69708010D01*
X178060761Y-69691121D01*
X178142248Y-69549981D01*
X178143977Y-69556716D01*
X178146425Y-69564248D01*
X178265513Y-69865029D01*
X178268885Y-69872195D01*
X178424731Y-70155680D01*
X178428974Y-70162366D01*
X178640517Y-70453530D01*
X178756333Y-70462645D01*
X180421789Y-68797190D01*
X180421789Y-68692808D01*
X178756333Y-67027353D01*
X178640517Y-67036468D01*
X178428974Y-67327632D01*
X178424731Y-67334318D01*
X178268885Y-67617803D01*
X178265513Y-67624969D01*
X178203837Y-67780744D01*
X178203837Y-67754742D01*
X178201681Y-67738366D01*
X178126863Y-67459142D01*
X178114120Y-67434662D01*
X177983010Y-67278410D01*
X177966121Y-67264239D01*
X177791880Y-67163641D01*
X177771163Y-67156100D01*
X177603879Y-67126604D01*
X177716841Y-67044532D01*
X177725299Y-67037154D01*
X177889979Y-66865428D01*
X177896996Y-66856669D01*
X177900929Y-66850749D01*
X178941769Y-66850749D01*
X180602808Y-68511789D01*
X180707190Y-68511789D01*
X182368229Y-66850749D01*
X182362981Y-66739464D01*
X182209343Y-66612364D01*
X182202936Y-66607709D01*
X181929797Y-66434370D01*
X181922857Y-66430555D01*
X181630146Y-66292816D01*
X181622783Y-66289901D01*
X181315116Y-66189933D01*
X181307446Y-66187964D01*
X180989677Y-66127346D01*
X180981819Y-66126353D01*
X180658959Y-66106041D01*
X180651039Y-66106041D01*
X180328179Y-66126353D01*
X180320321Y-66127346D01*
X180002552Y-66187964D01*
X179994882Y-66189933D01*
X179687215Y-66289901D01*
X179679852Y-66292816D01*
X179387141Y-66430555D01*
X179380201Y-66434370D01*
X179107062Y-66607709D01*
X179100655Y-66612364D01*
X178947017Y-66739464D01*
X178941769Y-66850749D01*
X177900929Y-66850749D01*
X178028662Y-66658494D01*
X178034018Y-66648631D01*
X178128510Y-66430273D01*
X178132034Y-66419617D01*
X178186553Y-66187172D01*
X178188200Y-66174402D01*
X178196210Y-65868510D01*
X178195234Y-65855671D01*
X178152954Y-65620691D01*
X178149992Y-65609866D01*
X178067058Y-65386861D01*
X178062226Y-65376732D01*
X177941112Y-65171938D01*
X177934563Y-65162824D01*
X177779096Y-64982714D01*
X177771036Y-64974904D01*
X177586132Y-64825172D01*
X177576817Y-64818913D01*
X177384416Y-64713138D01*
X177514724Y-64650145D01*
X177524354Y-64644382D01*
X177716841Y-64504532D01*
X177725299Y-64497154D01*
X177889979Y-64325428D01*
X177896996Y-64316669D01*
X178028662Y-64118494D01*
X178034018Y-64108631D01*
X178128510Y-63890273D01*
X178132034Y-63879617D01*
X178186553Y-63647172D01*
X178188200Y-63634402D01*
X178196210Y-63328510D01*
X178195234Y-63315671D01*
X178152954Y-63080691D01*
X178149992Y-63069866D01*
X178067058Y-62846861D01*
X178062226Y-62836732D01*
X177941112Y-62631938D01*
X177934563Y-62622824D01*
X177779096Y-62442714D01*
X177771036Y-62434904D01*
X177586132Y-62285172D01*
X177576817Y-62278913D01*
X177384416Y-62173138D01*
X177514724Y-62110145D01*
X177524354Y-62104382D01*
X177716841Y-61964532D01*
X177725299Y-61957154D01*
X177889979Y-61785428D01*
X177896996Y-61776669D01*
X178028662Y-61578494D01*
X178034018Y-61568631D01*
X178128510Y-61350273D01*
X178132034Y-61339617D01*
X178186553Y-61107172D01*
X178188200Y-61094402D01*
X178196210Y-60788510D01*
X178195234Y-60775671D01*
X178152954Y-60540691D01*
X178149992Y-60529866D01*
X178067058Y-60306861D01*
X178062226Y-60296732D01*
X177941112Y-60091938D01*
X177934563Y-60082824D01*
X177779096Y-59902714D01*
X177771036Y-59894904D01*
X177586132Y-59745172D01*
X177576817Y-59738913D01*
X177368321Y-59624290D01*
X177358044Y-59619779D01*
X177132544Y-59543890D01*
X177121632Y-59541270D01*
X176886257Y-59506513D01*
X176875053Y-59505867D01*
X176637244Y-59513340D01*
X176627194Y-59514557D01*
X176111886Y-58999249D01*
X178941769Y-58999249D01*
X178947017Y-59110534D01*
X179100655Y-59237634D01*
X179107062Y-59242289D01*
X179380201Y-59415628D01*
X179387141Y-59419443D01*
X179679852Y-59557182D01*
X179687215Y-59560097D01*
X179994882Y-59660065D01*
X180002552Y-59662034D01*
X180320321Y-59722652D01*
X180328179Y-59723645D01*
X180651039Y-59743957D01*
X180658959Y-59743957D01*
X180981819Y-59723645D01*
X180989677Y-59722652D01*
X181307446Y-59662034D01*
X181315116Y-59660065D01*
X181622783Y-59560097D01*
X181630146Y-59557182D01*
X181922857Y-59419443D01*
X181929797Y-59415628D01*
X182202936Y-59242289D01*
X182209343Y-59237634D01*
X182362981Y-59110534D01*
X182368229Y-58999249D01*
X180707190Y-57338209D01*
X180602808Y-57338209D01*
X178941769Y-58999249D01*
X176111886Y-58999249D01*
X175698424Y-58585787D01*
X175915998Y-58447710D01*
X175928215Y-58437604D01*
X176105106Y-58249233D01*
X176114425Y-58236407D01*
X176238914Y-58009962D01*
X176244750Y-57995221D01*
X176309013Y-57744933D01*
X176311000Y-57729203D01*
X176311000Y-57470797D01*
X176309013Y-57455067D01*
X176244750Y-57204779D01*
X176238914Y-57190038D01*
X176114425Y-56963593D01*
X176105106Y-56950767D01*
X176098047Y-56943249D01*
X178021000Y-56943249D01*
X178021000Y-57266749D01*
X178021497Y-57274652D01*
X178062042Y-57595600D01*
X178063526Y-57603380D01*
X178143977Y-57916716D01*
X178146425Y-57924248D01*
X178265513Y-58225029D01*
X178268885Y-58232195D01*
X178424731Y-58515680D01*
X178428974Y-58522366D01*
X178640517Y-58813530D01*
X178756333Y-58822645D01*
X180421789Y-57157190D01*
X180421789Y-57052808D01*
X178756333Y-55387353D01*
X178640517Y-55396468D01*
X178428974Y-55687632D01*
X178424731Y-55694318D01*
X178268885Y-55977803D01*
X178265513Y-55984969D01*
X178146425Y-56285750D01*
X178143977Y-56293282D01*
X178063526Y-56606618D01*
X178062042Y-56614398D01*
X178021497Y-56935346D01*
X178021000Y-56943249D01*
X176098047Y-56943249D01*
X175928215Y-56762396D01*
X175915998Y-56752290D01*
X175697818Y-56613829D01*
X175683472Y-56607079D01*
X175437713Y-56527226D01*
X175422139Y-56524255D01*
X175363183Y-56520546D01*
X173560648Y-54718012D01*
X173559013Y-54705067D01*
X173494750Y-54454779D01*
X173488914Y-54440038D01*
X173364425Y-54213593D01*
X173355106Y-54200767D01*
X173330969Y-54175063D01*
X178285954Y-54175063D01*
X178291826Y-54287107D01*
X178520259Y-54472089D01*
X178526154Y-54476325D01*
X178825173Y-54666089D01*
X178831516Y-54669619D01*
X179150366Y-54823758D01*
X179157072Y-54826536D01*
X179268417Y-54865310D01*
X179107062Y-54967709D01*
X179100655Y-54972364D01*
X178947017Y-55099464D01*
X178941769Y-55210749D01*
X180602808Y-56871789D01*
X180707190Y-56871789D01*
X182368229Y-55210749D01*
X182362981Y-55099464D01*
X182209343Y-54972364D01*
X182202936Y-54967709D01*
X181929797Y-54794370D01*
X181922857Y-54790555D01*
X181772936Y-54720008D01*
X181935627Y-54637113D01*
X181941894Y-54633451D01*
X182236874Y-54437465D01*
X182242679Y-54433107D01*
X182418419Y-54284594D01*
X182423052Y-54174071D01*
X180407190Y-52158209D01*
X180302808Y-52158209D01*
X178285954Y-54175063D01*
X173330969Y-54175063D01*
X173178215Y-54012396D01*
X173165998Y-54002290D01*
X172947818Y-53863829D01*
X172933472Y-53857079D01*
X172687713Y-53777226D01*
X172672139Y-53774255D01*
X172414242Y-53758030D01*
X172398419Y-53759025D01*
X172144589Y-53807446D01*
X172129511Y-53812346D01*
X171895697Y-53922370D01*
X171882310Y-53930865D01*
X171812037Y-53989000D01*
X170731637Y-53989000D01*
X169702030Y-52959394D01*
X169692258Y-52943906D01*
X169680622Y-52930234D01*
X169614272Y-52871636D01*
X169593331Y-52850694D01*
X169586558Y-52844822D01*
X169569071Y-52831716D01*
X169509360Y-52778982D01*
X169494357Y-52769126D01*
X169470797Y-52758064D01*
X169449973Y-52742458D01*
X169434228Y-52733838D01*
X169359644Y-52705877D01*
X169287351Y-52671936D01*
X169269795Y-52666627D01*
X169245098Y-52662937D01*
X169220278Y-52653631D01*
X169202742Y-52649776D01*
X169124456Y-52643958D01*
X169358472Y-52567921D01*
X169372818Y-52561171D01*
X169590998Y-52422710D01*
X169603215Y-52412604D01*
X169780106Y-52224233D01*
X169789425Y-52211407D01*
X169903699Y-52003543D01*
X177216883Y-52003543D01*
X177217073Y-52010800D01*
X177246708Y-52363708D01*
X177247730Y-52370895D01*
X177317730Y-52718059D01*
X177319572Y-52725080D01*
X177429011Y-53061898D01*
X177431648Y-53068661D01*
X177579074Y-53390668D01*
X177582471Y-53397084D01*
X177765931Y-53700012D01*
X177770043Y-53705994D01*
X177989438Y-53988838D01*
X178102996Y-53995983D01*
X180121789Y-51977190D01*
X180121789Y-51872808D01*
X178105981Y-49857000D01*
X177996985Y-49860425D01*
X177886973Y-49985207D01*
X177882494Y-49990920D01*
X177680375Y-50281730D01*
X177676582Y-50287920D01*
X177509228Y-50600034D01*
X177506171Y-50606619D01*
X177375800Y-50935900D01*
X177373521Y-50942792D01*
X177281860Y-51284876D01*
X177280388Y-51291984D01*
X177228652Y-51642336D01*
X177228007Y-51649567D01*
X177216883Y-52003543D01*
X169903699Y-52003543D01*
X169913914Y-51984962D01*
X169919750Y-51970221D01*
X169984013Y-51719933D01*
X169986000Y-51704203D01*
X169986000Y-51445797D01*
X169984013Y-51430067D01*
X169919750Y-51179779D01*
X169913914Y-51165038D01*
X169789425Y-50938593D01*
X169780106Y-50925767D01*
X169603215Y-50737396D01*
X169590998Y-50727290D01*
X169372818Y-50588829D01*
X169358472Y-50582079D01*
X169112713Y-50502226D01*
X169097139Y-50499255D01*
X168839242Y-50483030D01*
X168823419Y-50484025D01*
X168569589Y-50532446D01*
X168554511Y-50537346D01*
X168320697Y-50647370D01*
X168307311Y-50655865D01*
X168108205Y-50820580D01*
X168097351Y-50832138D01*
X167945463Y-51041193D01*
X167937825Y-51055087D01*
X167842700Y-51295347D01*
X167838757Y-51310703D01*
X167823155Y-51434207D01*
X167493363Y-51764000D01*
X163147698Y-51764000D01*
X163159013Y-51719933D01*
X163161000Y-51704203D01*
X163161000Y-51445797D01*
X163159013Y-51430067D01*
X163094750Y-51179779D01*
X163088914Y-51165038D01*
X162964425Y-50938593D01*
X162955106Y-50925767D01*
X162778215Y-50737396D01*
X162765998Y-50727290D01*
X162547818Y-50588829D01*
X162533472Y-50582079D01*
X162287713Y-50502226D01*
X162272139Y-50499255D01*
X162014242Y-50483030D01*
X161998419Y-50484025D01*
X161744589Y-50532446D01*
X161729511Y-50537346D01*
X161725996Y-50539000D01*
X160686000Y-50539000D01*
X160686000Y-50370797D01*
X160684013Y-50355067D01*
X160619750Y-50104779D01*
X160613914Y-50090038D01*
X160489425Y-49863593D01*
X160480106Y-49850767D01*
X160303215Y-49662396D01*
X160290998Y-49652290D01*
X160072818Y-49513829D01*
X160058472Y-49507079D01*
X159812713Y-49427226D01*
X159797139Y-49424255D01*
X159539242Y-49408030D01*
X159523419Y-49409025D01*
X159269589Y-49457446D01*
X159254511Y-49462346D01*
X159020697Y-49572370D01*
X159007310Y-49580865D01*
X158937037Y-49639000D01*
X140045056Y-49639000D01*
X139847818Y-49513829D01*
X139833472Y-49507079D01*
X139587713Y-49427226D01*
X139572139Y-49424255D01*
X139314242Y-49408030D01*
X139298419Y-49409025D01*
X139044589Y-49457446D01*
X139029511Y-49462346D01*
X138795697Y-49572370D01*
X138782311Y-49580865D01*
X138583205Y-49745580D01*
X138572351Y-49757138D01*
X138420463Y-49966193D01*
X138412825Y-49980087D01*
X138317700Y-50220347D01*
X138313757Y-50235703D01*
X138281370Y-50492073D01*
X138281370Y-50507927D01*
X138285295Y-50539000D01*
X137222855Y-50539000D01*
X137267783Y-50487151D01*
X137277527Y-50471989D01*
X137375561Y-50257324D01*
X137380639Y-50240031D01*
X137413582Y-50010907D01*
X137414224Y-50001930D01*
X137414224Y-49751809D01*
X137340415Y-49678000D01*
X136072000Y-49677999D01*
X136072001Y-49422000D01*
X137340415Y-49422001D01*
X137414224Y-49348192D01*
X137414224Y-49095816D01*
X137412780Y-49082386D01*
X137407692Y-49058999D01*
X179083153Y-49058999D01*
X179006859Y-49090134D01*
X179000307Y-49093259D01*
X178689962Y-49263872D01*
X178683813Y-49267729D01*
X178395134Y-49472882D01*
X178389469Y-49477421D01*
X178289509Y-49567426D01*
X178286675Y-49675656D01*
X180302808Y-51691789D01*
X180407190Y-51691789D01*
X182427308Y-49671671D01*
X182419515Y-49557359D01*
X182108828Y-49321534D01*
X182102802Y-49317485D01*
X181797970Y-49137208D01*
X181791520Y-49133879D01*
X181623337Y-49058999D01*
X183020999Y-49058999D01*
X183020999Y-50275824D01*
X182887035Y-50069538D01*
X182882737Y-50063687D01*
X182715735Y-49861815D01*
X182604450Y-49856567D01*
X180588209Y-51872808D01*
X180588209Y-51977190D01*
X182605689Y-53994670D01*
X182712383Y-53992995D01*
X182760875Y-53941358D01*
X182765533Y-53935788D01*
X182976687Y-53651469D01*
X182980672Y-53645401D01*
X183020999Y-53575553D01*
X183020999Y-55941215D01*
X182885267Y-55694318D01*
X182881024Y-55687632D01*
X182669481Y-55396468D01*
X182553665Y-55387353D01*
X180888209Y-57052808D01*
X180888209Y-57157190D01*
X182553665Y-58822645D01*
X182669481Y-58813530D01*
X182881024Y-58522366D01*
X182885267Y-58515680D01*
X183020999Y-58268782D01*
X183021000Y-67581217D01*
X182885267Y-67334318D01*
X182881024Y-67327632D01*
X182669481Y-67036468D01*
X182553665Y-67027353D01*
X180888209Y-68692808D01*
X180888209Y-68797190D01*
X182553665Y-70462645D01*
X182669481Y-70453530D01*
X182881024Y-70162366D01*
X182885267Y-70155680D01*
X183021000Y-69908781D01*
X183021000Y-72275826D01*
X182887035Y-72069538D01*
X182882737Y-72063687D01*
X182715735Y-71861815D01*
X182604450Y-71856567D01*
X180588209Y-73872808D01*
X180588209Y-73977190D01*
X182605689Y-75994670D01*
X182712383Y-75992995D01*
X182760875Y-75941358D01*
X182765533Y-75935788D01*
X182976687Y-75651469D01*
X182980672Y-75645401D01*
X183021000Y-75575551D01*
X183021000Y-76790999D01*
X181633608Y-76790999D01*
X181935627Y-76637113D01*
X181941894Y-76633451D01*
X182236874Y-76437465D01*
X182242679Y-76433107D01*
X182418419Y-76284594D01*
X182423052Y-76174071D01*
X180407190Y-74158209D01*
X180302808Y-74158209D01*
X178285954Y-76175063D01*
X178291826Y-76287107D01*
X178520259Y-76472089D01*
X178526154Y-76476325D01*
X178825173Y-76666089D01*
X178831516Y-76669619D01*
X179082601Y-76790999D01*
X105733608Y-76790999D01*
X106035627Y-76637113D01*
X106041894Y-76633451D01*
X106336874Y-76437465D01*
X106342679Y-76433107D01*
X106518419Y-76284594D01*
X106523052Y-76174071D01*
X104507190Y-74158209D01*
X104402808Y-74158209D01*
X102385954Y-76175063D01*
X102391826Y-76287107D01*
X102620259Y-76472089D01*
X102626154Y-76476325D01*
X102925173Y-76666089D01*
X102931516Y-76669619D01*
X103182601Y-76790999D01*
X101788999Y-76790999D01*
X101788999Y-75572982D01*
X101865931Y-75700012D01*
X101870043Y-75705994D01*
X102089438Y-75988838D01*
X102202996Y-75995983D01*
X104221789Y-73977190D01*
X104221789Y-73872808D01*
X104688209Y-73872808D01*
X104688209Y-73977190D01*
X106705689Y-75994670D01*
X106812383Y-75992995D01*
X106860875Y-75941358D01*
X106865533Y-75935788D01*
X107076687Y-75651469D01*
X107080672Y-75645401D01*
X107257748Y-75338698D01*
X107261010Y-75332213D01*
X107401660Y-75007189D01*
X107404154Y-75000372D01*
X107506515Y-74661336D01*
X107508210Y-74654278D01*
X107571100Y-74304748D01*
X107572066Y-74295559D01*
X107589183Y-73750893D01*
X107588796Y-73741660D01*
X107547977Y-73388872D01*
X107546729Y-73381721D01*
X107465858Y-73036927D01*
X107463796Y-73029967D01*
X107343831Y-72696753D01*
X107340984Y-72690076D01*
X107183516Y-72372859D01*
X107179919Y-72366553D01*
X106987035Y-72069538D01*
X106982737Y-72063687D01*
X106815735Y-71861815D01*
X106704450Y-71856567D01*
X104688209Y-73872808D01*
X104221789Y-73872808D01*
X102205981Y-71857000D01*
X102096985Y-71860425D01*
X101986973Y-71985207D01*
X101982494Y-71990920D01*
X101788999Y-72269322D01*
X101788999Y-71675656D01*
X102386675Y-71675656D01*
X104402808Y-73691789D01*
X104507190Y-73691789D01*
X106527308Y-71671671D01*
X106519515Y-71557359D01*
X106208828Y-71321534D01*
X106202802Y-71317485D01*
X105897970Y-71137208D01*
X105891520Y-71133879D01*
X105567986Y-70989832D01*
X105561195Y-70987266D01*
X105223251Y-70881361D01*
X105216210Y-70879593D01*
X104868332Y-70813231D01*
X104861135Y-70812283D01*
X104507935Y-70786347D01*
X104500677Y-70786233D01*
X104146836Y-70801063D01*
X104139613Y-70801783D01*
X103789822Y-70857185D01*
X103782730Y-70858731D01*
X103441624Y-70953970D01*
X103434757Y-70956321D01*
X103106859Y-71090134D01*
X103100307Y-71093259D01*
X102789962Y-71263872D01*
X102783813Y-71267729D01*
X102495134Y-71472882D01*
X102489469Y-71477421D01*
X102389509Y-71567426D01*
X102386675Y-71675656D01*
X101788999Y-71675656D01*
X101788999Y-68801807D01*
X103010776Y-68801807D01*
X103010776Y-69404283D01*
X103012220Y-69417713D01*
X103085246Y-69753411D01*
X103093876Y-69774245D01*
X103222671Y-69974654D01*
X103234474Y-69988275D01*
X103412803Y-70142798D01*
X103427965Y-70152542D01*
X103642604Y-70250564D01*
X103659897Y-70255642D01*
X103888993Y-70288581D01*
X103897970Y-70289223D01*
X104948191Y-70289223D01*
X105022000Y-70215414D01*
X105277999Y-70215414D01*
X105351808Y-70289223D01*
X106404284Y-70289223D01*
X106417714Y-70287779D01*
X106753412Y-70214753D01*
X106774246Y-70206123D01*
X106974655Y-70077328D01*
X106988276Y-70065525D01*
X107142799Y-69887196D01*
X107152543Y-69872034D01*
X107250565Y-69657395D01*
X107255643Y-69640102D01*
X107288582Y-69411006D01*
X107289224Y-69402029D01*
X107289224Y-68801808D01*
X107215415Y-68727999D01*
X105351809Y-68727998D01*
X105278000Y-68801807D01*
X105277999Y-70215414D01*
X105022000Y-70215414D01*
X105022001Y-68801808D01*
X104948192Y-68727999D01*
X103084585Y-68727998D01*
X103010776Y-68801807D01*
X101788999Y-68801807D01*
X101788999Y-67797969D01*
X103010776Y-67797969D01*
X103010776Y-68398190D01*
X103084585Y-68471999D01*
X104948191Y-68472000D01*
X105022000Y-68398191D01*
X105022000Y-68398190D01*
X105277999Y-68398190D01*
X105351808Y-68471999D01*
X107215415Y-68472000D01*
X107289224Y-68398191D01*
X107289224Y-67795715D01*
X107287780Y-67782285D01*
X107214754Y-67446587D01*
X107206124Y-67425753D01*
X107077329Y-67225344D01*
X107065526Y-67211723D01*
X106887197Y-67057200D01*
X106872035Y-67047456D01*
X106657396Y-66949434D01*
X106640103Y-66944356D01*
X106411007Y-66911417D01*
X106402030Y-66910775D01*
X105351809Y-66910775D01*
X105278000Y-66984584D01*
X105277999Y-68398190D01*
X105022000Y-68398190D01*
X105022001Y-66984584D01*
X104948192Y-66910775D01*
X103895716Y-66910775D01*
X103882286Y-66912219D01*
X103546588Y-66985245D01*
X103525754Y-66993875D01*
X103325345Y-67122670D01*
X103311724Y-67134473D01*
X103157201Y-67312802D01*
X103147457Y-67327964D01*
X103049435Y-67542603D01*
X103044357Y-67559896D01*
X103011418Y-67788992D01*
X103010776Y-67797969D01*
X101788999Y-67797969D01*
X101788999Y-63167073D01*
X105656370Y-63167073D01*
X105656370Y-63182927D01*
X105688757Y-63439297D01*
X105692700Y-63454653D01*
X105787825Y-63694913D01*
X105795463Y-63708807D01*
X105947351Y-63917862D01*
X105958205Y-63929420D01*
X106157311Y-64094135D01*
X106170697Y-64102630D01*
X106404511Y-64212654D01*
X106419589Y-64217554D01*
X106624325Y-64256609D01*
X106640639Y-64271017D01*
X106655642Y-64280873D01*
X106677249Y-64291018D01*
X106647393Y-64356393D01*
X106642315Y-64373686D01*
X106611418Y-64588579D01*
X106610776Y-64597556D01*
X106610776Y-65004696D01*
X106612220Y-65018126D01*
X106680691Y-65332881D01*
X106689321Y-65353715D01*
X106732268Y-65420542D01*
X106647393Y-65606393D01*
X106642315Y-65623686D01*
X106611418Y-65838579D01*
X106610776Y-65847556D01*
X106610776Y-66254696D01*
X106612220Y-66268126D01*
X106680691Y-66582881D01*
X106689321Y-66603715D01*
X106810358Y-66792053D01*
X106822161Y-66805674D01*
X106989645Y-66950801D01*
X107004807Y-66960545D01*
X107206394Y-67052606D01*
X107223687Y-67057684D01*
X107438580Y-67088581D01*
X107447557Y-67089223D01*
X108354697Y-67089223D01*
X108368127Y-67087779D01*
X108682882Y-67019308D01*
X108703716Y-67010678D01*
X108892054Y-66889641D01*
X108905675Y-66877838D01*
X109050802Y-66710354D01*
X109060546Y-66695192D01*
X109152607Y-66493605D01*
X109157685Y-66476312D01*
X109188582Y-66261419D01*
X109189224Y-66252442D01*
X109189224Y-65845302D01*
X109187780Y-65831872D01*
X109150609Y-65660999D01*
X111174644Y-65660999D01*
X110988199Y-65796957D01*
X110980138Y-65803952D01*
X110812029Y-65976822D01*
X110805263Y-65985074D01*
X110668683Y-66183798D01*
X110663403Y-66193073D01*
X110562260Y-66411968D01*
X110558618Y-66422000D01*
X110495802Y-66654807D01*
X110493903Y-66665309D01*
X110471211Y-66905372D01*
X110471109Y-66916043D01*
X110489188Y-67156497D01*
X110490885Y-67167034D01*
X110549221Y-67401005D01*
X110552669Y-67411104D01*
X110649591Y-67631900D01*
X110654692Y-67641275D01*
X110787430Y-67842584D01*
X110794038Y-67850965D01*
X110958798Y-68027032D01*
X110966722Y-68034180D01*
X111158792Y-68179968D01*
X111167808Y-68185679D01*
X111381696Y-68297021D01*
X111391545Y-68301131D01*
X111621134Y-68374844D01*
X111631535Y-68377236D01*
X111870262Y-68411212D01*
X111880917Y-68411817D01*
X112121956Y-68405084D01*
X112132561Y-68403885D01*
X112369019Y-68356636D01*
X112379270Y-68353667D01*
X112604387Y-68267253D01*
X112613991Y-68262600D01*
X112821330Y-68139491D01*
X112830012Y-68133286D01*
X113013645Y-67977004D01*
X113021158Y-67969424D01*
X113047403Y-67938035D01*
X113085137Y-68078859D01*
X113097880Y-68103339D01*
X113228990Y-68259590D01*
X113245879Y-68273761D01*
X113420120Y-68374359D01*
X113440837Y-68381900D01*
X113633538Y-68415878D01*
X113644499Y-68416837D01*
X115249201Y-68416837D01*
X120197971Y-73365608D01*
X120207743Y-73381095D01*
X120219379Y-73394767D01*
X120285713Y-73453350D01*
X120306668Y-73474306D01*
X120313442Y-73480179D01*
X120330931Y-73493286D01*
X120390641Y-73546020D01*
X120405647Y-73555877D01*
X120429200Y-73566935D01*
X120450023Y-73582541D01*
X120465771Y-73591163D01*
X120540356Y-73619123D01*
X120612649Y-73653065D01*
X120630203Y-73658373D01*
X120654903Y-73662065D01*
X120679725Y-73671370D01*
X120697258Y-73675224D01*
X120788157Y-73681980D01*
X120810428Y-73685308D01*
X120819753Y-73686001D01*
X120842266Y-73686001D01*
X120925120Y-73692158D01*
X120943032Y-73690937D01*
X120966155Y-73686001D01*
X126988539Y-73686001D01*
X127006393Y-73690041D01*
X127024289Y-73691481D01*
X127112614Y-73686001D01*
X127142255Y-73686001D01*
X127151197Y-73685364D01*
X127172835Y-73682265D01*
X127252339Y-73677332D01*
X127269919Y-73673692D01*
X127294396Y-73664856D01*
X127320156Y-73661167D01*
X127337388Y-73656128D01*
X127409911Y-73623154D01*
X127485016Y-73596041D01*
X127501184Y-73587381D01*
X127521254Y-73572529D01*
X127545389Y-73561556D01*
X127560514Y-73551883D01*
X127629578Y-73492373D01*
X127647664Y-73478990D01*
X127654749Y-73472886D01*
X127670653Y-73456981D01*
X127733610Y-73402733D01*
X127745412Y-73389205D01*
X127758275Y-73369360D01*
X128305683Y-72821953D01*
X128364638Y-72818244D01*
X128380212Y-72815273D01*
X128625971Y-72735420D01*
X128640317Y-72728670D01*
X128858497Y-72590209D01*
X128870714Y-72580103D01*
X129047605Y-72391732D01*
X129056924Y-72378906D01*
X129181413Y-72152461D01*
X129187249Y-72137720D01*
X129251512Y-71887432D01*
X129253499Y-71871702D01*
X129253499Y-71613296D01*
X129251512Y-71597566D01*
X129187249Y-71347278D01*
X129181413Y-71332537D01*
X129056924Y-71106092D01*
X129047605Y-71093266D01*
X128870714Y-70904895D01*
X128858497Y-70894789D01*
X128640317Y-70756328D01*
X128625971Y-70749578D01*
X128553437Y-70726010D01*
X128555106Y-70724233D01*
X128564425Y-70711407D01*
X128688914Y-70484962D01*
X128694750Y-70470221D01*
X128759013Y-70219933D01*
X128761000Y-70204203D01*
X128761000Y-69945797D01*
X128759013Y-69930067D01*
X128743241Y-69868639D01*
X128859590Y-69771010D01*
X128873761Y-69754121D01*
X128974359Y-69579880D01*
X128981900Y-69559163D01*
X129015878Y-69366462D01*
X129016837Y-69355501D01*
X129016837Y-68341742D01*
X129014681Y-68325366D01*
X128939863Y-68046142D01*
X128927120Y-68021662D01*
X128825037Y-67900003D01*
X128831578Y-67894514D01*
X129029511Y-67987654D01*
X129044589Y-67992554D01*
X129298419Y-68040975D01*
X129314242Y-68041970D01*
X129572139Y-68025745D01*
X129587713Y-68022774D01*
X129833472Y-67942921D01*
X129847818Y-67936171D01*
X130065998Y-67797710D01*
X130078215Y-67787604D01*
X130255106Y-67599233D01*
X130264425Y-67586407D01*
X130388914Y-67359962D01*
X130394750Y-67345221D01*
X130459013Y-67094933D01*
X130461000Y-67079203D01*
X130461000Y-66820797D01*
X130459013Y-66805067D01*
X130394750Y-66554779D01*
X130388914Y-66540038D01*
X130264425Y-66313593D01*
X130255106Y-66300767D01*
X130078215Y-66112396D01*
X130065998Y-66102290D01*
X129847818Y-65963829D01*
X129833472Y-65957079D01*
X129587713Y-65877226D01*
X129572139Y-65874255D01*
X129314242Y-65858030D01*
X129298419Y-65859025D01*
X129044589Y-65907446D01*
X129029511Y-65912346D01*
X128830187Y-66006140D01*
X128796010Y-65965410D01*
X128779121Y-65951239D01*
X128604880Y-65850641D01*
X128584163Y-65843100D01*
X128391462Y-65809122D01*
X128380501Y-65808163D01*
X126966742Y-65808163D01*
X126950366Y-65810319D01*
X126671142Y-65885137D01*
X126646662Y-65897880D01*
X126524981Y-65999981D01*
X126404880Y-65930641D01*
X126384163Y-65923100D01*
X126191462Y-65889122D01*
X126180501Y-65888163D01*
X124766742Y-65888163D01*
X124750366Y-65890319D01*
X124471142Y-65965137D01*
X124446662Y-65977880D01*
X124290410Y-66108990D01*
X124276239Y-66125879D01*
X124175641Y-66300120D01*
X124168100Y-66320838D01*
X124160481Y-66364049D01*
X124153813Y-66367620D01*
X124133743Y-66382471D01*
X124109609Y-66393444D01*
X124094483Y-66403117D01*
X124025419Y-66462627D01*
X124007330Y-66476012D01*
X124000247Y-66482116D01*
X123984338Y-66498025D01*
X123921387Y-66552268D01*
X123909585Y-66565797D01*
X123896724Y-66585638D01*
X123672387Y-66809976D01*
X123564425Y-66613593D01*
X123555106Y-66600767D01*
X123378215Y-66412396D01*
X123365998Y-66402290D01*
X123147818Y-66263829D01*
X123133472Y-66257079D01*
X122887713Y-66177226D01*
X122872139Y-66174255D01*
X122614242Y-66158030D01*
X122598419Y-66159025D01*
X122344589Y-66207446D01*
X122329511Y-66212346D01*
X122095697Y-66322370D01*
X122082311Y-66330865D01*
X121951598Y-66439000D01*
X120995056Y-66439000D01*
X120797818Y-66313829D01*
X120783472Y-66307079D01*
X120537713Y-66227226D01*
X120522139Y-66224255D01*
X120463183Y-66220546D01*
X117493864Y-63251227D01*
X117498792Y-63254968D01*
X117507808Y-63260679D01*
X117721696Y-63372021D01*
X117731545Y-63376131D01*
X117961134Y-63449844D01*
X117971535Y-63452236D01*
X118210262Y-63486212D01*
X118220917Y-63486817D01*
X118461956Y-63480084D01*
X118472561Y-63478885D01*
X118709019Y-63431636D01*
X118719270Y-63428667D01*
X118944387Y-63342253D01*
X118953991Y-63337600D01*
X119182936Y-63201662D01*
X119198285Y-63079304D01*
X117224370Y-61105389D01*
X117106686Y-61116202D01*
X117008683Y-61258799D01*
X117003403Y-61268073D01*
X116902260Y-61486968D01*
X116898618Y-61497000D01*
X116835802Y-61729807D01*
X116833903Y-61740309D01*
X116811211Y-61980372D01*
X116811109Y-61991043D01*
X116829188Y-62231497D01*
X116830885Y-62242034D01*
X116889221Y-62476005D01*
X116892669Y-62486104D01*
X116989591Y-62706900D01*
X116994692Y-62716275D01*
X117063955Y-62821319D01*
X114427028Y-60184392D01*
X114417256Y-60168904D01*
X114405621Y-60155233D01*
X114339271Y-60096635D01*
X114318330Y-60075693D01*
X114311557Y-60069821D01*
X114294070Y-60056715D01*
X114234359Y-60003981D01*
X114219356Y-59994125D01*
X114195796Y-59983063D01*
X114174972Y-59967457D01*
X114159227Y-59958837D01*
X114084643Y-59930876D01*
X114012350Y-59896935D01*
X113994794Y-59891626D01*
X113970097Y-59887936D01*
X113945277Y-59878630D01*
X113927741Y-59874775D01*
X113836836Y-59868019D01*
X113814572Y-59864692D01*
X113805247Y-59863999D01*
X113782738Y-59863999D01*
X113699879Y-59857842D01*
X113681968Y-59859063D01*
X113658845Y-59863999D01*
X110736563Y-59863999D01*
X110819788Y-59767952D01*
X110829532Y-59752789D01*
X110883903Y-59633733D01*
X110885656Y-59631980D01*
X110948613Y-59577732D01*
X110960415Y-59564204D01*
X110973280Y-59544356D01*
X111553705Y-58963931D01*
X111710262Y-58986212D01*
X111720917Y-58986817D01*
X111961956Y-58980084D01*
X111972561Y-58978885D01*
X112209019Y-58931636D01*
X112219270Y-58928667D01*
X112444387Y-58842253D01*
X112453991Y-58837600D01*
X112661330Y-58714491D01*
X112670012Y-58708286D01*
X112853645Y-58552004D01*
X112861158Y-58544424D01*
X113014524Y-58361000D01*
X117090120Y-58361000D01*
X117127431Y-58417584D01*
X117134038Y-58425965D01*
X117298798Y-58602032D01*
X117306722Y-58609180D01*
X117439000Y-58709584D01*
X117439000Y-59628542D01*
X117434960Y-59646396D01*
X117433520Y-59664292D01*
X117439000Y-59752617D01*
X117439000Y-59782257D01*
X117439637Y-59791200D01*
X117442736Y-59812838D01*
X117447669Y-59892342D01*
X117451309Y-59909921D01*
X117460145Y-59934397D01*
X117463834Y-59960159D01*
X117468873Y-59977390D01*
X117501844Y-60049906D01*
X117528960Y-60125019D01*
X117537619Y-60141186D01*
X117552473Y-60161260D01*
X117563445Y-60185391D01*
X117573117Y-60200515D01*
X117632621Y-60269572D01*
X117646013Y-60287670D01*
X117652116Y-60294753D01*
X117668023Y-60310659D01*
X117722267Y-60373613D01*
X117735796Y-60385415D01*
X117755644Y-60398280D01*
X117921532Y-60564168D01*
X117758068Y-60613210D01*
X117748142Y-60617130D01*
X117532156Y-60724346D01*
X117523032Y-60729882D01*
X117414638Y-60808924D01*
X117405634Y-60924615D01*
X119380119Y-62899100D01*
X119503085Y-62883129D01*
X119643256Y-62642294D01*
X119647825Y-62632650D01*
X119732272Y-62406787D01*
X119735151Y-62396511D01*
X119780392Y-62159351D01*
X119781507Y-62148128D01*
X119784077Y-61880341D01*
X119783178Y-61869099D01*
X119751881Y-61685999D01*
X121049899Y-61685999D01*
X121112825Y-61844933D01*
X121120463Y-61858827D01*
X121272351Y-62067882D01*
X121283205Y-62079440D01*
X121482311Y-62244155D01*
X121495697Y-62252650D01*
X121729511Y-62362674D01*
X121744589Y-62367574D01*
X121998419Y-62415995D01*
X122014242Y-62416990D01*
X122272139Y-62400765D01*
X122287713Y-62397794D01*
X122533472Y-62317941D01*
X122547818Y-62311191D01*
X122765998Y-62172730D01*
X122778215Y-62162624D01*
X122955106Y-61974253D01*
X122964425Y-61961427D01*
X123088914Y-61734982D01*
X123094750Y-61720241D01*
X123159013Y-61469953D01*
X123161000Y-61454223D01*
X123161000Y-61195817D01*
X123159013Y-61180087D01*
X123132496Y-61076808D01*
X125010776Y-61076808D01*
X125010776Y-61166812D01*
X125012220Y-61180242D01*
X125084114Y-61510735D01*
X125092744Y-61531569D01*
X125219611Y-61728979D01*
X125231414Y-61742600D01*
X125407048Y-61894788D01*
X125422211Y-61904532D01*
X125633606Y-62001072D01*
X125650899Y-62006150D01*
X125910024Y-62043408D01*
X125995450Y-61969387D01*
X126252999Y-61969387D01*
X126346877Y-62045039D01*
X126710735Y-61965886D01*
X126731569Y-61957256D01*
X126916778Y-61838230D01*
X126982048Y-61894788D01*
X126997211Y-61904532D01*
X127208606Y-62001072D01*
X127225899Y-62006150D01*
X127485024Y-62043408D01*
X127570450Y-61969387D01*
X127827999Y-61969387D01*
X127921877Y-62045039D01*
X128285735Y-61965886D01*
X128306569Y-61957256D01*
X128503979Y-61830389D01*
X128517600Y-61818586D01*
X128669788Y-61642952D01*
X128679532Y-61627789D01*
X128776072Y-61416394D01*
X128781150Y-61399101D01*
X128813582Y-61173536D01*
X128814224Y-61164558D01*
X128814224Y-61076809D01*
X128740415Y-61003000D01*
X127901809Y-61002999D01*
X127828000Y-61076808D01*
X127827999Y-61969387D01*
X127570450Y-61969387D01*
X127572000Y-61968044D01*
X127572001Y-61076809D01*
X127498192Y-61003000D01*
X127095809Y-61002999D01*
X127095808Y-61003000D01*
X126326809Y-61002999D01*
X126253000Y-61076808D01*
X126252999Y-61969387D01*
X125995450Y-61969387D01*
X125997000Y-61968044D01*
X125997001Y-61076809D01*
X125923192Y-61003000D01*
X125084585Y-61002999D01*
X125010776Y-61076808D01*
X123132496Y-61076808D01*
X123094750Y-60929799D01*
X123088914Y-60915058D01*
X122964425Y-60688613D01*
X122955106Y-60675787D01*
X122778215Y-60487416D01*
X122765998Y-60477310D01*
X122547818Y-60338849D01*
X122533472Y-60332099D01*
X122287713Y-60252246D01*
X122272139Y-60249275D01*
X122220152Y-60246005D01*
X122164251Y-60196635D01*
X122143310Y-60175693D01*
X122136537Y-60169821D01*
X122119050Y-60156715D01*
X122059339Y-60103981D01*
X122044336Y-60094125D01*
X122020776Y-60083063D01*
X121999952Y-60067457D01*
X121984207Y-60058837D01*
X121909623Y-60030876D01*
X121837330Y-59996935D01*
X121819774Y-59991626D01*
X121795077Y-59987936D01*
X121770257Y-59978630D01*
X121752721Y-59974775D01*
X121661816Y-59968019D01*
X121639552Y-59964692D01*
X121630227Y-59963999D01*
X121607718Y-59963999D01*
X121524859Y-59957842D01*
X121506948Y-59959063D01*
X121483825Y-59963999D01*
X119756637Y-59963999D01*
X119161000Y-59368363D01*
X119161000Y-58714686D01*
X119161329Y-58714491D01*
X119170012Y-58708286D01*
X119353645Y-58552004D01*
X119361158Y-58544424D01*
X119515833Y-58359435D01*
X119521962Y-58350698D01*
X119643256Y-58142294D01*
X119647825Y-58132650D01*
X119732272Y-57906787D01*
X119735151Y-57896511D01*
X119780392Y-57659351D01*
X119781507Y-57648128D01*
X119784077Y-57380341D01*
X119783178Y-57369099D01*
X119768860Y-57285336D01*
X119798419Y-57290975D01*
X119814242Y-57291970D01*
X120072139Y-57275745D01*
X120087713Y-57272774D01*
X120333472Y-57192921D01*
X120347818Y-57186171D01*
X120565998Y-57047710D01*
X120578215Y-57037604D01*
X120755106Y-56849233D01*
X120764425Y-56836407D01*
X120888914Y-56609962D01*
X120894750Y-56595221D01*
X120945369Y-56398070D01*
X123760776Y-56398070D01*
X123760776Y-57304184D01*
X123762220Y-57317614D01*
X123835255Y-57653353D01*
X123843885Y-57674188D01*
X123972696Y-57874620D01*
X123984499Y-57888241D01*
X124114001Y-58000455D01*
X124114001Y-58602948D01*
X124112825Y-58605087D01*
X124017700Y-58845347D01*
X124013757Y-58860703D01*
X123981370Y-59117073D01*
X123981370Y-59132927D01*
X124013757Y-59389297D01*
X124017700Y-59404653D01*
X124112825Y-59644913D01*
X124120463Y-59658807D01*
X124272351Y-59867862D01*
X124283205Y-59879420D01*
X124482311Y-60044135D01*
X124495697Y-60052630D01*
X124729511Y-60162654D01*
X124744589Y-60167554D01*
X124998419Y-60215975D01*
X125014242Y-60216970D01*
X125104795Y-60211273D01*
X125048928Y-60333606D01*
X125043850Y-60350899D01*
X125011418Y-60576464D01*
X125010776Y-60585442D01*
X125010776Y-60673191D01*
X125084585Y-60747000D01*
X125923192Y-60747001D01*
X125923193Y-60747000D01*
X126729191Y-60747001D01*
X126729192Y-60747000D01*
X127498192Y-60747001D01*
X127498193Y-60747000D01*
X128740415Y-60747001D01*
X128814224Y-60673192D01*
X128814224Y-60583188D01*
X128812780Y-60569758D01*
X128740886Y-60239265D01*
X128732256Y-60218431D01*
X128605389Y-60021021D01*
X128593586Y-60007400D01*
X128580467Y-59996033D01*
X128589161Y-59986000D01*
X129834169Y-59986000D01*
X129852023Y-59990040D01*
X129869919Y-59991480D01*
X129958244Y-59986000D01*
X129987885Y-59986000D01*
X129996827Y-59985363D01*
X130018465Y-59982264D01*
X130097969Y-59977331D01*
X130115549Y-59973691D01*
X130140026Y-59964855D01*
X130165786Y-59961166D01*
X130183018Y-59956127D01*
X130255541Y-59923153D01*
X130329138Y-59896584D01*
X130438827Y-59889684D01*
X130454401Y-59886713D01*
X130700160Y-59806860D01*
X130714506Y-59800110D01*
X130932686Y-59661649D01*
X130944903Y-59651543D01*
X131121794Y-59463172D01*
X131131113Y-59450346D01*
X131255602Y-59223901D01*
X131261438Y-59209160D01*
X131325701Y-58958872D01*
X131327688Y-58943142D01*
X131327688Y-58684736D01*
X131325701Y-58669006D01*
X131299156Y-58565621D01*
X131353979Y-58530389D01*
X131367600Y-58518586D01*
X131519788Y-58342952D01*
X131529532Y-58327789D01*
X131626072Y-58116394D01*
X131631150Y-58099101D01*
X131663582Y-57873536D01*
X131664224Y-57864558D01*
X131664224Y-57283188D01*
X131662780Y-57269758D01*
X131590886Y-56939265D01*
X131582256Y-56918431D01*
X131455389Y-56721021D01*
X131443586Y-56707400D01*
X131430468Y-56696033D01*
X131519788Y-56592952D01*
X131529532Y-56577789D01*
X131626072Y-56366394D01*
X131631150Y-56349101D01*
X131663582Y-56123536D01*
X131664224Y-56114558D01*
X131664224Y-56026809D01*
X131590415Y-55953000D01*
X130751808Y-55952999D01*
X130751807Y-55953000D01*
X129970809Y-55952999D01*
X129970808Y-55953000D01*
X129201808Y-55952999D01*
X129201807Y-55953000D01*
X128872000Y-55952999D01*
X128872000Y-55623191D01*
X129127999Y-55623191D01*
X129201808Y-55697000D01*
X129579191Y-55697001D01*
X129579192Y-55697000D01*
X130348191Y-55697001D01*
X130422000Y-55623192D01*
X130422000Y-55623191D01*
X130677999Y-55623191D01*
X130751808Y-55697000D01*
X131590415Y-55697001D01*
X131664224Y-55623192D01*
X131664224Y-55533188D01*
X131662780Y-55519758D01*
X131590886Y-55189265D01*
X131582256Y-55168431D01*
X131455389Y-54971021D01*
X131443586Y-54957400D01*
X131267952Y-54805212D01*
X131252789Y-54795468D01*
X131041394Y-54698928D01*
X131024101Y-54693850D01*
X130764976Y-54656592D01*
X130678000Y-54731956D01*
X130677999Y-55623191D01*
X130422000Y-55623191D01*
X130422001Y-54730613D01*
X130328123Y-54654961D01*
X129964265Y-54734114D01*
X129943431Y-54742744D01*
X129772577Y-54852545D01*
X129717952Y-54805212D01*
X129702789Y-54795468D01*
X129491394Y-54698928D01*
X129474101Y-54693850D01*
X129214976Y-54656592D01*
X129128000Y-54731956D01*
X129127999Y-55623191D01*
X128872000Y-55623191D01*
X128872001Y-54730613D01*
X128778123Y-54654961D01*
X128414265Y-54734114D01*
X128393431Y-54742744D01*
X128196021Y-54869611D01*
X128182400Y-54881414D01*
X128030212Y-55057048D01*
X128020468Y-55072211D01*
X127923928Y-55283606D01*
X127918850Y-55300899D01*
X127886418Y-55526464D01*
X127885776Y-55535442D01*
X127885776Y-55699351D01*
X127837151Y-55657217D01*
X127821989Y-55647473D01*
X127607324Y-55549439D01*
X127590031Y-55544361D01*
X127360907Y-55511418D01*
X127351930Y-55510776D01*
X126695816Y-55510776D01*
X126682386Y-55512220D01*
X126346647Y-55585255D01*
X126325812Y-55593885D01*
X126125380Y-55722696D01*
X126111759Y-55734499D01*
X126001026Y-55862291D01*
X125977304Y-55825380D01*
X125965501Y-55811759D01*
X125787151Y-55657217D01*
X125771989Y-55647473D01*
X125557324Y-55549439D01*
X125540031Y-55544361D01*
X125310907Y-55511418D01*
X125301930Y-55510776D01*
X124645816Y-55510776D01*
X124632386Y-55512220D01*
X124296647Y-55585255D01*
X124275812Y-55593885D01*
X124075380Y-55722696D01*
X124061759Y-55734499D01*
X123907217Y-55912849D01*
X123897473Y-55928011D01*
X123799439Y-56142676D01*
X123794361Y-56159969D01*
X123761418Y-56389093D01*
X123760776Y-56398070D01*
X120945369Y-56398070D01*
X120959013Y-56344933D01*
X120961000Y-56329203D01*
X120961000Y-56070797D01*
X120959013Y-56055067D01*
X120894750Y-55804779D01*
X120888914Y-55790038D01*
X120764425Y-55563593D01*
X120755106Y-55550767D01*
X120578215Y-55362396D01*
X120565998Y-55352290D01*
X120347818Y-55213829D01*
X120333473Y-55207079D01*
X120211000Y-55167285D01*
X120211000Y-54995797D01*
X120209013Y-54980067D01*
X120144750Y-54729779D01*
X120138914Y-54715038D01*
X120014425Y-54488593D01*
X120005106Y-54475767D01*
X119828215Y-54287396D01*
X119815998Y-54277290D01*
X119597818Y-54138829D01*
X119583472Y-54132079D01*
X119337713Y-54052226D01*
X119322139Y-54049255D01*
X119064242Y-54033030D01*
X119048419Y-54034025D01*
X118794589Y-54082446D01*
X118779511Y-54087346D01*
X118545697Y-54197370D01*
X118532310Y-54205865D01*
X118462037Y-54264000D01*
X116345056Y-54264000D01*
X116147818Y-54138829D01*
X116133472Y-54132079D01*
X115887713Y-54052226D01*
X115872139Y-54049255D01*
X115614242Y-54033030D01*
X115598419Y-54034025D01*
X115344589Y-54082446D01*
X115329511Y-54087346D01*
X115095697Y-54197370D01*
X115082311Y-54205865D01*
X114883205Y-54370580D01*
X114872351Y-54382138D01*
X114720463Y-54591193D01*
X114712825Y-54605087D01*
X114617700Y-54845347D01*
X114613757Y-54860703D01*
X114581370Y-55117073D01*
X114581370Y-55120117D01*
X114389242Y-55108030D01*
X114373419Y-55109025D01*
X114119589Y-55157446D01*
X114104511Y-55162346D01*
X113870697Y-55272370D01*
X113857311Y-55280865D01*
X113658205Y-55445580D01*
X113647351Y-55457138D01*
X113495463Y-55666193D01*
X113487825Y-55680087D01*
X113392700Y-55920347D01*
X113388757Y-55935703D01*
X113356370Y-56192073D01*
X113356370Y-56207927D01*
X113388757Y-56464297D01*
X113392700Y-56479653D01*
X113455790Y-56639000D01*
X113011955Y-56639000D01*
X112881013Y-56476140D01*
X112873647Y-56468417D01*
X112693049Y-56308638D01*
X112684486Y-56302267D01*
X112479549Y-56175202D01*
X112470036Y-56170365D01*
X112246619Y-56079645D01*
X112236427Y-56076480D01*
X112000919Y-56024700D01*
X111990340Y-56023298D01*
X111749475Y-56011939D01*
X111738809Y-56012339D01*
X111499474Y-56041727D01*
X111489030Y-56043918D01*
X111258068Y-56113210D01*
X111248142Y-56117130D01*
X111032155Y-56224346D01*
X111023032Y-56229882D01*
X110828199Y-56371957D01*
X110820138Y-56378952D01*
X110652029Y-56551822D01*
X110645263Y-56560074D01*
X110508683Y-56758798D01*
X110503403Y-56768073D01*
X110402260Y-56986968D01*
X110398618Y-56997000D01*
X110335802Y-57229807D01*
X110333903Y-57240309D01*
X110311211Y-57480372D01*
X110311109Y-57491043D01*
X110329188Y-57731497D01*
X110330885Y-57742034D01*
X110332770Y-57749594D01*
X110227415Y-57854949D01*
X110098536Y-57836418D01*
X110089558Y-57835776D01*
X109608188Y-57835776D01*
X109594758Y-57837220D01*
X109264265Y-57909114D01*
X109243431Y-57917744D01*
X109046021Y-58044611D01*
X109032400Y-58056414D01*
X108960839Y-58139000D01*
X108796453Y-58139000D01*
X108778603Y-58134961D01*
X108760707Y-58133521D01*
X108672398Y-58139000D01*
X108642741Y-58139000D01*
X108633797Y-58139637D01*
X108612144Y-58142739D01*
X108532657Y-58147670D01*
X108515078Y-58151310D01*
X108490608Y-58160144D01*
X108464838Y-58163834D01*
X108447608Y-58168873D01*
X108375082Y-58201848D01*
X108299978Y-58228961D01*
X108283810Y-58237621D01*
X108263743Y-58252471D01*
X108239609Y-58263444D01*
X108224483Y-58273117D01*
X108155414Y-58332629D01*
X108137327Y-58346015D01*
X108130245Y-58352117D01*
X108114343Y-58368020D01*
X108051386Y-58422268D01*
X108039584Y-58435796D01*
X108026719Y-58455644D01*
X107721588Y-58760775D01*
X107445303Y-58760775D01*
X107431873Y-58762219D01*
X107117118Y-58830690D01*
X107096284Y-58839320D01*
X106907946Y-58960357D01*
X106894325Y-58972160D01*
X106749198Y-59139644D01*
X106739454Y-59154806D01*
X106647393Y-59356393D01*
X106642315Y-59373686D01*
X106611418Y-59588579D01*
X106610776Y-59597556D01*
X106610776Y-59985282D01*
X106494589Y-60007446D01*
X106479511Y-60012346D01*
X106245697Y-60122370D01*
X106232311Y-60130865D01*
X106033205Y-60295580D01*
X106022351Y-60307138D01*
X105870463Y-60516193D01*
X105862825Y-60530087D01*
X105767700Y-60770347D01*
X105763757Y-60785703D01*
X105731370Y-61042073D01*
X105731370Y-61057927D01*
X105763757Y-61314297D01*
X105767700Y-61329653D01*
X105862825Y-61569913D01*
X105870463Y-61583807D01*
X106022351Y-61792862D01*
X106033205Y-61804420D01*
X106232311Y-61969135D01*
X106245697Y-61977630D01*
X106479511Y-62087654D01*
X106494589Y-62092554D01*
X106561649Y-62105346D01*
X106419589Y-62132446D01*
X106404511Y-62137346D01*
X106170697Y-62247370D01*
X106157311Y-62255865D01*
X105958205Y-62420580D01*
X105947351Y-62432138D01*
X105795463Y-62641193D01*
X105787825Y-62655087D01*
X105692700Y-62895347D01*
X105688757Y-62910703D01*
X105656370Y-63167073D01*
X101788999Y-63167073D01*
X101788999Y-57451807D01*
X103010776Y-57451807D01*
X103010776Y-58054283D01*
X103012220Y-58067713D01*
X103085246Y-58403411D01*
X103093876Y-58424245D01*
X103222671Y-58624654D01*
X103234474Y-58638275D01*
X103412803Y-58792798D01*
X103427965Y-58802542D01*
X103642604Y-58900564D01*
X103659897Y-58905642D01*
X103888993Y-58938581D01*
X103897970Y-58939223D01*
X104948191Y-58939223D01*
X105022000Y-58865414D01*
X105277999Y-58865414D01*
X105351808Y-58939223D01*
X106404284Y-58939223D01*
X106417714Y-58937779D01*
X106753412Y-58864753D01*
X106774246Y-58856123D01*
X106974655Y-58727328D01*
X106988276Y-58715525D01*
X107142799Y-58537196D01*
X107152543Y-58522034D01*
X107250565Y-58307395D01*
X107255643Y-58290102D01*
X107288582Y-58061006D01*
X107289224Y-58052029D01*
X107289224Y-57451808D01*
X107215415Y-57377999D01*
X105351809Y-57377998D01*
X105278000Y-57451807D01*
X105277999Y-58865414D01*
X105022000Y-58865414D01*
X105022001Y-57451808D01*
X104948192Y-57377999D01*
X103084585Y-57377998D01*
X103010776Y-57451807D01*
X101788999Y-57451807D01*
X101788999Y-56447969D01*
X103010776Y-56447969D01*
X103010776Y-57048190D01*
X103084585Y-57121999D01*
X104948191Y-57122000D01*
X105022000Y-57048191D01*
X105022000Y-57048190D01*
X105277999Y-57048190D01*
X105351808Y-57121999D01*
X107215415Y-57122000D01*
X107289224Y-57048191D01*
X107289224Y-56445715D01*
X107287780Y-56432285D01*
X107214754Y-56096587D01*
X107206124Y-56075753D01*
X107077329Y-55875344D01*
X107065526Y-55861723D01*
X106887197Y-55707200D01*
X106872035Y-55697456D01*
X106657396Y-55599434D01*
X106640103Y-55594356D01*
X106411007Y-55561417D01*
X106402030Y-55560775D01*
X105351809Y-55560775D01*
X105278000Y-55634584D01*
X105277999Y-57048190D01*
X105022000Y-57048190D01*
X105022001Y-55634584D01*
X104948192Y-55560775D01*
X103895716Y-55560775D01*
X103882286Y-55562219D01*
X103546588Y-55635245D01*
X103525754Y-55643875D01*
X103325345Y-55772670D01*
X103311724Y-55784473D01*
X103157201Y-55962802D01*
X103147457Y-55977964D01*
X103049435Y-56192603D01*
X103044357Y-56209896D01*
X103011418Y-56438992D01*
X103010776Y-56447969D01*
X101788999Y-56447969D01*
X101788999Y-54175063D01*
X102385954Y-54175063D01*
X102391826Y-54287107D01*
X102620259Y-54472089D01*
X102626154Y-54476325D01*
X102925173Y-54666089D01*
X102931516Y-54669619D01*
X103250366Y-54823758D01*
X103257072Y-54826536D01*
X103591523Y-54943004D01*
X103598505Y-54944993D01*
X103944127Y-55022248D01*
X103951291Y-55023421D01*
X104303502Y-55060440D01*
X104310753Y-55060782D01*
X104664885Y-55057074D01*
X104672127Y-55056580D01*
X105023485Y-55012193D01*
X105030622Y-55010870D01*
X105374551Y-54926393D01*
X105381489Y-54924259D01*
X105713429Y-54800811D01*
X105720076Y-54797894D01*
X106035627Y-54637113D01*
X106041894Y-54633451D01*
X106336874Y-54437465D01*
X106342679Y-54433107D01*
X106518419Y-54284594D01*
X106523052Y-54174071D01*
X104507190Y-52158209D01*
X104402808Y-52158209D01*
X102385954Y-54175063D01*
X101788999Y-54175063D01*
X101788999Y-53572982D01*
X101865931Y-53700012D01*
X101870043Y-53705994D01*
X102089438Y-53988838D01*
X102202996Y-53995983D01*
X104221789Y-51977190D01*
X104221789Y-51872808D01*
X104688209Y-51872808D01*
X104688209Y-51977190D01*
X106705689Y-53994670D01*
X106812383Y-53992995D01*
X106860875Y-53941358D01*
X106865533Y-53935788D01*
X107076687Y-53651469D01*
X107080672Y-53645401D01*
X107257748Y-53338698D01*
X107261010Y-53332213D01*
X107401660Y-53007189D01*
X107404154Y-53000372D01*
X107506515Y-52661336D01*
X107508210Y-52654278D01*
X107571100Y-52304748D01*
X107572066Y-52295559D01*
X107589183Y-51750893D01*
X107588796Y-51741660D01*
X107547977Y-51388872D01*
X107546729Y-51381721D01*
X107465858Y-51036927D01*
X107463796Y-51029967D01*
X107343831Y-50696753D01*
X107340984Y-50690076D01*
X107183516Y-50372859D01*
X107179919Y-50366553D01*
X106987035Y-50069538D01*
X106982737Y-50063687D01*
X106815735Y-49861815D01*
X106704450Y-49856567D01*
X104688209Y-51872808D01*
X104221789Y-51872808D01*
X102205981Y-49857000D01*
X102096985Y-49860425D01*
X101986973Y-49985207D01*
X101982494Y-49990920D01*
X101788999Y-50269322D01*
X101788999Y-49058999D01*
X103183153Y-49058999D01*
X103106859Y-49090134D01*
G36*
X119248155Y-67440792D02*
G01*
X119263757Y-67564297D01*
X119267700Y-67579653D01*
X119362825Y-67819913D01*
X119370463Y-67833807D01*
X119522351Y-68042862D01*
X119533205Y-68054420D01*
X119732311Y-68219135D01*
X119745697Y-68227630D01*
X119979511Y-68337654D01*
X119994589Y-68342554D01*
X120248419Y-68390975D01*
X120264242Y-68391970D01*
X120522139Y-68375745D01*
X120537713Y-68372774D01*
X120783472Y-68292921D01*
X120797818Y-68286171D01*
X120995056Y-68161000D01*
X122072477Y-68161000D01*
X122082311Y-68169135D01*
X122095697Y-68177630D01*
X122329511Y-68287654D01*
X122344589Y-68292554D01*
X122598419Y-68340975D01*
X122614242Y-68341970D01*
X122734181Y-68334424D01*
X122787825Y-68469913D01*
X122795463Y-68483807D01*
X122947351Y-68692862D01*
X122958205Y-68704420D01*
X123157311Y-68869135D01*
X123170697Y-68877630D01*
X123404511Y-68987654D01*
X123419589Y-68992554D01*
X123673419Y-69040975D01*
X123689242Y-69041970D01*
X123947139Y-69025745D01*
X123962713Y-69022774D01*
X124133163Y-68967391D01*
X124133163Y-69358258D01*
X124135319Y-69374634D01*
X124210137Y-69653859D01*
X124222880Y-69678339D01*
X124295333Y-69764686D01*
X124067861Y-69871726D01*
X124054474Y-69880221D01*
X123984201Y-69938356D01*
X123329647Y-69938356D01*
X123172818Y-69838829D01*
X123158472Y-69832079D01*
X122912713Y-69752226D01*
X122897139Y-69749255D01*
X122639242Y-69733030D01*
X122623419Y-69734025D01*
X122369589Y-69782446D01*
X122354511Y-69787346D01*
X122120697Y-69897370D01*
X122107311Y-69905865D01*
X121908205Y-70070580D01*
X121897351Y-70082138D01*
X121745463Y-70291193D01*
X121737825Y-70305087D01*
X121642700Y-70545347D01*
X121638757Y-70560703D01*
X121606370Y-70817073D01*
X121606370Y-70832927D01*
X121638757Y-71089297D01*
X121642700Y-71104653D01*
X121737825Y-71344913D01*
X121745463Y-71358807D01*
X121897351Y-71567862D01*
X121908205Y-71579420D01*
X122107311Y-71744135D01*
X122120697Y-71752630D01*
X122354511Y-71862654D01*
X122369589Y-71867554D01*
X122623419Y-71915975D01*
X122639242Y-71916970D01*
X122897139Y-71900745D01*
X122912713Y-71897774D01*
X123158472Y-71817921D01*
X123172818Y-71811171D01*
X123390998Y-71672710D01*
X123403215Y-71662604D01*
X123405326Y-71660356D01*
X123984201Y-71660356D01*
X124054474Y-71718491D01*
X124067861Y-71726986D01*
X124301675Y-71837010D01*
X124316753Y-71841910D01*
X124570583Y-71890331D01*
X124586406Y-71891326D01*
X124844303Y-71875101D01*
X124859877Y-71872130D01*
X125105636Y-71792277D01*
X125119982Y-71785527D01*
X125338162Y-71647066D01*
X125350379Y-71636960D01*
X125527270Y-71448589D01*
X125536589Y-71435763D01*
X125661078Y-71209318D01*
X125666914Y-71194577D01*
X125678479Y-71149536D01*
X125687713Y-71147774D01*
X125933472Y-71067921D01*
X125947818Y-71061171D01*
X126165998Y-70922710D01*
X126178215Y-70912604D01*
X126355106Y-70724233D01*
X126364425Y-70711407D01*
X126488914Y-70484962D01*
X126494750Y-70470221D01*
X126559013Y-70219933D01*
X126561000Y-70204203D01*
X126561000Y-69945797D01*
X126559013Y-69930067D01*
X126543241Y-69868638D01*
X126568904Y-69847104D01*
X126570880Y-69848762D01*
X126606361Y-69869247D01*
X126581370Y-70067073D01*
X126581370Y-70082927D01*
X126613757Y-70339297D01*
X126617700Y-70354653D01*
X126712825Y-70594913D01*
X126720463Y-70608807D01*
X126872351Y-70817862D01*
X126883205Y-70829420D01*
X127082311Y-70994135D01*
X127095697Y-71002630D01*
X127294655Y-71096252D01*
X127212962Y-71208692D01*
X127205324Y-71222586D01*
X127110199Y-71462846D01*
X127106256Y-71478202D01*
X127090654Y-71601706D01*
X126728360Y-71964001D01*
X121231637Y-71964001D01*
X115991837Y-66724201D01*
X115991837Y-66066742D01*
X115989681Y-66050366D01*
X115914863Y-65771142D01*
X115902120Y-65746662D01*
X115771010Y-65590410D01*
X115754121Y-65576239D01*
X115579880Y-65475641D01*
X115559163Y-65468100D01*
X115423464Y-65444173D01*
X115435657Y-65431979D01*
X115498614Y-65377731D01*
X115510416Y-65364203D01*
X115523279Y-65344358D01*
X115813184Y-65054454D01*
X115872139Y-65050745D01*
X115887713Y-65047774D01*
X116133472Y-64967921D01*
X116147818Y-64961171D01*
X116365998Y-64822710D01*
X116378215Y-64812604D01*
X116495292Y-64687928D01*
X119248155Y-67440792D01*
G37*
X119248155Y-67440792D02*
X119263757Y-67564297D01*
X119267700Y-67579653D01*
X119362825Y-67819913D01*
X119370463Y-67833807D01*
X119522351Y-68042862D01*
X119533205Y-68054420D01*
X119732311Y-68219135D01*
X119745697Y-68227630D01*
X119979511Y-68337654D01*
X119994589Y-68342554D01*
X120248419Y-68390975D01*
X120264242Y-68391970D01*
X120522139Y-68375745D01*
X120537713Y-68372774D01*
X120783472Y-68292921D01*
X120797818Y-68286171D01*
X120995056Y-68161000D01*
X122072477Y-68161000D01*
X122082311Y-68169135D01*
X122095697Y-68177630D01*
X122329511Y-68287654D01*
X122344589Y-68292554D01*
X122598419Y-68340975D01*
X122614242Y-68341970D01*
X122734181Y-68334424D01*
X122787825Y-68469913D01*
X122795463Y-68483807D01*
X122947351Y-68692862D01*
X122958205Y-68704420D01*
X123157311Y-68869135D01*
X123170697Y-68877630D01*
X123404511Y-68987654D01*
X123419589Y-68992554D01*
X123673419Y-69040975D01*
X123689242Y-69041970D01*
X123947139Y-69025745D01*
X123962713Y-69022774D01*
X124133163Y-68967391D01*
X124133163Y-69358258D01*
X124135319Y-69374634D01*
X124210137Y-69653859D01*
X124222880Y-69678339D01*
X124295333Y-69764686D01*
X124067861Y-69871726D01*
X124054474Y-69880221D01*
X123984201Y-69938356D01*
X123329647Y-69938356D01*
X123172818Y-69838829D01*
X123158472Y-69832079D01*
X122912713Y-69752226D01*
X122897139Y-69749255D01*
X122639242Y-69733030D01*
X122623419Y-69734025D01*
X122369589Y-69782446D01*
X122354511Y-69787346D01*
X122120697Y-69897370D01*
X122107311Y-69905865D01*
X121908205Y-70070580D01*
X121897351Y-70082138D01*
X121745463Y-70291193D01*
X121737825Y-70305087D01*
X121642700Y-70545347D01*
X121638757Y-70560703D01*
X121606370Y-70817073D01*
X121606370Y-70832927D01*
X121638757Y-71089297D01*
X121642700Y-71104653D01*
X121737825Y-71344913D01*
X121745463Y-71358807D01*
X121897351Y-71567862D01*
X121908205Y-71579420D01*
X122107311Y-71744135D01*
X122120697Y-71752630D01*
X122354511Y-71862654D01*
X122369589Y-71867554D01*
X122623419Y-71915975D01*
X122639242Y-71916970D01*
X122897139Y-71900745D01*
X122912713Y-71897774D01*
X123158472Y-71817921D01*
X123172818Y-71811171D01*
X123390998Y-71672710D01*
X123403215Y-71662604D01*
X123405326Y-71660356D01*
X123984201Y-71660356D01*
X124054474Y-71718491D01*
X124067861Y-71726986D01*
X124301675Y-71837010D01*
X124316753Y-71841910D01*
X124570583Y-71890331D01*
X124586406Y-71891326D01*
X124844303Y-71875101D01*
X124859877Y-71872130D01*
X125105636Y-71792277D01*
X125119982Y-71785527D01*
X125338162Y-71647066D01*
X125350379Y-71636960D01*
X125527270Y-71448589D01*
X125536589Y-71435763D01*
X125661078Y-71209318D01*
X125666914Y-71194577D01*
X125678479Y-71149536D01*
X125687713Y-71147774D01*
X125933472Y-71067921D01*
X125947818Y-71061171D01*
X126165998Y-70922710D01*
X126178215Y-70912604D01*
X126355106Y-70724233D01*
X126364425Y-70711407D01*
X126488914Y-70484962D01*
X126494750Y-70470221D01*
X126559013Y-70219933D01*
X126561000Y-70204203D01*
X126561000Y-69945797D01*
X126559013Y-69930067D01*
X126543241Y-69868638D01*
X126568904Y-69847104D01*
X126570880Y-69848762D01*
X126606361Y-69869247D01*
X126581370Y-70067073D01*
X126581370Y-70082927D01*
X126613757Y-70339297D01*
X126617700Y-70354653D01*
X126712825Y-70594913D01*
X126720463Y-70608807D01*
X126872351Y-70817862D01*
X126883205Y-70829420D01*
X127082311Y-70994135D01*
X127095697Y-71002630D01*
X127294655Y-71096252D01*
X127212962Y-71208692D01*
X127205324Y-71222586D01*
X127110199Y-71462846D01*
X127106256Y-71478202D01*
X127090654Y-71601706D01*
X126728360Y-71964001D01*
X121231637Y-71964001D01*
X115991837Y-66724201D01*
X115991837Y-66066742D01*
X115989681Y-66050366D01*
X115914863Y-65771142D01*
X115902120Y-65746662D01*
X115771010Y-65590410D01*
X115754121Y-65576239D01*
X115579880Y-65475641D01*
X115559163Y-65468100D01*
X115423464Y-65444173D01*
X115435657Y-65431979D01*
X115498614Y-65377731D01*
X115510416Y-65364203D01*
X115523279Y-65344358D01*
X115813184Y-65054454D01*
X115872139Y-65050745D01*
X115887713Y-65047774D01*
X116133472Y-64967921D01*
X116147818Y-64961171D01*
X116365998Y-64822710D01*
X116378215Y-64812604D01*
X116495292Y-64687928D01*
X119248155Y-67440792D01*
G36*
X110311211Y-61980372D02*
G01*
X110311109Y-61991043D01*
X110329188Y-62231497D01*
X110330885Y-62242034D01*
X110389221Y-62476005D01*
X110392669Y-62486104D01*
X110481733Y-62688999D01*
X109163050Y-62688999D01*
X109188071Y-62514974D01*
X109112706Y-62427999D01*
X107772000Y-62427998D01*
X107772001Y-62171999D01*
X109111313Y-62172000D01*
X109186965Y-62078122D01*
X109150609Y-61910999D01*
X109453543Y-61910999D01*
X109471397Y-61915039D01*
X109489293Y-61916479D01*
X109577618Y-61910999D01*
X109583502Y-61910999D01*
X109601464Y-61913582D01*
X109610442Y-61914224D01*
X110091812Y-61914224D01*
X110105242Y-61912780D01*
X110322058Y-61865615D01*
X110311211Y-61980372D01*
G37*
X110311211Y-61980372D02*
X110311109Y-61991043D01*
X110329188Y-62231497D01*
X110330885Y-62242034D01*
X110389221Y-62476005D01*
X110392669Y-62486104D01*
X110481733Y-62688999D01*
X109163050Y-62688999D01*
X109188071Y-62514974D01*
X109112706Y-62427999D01*
X107772000Y-62427998D01*
X107772001Y-62171999D01*
X109111313Y-62172000D01*
X109186965Y-62078122D01*
X109150609Y-61910999D01*
X109453543Y-61910999D01*
X109471397Y-61915039D01*
X109489293Y-61916479D01*
X109577618Y-61910999D01*
X109583502Y-61910999D01*
X109601464Y-61913582D01*
X109610442Y-61914224D01*
X110091812Y-61914224D01*
X110105242Y-61912780D01*
X110322058Y-61865615D01*
X110311211Y-61980372D01*
G36*
X169697970Y-55390607D02*
G01*
X169707742Y-55406094D01*
X169719378Y-55419766D01*
X169785712Y-55478349D01*
X169806667Y-55499305D01*
X169813441Y-55505178D01*
X169830930Y-55518285D01*
X169890640Y-55571019D01*
X169905646Y-55580876D01*
X169929198Y-55591933D01*
X169950021Y-55607540D01*
X169965770Y-55616162D01*
X170040363Y-55644126D01*
X170112649Y-55678064D01*
X170130204Y-55683373D01*
X170154899Y-55687063D01*
X170179722Y-55696369D01*
X170197257Y-55700224D01*
X170288162Y-55706979D01*
X170310426Y-55710307D01*
X170319752Y-55711000D01*
X170342261Y-55711000D01*
X170425120Y-55717157D01*
X170443031Y-55715936D01*
X170466154Y-55711000D01*
X171812037Y-55711000D01*
X171882310Y-55769135D01*
X171895697Y-55777630D01*
X172129511Y-55887654D01*
X172144589Y-55892554D01*
X172336532Y-55929169D01*
X173071362Y-56664000D01*
X169020056Y-56664000D01*
X168822818Y-56538829D01*
X168808472Y-56532079D01*
X168562713Y-56452226D01*
X168547139Y-56449255D01*
X168289242Y-56433030D01*
X168273419Y-56434025D01*
X168019589Y-56482446D01*
X168004511Y-56487346D01*
X167770697Y-56597370D01*
X167757311Y-56605865D01*
X167558205Y-56770580D01*
X167547351Y-56782138D01*
X167395463Y-56991193D01*
X167387825Y-57005087D01*
X167292700Y-57245347D01*
X167288757Y-57260703D01*
X167256370Y-57517073D01*
X167256370Y-57532927D01*
X167288757Y-57789297D01*
X167292700Y-57804653D01*
X167387825Y-58044913D01*
X167395463Y-58058807D01*
X167547351Y-58267862D01*
X167558205Y-58279420D01*
X167757311Y-58444135D01*
X167770697Y-58452630D01*
X168004511Y-58562654D01*
X168019589Y-58567554D01*
X168273419Y-58615975D01*
X168289242Y-58616970D01*
X168547139Y-58600745D01*
X168562713Y-58597774D01*
X168808472Y-58517921D01*
X168822818Y-58511171D01*
X169020056Y-58386000D01*
X173063364Y-58386000D01*
X174187856Y-59510493D01*
X174097243Y-59513340D01*
X174086102Y-59514689D01*
X173853373Y-59564157D01*
X173842646Y-59567457D01*
X173622358Y-59657356D01*
X173612385Y-59662503D01*
X173411496Y-59789990D01*
X173402592Y-59796823D01*
X173227455Y-59957870D01*
X173219902Y-59966171D01*
X173076052Y-60155686D01*
X173070088Y-60165193D01*
X172962071Y-60377188D01*
X172957885Y-60387601D01*
X172889117Y-60615373D01*
X172886841Y-60626363D01*
X172859494Y-60862713D01*
X172859200Y-60873932D01*
X172874140Y-61111390D01*
X172875838Y-61122484D01*
X172902492Y-61231001D01*
X168132901Y-61231001D01*
X168119750Y-61179779D01*
X168113914Y-61165038D01*
X167989425Y-60938593D01*
X167980106Y-60925767D01*
X167803215Y-60737396D01*
X167790998Y-60727290D01*
X167572818Y-60588829D01*
X167558472Y-60582079D01*
X167312713Y-60502226D01*
X167297139Y-60499255D01*
X167039242Y-60483030D01*
X167023419Y-60484025D01*
X166918854Y-60503972D01*
X166934013Y-60444933D01*
X166936000Y-60429203D01*
X166936000Y-60170797D01*
X166934013Y-60155067D01*
X166869750Y-59904779D01*
X166863914Y-59890038D01*
X166739425Y-59663593D01*
X166730106Y-59650767D01*
X166553215Y-59462396D01*
X166540998Y-59452290D01*
X166322818Y-59313829D01*
X166308472Y-59307079D01*
X166062713Y-59227226D01*
X166047139Y-59224255D01*
X165789242Y-59208030D01*
X165773419Y-59209025D01*
X165519589Y-59257446D01*
X165504511Y-59262346D01*
X165270697Y-59372370D01*
X165257310Y-59380865D01*
X165187037Y-59439000D01*
X156156638Y-59439000D01*
X155585648Y-58868011D01*
X155584013Y-58855067D01*
X155519750Y-58604779D01*
X155513914Y-58590038D01*
X155389425Y-58363593D01*
X155380106Y-58350767D01*
X155203215Y-58162396D01*
X155190998Y-58152290D01*
X154972818Y-58013829D01*
X154958472Y-58007079D01*
X154712713Y-57927226D01*
X154697139Y-57924255D01*
X154439242Y-57908030D01*
X154423419Y-57909025D01*
X154169589Y-57957446D01*
X154154511Y-57962346D01*
X153920697Y-58072370D01*
X153907311Y-58080865D01*
X153708205Y-58245580D01*
X153697351Y-58257138D01*
X153545463Y-58466193D01*
X153537825Y-58480087D01*
X153442700Y-58720347D01*
X153438757Y-58735703D01*
X153406370Y-58992073D01*
X153406370Y-59007927D01*
X153438757Y-59264297D01*
X153442700Y-59279653D01*
X153537825Y-59519913D01*
X153545463Y-59533807D01*
X153697351Y-59742862D01*
X153708205Y-59754420D01*
X153907311Y-59919135D01*
X153920697Y-59927630D01*
X154154511Y-60037654D01*
X154169589Y-60042554D01*
X154361532Y-60079169D01*
X154911787Y-60629425D01*
X154847818Y-60588829D01*
X154833472Y-60582079D01*
X154587713Y-60502226D01*
X154572139Y-60499255D01*
X154314242Y-60483030D01*
X154298419Y-60484025D01*
X154044589Y-60532446D01*
X154029511Y-60537346D01*
X153795697Y-60647370D01*
X153782311Y-60655865D01*
X153583205Y-60820580D01*
X153572351Y-60832138D01*
X153420463Y-61041193D01*
X153412825Y-61055087D01*
X153317700Y-61295347D01*
X153313757Y-61310703D01*
X153281370Y-61567073D01*
X153281370Y-61582927D01*
X153313757Y-61839297D01*
X153317700Y-61854653D01*
X153412825Y-62094913D01*
X153420463Y-62108807D01*
X153572351Y-62317862D01*
X153583205Y-62329420D01*
X153782311Y-62494135D01*
X153795697Y-62502630D01*
X154029511Y-62612654D01*
X154044589Y-62617554D01*
X154298419Y-62665975D01*
X154314242Y-62666970D01*
X154572139Y-62650745D01*
X154587713Y-62647774D01*
X154833472Y-62567921D01*
X154847818Y-62561171D01*
X155045056Y-62436000D01*
X164782403Y-62436000D01*
X164756370Y-62642073D01*
X164756370Y-62657927D01*
X164769770Y-62763999D01*
X155146460Y-62763999D01*
X155128606Y-62759959D01*
X155110710Y-62758519D01*
X155022385Y-62763999D01*
X154992743Y-62763999D01*
X154983801Y-62764636D01*
X154962163Y-62767735D01*
X154882659Y-62772668D01*
X154865079Y-62776308D01*
X154840602Y-62785144D01*
X154814842Y-62788833D01*
X154797610Y-62793872D01*
X154725087Y-62826846D01*
X154649983Y-62853959D01*
X154633816Y-62862618D01*
X154613743Y-62877471D01*
X154589608Y-62888444D01*
X154574484Y-62898117D01*
X154505421Y-62957626D01*
X154487331Y-62971011D01*
X154480248Y-62977115D01*
X154464339Y-62993024D01*
X154401387Y-63047267D01*
X154389585Y-63060797D01*
X154382595Y-63071582D01*
X154194589Y-63107446D01*
X154179511Y-63112346D01*
X153945697Y-63222370D01*
X153932311Y-63230865D01*
X153733205Y-63395580D01*
X153722351Y-63407138D01*
X153570463Y-63616193D01*
X153562825Y-63630087D01*
X153467700Y-63870347D01*
X153463757Y-63885703D01*
X153431370Y-64142073D01*
X153431370Y-64157927D01*
X153463757Y-64414297D01*
X153467700Y-64429653D01*
X153562825Y-64669913D01*
X153570463Y-64683807D01*
X153719545Y-64889000D01*
X151070810Y-64889000D01*
X151155106Y-64799233D01*
X151164425Y-64786407D01*
X151288914Y-64559962D01*
X151294750Y-64545221D01*
X151359013Y-64294933D01*
X151361000Y-64279203D01*
X151361000Y-64020797D01*
X151359013Y-64005067D01*
X151294750Y-63754779D01*
X151288914Y-63740038D01*
X151164425Y-63513593D01*
X151155106Y-63500767D01*
X150978215Y-63312396D01*
X150965998Y-63302290D01*
X150747818Y-63163829D01*
X150733472Y-63157079D01*
X150487713Y-63077226D01*
X150472139Y-63074255D01*
X150214242Y-63058030D01*
X150198419Y-63059025D01*
X149944589Y-63107446D01*
X149929511Y-63112346D01*
X149695697Y-63222370D01*
X149682310Y-63230865D01*
X149612037Y-63289000D01*
X148681637Y-63289000D01*
X147828637Y-62436000D01*
X149562037Y-62436000D01*
X149632310Y-62494135D01*
X149645697Y-62502630D01*
X149879511Y-62612654D01*
X149894589Y-62617554D01*
X150148419Y-62665975D01*
X150164242Y-62666970D01*
X150422139Y-62650745D01*
X150437713Y-62647774D01*
X150683472Y-62567921D01*
X150697818Y-62561171D01*
X150915998Y-62422710D01*
X150928215Y-62412604D01*
X151105106Y-62224233D01*
X151114425Y-62211407D01*
X151238914Y-61984962D01*
X151244750Y-61970221D01*
X151309013Y-61719933D01*
X151311000Y-61704203D01*
X151311000Y-61445797D01*
X151309013Y-61430067D01*
X151244750Y-61179779D01*
X151238914Y-61165038D01*
X151114425Y-60938593D01*
X151105106Y-60925767D01*
X150928215Y-60737396D01*
X150915998Y-60727290D01*
X150697818Y-60588829D01*
X150683472Y-60582079D01*
X150484511Y-60517432D01*
X150497818Y-60511171D01*
X150715998Y-60372710D01*
X150728215Y-60362604D01*
X150905106Y-60174233D01*
X150914425Y-60161407D01*
X151038914Y-59934962D01*
X151044750Y-59920221D01*
X151109013Y-59669933D01*
X151111000Y-59654203D01*
X151111000Y-59395797D01*
X151109013Y-59380067D01*
X151044750Y-59129779D01*
X151038914Y-59115038D01*
X150914425Y-58888593D01*
X150905106Y-58875767D01*
X150728215Y-58687396D01*
X150715998Y-58677290D01*
X150497818Y-58538829D01*
X150483472Y-58532079D01*
X150237713Y-58452226D01*
X150222139Y-58449255D01*
X149964242Y-58433030D01*
X149948419Y-58434025D01*
X149694589Y-58482446D01*
X149679511Y-58487346D01*
X149445697Y-58597370D01*
X149432310Y-58605865D01*
X149355993Y-58669000D01*
X149074488Y-58669000D01*
X149181024Y-58522366D01*
X149185267Y-58515680D01*
X149341113Y-58232195D01*
X149344485Y-58225029D01*
X149463573Y-57924248D01*
X149466021Y-57916716D01*
X149546472Y-57603380D01*
X149547956Y-57595600D01*
X149588501Y-57274652D01*
X149588998Y-57266749D01*
X149588998Y-56943249D01*
X149588501Y-56935346D01*
X149547956Y-56614398D01*
X149546472Y-56606618D01*
X149466021Y-56293282D01*
X149463573Y-56285750D01*
X149344485Y-55984969D01*
X149341113Y-55977803D01*
X149185267Y-55694318D01*
X149181024Y-55687632D01*
X148969481Y-55396468D01*
X148853665Y-55387353D01*
X146954999Y-57286019D01*
X146773979Y-57104999D01*
X148668229Y-55210749D01*
X148662981Y-55099464D01*
X148509343Y-54972364D01*
X148502936Y-54967709D01*
X148229797Y-54794370D01*
X148222857Y-54790555D01*
X147930146Y-54652816D01*
X147922783Y-54649901D01*
X147615116Y-54549933D01*
X147607446Y-54547964D01*
X147289677Y-54487346D01*
X147281819Y-54486353D01*
X147093154Y-54474484D01*
X147206638Y-54361000D01*
X168668364Y-54361000D01*
X169697970Y-55390607D01*
G37*
X169697970Y-55390607D02*
X169707742Y-55406094D01*
X169719378Y-55419766D01*
X169785712Y-55478349D01*
X169806667Y-55499305D01*
X169813441Y-55505178D01*
X169830930Y-55518285D01*
X169890640Y-55571019D01*
X169905646Y-55580876D01*
X169929198Y-55591933D01*
X169950021Y-55607540D01*
X169965770Y-55616162D01*
X170040363Y-55644126D01*
X170112649Y-55678064D01*
X170130204Y-55683373D01*
X170154899Y-55687063D01*
X170179722Y-55696369D01*
X170197257Y-55700224D01*
X170288162Y-55706979D01*
X170310426Y-55710307D01*
X170319752Y-55711000D01*
X170342261Y-55711000D01*
X170425120Y-55717157D01*
X170443031Y-55715936D01*
X170466154Y-55711000D01*
X171812037Y-55711000D01*
X171882310Y-55769135D01*
X171895697Y-55777630D01*
X172129511Y-55887654D01*
X172144589Y-55892554D01*
X172336532Y-55929169D01*
X173071362Y-56664000D01*
X169020056Y-56664000D01*
X168822818Y-56538829D01*
X168808472Y-56532079D01*
X168562713Y-56452226D01*
X168547139Y-56449255D01*
X168289242Y-56433030D01*
X168273419Y-56434025D01*
X168019589Y-56482446D01*
X168004511Y-56487346D01*
X167770697Y-56597370D01*
X167757311Y-56605865D01*
X167558205Y-56770580D01*
X167547351Y-56782138D01*
X167395463Y-56991193D01*
X167387825Y-57005087D01*
X167292700Y-57245347D01*
X167288757Y-57260703D01*
X167256370Y-57517073D01*
X167256370Y-57532927D01*
X167288757Y-57789297D01*
X167292700Y-57804653D01*
X167387825Y-58044913D01*
X167395463Y-58058807D01*
X167547351Y-58267862D01*
X167558205Y-58279420D01*
X167757311Y-58444135D01*
X167770697Y-58452630D01*
X168004511Y-58562654D01*
X168019589Y-58567554D01*
X168273419Y-58615975D01*
X168289242Y-58616970D01*
X168547139Y-58600745D01*
X168562713Y-58597774D01*
X168808472Y-58517921D01*
X168822818Y-58511171D01*
X169020056Y-58386000D01*
X173063364Y-58386000D01*
X174187856Y-59510493D01*
X174097243Y-59513340D01*
X174086102Y-59514689D01*
X173853373Y-59564157D01*
X173842646Y-59567457D01*
X173622358Y-59657356D01*
X173612385Y-59662503D01*
X173411496Y-59789990D01*
X173402592Y-59796823D01*
X173227455Y-59957870D01*
X173219902Y-59966171D01*
X173076052Y-60155686D01*
X173070088Y-60165193D01*
X172962071Y-60377188D01*
X172957885Y-60387601D01*
X172889117Y-60615373D01*
X172886841Y-60626363D01*
X172859494Y-60862713D01*
X172859200Y-60873932D01*
X172874140Y-61111390D01*
X172875838Y-61122484D01*
X172902492Y-61231001D01*
X168132901Y-61231001D01*
X168119750Y-61179779D01*
X168113914Y-61165038D01*
X167989425Y-60938593D01*
X167980106Y-60925767D01*
X167803215Y-60737396D01*
X167790998Y-60727290D01*
X167572818Y-60588829D01*
X167558472Y-60582079D01*
X167312713Y-60502226D01*
X167297139Y-60499255D01*
X167039242Y-60483030D01*
X167023419Y-60484025D01*
X166918854Y-60503972D01*
X166934013Y-60444933D01*
X166936000Y-60429203D01*
X166936000Y-60170797D01*
X166934013Y-60155067D01*
X166869750Y-59904779D01*
X166863914Y-59890038D01*
X166739425Y-59663593D01*
X166730106Y-59650767D01*
X166553215Y-59462396D01*
X166540998Y-59452290D01*
X166322818Y-59313829D01*
X166308472Y-59307079D01*
X166062713Y-59227226D01*
X166047139Y-59224255D01*
X165789242Y-59208030D01*
X165773419Y-59209025D01*
X165519589Y-59257446D01*
X165504511Y-59262346D01*
X165270697Y-59372370D01*
X165257310Y-59380865D01*
X165187037Y-59439000D01*
X156156638Y-59439000D01*
X155585648Y-58868011D01*
X155584013Y-58855067D01*
X155519750Y-58604779D01*
X155513914Y-58590038D01*
X155389425Y-58363593D01*
X155380106Y-58350767D01*
X155203215Y-58162396D01*
X155190998Y-58152290D01*
X154972818Y-58013829D01*
X154958472Y-58007079D01*
X154712713Y-57927226D01*
X154697139Y-57924255D01*
X154439242Y-57908030D01*
X154423419Y-57909025D01*
X154169589Y-57957446D01*
X154154511Y-57962346D01*
X153920697Y-58072370D01*
X153907311Y-58080865D01*
X153708205Y-58245580D01*
X153697351Y-58257138D01*
X153545463Y-58466193D01*
X153537825Y-58480087D01*
X153442700Y-58720347D01*
X153438757Y-58735703D01*
X153406370Y-58992073D01*
X153406370Y-59007927D01*
X153438757Y-59264297D01*
X153442700Y-59279653D01*
X153537825Y-59519913D01*
X153545463Y-59533807D01*
X153697351Y-59742862D01*
X153708205Y-59754420D01*
X153907311Y-59919135D01*
X153920697Y-59927630D01*
X154154511Y-60037654D01*
X154169589Y-60042554D01*
X154361532Y-60079169D01*
X154911787Y-60629425D01*
X154847818Y-60588829D01*
X154833472Y-60582079D01*
X154587713Y-60502226D01*
X154572139Y-60499255D01*
X154314242Y-60483030D01*
X154298419Y-60484025D01*
X154044589Y-60532446D01*
X154029511Y-60537346D01*
X153795697Y-60647370D01*
X153782311Y-60655865D01*
X153583205Y-60820580D01*
X153572351Y-60832138D01*
X153420463Y-61041193D01*
X153412825Y-61055087D01*
X153317700Y-61295347D01*
X153313757Y-61310703D01*
X153281370Y-61567073D01*
X153281370Y-61582927D01*
X153313757Y-61839297D01*
X153317700Y-61854653D01*
X153412825Y-62094913D01*
X153420463Y-62108807D01*
X153572351Y-62317862D01*
X153583205Y-62329420D01*
X153782311Y-62494135D01*
X153795697Y-62502630D01*
X154029511Y-62612654D01*
X154044589Y-62617554D01*
X154298419Y-62665975D01*
X154314242Y-62666970D01*
X154572139Y-62650745D01*
X154587713Y-62647774D01*
X154833472Y-62567921D01*
X154847818Y-62561171D01*
X155045056Y-62436000D01*
X164782403Y-62436000D01*
X164756370Y-62642073D01*
X164756370Y-62657927D01*
X164769770Y-62763999D01*
X155146460Y-62763999D01*
X155128606Y-62759959D01*
X155110710Y-62758519D01*
X155022385Y-62763999D01*
X154992743Y-62763999D01*
X154983801Y-62764636D01*
X154962163Y-62767735D01*
X154882659Y-62772668D01*
X154865079Y-62776308D01*
X154840602Y-62785144D01*
X154814842Y-62788833D01*
X154797610Y-62793872D01*
X154725087Y-62826846D01*
X154649983Y-62853959D01*
X154633816Y-62862618D01*
X154613743Y-62877471D01*
X154589608Y-62888444D01*
X154574484Y-62898117D01*
X154505421Y-62957626D01*
X154487331Y-62971011D01*
X154480248Y-62977115D01*
X154464339Y-62993024D01*
X154401387Y-63047267D01*
X154389585Y-63060797D01*
X154382595Y-63071582D01*
X154194589Y-63107446D01*
X154179511Y-63112346D01*
X153945697Y-63222370D01*
X153932311Y-63230865D01*
X153733205Y-63395580D01*
X153722351Y-63407138D01*
X153570463Y-63616193D01*
X153562825Y-63630087D01*
X153467700Y-63870347D01*
X153463757Y-63885703D01*
X153431370Y-64142073D01*
X153431370Y-64157927D01*
X153463757Y-64414297D01*
X153467700Y-64429653D01*
X153562825Y-64669913D01*
X153570463Y-64683807D01*
X153719545Y-64889000D01*
X151070810Y-64889000D01*
X151155106Y-64799233D01*
X151164425Y-64786407D01*
X151288914Y-64559962D01*
X151294750Y-64545221D01*
X151359013Y-64294933D01*
X151361000Y-64279203D01*
X151361000Y-64020797D01*
X151359013Y-64005067D01*
X151294750Y-63754779D01*
X151288914Y-63740038D01*
X151164425Y-63513593D01*
X151155106Y-63500767D01*
X150978215Y-63312396D01*
X150965998Y-63302290D01*
X150747818Y-63163829D01*
X150733472Y-63157079D01*
X150487713Y-63077226D01*
X150472139Y-63074255D01*
X150214242Y-63058030D01*
X150198419Y-63059025D01*
X149944589Y-63107446D01*
X149929511Y-63112346D01*
X149695697Y-63222370D01*
X149682310Y-63230865D01*
X149612037Y-63289000D01*
X148681637Y-63289000D01*
X147828637Y-62436000D01*
X149562037Y-62436000D01*
X149632310Y-62494135D01*
X149645697Y-62502630D01*
X149879511Y-62612654D01*
X149894589Y-62617554D01*
X150148419Y-62665975D01*
X150164242Y-62666970D01*
X150422139Y-62650745D01*
X150437713Y-62647774D01*
X150683472Y-62567921D01*
X150697818Y-62561171D01*
X150915998Y-62422710D01*
X150928215Y-62412604D01*
X151105106Y-62224233D01*
X151114425Y-62211407D01*
X151238914Y-61984962D01*
X151244750Y-61970221D01*
X151309013Y-61719933D01*
X151311000Y-61704203D01*
X151311000Y-61445797D01*
X151309013Y-61430067D01*
X151244750Y-61179779D01*
X151238914Y-61165038D01*
X151114425Y-60938593D01*
X151105106Y-60925767D01*
X150928215Y-60737396D01*
X150915998Y-60727290D01*
X150697818Y-60588829D01*
X150683472Y-60582079D01*
X150484511Y-60517432D01*
X150497818Y-60511171D01*
X150715998Y-60372710D01*
X150728215Y-60362604D01*
X150905106Y-60174233D01*
X150914425Y-60161407D01*
X151038914Y-59934962D01*
X151044750Y-59920221D01*
X151109013Y-59669933D01*
X151111000Y-59654203D01*
X151111000Y-59395797D01*
X151109013Y-59380067D01*
X151044750Y-59129779D01*
X151038914Y-59115038D01*
X150914425Y-58888593D01*
X150905106Y-58875767D01*
X150728215Y-58687396D01*
X150715998Y-58677290D01*
X150497818Y-58538829D01*
X150483472Y-58532079D01*
X150237713Y-58452226D01*
X150222139Y-58449255D01*
X149964242Y-58433030D01*
X149948419Y-58434025D01*
X149694589Y-58482446D01*
X149679511Y-58487346D01*
X149445697Y-58597370D01*
X149432310Y-58605865D01*
X149355993Y-58669000D01*
X149074488Y-58669000D01*
X149181024Y-58522366D01*
X149185267Y-58515680D01*
X149341113Y-58232195D01*
X149344485Y-58225029D01*
X149463573Y-57924248D01*
X149466021Y-57916716D01*
X149546472Y-57603380D01*
X149547956Y-57595600D01*
X149588501Y-57274652D01*
X149588998Y-57266749D01*
X149588998Y-56943249D01*
X149588501Y-56935346D01*
X149547956Y-56614398D01*
X149546472Y-56606618D01*
X149466021Y-56293282D01*
X149463573Y-56285750D01*
X149344485Y-55984969D01*
X149341113Y-55977803D01*
X149185267Y-55694318D01*
X149181024Y-55687632D01*
X148969481Y-55396468D01*
X148853665Y-55387353D01*
X146954999Y-57286019D01*
X146773979Y-57104999D01*
X148668229Y-55210749D01*
X148662981Y-55099464D01*
X148509343Y-54972364D01*
X148502936Y-54967709D01*
X148229797Y-54794370D01*
X148222857Y-54790555D01*
X147930146Y-54652816D01*
X147922783Y-54649901D01*
X147615116Y-54549933D01*
X147607446Y-54547964D01*
X147289677Y-54487346D01*
X147281819Y-54486353D01*
X147093154Y-54474484D01*
X147206638Y-54361000D01*
X168668364Y-54361000D01*
X169697970Y-55390607D01*
G36*
X143476440Y-53730924D02*
G01*
X143439425Y-53663593D01*
X143430106Y-53650767D01*
X143253215Y-53462396D01*
X143240998Y-53452290D01*
X143022818Y-53313829D01*
X143008472Y-53307079D01*
X142762713Y-53227226D01*
X142747139Y-53224255D01*
X142489242Y-53208030D01*
X142473419Y-53209025D01*
X142219589Y-53257446D01*
X142204511Y-53262346D01*
X141970697Y-53372370D01*
X141957311Y-53380865D01*
X141758205Y-53545580D01*
X141747351Y-53557138D01*
X141615228Y-53738990D01*
X137078444Y-53738990D01*
X137109013Y-53619933D01*
X137111000Y-53604203D01*
X137111000Y-53345797D01*
X137109013Y-53330067D01*
X137061000Y-53143067D01*
X137061000Y-53003018D01*
X137074359Y-52979880D01*
X137081900Y-52959163D01*
X137115878Y-52766462D01*
X137116837Y-52755501D01*
X137116837Y-52261000D01*
X144946363Y-52261000D01*
X143476440Y-53730924D01*
G37*
X143476440Y-53730924D02*
X143439425Y-53663593D01*
X143430106Y-53650767D01*
X143253215Y-53462396D01*
X143240998Y-53452290D01*
X143022818Y-53313829D01*
X143008472Y-53307079D01*
X142762713Y-53227226D01*
X142747139Y-53224255D01*
X142489242Y-53208030D01*
X142473419Y-53209025D01*
X142219589Y-53257446D01*
X142204511Y-53262346D01*
X141970697Y-53372370D01*
X141957311Y-53380865D01*
X141758205Y-53545580D01*
X141747351Y-53557138D01*
X141615228Y-53738990D01*
X137078444Y-53738990D01*
X137109013Y-53619933D01*
X137111000Y-53604203D01*
X137111000Y-53345797D01*
X137109013Y-53330067D01*
X137061000Y-53143067D01*
X137061000Y-53003018D01*
X137074359Y-52979880D01*
X137081900Y-52959163D01*
X137115878Y-52766462D01*
X137116837Y-52755501D01*
X137116837Y-52261000D01*
X144946363Y-52261000D01*
X143476440Y-53730924D01*
%TD*%
M02*
