G04 #@! TF.GenerationSoftware,KiCad,Pcbnew,6.0.0-unknown-920f128~86~ubuntu18.04.1*
G04 #@! TF.CreationDate,2019-07-19T14:58:54-04:00*
G04 #@! TF.ProjectId,FOD,464f442e-6b69-4636-9164-5f7063625858,rev?*
G04 #@! TF.SameCoordinates,Original*
G04 #@! TF.FileFunction,Paste,Bot*
G04 #@! TF.FilePolarity,Positive*
%FSLAX46Y46*%
G04 Gerber Fmt 4.6, Leading zero omitted, Abs format (unit mm)*
G04 Created by KiCad (PCBNEW 6.0.0-unknown-920f128~86~ubuntu18.04.1) date 2019-07-19 14:58:54*
%MOMM*%
%LPD*%
G04 APERTURE LIST*
%ADD10R,2.200000X1.050000*%
%ADD11R,1.050000X1.000000*%
%ADD12R,0.800000X0.900000*%
%ADD13C,1.000000*%
%ADD14C,0.100000*%
%ADD15R,2.200000X1.840000*%
%ADD16R,1.000000X1.500000*%
%ADD17R,1.000000X1.800000*%
%ADD18C,0.850000*%
%ADD19R,1.750000X1.800000*%
%ADD20R,2.500000X1.300000*%
%ADD21R,1.600000X0.550000*%
%ADD22R,0.550000X1.600000*%
%ADD23C,0.950000*%
%ADD24C,1.150000*%
%ADD25R,1.175000X1.900000*%
%ADD26R,2.375000X1.900000*%
%ADD27R,1.475000X2.100000*%
%ADD28R,0.450000X1.380000*%
G04 APERTURE END LIST*
D10*
X128725000Y-49465000D03*
D11*
X130250000Y-50940000D03*
D10*
X128725000Y-52415000D03*
D12*
X133100000Y-99900000D03*
X134050000Y-97900000D03*
X132150000Y-97900000D03*
D13*
X149250000Y-97773800D03*
D14*
G36*
X149650000Y-97273800D02*
G01*
X150350000Y-98273800D01*
X148150000Y-98273800D01*
X148850000Y-97273800D01*
X149650000Y-97273800D01*
X149650000Y-97273800D01*
G37*
D15*
X149250000Y-99183500D03*
D16*
X150750000Y-96370000D03*
D17*
X149250000Y-96516500D03*
D16*
X147750000Y-96370000D03*
D18*
X149250000Y-100517000D03*
D14*
G36*
X148750000Y-100942000D02*
G01*
X148150000Y-100092000D01*
X150350000Y-100092000D01*
X149750000Y-100942000D01*
X148750000Y-100942000D01*
X148750000Y-100942000D01*
G37*
D19*
X126500000Y-77650000D03*
X123250000Y-77650000D03*
D20*
X133080000Y-36940000D03*
X133080000Y-38940000D03*
X133080000Y-40940000D03*
X133080000Y-42940000D03*
X133080000Y-44940000D03*
X133080000Y-46940000D03*
X133080000Y-48940000D03*
X133080000Y-50940000D03*
X149080000Y-50940000D03*
X149080000Y-48940000D03*
X149080000Y-46940000D03*
X149080000Y-44940000D03*
X149080000Y-42940000D03*
X149080000Y-40940000D03*
X149080000Y-38940000D03*
X149080000Y-36940000D03*
D21*
X123025000Y-81650000D03*
X123025000Y-82450000D03*
X123025000Y-83250000D03*
X123025000Y-84050000D03*
X123025000Y-84850000D03*
X123025000Y-85650000D03*
X123025000Y-86450000D03*
X123025000Y-87250000D03*
D22*
X124475000Y-88700000D03*
X125275000Y-88700000D03*
X126075000Y-88700000D03*
X126875000Y-88700000D03*
X127675000Y-88700000D03*
X128475000Y-88700000D03*
X129275000Y-88700000D03*
X130075000Y-88700000D03*
D21*
X131525000Y-87250000D03*
X131525000Y-86450000D03*
X131525000Y-85650000D03*
X131525000Y-84850000D03*
X131525000Y-84050000D03*
X131525000Y-83250000D03*
X131525000Y-82450000D03*
X131525000Y-81650000D03*
D22*
X130075000Y-80200000D03*
X129275000Y-80200000D03*
X128475000Y-80200000D03*
X127675000Y-80200000D03*
X126875000Y-80200000D03*
X126075000Y-80200000D03*
X125275000Y-80200000D03*
X124475000Y-80200000D03*
D14*
G36*
X134353387Y-95893079D02*
G01*
X134430438Y-95944562D01*
X134481921Y-96021613D01*
X134500000Y-96112500D01*
X134500000Y-96587500D01*
X134481921Y-96678387D01*
X134430438Y-96755438D01*
X134353387Y-96806921D01*
X134262500Y-96825000D01*
X133687500Y-96825000D01*
X133596613Y-96806921D01*
X133519562Y-96755438D01*
X133468079Y-96678387D01*
X133450000Y-96587500D01*
X133450000Y-96112500D01*
X133468079Y-96021613D01*
X133519562Y-95944562D01*
X133596613Y-95893079D01*
X133687500Y-95875000D01*
X134262500Y-95875000D01*
X134353387Y-95893079D01*
X134353387Y-95893079D01*
G37*
D23*
X133975000Y-96350000D03*
D14*
G36*
X132603387Y-95893079D02*
G01*
X132680438Y-95944562D01*
X132731921Y-96021613D01*
X132750000Y-96112500D01*
X132750000Y-96587500D01*
X132731921Y-96678387D01*
X132680438Y-96755438D01*
X132603387Y-96806921D01*
X132512500Y-96825000D01*
X131937500Y-96825000D01*
X131846613Y-96806921D01*
X131769562Y-96755438D01*
X131718079Y-96678387D01*
X131700000Y-96587500D01*
X131700000Y-96112500D01*
X131718079Y-96021613D01*
X131769562Y-95944562D01*
X131846613Y-95893079D01*
X131937500Y-95875000D01*
X132512500Y-95875000D01*
X132603387Y-95893079D01*
X132603387Y-95893079D01*
G37*
D23*
X132225000Y-96350000D03*
D14*
G36*
X122028387Y-100368079D02*
G01*
X122105438Y-100419562D01*
X122156921Y-100496613D01*
X122175000Y-100587500D01*
X122175000Y-101162500D01*
X122156921Y-101253387D01*
X122105438Y-101330438D01*
X122028387Y-101381921D01*
X121937500Y-101400000D01*
X121462500Y-101400000D01*
X121371613Y-101381921D01*
X121294562Y-101330438D01*
X121243079Y-101253387D01*
X121225000Y-101162500D01*
X121225000Y-100587500D01*
X121243079Y-100496613D01*
X121294562Y-100419562D01*
X121371613Y-100368079D01*
X121462500Y-100350000D01*
X121937500Y-100350000D01*
X122028387Y-100368079D01*
X122028387Y-100368079D01*
G37*
D23*
X121700000Y-100875000D03*
D14*
G36*
X122028387Y-98618079D02*
G01*
X122105438Y-98669562D01*
X122156921Y-98746613D01*
X122175000Y-98837500D01*
X122175000Y-99412500D01*
X122156921Y-99503387D01*
X122105438Y-99580438D01*
X122028387Y-99631921D01*
X121937500Y-99650000D01*
X121462500Y-99650000D01*
X121371613Y-99631921D01*
X121294562Y-99580438D01*
X121243079Y-99503387D01*
X121225000Y-99412500D01*
X121225000Y-98837500D01*
X121243079Y-98746613D01*
X121294562Y-98669562D01*
X121371613Y-98618079D01*
X121462500Y-98600000D01*
X121937500Y-98600000D01*
X122028387Y-98618079D01*
X122028387Y-98618079D01*
G37*
D23*
X121700000Y-99125000D03*
D14*
G36*
X123053387Y-111943079D02*
G01*
X123130438Y-111994562D01*
X123181921Y-112071613D01*
X123200000Y-112162500D01*
X123200000Y-112637500D01*
X123181921Y-112728387D01*
X123130438Y-112805438D01*
X123053387Y-112856921D01*
X122962500Y-112875000D01*
X122387500Y-112875000D01*
X122296613Y-112856921D01*
X122219562Y-112805438D01*
X122168079Y-112728387D01*
X122150000Y-112637500D01*
X122150000Y-112162500D01*
X122168079Y-112071613D01*
X122219562Y-111994562D01*
X122296613Y-111943079D01*
X122387500Y-111925000D01*
X122962500Y-111925000D01*
X123053387Y-111943079D01*
X123053387Y-111943079D01*
G37*
D23*
X122675000Y-112400000D03*
D14*
G36*
X121303387Y-111943079D02*
G01*
X121380438Y-111994562D01*
X121431921Y-112071613D01*
X121450000Y-112162500D01*
X121450000Y-112637500D01*
X121431921Y-112728387D01*
X121380438Y-112805438D01*
X121303387Y-112856921D01*
X121212500Y-112875000D01*
X120637500Y-112875000D01*
X120546613Y-112856921D01*
X120469562Y-112805438D01*
X120418079Y-112728387D01*
X120400000Y-112637500D01*
X120400000Y-112162500D01*
X120418079Y-112071613D01*
X120469562Y-111994562D01*
X120546613Y-111943079D01*
X120637500Y-111925000D01*
X121212500Y-111925000D01*
X121303387Y-111943079D01*
X121303387Y-111943079D01*
G37*
D23*
X120925000Y-112400000D03*
D14*
G36*
X137345671Y-82469030D02*
G01*
X137426777Y-82523223D01*
X137480970Y-82604329D01*
X137500000Y-82699999D01*
X137500000Y-83350001D01*
X137480970Y-83445671D01*
X137426777Y-83526777D01*
X137345671Y-83580970D01*
X137250001Y-83600000D01*
X136349999Y-83600000D01*
X136254329Y-83580970D01*
X136173223Y-83526777D01*
X136119030Y-83445671D01*
X136100000Y-83350001D01*
X136100000Y-82699999D01*
X136119030Y-82604329D01*
X136173223Y-82523223D01*
X136254329Y-82469030D01*
X136349999Y-82450000D01*
X137250001Y-82450000D01*
X137345671Y-82469030D01*
X137345671Y-82469030D01*
G37*
D24*
X136800000Y-83025000D03*
D14*
G36*
X137345671Y-80419030D02*
G01*
X137426777Y-80473223D01*
X137480970Y-80554329D01*
X137500000Y-80649999D01*
X137500000Y-81300001D01*
X137480970Y-81395671D01*
X137426777Y-81476777D01*
X137345671Y-81530970D01*
X137250001Y-81550000D01*
X136349999Y-81550000D01*
X136254329Y-81530970D01*
X136173223Y-81476777D01*
X136119030Y-81395671D01*
X136100000Y-81300001D01*
X136100000Y-80649999D01*
X136119030Y-80554329D01*
X136173223Y-80473223D01*
X136254329Y-80419030D01*
X136349999Y-80400000D01*
X137250001Y-80400000D01*
X137345671Y-80419030D01*
X137345671Y-80419030D01*
G37*
D24*
X136800000Y-80975000D03*
D25*
X123710000Y-119850000D03*
X125390000Y-119850000D03*
D26*
X121640000Y-119850000D03*
X127460000Y-119850000D03*
D27*
X122087500Y-117550000D03*
X127012500Y-117550000D03*
D28*
X123250000Y-117190000D03*
X123900000Y-117190000D03*
X124550000Y-117190000D03*
X125200000Y-117190000D03*
X125850000Y-117190000D03*
D14*
G36*
X130695671Y-93719030D02*
G01*
X130776777Y-93773223D01*
X130830970Y-93854329D01*
X130850000Y-93949999D01*
X130850000Y-94600001D01*
X130830970Y-94695671D01*
X130776777Y-94776777D01*
X130695671Y-94830970D01*
X130600001Y-94850000D01*
X129699999Y-94850000D01*
X129604329Y-94830970D01*
X129523223Y-94776777D01*
X129469030Y-94695671D01*
X129450000Y-94600001D01*
X129450000Y-93949999D01*
X129469030Y-93854329D01*
X129523223Y-93773223D01*
X129604329Y-93719030D01*
X129699999Y-93700000D01*
X130600001Y-93700000D01*
X130695671Y-93719030D01*
X130695671Y-93719030D01*
G37*
D24*
X130150000Y-94275000D03*
D14*
G36*
X130695671Y-95769030D02*
G01*
X130776777Y-95823223D01*
X130830970Y-95904329D01*
X130850000Y-95999999D01*
X130850000Y-96650001D01*
X130830970Y-96745671D01*
X130776777Y-96826777D01*
X130695671Y-96880970D01*
X130600001Y-96900000D01*
X129699999Y-96900000D01*
X129604329Y-96880970D01*
X129523223Y-96826777D01*
X129469030Y-96745671D01*
X129450000Y-96650001D01*
X129450000Y-95999999D01*
X129469030Y-95904329D01*
X129523223Y-95823223D01*
X129604329Y-95769030D01*
X129699999Y-95750000D01*
X130600001Y-95750000D01*
X130695671Y-95769030D01*
X130695671Y-95769030D01*
G37*
D24*
X130150000Y-96325000D03*
D14*
G36*
X151078387Y-91218079D02*
G01*
X151155438Y-91269562D01*
X151206921Y-91346613D01*
X151225000Y-91437500D01*
X151225000Y-92012500D01*
X151206921Y-92103387D01*
X151155438Y-92180438D01*
X151078387Y-92231921D01*
X150987500Y-92250000D01*
X150512500Y-92250000D01*
X150421613Y-92231921D01*
X150344562Y-92180438D01*
X150293079Y-92103387D01*
X150275000Y-92012500D01*
X150275000Y-91437500D01*
X150293079Y-91346613D01*
X150344562Y-91269562D01*
X150421613Y-91218079D01*
X150512500Y-91200000D01*
X150987500Y-91200000D01*
X151078387Y-91218079D01*
X151078387Y-91218079D01*
G37*
D23*
X150750000Y-91725000D03*
D14*
G36*
X151078387Y-92968079D02*
G01*
X151155438Y-93019562D01*
X151206921Y-93096613D01*
X151225000Y-93187500D01*
X151225000Y-93762500D01*
X151206921Y-93853387D01*
X151155438Y-93930438D01*
X151078387Y-93981921D01*
X150987500Y-94000000D01*
X150512500Y-94000000D01*
X150421613Y-93981921D01*
X150344562Y-93930438D01*
X150293079Y-93853387D01*
X150275000Y-93762500D01*
X150275000Y-93187500D01*
X150293079Y-93096613D01*
X150344562Y-93019562D01*
X150421613Y-92968079D01*
X150512500Y-92950000D01*
X150987500Y-92950000D01*
X151078387Y-92968079D01*
X151078387Y-92968079D01*
G37*
D23*
X150750000Y-93475000D03*
D14*
G36*
X147853387Y-94093079D02*
G01*
X147930438Y-94144562D01*
X147981921Y-94221613D01*
X148000000Y-94312500D01*
X148000000Y-94787500D01*
X147981921Y-94878387D01*
X147930438Y-94955438D01*
X147853387Y-95006921D01*
X147762500Y-95025000D01*
X147187500Y-95025000D01*
X147096613Y-95006921D01*
X147019562Y-94955438D01*
X146968079Y-94878387D01*
X146950000Y-94787500D01*
X146950000Y-94312500D01*
X146968079Y-94221613D01*
X147019562Y-94144562D01*
X147096613Y-94093079D01*
X147187500Y-94075000D01*
X147762500Y-94075000D01*
X147853387Y-94093079D01*
X147853387Y-94093079D01*
G37*
D23*
X147475000Y-94550000D03*
D14*
G36*
X149603387Y-94093079D02*
G01*
X149680438Y-94144562D01*
X149731921Y-94221613D01*
X149750000Y-94312500D01*
X149750000Y-94787500D01*
X149731921Y-94878387D01*
X149680438Y-94955438D01*
X149603387Y-95006921D01*
X149512500Y-95025000D01*
X148937500Y-95025000D01*
X148846613Y-95006921D01*
X148769562Y-94955438D01*
X148718079Y-94878387D01*
X148700000Y-94787500D01*
X148700000Y-94312500D01*
X148718079Y-94221613D01*
X148769562Y-94144562D01*
X148846613Y-94093079D01*
X148937500Y-94075000D01*
X149512500Y-94075000D01*
X149603387Y-94093079D01*
X149603387Y-94093079D01*
G37*
D23*
X149225000Y-94550000D03*
D14*
G36*
X126828387Y-73318079D02*
G01*
X126905438Y-73369562D01*
X126956921Y-73446613D01*
X126975000Y-73537500D01*
X126975000Y-74112500D01*
X126956921Y-74203387D01*
X126905438Y-74280438D01*
X126828387Y-74331921D01*
X126737500Y-74350000D01*
X126262500Y-74350000D01*
X126171613Y-74331921D01*
X126094562Y-74280438D01*
X126043079Y-74203387D01*
X126025000Y-74112500D01*
X126025000Y-73537500D01*
X126043079Y-73446613D01*
X126094562Y-73369562D01*
X126171613Y-73318079D01*
X126262500Y-73300000D01*
X126737500Y-73300000D01*
X126828387Y-73318079D01*
X126828387Y-73318079D01*
G37*
D23*
X126500000Y-73825000D03*
D14*
G36*
X126828387Y-75068079D02*
G01*
X126905438Y-75119562D01*
X126956921Y-75196613D01*
X126975000Y-75287500D01*
X126975000Y-75862500D01*
X126956921Y-75953387D01*
X126905438Y-76030438D01*
X126828387Y-76081921D01*
X126737500Y-76100000D01*
X126262500Y-76100000D01*
X126171613Y-76081921D01*
X126094562Y-76030438D01*
X126043079Y-75953387D01*
X126025000Y-75862500D01*
X126025000Y-75287500D01*
X126043079Y-75196613D01*
X126094562Y-75119562D01*
X126171613Y-75068079D01*
X126262500Y-75050000D01*
X126737500Y-75050000D01*
X126828387Y-75068079D01*
X126828387Y-75068079D01*
G37*
D23*
X126500000Y-75575000D03*
D14*
G36*
X123578387Y-73268079D02*
G01*
X123655438Y-73319562D01*
X123706921Y-73396613D01*
X123725000Y-73487500D01*
X123725000Y-74062500D01*
X123706921Y-74153387D01*
X123655438Y-74230438D01*
X123578387Y-74281921D01*
X123487500Y-74300000D01*
X123012500Y-74300000D01*
X122921613Y-74281921D01*
X122844562Y-74230438D01*
X122793079Y-74153387D01*
X122775000Y-74062500D01*
X122775000Y-73487500D01*
X122793079Y-73396613D01*
X122844562Y-73319562D01*
X122921613Y-73268079D01*
X123012500Y-73250000D01*
X123487500Y-73250000D01*
X123578387Y-73268079D01*
X123578387Y-73268079D01*
G37*
D23*
X123250000Y-73775000D03*
D14*
G36*
X123578387Y-75018079D02*
G01*
X123655438Y-75069562D01*
X123706921Y-75146613D01*
X123725000Y-75237500D01*
X123725000Y-75812500D01*
X123706921Y-75903387D01*
X123655438Y-75980438D01*
X123578387Y-76031921D01*
X123487500Y-76050000D01*
X123012500Y-76050000D01*
X122921613Y-76031921D01*
X122844562Y-75980438D01*
X122793079Y-75903387D01*
X122775000Y-75812500D01*
X122775000Y-75237500D01*
X122793079Y-75146613D01*
X122844562Y-75069562D01*
X122921613Y-75018079D01*
X123012500Y-75000000D01*
X123487500Y-75000000D01*
X123578387Y-75018079D01*
X123578387Y-75018079D01*
G37*
D23*
X123250000Y-75525000D03*
D14*
G36*
X135378387Y-82368079D02*
G01*
X135455438Y-82419562D01*
X135506921Y-82496613D01*
X135525000Y-82587500D01*
X135525000Y-83162500D01*
X135506921Y-83253387D01*
X135455438Y-83330438D01*
X135378387Y-83381921D01*
X135287500Y-83400000D01*
X134812500Y-83400000D01*
X134721613Y-83381921D01*
X134644562Y-83330438D01*
X134593079Y-83253387D01*
X134575000Y-83162500D01*
X134575000Y-82587500D01*
X134593079Y-82496613D01*
X134644562Y-82419562D01*
X134721613Y-82368079D01*
X134812500Y-82350000D01*
X135287500Y-82350000D01*
X135378387Y-82368079D01*
X135378387Y-82368079D01*
G37*
D23*
X135050000Y-82875000D03*
D14*
G36*
X135378387Y-80618079D02*
G01*
X135455438Y-80669562D01*
X135506921Y-80746613D01*
X135525000Y-80837500D01*
X135525000Y-81412500D01*
X135506921Y-81503387D01*
X135455438Y-81580438D01*
X135378387Y-81631921D01*
X135287500Y-81650000D01*
X134812500Y-81650000D01*
X134721613Y-81631921D01*
X134644562Y-81580438D01*
X134593079Y-81503387D01*
X134575000Y-81412500D01*
X134575000Y-80837500D01*
X134593079Y-80746613D01*
X134644562Y-80669562D01*
X134721613Y-80618079D01*
X134812500Y-80600000D01*
X135287500Y-80600000D01*
X135378387Y-80618079D01*
X135378387Y-80618079D01*
G37*
D23*
X135050000Y-81125000D03*
D14*
G36*
X133828387Y-82368079D02*
G01*
X133905438Y-82419562D01*
X133956921Y-82496613D01*
X133975000Y-82587500D01*
X133975000Y-83162500D01*
X133956921Y-83253387D01*
X133905438Y-83330438D01*
X133828387Y-83381921D01*
X133737500Y-83400000D01*
X133262500Y-83400000D01*
X133171613Y-83381921D01*
X133094562Y-83330438D01*
X133043079Y-83253387D01*
X133025000Y-83162500D01*
X133025000Y-82587500D01*
X133043079Y-82496613D01*
X133094562Y-82419562D01*
X133171613Y-82368079D01*
X133262500Y-82350000D01*
X133737500Y-82350000D01*
X133828387Y-82368079D01*
X133828387Y-82368079D01*
G37*
D23*
X133500000Y-82875000D03*
D14*
G36*
X133828387Y-80618079D02*
G01*
X133905438Y-80669562D01*
X133956921Y-80746613D01*
X133975000Y-80837500D01*
X133975000Y-81412500D01*
X133956921Y-81503387D01*
X133905438Y-81580438D01*
X133828387Y-81631921D01*
X133737500Y-81650000D01*
X133262500Y-81650000D01*
X133171613Y-81631921D01*
X133094562Y-81580438D01*
X133043079Y-81503387D01*
X133025000Y-81412500D01*
X133025000Y-80837500D01*
X133043079Y-80746613D01*
X133094562Y-80669562D01*
X133171613Y-80618079D01*
X133262500Y-80600000D01*
X133737500Y-80600000D01*
X133828387Y-80618079D01*
X133828387Y-80618079D01*
G37*
D23*
X133500000Y-81125000D03*
D14*
G36*
X123053387Y-113493079D02*
G01*
X123130438Y-113544562D01*
X123181921Y-113621613D01*
X123200000Y-113712500D01*
X123200000Y-114187500D01*
X123181921Y-114278387D01*
X123130438Y-114355438D01*
X123053387Y-114406921D01*
X122962500Y-114425000D01*
X122387500Y-114425000D01*
X122296613Y-114406921D01*
X122219562Y-114355438D01*
X122168079Y-114278387D01*
X122150000Y-114187500D01*
X122150000Y-113712500D01*
X122168079Y-113621613D01*
X122219562Y-113544562D01*
X122296613Y-113493079D01*
X122387500Y-113475000D01*
X122962500Y-113475000D01*
X123053387Y-113493079D01*
X123053387Y-113493079D01*
G37*
D23*
X122675000Y-113950000D03*
D14*
G36*
X121303387Y-113493079D02*
G01*
X121380438Y-113544562D01*
X121431921Y-113621613D01*
X121450000Y-113712500D01*
X121450000Y-114187500D01*
X121431921Y-114278387D01*
X121380438Y-114355438D01*
X121303387Y-114406921D01*
X121212500Y-114425000D01*
X120637500Y-114425000D01*
X120546613Y-114406921D01*
X120469562Y-114355438D01*
X120418079Y-114278387D01*
X120400000Y-114187500D01*
X120400000Y-113712500D01*
X120418079Y-113621613D01*
X120469562Y-113544562D01*
X120546613Y-113493079D01*
X120637500Y-113475000D01*
X121212500Y-113475000D01*
X121303387Y-113493079D01*
X121303387Y-113493079D01*
G37*
D23*
X120925000Y-113950000D03*
D14*
G36*
X120678387Y-83418079D02*
G01*
X120755438Y-83469562D01*
X120806921Y-83546613D01*
X120825000Y-83637500D01*
X120825000Y-84212500D01*
X120806921Y-84303387D01*
X120755438Y-84380438D01*
X120678387Y-84431921D01*
X120587500Y-84450000D01*
X120112500Y-84450000D01*
X120021613Y-84431921D01*
X119944562Y-84380438D01*
X119893079Y-84303387D01*
X119875000Y-84212500D01*
X119875000Y-83637500D01*
X119893079Y-83546613D01*
X119944562Y-83469562D01*
X120021613Y-83418079D01*
X120112500Y-83400000D01*
X120587500Y-83400000D01*
X120678387Y-83418079D01*
X120678387Y-83418079D01*
G37*
D23*
X120350000Y-83925000D03*
D14*
G36*
X120678387Y-81668079D02*
G01*
X120755438Y-81719562D01*
X120806921Y-81796613D01*
X120825000Y-81887500D01*
X120825000Y-82462500D01*
X120806921Y-82553387D01*
X120755438Y-82630438D01*
X120678387Y-82681921D01*
X120587500Y-82700000D01*
X120112500Y-82700000D01*
X120021613Y-82681921D01*
X119944562Y-82630438D01*
X119893079Y-82553387D01*
X119875000Y-82462500D01*
X119875000Y-81887500D01*
X119893079Y-81796613D01*
X119944562Y-81719562D01*
X120021613Y-81668079D01*
X120112500Y-81650000D01*
X120587500Y-81650000D01*
X120678387Y-81668079D01*
X120678387Y-81668079D01*
G37*
D23*
X120350000Y-82175000D03*
D14*
G36*
X130828387Y-46318079D02*
G01*
X130905438Y-46369562D01*
X130956921Y-46446613D01*
X130975000Y-46537500D01*
X130975000Y-47112500D01*
X130956921Y-47203387D01*
X130905438Y-47280438D01*
X130828387Y-47331921D01*
X130737500Y-47350000D01*
X130262500Y-47350000D01*
X130171613Y-47331921D01*
X130094562Y-47280438D01*
X130043079Y-47203387D01*
X130025000Y-47112500D01*
X130025000Y-46537500D01*
X130043079Y-46446613D01*
X130094562Y-46369562D01*
X130171613Y-46318079D01*
X130262500Y-46300000D01*
X130737500Y-46300000D01*
X130828387Y-46318079D01*
X130828387Y-46318079D01*
G37*
D23*
X130500000Y-46825000D03*
D14*
G36*
X130828387Y-44568079D02*
G01*
X130905438Y-44619562D01*
X130956921Y-44696613D01*
X130975000Y-44787500D01*
X130975000Y-45362500D01*
X130956921Y-45453387D01*
X130905438Y-45530438D01*
X130828387Y-45581921D01*
X130737500Y-45600000D01*
X130262500Y-45600000D01*
X130171613Y-45581921D01*
X130094562Y-45530438D01*
X130043079Y-45453387D01*
X130025000Y-45362500D01*
X130025000Y-44787500D01*
X130043079Y-44696613D01*
X130094562Y-44619562D01*
X130171613Y-44568079D01*
X130262500Y-44550000D01*
X130737500Y-44550000D01*
X130828387Y-44568079D01*
X130828387Y-44568079D01*
G37*
D23*
X130500000Y-45075000D03*
D14*
G36*
X129278387Y-46318079D02*
G01*
X129355438Y-46369562D01*
X129406921Y-46446613D01*
X129425000Y-46537500D01*
X129425000Y-47112500D01*
X129406921Y-47203387D01*
X129355438Y-47280438D01*
X129278387Y-47331921D01*
X129187500Y-47350000D01*
X128712500Y-47350000D01*
X128621613Y-47331921D01*
X128544562Y-47280438D01*
X128493079Y-47203387D01*
X128475000Y-47112500D01*
X128475000Y-46537500D01*
X128493079Y-46446613D01*
X128544562Y-46369562D01*
X128621613Y-46318079D01*
X128712500Y-46300000D01*
X129187500Y-46300000D01*
X129278387Y-46318079D01*
X129278387Y-46318079D01*
G37*
D23*
X128950000Y-46825000D03*
D14*
G36*
X129278387Y-44568079D02*
G01*
X129355438Y-44619562D01*
X129406921Y-44696613D01*
X129425000Y-44787500D01*
X129425000Y-45362500D01*
X129406921Y-45453387D01*
X129355438Y-45530438D01*
X129278387Y-45581921D01*
X129187500Y-45600000D01*
X128712500Y-45600000D01*
X128621613Y-45581921D01*
X128544562Y-45530438D01*
X128493079Y-45453387D01*
X128475000Y-45362500D01*
X128475000Y-44787500D01*
X128493079Y-44696613D01*
X128544562Y-44619562D01*
X128621613Y-44568079D01*
X128712500Y-44550000D01*
X129187500Y-44550000D01*
X129278387Y-44568079D01*
X129278387Y-44568079D01*
G37*
D23*
X128950000Y-45075000D03*
M02*
