G04 #@! TF.GenerationSoftware,KiCad,Pcbnew,5.99.0-unknown-c7daca1~86~ubuntu18.04.1*
G04 #@! TF.CreationDate,2020-03-26T17:53:50-03:00*
G04 #@! TF.ProjectId,FOD,464f442e-6b69-4636-9164-5f7063625858,rev?*
G04 #@! TF.SameCoordinates,Original*
G04 #@! TF.FileFunction,Soldermask,Top*
G04 #@! TF.FilePolarity,Negative*
%FSLAX46Y46*%
G04 Gerber Fmt 4.6, Leading zero omitted, Abs format (unit mm)*
G04 Created by KiCad (PCBNEW 5.99.0-unknown-c7daca1~86~ubuntu18.04.1) date 2020-03-26 17:53:50*
%MOMM*%
%LPD*%
G01*
G04 APERTURE LIST*
%ADD10R,1.850000X1.900000*%
%ADD11C,5.900000*%
%ADD12C,5.100000*%
%ADD13C,1.800000*%
%ADD14R,1.800000X1.800000*%
%ADD15R,1.400000X2.600000*%
%ADD16R,1.400000X1.000000*%
%ADD17R,1.400000X0.350000*%
%ADD18R,0.350000X1.400000*%
%ADD19R,1.000000X0.900000*%
%ADD20R,1.150000X2.300000*%
%ADD21R,1.100000X1.150000*%
%ADD22O,0.900000X1.400000*%
%ADD23R,1.100000X2.000000*%
%ADD24R,1.900000X2.000000*%
%ADD25R,1.750000X1.400000*%
%ADD26R,1.525000X1.650000*%
%ADD27R,0.550000X1.480000*%
G04 APERTURE END LIST*
D10*
X141300000Y-84800000D03*
X144550000Y-84800000D03*
D11*
X171600000Y-97900000D03*
X178100000Y-97900000D03*
X111000000Y-97900000D03*
X104500000Y-97900000D03*
D12*
X179200000Y-83500000D03*
X179200000Y-105500000D03*
X103300000Y-105500000D03*
X103300000Y-83500000D03*
D13*
X110290000Y-88100000D03*
X107750000Y-88100000D03*
D14*
X105210000Y-88100000D03*
D13*
X177390000Y-88100000D03*
X174850000Y-88100000D03*
D14*
X172310000Y-88100000D03*
D15*
X116450000Y-86500000D03*
X118450000Y-86500000D03*
X120450000Y-86500000D03*
X122450000Y-86500000D03*
X124450000Y-86500000D03*
X126450000Y-86500000D03*
X128450000Y-86500000D03*
X130450000Y-86500000D03*
X130450000Y-102500000D03*
X128450000Y-102500000D03*
X126450000Y-102500000D03*
X124450000Y-102500000D03*
X122450000Y-102500000D03*
X120450000Y-102500000D03*
X118450000Y-102500000D03*
X116450000Y-102500000D03*
G36*
X138589092Y-99002326D02*
G01*
X138600000Y-99033500D01*
X138600000Y-100766500D01*
X138581174Y-100805592D01*
X138550000Y-100816500D01*
X135425000Y-100816500D01*
X135385908Y-100797674D01*
X135375000Y-100766500D01*
X135375000Y-100400000D01*
X133950000Y-100400000D01*
X133910908Y-100381174D01*
X133900000Y-100350000D01*
X133900000Y-99450000D01*
X133918826Y-99410908D01*
X133950000Y-99400000D01*
X135375000Y-99400000D01*
X135375000Y-99033500D01*
X135393826Y-98994408D01*
X135425000Y-98983500D01*
X138550000Y-98983500D01*
X138589092Y-99002326D01*
G37*
D16*
X134600000Y-101400000D03*
X134600000Y-98400000D03*
D17*
X144775000Y-89250000D03*
X144775000Y-89750000D03*
X144775000Y-90250000D03*
X144775000Y-90750000D03*
X144775000Y-91250000D03*
X144775000Y-91750000D03*
X144775000Y-92250000D03*
X144775000Y-92750000D03*
X144775000Y-93250000D03*
X144775000Y-93750000D03*
X144775000Y-94250000D03*
X144775000Y-94750000D03*
D18*
X143175000Y-96350000D03*
X142675000Y-96350000D03*
X142175000Y-96350000D03*
X141675000Y-96350000D03*
X141175000Y-96350000D03*
X140675000Y-96350000D03*
X140175000Y-96350000D03*
X139675000Y-96350000D03*
X139175000Y-96350000D03*
X138675000Y-96350000D03*
X138175000Y-96350000D03*
X137675000Y-96350000D03*
D17*
X136075000Y-94750000D03*
X136075000Y-94250000D03*
X136075000Y-93750000D03*
X136075000Y-93250000D03*
X136075000Y-92750000D03*
X136075000Y-92250000D03*
X136075000Y-91750000D03*
X136075000Y-91250000D03*
X136075000Y-90750000D03*
X136075000Y-90250000D03*
X136075000Y-89750000D03*
X136075000Y-89250000D03*
D18*
X137675000Y-87650000D03*
X138175000Y-87650000D03*
X138675000Y-87650000D03*
X139175000Y-87650000D03*
X139675000Y-87650000D03*
X140175000Y-87650000D03*
X140675000Y-87650000D03*
X141175000Y-87650000D03*
X141675000Y-87650000D03*
X142175000Y-87650000D03*
X142675000Y-87650000D03*
X143175000Y-87650000D03*
D13*
X151800000Y-92000000D03*
X151800000Y-98500000D03*
X156300000Y-92000000D03*
X156300000Y-98500000D03*
G36*
G01*
X108750000Y-91562500D02*
X108750000Y-91037500D01*
G75*
G02*
X109012500Y-90775000I262500J0D01*
G01*
X109637500Y-90775000D01*
G75*
G02*
X109900000Y-91037500I0J-262500D01*
G01*
X109900000Y-91562500D01*
G75*
G02*
X109637500Y-91825000I-262500J0D01*
G01*
X109012500Y-91825000D01*
G75*
G02*
X108750000Y-91562500I0J262500D01*
G01*
G37*
G36*
G01*
X107000000Y-91562500D02*
X107000000Y-91037500D01*
G75*
G02*
X107262500Y-90775000I262500J0D01*
G01*
X107887500Y-90775000D01*
G75*
G02*
X108150000Y-91037500I0J-262500D01*
G01*
X108150000Y-91562500D01*
G75*
G02*
X107887500Y-91825000I-262500J0D01*
G01*
X107262500Y-91825000D01*
G75*
G02*
X107000000Y-91562500I0J262500D01*
G01*
G37*
G36*
G01*
X174200000Y-90687500D02*
X174200000Y-91212500D01*
G75*
G02*
X173937500Y-91475000I-262500J0D01*
G01*
X173312500Y-91475000D01*
G75*
G02*
X173050000Y-91212500I0J262500D01*
G01*
X173050000Y-90687500D01*
G75*
G02*
X173312500Y-90425000I262500J0D01*
G01*
X173937500Y-90425000D01*
G75*
G02*
X174200000Y-90687500I0J-262500D01*
G01*
G37*
G36*
G01*
X175950000Y-90687500D02*
X175950000Y-91212500D01*
G75*
G02*
X175687500Y-91475000I-262500J0D01*
G01*
X175062500Y-91475000D01*
G75*
G02*
X174800000Y-91212500I0J262500D01*
G01*
X174800000Y-90687500D01*
G75*
G02*
X175062500Y-90425000I262500J0D01*
G01*
X175687500Y-90425000D01*
G75*
G02*
X175950000Y-90687500I0J-262500D01*
G01*
G37*
G36*
G01*
X121712500Y-105700000D02*
X121187500Y-105700000D01*
G75*
G02*
X120925000Y-105437500I0J262500D01*
G01*
X120925000Y-104812500D01*
G75*
G02*
X121187500Y-104550000I262500J0D01*
G01*
X121712500Y-104550000D01*
G75*
G02*
X121975000Y-104812500I0J-262500D01*
G01*
X121975000Y-105437500D01*
G75*
G02*
X121712500Y-105700000I-262500J0D01*
G01*
G37*
G36*
G01*
X121712500Y-107450000D02*
X121187500Y-107450000D01*
G75*
G02*
X120925000Y-107187500I0J262500D01*
G01*
X120925000Y-106562500D01*
G75*
G02*
X121187500Y-106300000I262500J0D01*
G01*
X121712500Y-106300000D01*
G75*
G02*
X121975000Y-106562500I0J-262500D01*
G01*
X121975000Y-107187500D01*
G75*
G02*
X121712500Y-107450000I-262500J0D01*
G01*
G37*
G36*
G01*
X146237500Y-96350000D02*
X146762500Y-96350000D01*
G75*
G02*
X147025000Y-96612500I0J-262500D01*
G01*
X147025000Y-97237500D01*
G75*
G02*
X146762500Y-97500000I-262500J0D01*
G01*
X146237500Y-97500000D01*
G75*
G02*
X145975000Y-97237500I0J262500D01*
G01*
X145975000Y-96612500D01*
G75*
G02*
X146237500Y-96350000I262500J0D01*
G01*
G37*
G36*
G01*
X146237500Y-94600000D02*
X146762500Y-94600000D01*
G75*
G02*
X147025000Y-94862500I0J-262500D01*
G01*
X147025000Y-95487500D01*
G75*
G02*
X146762500Y-95750000I-262500J0D01*
G01*
X146237500Y-95750000D01*
G75*
G02*
X145975000Y-95487500I0J262500D01*
G01*
X145975000Y-94862500D01*
G75*
G02*
X146237500Y-94600000I262500J0D01*
G01*
G37*
G36*
G01*
X146800000Y-101037500D02*
X146800000Y-101562500D01*
G75*
G02*
X146537500Y-101825000I-262500J0D01*
G01*
X145912500Y-101825000D01*
G75*
G02*
X145650000Y-101562500I0J262500D01*
G01*
X145650000Y-101037500D01*
G75*
G02*
X145912500Y-100775000I262500J0D01*
G01*
X146537500Y-100775000D01*
G75*
G02*
X146800000Y-101037500I0J-262500D01*
G01*
G37*
G36*
G01*
X148550000Y-101037500D02*
X148550000Y-101562500D01*
G75*
G02*
X148287500Y-101825000I-262500J0D01*
G01*
X147662500Y-101825000D01*
G75*
G02*
X147400000Y-101562500I0J262500D01*
G01*
X147400000Y-101037500D01*
G75*
G02*
X147662500Y-100775000I262500J0D01*
G01*
X148287500Y-100775000D01*
G75*
G02*
X148550000Y-101037500I0J-262500D01*
G01*
G37*
G36*
G01*
X152400000Y-100537500D02*
X152400000Y-101062500D01*
G75*
G02*
X152137500Y-101325000I-262500J0D01*
G01*
X151512500Y-101325000D01*
G75*
G02*
X151250000Y-101062500I0J262500D01*
G01*
X151250000Y-100537500D01*
G75*
G02*
X151512500Y-100275000I262500J0D01*
G01*
X152137500Y-100275000D01*
G75*
G02*
X152400000Y-100537500I0J-262500D01*
G01*
G37*
G36*
G01*
X154150000Y-100537500D02*
X154150000Y-101062500D01*
G75*
G02*
X153887500Y-101325000I-262500J0D01*
G01*
X153262500Y-101325000D01*
G75*
G02*
X153000000Y-101062500I0J262500D01*
G01*
X153000000Y-100537500D01*
G75*
G02*
X153262500Y-100275000I262500J0D01*
G01*
X153887500Y-100275000D01*
G75*
G02*
X154150000Y-100537500I0J-262500D01*
G01*
G37*
G36*
G01*
X154900000Y-96412500D02*
X154900000Y-95887500D01*
G75*
G02*
X155162500Y-95625000I262500J0D01*
G01*
X155787500Y-95625000D01*
G75*
G02*
X156050000Y-95887500I0J-262500D01*
G01*
X156050000Y-96412500D01*
G75*
G02*
X155787500Y-96675000I-262500J0D01*
G01*
X155162500Y-96675000D01*
G75*
G02*
X154900000Y-96412500I0J262500D01*
G01*
G37*
G36*
G01*
X153150000Y-96412500D02*
X153150000Y-95887500D01*
G75*
G02*
X153412500Y-95625000I262500J0D01*
G01*
X154037500Y-95625000D01*
G75*
G02*
X154300000Y-95887500I0J-262500D01*
G01*
X154300000Y-96412500D01*
G75*
G02*
X154037500Y-96675000I-262500J0D01*
G01*
X153412500Y-96675000D01*
G75*
G02*
X153150000Y-96412500I0J262500D01*
G01*
G37*
D19*
X103500000Y-91650000D03*
X105500000Y-90700000D03*
X105500000Y-92600000D03*
X179000000Y-91900000D03*
X177000000Y-92850000D03*
X177000000Y-90950000D03*
D20*
X128975000Y-82125000D03*
D21*
X130450000Y-83650000D03*
D20*
X131925000Y-82125000D03*
D22*
X158500000Y-104050000D03*
X157250000Y-104050000D03*
X156000000Y-104050000D03*
X154750000Y-104050000D03*
X153500000Y-104050000D03*
G36*
G01*
X151800000Y-104525000D02*
X151800000Y-103575000D01*
G75*
G02*
X152025000Y-103350000I225000J0D01*
G01*
X152475000Y-103350000D01*
G75*
G02*
X152700000Y-103575000I0J-225000D01*
G01*
X152700000Y-104525000D01*
G75*
G02*
X152475000Y-104750000I-225000J0D01*
G01*
X152025000Y-104750000D01*
G75*
G02*
X151800000Y-104525000I0J225000D01*
G01*
G37*
X163000000Y-84950000D03*
X164250000Y-84950000D03*
X165500000Y-84950000D03*
X166750000Y-84950000D03*
X168000000Y-84950000D03*
G36*
G01*
X169700000Y-84475000D02*
X169700000Y-85425000D01*
G75*
G02*
X169475000Y-85650000I-225000J0D01*
G01*
X169025000Y-85650000D01*
G75*
G02*
X168800000Y-85425000I0J225000D01*
G01*
X168800000Y-84475000D01*
G75*
G02*
X169025000Y-84250000I225000J0D01*
G01*
X169475000Y-84250000D01*
G75*
G02*
X169700000Y-84475000I0J-225000D01*
G01*
G37*
X169250000Y-104050000D03*
X168000000Y-104050000D03*
X166750000Y-104050000D03*
X165500000Y-104050000D03*
X164250000Y-104050000D03*
G36*
G01*
X162550000Y-104525000D02*
X162550000Y-103575000D01*
G75*
G02*
X162775000Y-103350000I225000J0D01*
G01*
X163225000Y-103350000D01*
G75*
G02*
X163450000Y-103575000I0J-225000D01*
G01*
X163450000Y-104525000D01*
G75*
G02*
X163225000Y-104750000I-225000J0D01*
G01*
X162775000Y-104750000D01*
G75*
G02*
X162550000Y-104525000I0J225000D01*
G01*
G37*
D23*
X143800000Y-107550000D03*
D24*
X141100000Y-107550000D03*
D25*
X145625000Y-107550000D03*
X138875000Y-107550000D03*
D26*
X144737500Y-104975000D03*
X139762500Y-104975000D03*
D27*
X143550000Y-104890000D03*
X142900000Y-104890000D03*
X142250000Y-104890000D03*
X141600000Y-104890000D03*
X140950000Y-104890000D03*
G36*
G01*
X124650000Y-105762500D02*
X124650000Y-105237500D01*
G75*
G02*
X124912500Y-104975000I262500J0D01*
G01*
X125537500Y-104975000D01*
G75*
G02*
X125800000Y-105237500I0J-262500D01*
G01*
X125800000Y-105762500D01*
G75*
G02*
X125537500Y-106025000I-262500J0D01*
G01*
X124912500Y-106025000D01*
G75*
G02*
X124650000Y-105762500I0J262500D01*
G01*
G37*
G36*
G01*
X122900000Y-105762500D02*
X122900000Y-105237500D01*
G75*
G02*
X123162500Y-104975000I262500J0D01*
G01*
X123787500Y-104975000D01*
G75*
G02*
X124050000Y-105237500I0J-262500D01*
G01*
X124050000Y-105762500D01*
G75*
G02*
X123787500Y-106025000I-262500J0D01*
G01*
X123162500Y-106025000D01*
G75*
G02*
X122900000Y-105762500I0J262500D01*
G01*
G37*
G36*
G01*
X124650000Y-107312500D02*
X124650000Y-106787500D01*
G75*
G02*
X124912500Y-106525000I262500J0D01*
G01*
X125537500Y-106525000D01*
G75*
G02*
X125800000Y-106787500I0J-262500D01*
G01*
X125800000Y-107312500D01*
G75*
G02*
X125537500Y-107575000I-262500J0D01*
G01*
X124912500Y-107575000D01*
G75*
G02*
X124650000Y-107312500I0J262500D01*
G01*
G37*
G36*
G01*
X122900000Y-107312500D02*
X122900000Y-106787500D01*
G75*
G02*
X123162500Y-106525000I262500J0D01*
G01*
X123787500Y-106525000D01*
G75*
G02*
X124050000Y-106787500I0J-262500D01*
G01*
X124050000Y-107312500D01*
G75*
G02*
X123787500Y-107575000I-262500J0D01*
G01*
X123162500Y-107575000D01*
G75*
G02*
X122900000Y-107312500I0J262500D01*
G01*
G37*
G36*
G01*
X133500000Y-102987500D02*
X133500000Y-103512500D01*
G75*
G02*
X133237500Y-103775000I-262500J0D01*
G01*
X132612500Y-103775000D01*
G75*
G02*
X132350000Y-103512500I0J262500D01*
G01*
X132350000Y-102987500D01*
G75*
G02*
X132612500Y-102725000I262500J0D01*
G01*
X133237500Y-102725000D01*
G75*
G02*
X133500000Y-102987500I0J-262500D01*
G01*
G37*
G36*
G01*
X135250000Y-102987500D02*
X135250000Y-103512500D01*
G75*
G02*
X134987500Y-103775000I-262500J0D01*
G01*
X134362500Y-103775000D01*
G75*
G02*
X134100000Y-103512500I0J262500D01*
G01*
X134100000Y-102987500D01*
G75*
G02*
X134362500Y-102725000I262500J0D01*
G01*
X134987500Y-102725000D01*
G75*
G02*
X135250000Y-102987500I0J-262500D01*
G01*
G37*
G36*
G01*
X133162500Y-98750000D02*
X132637500Y-98750000D01*
G75*
G02*
X132375000Y-98487500I0J262500D01*
G01*
X132375000Y-97862500D01*
G75*
G02*
X132637500Y-97600000I262500J0D01*
G01*
X133162500Y-97600000D01*
G75*
G02*
X133425000Y-97862500I0J-262500D01*
G01*
X133425000Y-98487500D01*
G75*
G02*
X133162500Y-98750000I-262500J0D01*
G01*
G37*
G36*
G01*
X133162500Y-100500000D02*
X132637500Y-100500000D01*
G75*
G02*
X132375000Y-100237500I0J262500D01*
G01*
X132375000Y-99612500D01*
G75*
G02*
X132637500Y-99350000I262500J0D01*
G01*
X133162500Y-99350000D01*
G75*
G02*
X133425000Y-99612500I0J-262500D01*
G01*
X133425000Y-100237500D01*
G75*
G02*
X133162500Y-100500000I-262500J0D01*
G01*
G37*
G36*
G01*
X141562500Y-81550000D02*
X141037500Y-81550000D01*
G75*
G02*
X140775000Y-81287500I0J262500D01*
G01*
X140775000Y-80662500D01*
G75*
G02*
X141037500Y-80400000I262500J0D01*
G01*
X141562500Y-80400000D01*
G75*
G02*
X141825000Y-80662500I0J-262500D01*
G01*
X141825000Y-81287500D01*
G75*
G02*
X141562500Y-81550000I-262500J0D01*
G01*
G37*
G36*
G01*
X141562500Y-83300000D02*
X141037500Y-83300000D01*
G75*
G02*
X140775000Y-83037500I0J262500D01*
G01*
X140775000Y-82412500D01*
G75*
G02*
X141037500Y-82150000I262500J0D01*
G01*
X141562500Y-82150000D01*
G75*
G02*
X141825000Y-82412500I0J-262500D01*
G01*
X141825000Y-83037500D01*
G75*
G02*
X141562500Y-83300000I-262500J0D01*
G01*
G37*
G36*
G01*
X144812500Y-81550000D02*
X144287500Y-81550000D01*
G75*
G02*
X144025000Y-81287500I0J262500D01*
G01*
X144025000Y-80662500D01*
G75*
G02*
X144287500Y-80400000I262500J0D01*
G01*
X144812500Y-80400000D01*
G75*
G02*
X145075000Y-80662500I0J-262500D01*
G01*
X145075000Y-81287500D01*
G75*
G02*
X144812500Y-81550000I-262500J0D01*
G01*
G37*
G36*
G01*
X144812500Y-83300000D02*
X144287500Y-83300000D01*
G75*
G02*
X144025000Y-83037500I0J262500D01*
G01*
X144025000Y-82412500D01*
G75*
G02*
X144287500Y-82150000I262500J0D01*
G01*
X144812500Y-82150000D01*
G75*
G02*
X145075000Y-82412500I0J-262500D01*
G01*
X145075000Y-83037500D01*
G75*
G02*
X144812500Y-83300000I-262500J0D01*
G01*
G37*
G36*
G01*
X150900000Y-95887500D02*
X150900000Y-96412500D01*
G75*
G02*
X150637500Y-96675000I-262500J0D01*
G01*
X150012500Y-96675000D01*
G75*
G02*
X149750000Y-96412500I0J262500D01*
G01*
X149750000Y-95887500D01*
G75*
G02*
X150012500Y-95625000I262500J0D01*
G01*
X150637500Y-95625000D01*
G75*
G02*
X150900000Y-95887500I0J-262500D01*
G01*
G37*
G36*
G01*
X152650000Y-95887500D02*
X152650000Y-96412500D01*
G75*
G02*
X152387500Y-96675000I-262500J0D01*
G01*
X151762500Y-96675000D01*
G75*
G02*
X151500000Y-96412500I0J262500D01*
G01*
X151500000Y-95887500D01*
G75*
G02*
X151762500Y-95625000I262500J0D01*
G01*
X152387500Y-95625000D01*
G75*
G02*
X152650000Y-95887500I0J-262500D01*
G01*
G37*
G36*
G01*
X146800000Y-102587500D02*
X146800000Y-103112500D01*
G75*
G02*
X146537500Y-103375000I-262500J0D01*
G01*
X145912500Y-103375000D01*
G75*
G02*
X145650000Y-103112500I0J262500D01*
G01*
X145650000Y-102587500D01*
G75*
G02*
X145912500Y-102325000I262500J0D01*
G01*
X146537500Y-102325000D01*
G75*
G02*
X146800000Y-102587500I0J-262500D01*
G01*
G37*
G36*
G01*
X148550000Y-102587500D02*
X148550000Y-103112500D01*
G75*
G02*
X148287500Y-103375000I-262500J0D01*
G01*
X147662500Y-103375000D01*
G75*
G02*
X147400000Y-103112500I0J262500D01*
G01*
X147400000Y-102587500D01*
G75*
G02*
X147662500Y-102325000I262500J0D01*
G01*
X148287500Y-102325000D01*
G75*
G02*
X148550000Y-102587500I0J-262500D01*
G01*
G37*
G36*
G01*
X143750000Y-97987500D02*
X143750000Y-98512500D01*
G75*
G02*
X143487500Y-98775000I-262500J0D01*
G01*
X142862500Y-98775000D01*
G75*
G02*
X142600000Y-98512500I0J262500D01*
G01*
X142600000Y-97987500D01*
G75*
G02*
X142862500Y-97725000I262500J0D01*
G01*
X143487500Y-97725000D01*
G75*
G02*
X143750000Y-97987500I0J-262500D01*
G01*
G37*
G36*
G01*
X145500000Y-97987500D02*
X145500000Y-98512500D01*
G75*
G02*
X145237500Y-98775000I-262500J0D01*
G01*
X144612500Y-98775000D01*
G75*
G02*
X144350000Y-98512500I0J262500D01*
G01*
X144350000Y-97987500D01*
G75*
G02*
X144612500Y-97725000I262500J0D01*
G01*
X145237500Y-97725000D01*
G75*
G02*
X145500000Y-97987500I0J-262500D01*
G01*
G37*
G36*
G01*
X147737500Y-92300000D02*
X148262500Y-92300000D01*
G75*
G02*
X148525000Y-92562500I0J-262500D01*
G01*
X148525000Y-93187500D01*
G75*
G02*
X148262500Y-93450000I-262500J0D01*
G01*
X147737500Y-93450000D01*
G75*
G02*
X147475000Y-93187500I0J262500D01*
G01*
X147475000Y-92562500D01*
G75*
G02*
X147737500Y-92300000I262500J0D01*
G01*
G37*
G36*
G01*
X147737500Y-90550000D02*
X148262500Y-90550000D01*
G75*
G02*
X148525000Y-90812500I0J-262500D01*
G01*
X148525000Y-91437500D01*
G75*
G02*
X148262500Y-91700000I-262500J0D01*
G01*
X147737500Y-91700000D01*
G75*
G02*
X147475000Y-91437500I0J262500D01*
G01*
X147475000Y-90812500D01*
G75*
G02*
X147737500Y-90550000I262500J0D01*
G01*
G37*
G36*
G01*
X125800000Y-82462500D02*
X125800000Y-81937500D01*
G75*
G02*
X126062500Y-81675000I262500J0D01*
G01*
X126687500Y-81675000D01*
G75*
G02*
X126950000Y-81937500I0J-262500D01*
G01*
X126950000Y-82462500D01*
G75*
G02*
X126687500Y-82725000I-262500J0D01*
G01*
X126062500Y-82725000D01*
G75*
G02*
X125800000Y-82462500I0J262500D01*
G01*
G37*
G36*
G01*
X124050000Y-82462500D02*
X124050000Y-81937500D01*
G75*
G02*
X124312500Y-81675000I262500J0D01*
G01*
X124937500Y-81675000D01*
G75*
G02*
X125200000Y-81937500I0J-262500D01*
G01*
X125200000Y-82462500D01*
G75*
G02*
X124937500Y-82725000I-262500J0D01*
G01*
X124312500Y-82725000D01*
G75*
G02*
X124050000Y-82462500I0J262500D01*
G01*
G37*
G36*
G01*
X125800000Y-84012500D02*
X125800000Y-83487500D01*
G75*
G02*
X126062500Y-83225000I262500J0D01*
G01*
X126687500Y-83225000D01*
G75*
G02*
X126950000Y-83487500I0J-262500D01*
G01*
X126950000Y-84012500D01*
G75*
G02*
X126687500Y-84275000I-262500J0D01*
G01*
X126062500Y-84275000D01*
G75*
G02*
X125800000Y-84012500I0J262500D01*
G01*
G37*
G36*
G01*
X124050000Y-84012500D02*
X124050000Y-83487500D01*
G75*
G02*
X124312500Y-83225000I262500J0D01*
G01*
X124937500Y-83225000D01*
G75*
G02*
X125200000Y-83487500I0J-262500D01*
G01*
X125200000Y-84012500D01*
G75*
G02*
X124937500Y-84275000I-262500J0D01*
G01*
X124312500Y-84275000D01*
G75*
G02*
X124050000Y-84012500I0J262500D01*
G01*
G37*
M02*
