G04 #@! TF.GenerationSoftware,KiCad,Pcbnew,5.99.0-unknown-c7daca1~86~ubuntu18.04.1*
G04 #@! TF.CreationDate,2020-03-26T17:53:50-03:00*
G04 #@! TF.ProjectId,FOD,464f442e-6b69-4636-9164-5f7063625858,rev?*
G04 #@! TF.SameCoordinates,Original*
G04 #@! TF.FileFunction,Paste,Top*
G04 #@! TF.FilePolarity,Positive*
%FSLAX46Y46*%
G04 Gerber Fmt 4.6, Leading zero omitted, Abs format (unit mm)*
G04 Created by KiCad (PCBNEW 5.99.0-unknown-c7daca1~86~ubuntu18.04.1) date 2020-03-26 17:53:50*
%MOMM*%
%LPD*%
G01*
G04 APERTURE LIST*
%ADD10R,1.750000X1.800000*%
%ADD11R,1.300000X2.500000*%
%ADD12R,1.300000X0.900000*%
%ADD13R,1.300000X0.250000*%
%ADD14R,0.250000X1.300000*%
%ADD15R,0.900000X0.800000*%
%ADD16R,1.050000X2.200000*%
%ADD17R,1.000000X1.050000*%
%ADD18R,1.000000X1.900000*%
%ADD19R,1.800000X1.900000*%
%ADD20R,1.650000X1.300000*%
%ADD21R,1.425000X1.550000*%
%ADD22R,0.450000X1.380000*%
G04 APERTURE END LIST*
D10*
X141300000Y-84800000D03*
X144550000Y-84800000D03*
D11*
X116450000Y-86500000D03*
X118450000Y-86500000D03*
X120450000Y-86500000D03*
X122450000Y-86500000D03*
X124450000Y-86500000D03*
X126450000Y-86500000D03*
X128450000Y-86500000D03*
X130450000Y-86500000D03*
X130450000Y-102500000D03*
X128450000Y-102500000D03*
X126450000Y-102500000D03*
X124450000Y-102500000D03*
X122450000Y-102500000D03*
X120450000Y-102500000D03*
X118450000Y-102500000D03*
X116450000Y-102500000D03*
G36*
X138550000Y-100766500D02*
G01*
X135425000Y-100766500D01*
X135425000Y-100350000D01*
X133950000Y-100350000D01*
X133950000Y-99450000D01*
X135425000Y-99450000D01*
X135425000Y-99033500D01*
X138550000Y-99033500D01*
X138550000Y-100766500D01*
G37*
D12*
X134600000Y-101400000D03*
X134600000Y-98400000D03*
D13*
X144775000Y-89250000D03*
X144775000Y-89750000D03*
X144775000Y-90250000D03*
X144775000Y-90750000D03*
X144775000Y-91250000D03*
X144775000Y-91750000D03*
X144775000Y-92250000D03*
X144775000Y-92750000D03*
X144775000Y-93250000D03*
X144775000Y-93750000D03*
X144775000Y-94250000D03*
X144775000Y-94750000D03*
D14*
X143175000Y-96350000D03*
X142675000Y-96350000D03*
X142175000Y-96350000D03*
X141675000Y-96350000D03*
X141175000Y-96350000D03*
X140675000Y-96350000D03*
X140175000Y-96350000D03*
X139675000Y-96350000D03*
X139175000Y-96350000D03*
X138675000Y-96350000D03*
X138175000Y-96350000D03*
X137675000Y-96350000D03*
D13*
X136075000Y-94750000D03*
X136075000Y-94250000D03*
X136075000Y-93750000D03*
X136075000Y-93250000D03*
X136075000Y-92750000D03*
X136075000Y-92250000D03*
X136075000Y-91750000D03*
X136075000Y-91250000D03*
X136075000Y-90750000D03*
X136075000Y-90250000D03*
X136075000Y-89750000D03*
X136075000Y-89250000D03*
D14*
X137675000Y-87650000D03*
X138175000Y-87650000D03*
X138675000Y-87650000D03*
X139175000Y-87650000D03*
X139675000Y-87650000D03*
X140175000Y-87650000D03*
X140675000Y-87650000D03*
X141175000Y-87650000D03*
X141675000Y-87650000D03*
X142175000Y-87650000D03*
X142675000Y-87650000D03*
X143175000Y-87650000D03*
G36*
G01*
X108800000Y-91537500D02*
X108800000Y-91062500D01*
G75*
G02*
X109037500Y-90825000I237500J0D01*
G01*
X109612500Y-90825000D01*
G75*
G02*
X109850000Y-91062500I0J-237500D01*
G01*
X109850000Y-91537500D01*
G75*
G02*
X109612500Y-91775000I-237500J0D01*
G01*
X109037500Y-91775000D01*
G75*
G02*
X108800000Y-91537500I0J237500D01*
G01*
G37*
G36*
G01*
X107050000Y-91537500D02*
X107050000Y-91062500D01*
G75*
G02*
X107287500Y-90825000I237500J0D01*
G01*
X107862500Y-90825000D01*
G75*
G02*
X108100000Y-91062500I0J-237500D01*
G01*
X108100000Y-91537500D01*
G75*
G02*
X107862500Y-91775000I-237500J0D01*
G01*
X107287500Y-91775000D01*
G75*
G02*
X107050000Y-91537500I0J237500D01*
G01*
G37*
G36*
G01*
X174150000Y-90712500D02*
X174150000Y-91187500D01*
G75*
G02*
X173912500Y-91425000I-237500J0D01*
G01*
X173337500Y-91425000D01*
G75*
G02*
X173100000Y-91187500I0J237500D01*
G01*
X173100000Y-90712500D01*
G75*
G02*
X173337500Y-90475000I237500J0D01*
G01*
X173912500Y-90475000D01*
G75*
G02*
X174150000Y-90712500I0J-237500D01*
G01*
G37*
G36*
G01*
X175900000Y-90712500D02*
X175900000Y-91187500D01*
G75*
G02*
X175662500Y-91425000I-237500J0D01*
G01*
X175087500Y-91425000D01*
G75*
G02*
X174850000Y-91187500I0J237500D01*
G01*
X174850000Y-90712500D01*
G75*
G02*
X175087500Y-90475000I237500J0D01*
G01*
X175662500Y-90475000D01*
G75*
G02*
X175900000Y-90712500I0J-237500D01*
G01*
G37*
G36*
G01*
X121687500Y-105650000D02*
X121212500Y-105650000D01*
G75*
G02*
X120975000Y-105412500I0J237500D01*
G01*
X120975000Y-104837500D01*
G75*
G02*
X121212500Y-104600000I237500J0D01*
G01*
X121687500Y-104600000D01*
G75*
G02*
X121925000Y-104837500I0J-237500D01*
G01*
X121925000Y-105412500D01*
G75*
G02*
X121687500Y-105650000I-237500J0D01*
G01*
G37*
G36*
G01*
X121687500Y-107400000D02*
X121212500Y-107400000D01*
G75*
G02*
X120975000Y-107162500I0J237500D01*
G01*
X120975000Y-106587500D01*
G75*
G02*
X121212500Y-106350000I237500J0D01*
G01*
X121687500Y-106350000D01*
G75*
G02*
X121925000Y-106587500I0J-237500D01*
G01*
X121925000Y-107162500D01*
G75*
G02*
X121687500Y-107400000I-237500J0D01*
G01*
G37*
G36*
G01*
X146262500Y-96400000D02*
X146737500Y-96400000D01*
G75*
G02*
X146975000Y-96637500I0J-237500D01*
G01*
X146975000Y-97212500D01*
G75*
G02*
X146737500Y-97450000I-237500J0D01*
G01*
X146262500Y-97450000D01*
G75*
G02*
X146025000Y-97212500I0J237500D01*
G01*
X146025000Y-96637500D01*
G75*
G02*
X146262500Y-96400000I237500J0D01*
G01*
G37*
G36*
G01*
X146262500Y-94650000D02*
X146737500Y-94650000D01*
G75*
G02*
X146975000Y-94887500I0J-237500D01*
G01*
X146975000Y-95462500D01*
G75*
G02*
X146737500Y-95700000I-237500J0D01*
G01*
X146262500Y-95700000D01*
G75*
G02*
X146025000Y-95462500I0J237500D01*
G01*
X146025000Y-94887500D01*
G75*
G02*
X146262500Y-94650000I237500J0D01*
G01*
G37*
G36*
G01*
X146750000Y-101062500D02*
X146750000Y-101537500D01*
G75*
G02*
X146512500Y-101775000I-237500J0D01*
G01*
X145937500Y-101775000D01*
G75*
G02*
X145700000Y-101537500I0J237500D01*
G01*
X145700000Y-101062500D01*
G75*
G02*
X145937500Y-100825000I237500J0D01*
G01*
X146512500Y-100825000D01*
G75*
G02*
X146750000Y-101062500I0J-237500D01*
G01*
G37*
G36*
G01*
X148500000Y-101062500D02*
X148500000Y-101537500D01*
G75*
G02*
X148262500Y-101775000I-237500J0D01*
G01*
X147687500Y-101775000D01*
G75*
G02*
X147450000Y-101537500I0J237500D01*
G01*
X147450000Y-101062500D01*
G75*
G02*
X147687500Y-100825000I237500J0D01*
G01*
X148262500Y-100825000D01*
G75*
G02*
X148500000Y-101062500I0J-237500D01*
G01*
G37*
G36*
G01*
X152350000Y-100562500D02*
X152350000Y-101037500D01*
G75*
G02*
X152112500Y-101275000I-237500J0D01*
G01*
X151537500Y-101275000D01*
G75*
G02*
X151300000Y-101037500I0J237500D01*
G01*
X151300000Y-100562500D01*
G75*
G02*
X151537500Y-100325000I237500J0D01*
G01*
X152112500Y-100325000D01*
G75*
G02*
X152350000Y-100562500I0J-237500D01*
G01*
G37*
G36*
G01*
X154100000Y-100562500D02*
X154100000Y-101037500D01*
G75*
G02*
X153862500Y-101275000I-237500J0D01*
G01*
X153287500Y-101275000D01*
G75*
G02*
X153050000Y-101037500I0J237500D01*
G01*
X153050000Y-100562500D01*
G75*
G02*
X153287500Y-100325000I237500J0D01*
G01*
X153862500Y-100325000D01*
G75*
G02*
X154100000Y-100562500I0J-237500D01*
G01*
G37*
G36*
G01*
X154950000Y-96387500D02*
X154950000Y-95912500D01*
G75*
G02*
X155187500Y-95675000I237500J0D01*
G01*
X155762500Y-95675000D01*
G75*
G02*
X156000000Y-95912500I0J-237500D01*
G01*
X156000000Y-96387500D01*
G75*
G02*
X155762500Y-96625000I-237500J0D01*
G01*
X155187500Y-96625000D01*
G75*
G02*
X154950000Y-96387500I0J237500D01*
G01*
G37*
G36*
G01*
X153200000Y-96387500D02*
X153200000Y-95912500D01*
G75*
G02*
X153437500Y-95675000I237500J0D01*
G01*
X154012500Y-95675000D01*
G75*
G02*
X154250000Y-95912500I0J-237500D01*
G01*
X154250000Y-96387500D01*
G75*
G02*
X154012500Y-96625000I-237500J0D01*
G01*
X153437500Y-96625000D01*
G75*
G02*
X153200000Y-96387500I0J237500D01*
G01*
G37*
D15*
X103500000Y-91650000D03*
X105500000Y-90700000D03*
X105500000Y-92600000D03*
X179000000Y-91900000D03*
X177000000Y-92850000D03*
X177000000Y-90950000D03*
D16*
X128975000Y-82125000D03*
D17*
X130450000Y-83650000D03*
D16*
X131925000Y-82125000D03*
D18*
X143800000Y-107550000D03*
D19*
X141100000Y-107550000D03*
D20*
X145625000Y-107550000D03*
X138875000Y-107550000D03*
D21*
X144737500Y-104975000D03*
X139762500Y-104975000D03*
D22*
X143550000Y-104890000D03*
X142900000Y-104890000D03*
X142250000Y-104890000D03*
X141600000Y-104890000D03*
X140950000Y-104890000D03*
G36*
G01*
X124700000Y-105737500D02*
X124700000Y-105262500D01*
G75*
G02*
X124937500Y-105025000I237500J0D01*
G01*
X125512500Y-105025000D01*
G75*
G02*
X125750000Y-105262500I0J-237500D01*
G01*
X125750000Y-105737500D01*
G75*
G02*
X125512500Y-105975000I-237500J0D01*
G01*
X124937500Y-105975000D01*
G75*
G02*
X124700000Y-105737500I0J237500D01*
G01*
G37*
G36*
G01*
X122950000Y-105737500D02*
X122950000Y-105262500D01*
G75*
G02*
X123187500Y-105025000I237500J0D01*
G01*
X123762500Y-105025000D01*
G75*
G02*
X124000000Y-105262500I0J-237500D01*
G01*
X124000000Y-105737500D01*
G75*
G02*
X123762500Y-105975000I-237500J0D01*
G01*
X123187500Y-105975000D01*
G75*
G02*
X122950000Y-105737500I0J237500D01*
G01*
G37*
G36*
G01*
X124700000Y-107287500D02*
X124700000Y-106812500D01*
G75*
G02*
X124937500Y-106575000I237500J0D01*
G01*
X125512500Y-106575000D01*
G75*
G02*
X125750000Y-106812500I0J-237500D01*
G01*
X125750000Y-107287500D01*
G75*
G02*
X125512500Y-107525000I-237500J0D01*
G01*
X124937500Y-107525000D01*
G75*
G02*
X124700000Y-107287500I0J237500D01*
G01*
G37*
G36*
G01*
X122950000Y-107287500D02*
X122950000Y-106812500D01*
G75*
G02*
X123187500Y-106575000I237500J0D01*
G01*
X123762500Y-106575000D01*
G75*
G02*
X124000000Y-106812500I0J-237500D01*
G01*
X124000000Y-107287500D01*
G75*
G02*
X123762500Y-107525000I-237500J0D01*
G01*
X123187500Y-107525000D01*
G75*
G02*
X122950000Y-107287500I0J237500D01*
G01*
G37*
G36*
G01*
X133450000Y-103012500D02*
X133450000Y-103487500D01*
G75*
G02*
X133212500Y-103725000I-237500J0D01*
G01*
X132637500Y-103725000D01*
G75*
G02*
X132400000Y-103487500I0J237500D01*
G01*
X132400000Y-103012500D01*
G75*
G02*
X132637500Y-102775000I237500J0D01*
G01*
X133212500Y-102775000D01*
G75*
G02*
X133450000Y-103012500I0J-237500D01*
G01*
G37*
G36*
G01*
X135200000Y-103012500D02*
X135200000Y-103487500D01*
G75*
G02*
X134962500Y-103725000I-237500J0D01*
G01*
X134387500Y-103725000D01*
G75*
G02*
X134150000Y-103487500I0J237500D01*
G01*
X134150000Y-103012500D01*
G75*
G02*
X134387500Y-102775000I237500J0D01*
G01*
X134962500Y-102775000D01*
G75*
G02*
X135200000Y-103012500I0J-237500D01*
G01*
G37*
G36*
G01*
X133137500Y-98700000D02*
X132662500Y-98700000D01*
G75*
G02*
X132425000Y-98462500I0J237500D01*
G01*
X132425000Y-97887500D01*
G75*
G02*
X132662500Y-97650000I237500J0D01*
G01*
X133137500Y-97650000D01*
G75*
G02*
X133375000Y-97887500I0J-237500D01*
G01*
X133375000Y-98462500D01*
G75*
G02*
X133137500Y-98700000I-237500J0D01*
G01*
G37*
G36*
G01*
X133137500Y-100450000D02*
X132662500Y-100450000D01*
G75*
G02*
X132425000Y-100212500I0J237500D01*
G01*
X132425000Y-99637500D01*
G75*
G02*
X132662500Y-99400000I237500J0D01*
G01*
X133137500Y-99400000D01*
G75*
G02*
X133375000Y-99637500I0J-237500D01*
G01*
X133375000Y-100212500D01*
G75*
G02*
X133137500Y-100450000I-237500J0D01*
G01*
G37*
G36*
G01*
X141537500Y-81500000D02*
X141062500Y-81500000D01*
G75*
G02*
X140825000Y-81262500I0J237500D01*
G01*
X140825000Y-80687500D01*
G75*
G02*
X141062500Y-80450000I237500J0D01*
G01*
X141537500Y-80450000D01*
G75*
G02*
X141775000Y-80687500I0J-237500D01*
G01*
X141775000Y-81262500D01*
G75*
G02*
X141537500Y-81500000I-237500J0D01*
G01*
G37*
G36*
G01*
X141537500Y-83250000D02*
X141062500Y-83250000D01*
G75*
G02*
X140825000Y-83012500I0J237500D01*
G01*
X140825000Y-82437500D01*
G75*
G02*
X141062500Y-82200000I237500J0D01*
G01*
X141537500Y-82200000D01*
G75*
G02*
X141775000Y-82437500I0J-237500D01*
G01*
X141775000Y-83012500D01*
G75*
G02*
X141537500Y-83250000I-237500J0D01*
G01*
G37*
G36*
G01*
X144787500Y-81500000D02*
X144312500Y-81500000D01*
G75*
G02*
X144075000Y-81262500I0J237500D01*
G01*
X144075000Y-80687500D01*
G75*
G02*
X144312500Y-80450000I237500J0D01*
G01*
X144787500Y-80450000D01*
G75*
G02*
X145025000Y-80687500I0J-237500D01*
G01*
X145025000Y-81262500D01*
G75*
G02*
X144787500Y-81500000I-237500J0D01*
G01*
G37*
G36*
G01*
X144787500Y-83250000D02*
X144312500Y-83250000D01*
G75*
G02*
X144075000Y-83012500I0J237500D01*
G01*
X144075000Y-82437500D01*
G75*
G02*
X144312500Y-82200000I237500J0D01*
G01*
X144787500Y-82200000D01*
G75*
G02*
X145025000Y-82437500I0J-237500D01*
G01*
X145025000Y-83012500D01*
G75*
G02*
X144787500Y-83250000I-237500J0D01*
G01*
G37*
G36*
G01*
X150850000Y-95912500D02*
X150850000Y-96387500D01*
G75*
G02*
X150612500Y-96625000I-237500J0D01*
G01*
X150037500Y-96625000D01*
G75*
G02*
X149800000Y-96387500I0J237500D01*
G01*
X149800000Y-95912500D01*
G75*
G02*
X150037500Y-95675000I237500J0D01*
G01*
X150612500Y-95675000D01*
G75*
G02*
X150850000Y-95912500I0J-237500D01*
G01*
G37*
G36*
G01*
X152600000Y-95912500D02*
X152600000Y-96387500D01*
G75*
G02*
X152362500Y-96625000I-237500J0D01*
G01*
X151787500Y-96625000D01*
G75*
G02*
X151550000Y-96387500I0J237500D01*
G01*
X151550000Y-95912500D01*
G75*
G02*
X151787500Y-95675000I237500J0D01*
G01*
X152362500Y-95675000D01*
G75*
G02*
X152600000Y-95912500I0J-237500D01*
G01*
G37*
G36*
G01*
X146750000Y-102612500D02*
X146750000Y-103087500D01*
G75*
G02*
X146512500Y-103325000I-237500J0D01*
G01*
X145937500Y-103325000D01*
G75*
G02*
X145700000Y-103087500I0J237500D01*
G01*
X145700000Y-102612500D01*
G75*
G02*
X145937500Y-102375000I237500J0D01*
G01*
X146512500Y-102375000D01*
G75*
G02*
X146750000Y-102612500I0J-237500D01*
G01*
G37*
G36*
G01*
X148500000Y-102612500D02*
X148500000Y-103087500D01*
G75*
G02*
X148262500Y-103325000I-237500J0D01*
G01*
X147687500Y-103325000D01*
G75*
G02*
X147450000Y-103087500I0J237500D01*
G01*
X147450000Y-102612500D01*
G75*
G02*
X147687500Y-102375000I237500J0D01*
G01*
X148262500Y-102375000D01*
G75*
G02*
X148500000Y-102612500I0J-237500D01*
G01*
G37*
G36*
G01*
X143700000Y-98012500D02*
X143700000Y-98487500D01*
G75*
G02*
X143462500Y-98725000I-237500J0D01*
G01*
X142887500Y-98725000D01*
G75*
G02*
X142650000Y-98487500I0J237500D01*
G01*
X142650000Y-98012500D01*
G75*
G02*
X142887500Y-97775000I237500J0D01*
G01*
X143462500Y-97775000D01*
G75*
G02*
X143700000Y-98012500I0J-237500D01*
G01*
G37*
G36*
G01*
X145450000Y-98012500D02*
X145450000Y-98487500D01*
G75*
G02*
X145212500Y-98725000I-237500J0D01*
G01*
X144637500Y-98725000D01*
G75*
G02*
X144400000Y-98487500I0J237500D01*
G01*
X144400000Y-98012500D01*
G75*
G02*
X144637500Y-97775000I237500J0D01*
G01*
X145212500Y-97775000D01*
G75*
G02*
X145450000Y-98012500I0J-237500D01*
G01*
G37*
G36*
G01*
X147762500Y-92350000D02*
X148237500Y-92350000D01*
G75*
G02*
X148475000Y-92587500I0J-237500D01*
G01*
X148475000Y-93162500D01*
G75*
G02*
X148237500Y-93400000I-237500J0D01*
G01*
X147762500Y-93400000D01*
G75*
G02*
X147525000Y-93162500I0J237500D01*
G01*
X147525000Y-92587500D01*
G75*
G02*
X147762500Y-92350000I237500J0D01*
G01*
G37*
G36*
G01*
X147762500Y-90600000D02*
X148237500Y-90600000D01*
G75*
G02*
X148475000Y-90837500I0J-237500D01*
G01*
X148475000Y-91412500D01*
G75*
G02*
X148237500Y-91650000I-237500J0D01*
G01*
X147762500Y-91650000D01*
G75*
G02*
X147525000Y-91412500I0J237500D01*
G01*
X147525000Y-90837500D01*
G75*
G02*
X147762500Y-90600000I237500J0D01*
G01*
G37*
G36*
G01*
X125850000Y-82437500D02*
X125850000Y-81962500D01*
G75*
G02*
X126087500Y-81725000I237500J0D01*
G01*
X126662500Y-81725000D01*
G75*
G02*
X126900000Y-81962500I0J-237500D01*
G01*
X126900000Y-82437500D01*
G75*
G02*
X126662500Y-82675000I-237500J0D01*
G01*
X126087500Y-82675000D01*
G75*
G02*
X125850000Y-82437500I0J237500D01*
G01*
G37*
G36*
G01*
X124100000Y-82437500D02*
X124100000Y-81962500D01*
G75*
G02*
X124337500Y-81725000I237500J0D01*
G01*
X124912500Y-81725000D01*
G75*
G02*
X125150000Y-81962500I0J-237500D01*
G01*
X125150000Y-82437500D01*
G75*
G02*
X124912500Y-82675000I-237500J0D01*
G01*
X124337500Y-82675000D01*
G75*
G02*
X124100000Y-82437500I0J237500D01*
G01*
G37*
G36*
G01*
X125850000Y-83987500D02*
X125850000Y-83512500D01*
G75*
G02*
X126087500Y-83275000I237500J0D01*
G01*
X126662500Y-83275000D01*
G75*
G02*
X126900000Y-83512500I0J-237500D01*
G01*
X126900000Y-83987500D01*
G75*
G02*
X126662500Y-84225000I-237500J0D01*
G01*
X126087500Y-84225000D01*
G75*
G02*
X125850000Y-83987500I0J237500D01*
G01*
G37*
G36*
G01*
X124100000Y-83987500D02*
X124100000Y-83512500D01*
G75*
G02*
X124337500Y-83275000I237500J0D01*
G01*
X124912500Y-83275000D01*
G75*
G02*
X125150000Y-83512500I0J-237500D01*
G01*
X125150000Y-83987500D01*
G75*
G02*
X124912500Y-84225000I-237500J0D01*
G01*
X124337500Y-84225000D01*
G75*
G02*
X124100000Y-83987500I0J237500D01*
G01*
G37*
M02*
