G04 #@! TF.GenerationSoftware,KiCad,Pcbnew,5.99.0-unknown-c7daca1~86~ubuntu18.04.1*
G04 #@! TF.CreationDate,2020-03-26T17:53:50-03:00*
G04 #@! TF.ProjectId,FOD,464f442e-6b69-4636-9164-5f7063625858,rev?*
G04 #@! TF.SameCoordinates,Original*
G04 #@! TF.FileFunction,Paste,Bot*
G04 #@! TF.FilePolarity,Positive*
%FSLAX46Y46*%
G04 Gerber Fmt 4.6, Leading zero omitted, Abs format (unit mm)*
G04 Created by KiCad (PCBNEW 5.99.0-unknown-c7daca1~86~ubuntu18.04.1) date 2020-03-26 17:53:50*
%MOMM*%
%LPD*%
G01*
G04 APERTURE LIST*
%ADD10R,1.900000X1.400000*%
%ADD11R,1.400000X1.800000*%
%ADD12R,1.500000X0.800000*%
%ADD13R,1.400000X1.000000*%
%ADD14R,1.400000X1.200000*%
G04 APERTURE END LIST*
D10*
X128500000Y-87950000D03*
X129500000Y-101100000D03*
D11*
X116300000Y-95250000D03*
X116300000Y-89550000D03*
D12*
X125850000Y-88750000D03*
X125850000Y-89850000D03*
X126050000Y-90950000D03*
X125850000Y-92050000D03*
X126050000Y-93150000D03*
X125850000Y-94250000D03*
X125650000Y-95350000D03*
X125850000Y-96450000D03*
G36*
G01*
X139799999Y-92350000D02*
X140700001Y-92350000D01*
G75*
G02*
X140950000Y-92599999I0J-249999D01*
G01*
X140950000Y-93250001D01*
G75*
G02*
X140700001Y-93500000I-249999J0D01*
G01*
X139799999Y-93500000D01*
G75*
G02*
X139550000Y-93250001I0J249999D01*
G01*
X139550000Y-92599999D01*
G75*
G02*
X139799999Y-92350000I249999J0D01*
G01*
G37*
G36*
G01*
X139799999Y-90300000D02*
X140700001Y-90300000D01*
G75*
G02*
X140950000Y-90549999I0J-249999D01*
G01*
X140950000Y-91200001D01*
G75*
G02*
X140700001Y-91450000I-249999J0D01*
G01*
X139799999Y-91450000D01*
G75*
G02*
X139550000Y-91200001I0J249999D01*
G01*
X139550000Y-90549999D01*
G75*
G02*
X139799999Y-90300000I249999J0D01*
G01*
G37*
G36*
G01*
X113150001Y-91200000D02*
X112249999Y-91200000D01*
G75*
G02*
X112000000Y-90950001I0J249999D01*
G01*
X112000000Y-90299999D01*
G75*
G02*
X112249999Y-90050000I249999J0D01*
G01*
X113150001Y-90050000D01*
G75*
G02*
X113400000Y-90299999I0J-249999D01*
G01*
X113400000Y-90950001D01*
G75*
G02*
X113150001Y-91200000I-249999J0D01*
G01*
G37*
G36*
G01*
X113150001Y-93250000D02*
X112249999Y-93250000D01*
G75*
G02*
X112000000Y-93000001I0J249999D01*
G01*
X112000000Y-92349999D01*
G75*
G02*
X112249999Y-92100000I249999J0D01*
G01*
X113150001Y-92100000D01*
G75*
G02*
X113400000Y-92349999I0J-249999D01*
G01*
X113400000Y-93000001D01*
G75*
G02*
X113150001Y-93250000I-249999J0D01*
G01*
G37*
G36*
G01*
X170350001Y-90950000D02*
X169449999Y-90950000D01*
G75*
G02*
X169200000Y-90700001I0J249999D01*
G01*
X169200000Y-90049999D01*
G75*
G02*
X169449999Y-89800000I249999J0D01*
G01*
X170350001Y-89800000D01*
G75*
G02*
X170600000Y-90049999I0J-249999D01*
G01*
X170600000Y-90700001D01*
G75*
G02*
X170350001Y-90950000I-249999J0D01*
G01*
G37*
G36*
G01*
X170350001Y-93000000D02*
X169449999Y-93000000D01*
G75*
G02*
X169200000Y-92750001I0J249999D01*
G01*
X169200000Y-92099999D01*
G75*
G02*
X169449999Y-91850000I249999J0D01*
G01*
X170350001Y-91850000D01*
G75*
G02*
X170600000Y-92099999I0J-249999D01*
G01*
X170600000Y-92750001D01*
G75*
G02*
X170350001Y-93000000I-249999J0D01*
G01*
G37*
D13*
X140825000Y-98850000D03*
X140825000Y-100750000D03*
X143025000Y-100750000D03*
D14*
X143025000Y-99030000D03*
G36*
G01*
X144662500Y-92100000D02*
X145137500Y-92100000D01*
G75*
G02*
X145375000Y-92337500I0J-237500D01*
G01*
X145375000Y-92912500D01*
G75*
G02*
X145137500Y-93150000I-237500J0D01*
G01*
X144662500Y-93150000D01*
G75*
G02*
X144425000Y-92912500I0J237500D01*
G01*
X144425000Y-92337500D01*
G75*
G02*
X144662500Y-92100000I237500J0D01*
G01*
G37*
G36*
G01*
X144662500Y-90350000D02*
X145137500Y-90350000D01*
G75*
G02*
X145375000Y-90587500I0J-237500D01*
G01*
X145375000Y-91162500D01*
G75*
G02*
X145137500Y-91400000I-237500J0D01*
G01*
X144662500Y-91400000D01*
G75*
G02*
X144425000Y-91162500I0J237500D01*
G01*
X144425000Y-90587500D01*
G75*
G02*
X144662500Y-90350000I237500J0D01*
G01*
G37*
G36*
G01*
X143062500Y-92100000D02*
X143537500Y-92100000D01*
G75*
G02*
X143775000Y-92337500I0J-237500D01*
G01*
X143775000Y-92912500D01*
G75*
G02*
X143537500Y-93150000I-237500J0D01*
G01*
X143062500Y-93150000D01*
G75*
G02*
X142825000Y-92912500I0J237500D01*
G01*
X142825000Y-92337500D01*
G75*
G02*
X143062500Y-92100000I237500J0D01*
G01*
G37*
G36*
G01*
X143062500Y-90350000D02*
X143537500Y-90350000D01*
G75*
G02*
X143775000Y-90587500I0J-237500D01*
G01*
X143775000Y-91162500D01*
G75*
G02*
X143537500Y-91400000I-237500J0D01*
G01*
X143062500Y-91400000D01*
G75*
G02*
X142825000Y-91162500I0J237500D01*
G01*
X142825000Y-90587500D01*
G75*
G02*
X143062500Y-90350000I237500J0D01*
G01*
G37*
G36*
G01*
X141275000Y-87937500D02*
X141275000Y-87462500D01*
G75*
G02*
X141512500Y-87225000I237500J0D01*
G01*
X142087500Y-87225000D01*
G75*
G02*
X142325000Y-87462500I0J-237500D01*
G01*
X142325000Y-87937500D01*
G75*
G02*
X142087500Y-88175000I-237500J0D01*
G01*
X141512500Y-88175000D01*
G75*
G02*
X141275000Y-87937500I0J237500D01*
G01*
G37*
G36*
G01*
X139525000Y-87937500D02*
X139525000Y-87462500D01*
G75*
G02*
X139762500Y-87225000I237500J0D01*
G01*
X140337500Y-87225000D01*
G75*
G02*
X140575000Y-87462500I0J-237500D01*
G01*
X140575000Y-87937500D01*
G75*
G02*
X140337500Y-88175000I-237500J0D01*
G01*
X139762500Y-88175000D01*
G75*
G02*
X139525000Y-87937500I0J237500D01*
G01*
G37*
G36*
G01*
X141275000Y-89487500D02*
X141275000Y-89012500D01*
G75*
G02*
X141512500Y-88775000I237500J0D01*
G01*
X142087500Y-88775000D01*
G75*
G02*
X142325000Y-89012500I0J-237500D01*
G01*
X142325000Y-89487500D01*
G75*
G02*
X142087500Y-89725000I-237500J0D01*
G01*
X141512500Y-89725000D01*
G75*
G02*
X141275000Y-89487500I0J237500D01*
G01*
G37*
G36*
G01*
X139525000Y-89487500D02*
X139525000Y-89012500D01*
G75*
G02*
X139762500Y-88775000I237500J0D01*
G01*
X140337500Y-88775000D01*
G75*
G02*
X140575000Y-89012500I0J-237500D01*
G01*
X140575000Y-89487500D01*
G75*
G02*
X140337500Y-89725000I-237500J0D01*
G01*
X139762500Y-89725000D01*
G75*
G02*
X139525000Y-89487500I0J237500D01*
G01*
G37*
M02*
