M48
; DRILL file {KiCad 6.0.0-unknown-920f128~86~ubuntu18.04.1} date jue 18 jul 2019 17:53:52 -04
; FORMAT={-:-/ absolute / inch / decimal}
; #@! TF.CreationDate,2019-07-18T17:53:52-04:00
; #@! TF.GenerationSoftware,Kicad,Pcbnew,6.0.0-unknown-920f128~86~ubuntu18.04.1
FMAT,2
INCH
T1C0.0157
T2C0.0197
T3C0.0300
T4C0.0394
T5C0.0400
T6C0.0520
T7C0.1260
%
G90
G05
T1
X4.7057Y-2.814
X4.7185Y-4.2618
X4.7323Y-1.7736
X4.7402Y-3.4921
X4.7471Y-3.3413
X4.7579Y-4.3465
X4.7618Y-2.5335
X4.7638Y-3.1732
X4.7756Y-3.435
X4.7835Y-2.7402
X4.7874Y-3.8366
X4.811Y-4.3819
X4.8307Y-2.813
X4.8386Y-3.6634
X4.8445Y-3.7224
X4.8622Y-4.3071
X4.9154Y-2.9783
X4.9193Y-1.9469
X4.9193Y-2.064
X4.9213Y-2.9075
X4.9469Y-3.3406
X4.9547Y-3.2776
X4.9705Y-4.3071
X4.9724Y-3.6594
X4.9803Y-2.2421
X4.9843Y-2.7894
X5.0098Y-1.7972
X5.0138Y-3.7067
X5.0157Y-4.2047
X5.0453Y-2.3386
X5.0587Y-3.6588
X5.063Y-2.1969
X5.0669Y-2.128
X5.0768Y-1.8976
X5.1024Y-3.6142
X5.1026Y-3.0549
X5.1378Y-1.8976
X5.1417Y-3.5689
X5.1988Y-3.563
X5.2382Y-2.1004
X5.2402Y-3.998
X5.2421Y-3.4941
X5.25Y-3.4331
X5.2736Y-3.7461
X5.2844Y-3.2972
X5.2874Y-2.1919
X5.3248Y-3.3012
X5.3366Y-3.8563
X5.3386Y-1.6969
X5.3809Y-2.2539
X5.4035Y-3.5669
X5.4272Y-2.0157
X5.4291Y-1.9272
X5.498Y-3.4744
X5.5138Y-2.0335
X5.5846Y-4.3386
X5.5886Y-3.3839
X5.6142Y-1.7136
X5.69Y-3.7224
X5.69Y-3.7943
X5.6909Y-3.5
X5.7067Y-2.0059
X5.7106Y-4.5748
X5.7165Y-4.435
X5.7756Y-1.4528
X5.8681Y-3.6122
X5.9508Y-4.1063
X5.9646Y-2.0059
X5.9685Y-1.4547
X5.998Y-3.9528
T2
X4.7441Y-1.687
T3
X5.7874Y-4.526
X5.7874Y-4.626
X5.7874Y-4.726
T4
X5.2402Y-4.6201
X5.437Y-4.6201
X4.9606Y-2.3287
X4.9606Y-2.5059
X5.2165Y-2.3287
X5.2165Y-2.5059
X4.7831Y-2.6378
X5.876Y-4.0579
X5.876Y-4.1579
X5.876Y-4.2579
X4.8831Y-2.6378
X4.9831Y-2.6378
X5.0831Y-2.6378
X5.1831Y-2.6378
T5
X4.3533Y-1.6648
X4.3533Y-1.7648
X4.3533Y-1.8648
X4.3533Y-1.9648
X4.3533Y-2.0648
X4.3533Y-2.1648
X4.3533Y-2.2648
X4.3533Y-2.3648
X4.3533Y-2.4648
X4.3533Y-2.5648
X4.3533Y-2.6648
X4.3533Y-2.7648
X4.3533Y-2.8648
X4.3533Y-2.9648
X4.3533Y-3.0648
X4.3533Y-3.1648
X4.3533Y-3.2648
X4.3533Y-3.3648
X4.3533Y-3.4648
X4.3533Y-3.5648
X4.3533Y-3.6648
X4.3533Y-3.7648
X4.3533Y-3.8648
X4.3533Y-3.9648
X4.3533Y-4.0648
X4.3533Y-4.1648
X4.4533Y-1.6648
X4.4533Y-1.7648
X4.4533Y-1.8648
X4.4533Y-1.9648
X4.4533Y-2.0648
X4.4533Y-2.1648
X4.4533Y-2.2648
X4.4533Y-2.3648
X4.4533Y-2.4648
X4.4533Y-2.5648
X4.4533Y-2.6648
X4.4533Y-2.7648
X4.4533Y-2.8648
X4.4533Y-2.9648
X4.4533Y-3.0648
X4.4533Y-3.1648
X4.4533Y-3.2648
X4.4533Y-3.3648
X4.4533Y-3.4648
X4.4533Y-3.5648
X4.4533Y-3.6648
X4.4533Y-3.7648
X4.4533Y-3.8648
X4.4533Y-3.9648
X4.4533Y-4.0648
X4.4533Y-4.1648
X4.5533Y-1.6648
X4.5533Y-1.7648
X4.5533Y-1.8648
X4.5533Y-1.9648
X4.5533Y-2.0648
X4.5533Y-2.1648
X4.5533Y-2.2648
X4.5533Y-2.3648
X4.5533Y-2.4648
X4.5533Y-2.5648
X4.5533Y-2.6648
X4.5533Y-2.7648
X4.5533Y-2.8648
X4.5533Y-2.9648
X4.5533Y-3.0648
X4.5533Y-3.1648
X4.5533Y-3.2648
X4.5533Y-3.3648
X4.5533Y-3.4648
X4.5533Y-3.5648
X4.5533Y-3.6648
X4.5533Y-3.7648
X4.5533Y-3.8648
X4.5533Y-3.9648
X4.5533Y-4.0648
X4.5533Y-4.1648
X4.6533Y-1.6648
X4.6533Y-1.7648
X4.6533Y-1.8648
X4.6533Y-1.9648
X4.6533Y-2.0648
X4.6533Y-2.1648
X4.6533Y-2.2648
X4.6533Y-2.3648
X4.6533Y-2.4648
X4.6533Y-2.5648
X4.6533Y-2.6648
X4.6533Y-2.7648
X4.6533Y-2.8648
X4.6533Y-2.9648
X4.6533Y-3.0648
X4.6533Y-3.1648
X4.6533Y-3.2648
X4.6533Y-3.3648
X4.6533Y-3.4648
X4.6533Y-3.5648
X4.6533Y-3.6648
X4.6533Y-3.7648
X4.6533Y-3.8648
X4.6533Y-3.9648
X4.6533Y-4.0648
X4.6533Y-4.1648
T6
X5.2402Y-4.2224
X5.437Y-4.2224
T7
X4.3541Y-1.4648
X4.3541Y-4.3648
X4.6057Y-1.4486
X4.6057Y-4.3738
T0
M30
