G04 #@! TF.GenerationSoftware,KiCad,Pcbnew,6.0.0-unknown-920f128~86~ubuntu18.04.1*
G04 #@! TF.CreationDate,2019-07-18T17:53:54-04:00*
G04 #@! TF.ProjectId,FOD,464f442e-6b69-4636-9164-5f7063625858,rev?*
G04 #@! TF.SameCoordinates,Original*
G04 #@! TF.FileFunction,Legend,Bot*
G04 #@! TF.FilePolarity,Positive*
%FSLAX46Y46*%
G04 Gerber Fmt 4.6, Leading zero omitted, Abs format (unit mm)*
G04 Created by KiCad (PCBNEW 6.0.0-unknown-920f128~86~ubuntu18.04.1) date 2019-07-18 17:53:54*
%MOMM*%
%LPD*%
G04 APERTURE LIST*
%ADD10C,0.150000*%
%ADD11C,0.200000*%
%ADD12C,0.120000*%
G04 APERTURE END LIST*
D10*
X128991666Y-94158333D02*
X128291666Y-94158333D01*
X128291666Y-94325000D01*
X128325000Y-94425000D01*
X128391666Y-94491666D01*
X128458333Y-94525000D01*
X128591666Y-94558333D01*
X128691666Y-94558333D01*
X128825000Y-94525000D01*
X128891666Y-94491666D01*
X128958333Y-94425000D01*
X128991666Y-94325000D01*
X128991666Y-94158333D01*
X128991666Y-94858333D02*
X128291666Y-94858333D01*
X128291666Y-95125000D01*
X128325000Y-95191666D01*
X128358333Y-95225000D01*
X128425000Y-95258333D01*
X128525000Y-95258333D01*
X128591666Y-95225000D01*
X128625000Y-95191666D01*
X128658333Y-95125000D01*
X128658333Y-94858333D01*
X128991666Y-95891666D02*
X128991666Y-95558333D01*
X128291666Y-95558333D01*
X128658333Y-96258333D02*
X128991666Y-96258333D01*
X128291666Y-96025000D02*
X128658333Y-96258333D01*
X128291666Y-96491666D01*
D11*
X127183333Y-27478571D02*
X127516666Y-27478571D01*
X127516666Y-28002380D02*
X127516666Y-27002380D01*
X127040476Y-27002380D01*
X126469047Y-27002380D02*
X126278571Y-27002380D01*
X126183333Y-27050000D01*
X126088095Y-27145238D01*
X126040476Y-27335714D01*
X126040476Y-27669047D01*
X126088095Y-27859523D01*
X126183333Y-27954761D01*
X126278571Y-28002380D01*
X126469047Y-28002380D01*
X126564285Y-27954761D01*
X126659523Y-27859523D01*
X126707142Y-27669047D01*
X126707142Y-27335714D01*
X126659523Y-27145238D01*
X126564285Y-27050000D01*
X126469047Y-27002380D01*
X125611904Y-28002380D02*
X125611904Y-27002380D01*
X125373809Y-27002380D01*
X125230952Y-27050000D01*
X125135714Y-27145238D01*
X125088095Y-27240476D01*
X125040476Y-27430952D01*
X125040476Y-27573809D01*
X125088095Y-27764285D01*
X125135714Y-27859523D01*
X125230952Y-27954761D01*
X125373809Y-28002380D01*
X125611904Y-28002380D01*
X123945238Y-27335714D02*
X123707142Y-28002380D01*
X123469047Y-27335714D01*
X123135714Y-27097619D02*
X123088095Y-27050000D01*
X122992857Y-27002380D01*
X122754761Y-27002380D01*
X122659523Y-27050000D01*
X122611904Y-27097619D01*
X122564285Y-27192857D01*
X122564285Y-27288095D01*
X122611904Y-27430952D01*
X123183333Y-28002380D01*
X122564285Y-28002380D01*
X122135714Y-27907142D02*
X122088095Y-27954761D01*
X122135714Y-28002380D01*
X122183333Y-27954761D01*
X122135714Y-27907142D01*
X122135714Y-28002380D01*
X121469047Y-27002380D02*
X121373809Y-27002380D01*
X121278571Y-27050000D01*
X121230952Y-27097619D01*
X121183333Y-27192857D01*
X121135714Y-27383333D01*
X121135714Y-27621428D01*
X121183333Y-27811904D01*
X121230952Y-27907142D01*
X121278571Y-27954761D01*
X121373809Y-28002380D01*
X121469047Y-28002380D01*
X121564285Y-27954761D01*
X121611904Y-27907142D01*
X121659523Y-27811904D01*
X121707142Y-27621428D01*
X121707142Y-27383333D01*
X121659523Y-27192857D01*
X121611904Y-27097619D01*
X121564285Y-27050000D01*
X121469047Y-27002380D01*
D10*
X138866666Y-104166666D02*
X138633333Y-104866666D01*
X138400000Y-104166666D01*
X138166666Y-104866666D02*
X138166666Y-104166666D01*
X137833333Y-104866666D02*
X137833333Y-104166666D01*
X137433333Y-104866666D01*
X137433333Y-104166666D01*
X147066666Y-106866666D02*
X147766666Y-107100000D01*
X147066666Y-107333333D01*
X147066666Y-107566666D02*
X147633333Y-107566666D01*
X147700000Y-107600000D01*
X147733333Y-107633333D01*
X147766666Y-107700000D01*
X147766666Y-107833333D01*
X147733333Y-107900000D01*
X147700000Y-107933333D01*
X147633333Y-107966666D01*
X147066666Y-107966666D01*
X147733333Y-108266666D02*
X147766666Y-108366666D01*
X147766666Y-108533333D01*
X147733333Y-108600000D01*
X147700000Y-108633333D01*
X147633333Y-108666666D01*
X147566666Y-108666666D01*
X147500000Y-108633333D01*
X147466666Y-108600000D01*
X147433333Y-108533333D01*
X147400000Y-108400000D01*
X147366666Y-108333333D01*
X147333333Y-108300000D01*
X147266666Y-108266666D01*
X147200000Y-108266666D01*
X147133333Y-108300000D01*
X147100000Y-108333333D01*
X147066666Y-108400000D01*
X147066666Y-108566666D01*
X147100000Y-108666666D01*
X147400000Y-109200000D02*
X147433333Y-109300000D01*
X147466666Y-109333333D01*
X147533333Y-109366666D01*
X147633333Y-109366666D01*
X147700000Y-109333333D01*
X147733333Y-109300000D01*
X147766666Y-109233333D01*
X147766666Y-108966666D01*
X147066666Y-108966666D01*
X147066666Y-109200000D01*
X147100000Y-109266666D01*
X147133333Y-109300000D01*
X147200000Y-109333333D01*
X147266666Y-109333333D01*
X147333333Y-109300000D01*
X147366666Y-109266666D01*
X147400000Y-109200000D01*
X147400000Y-108966666D01*
X147066666Y-105143333D02*
X147066666Y-104810000D01*
X147400000Y-104776666D01*
X147366666Y-104810000D01*
X147333333Y-104876666D01*
X147333333Y-105043333D01*
X147366666Y-105110000D01*
X147400000Y-105143333D01*
X147466666Y-105176666D01*
X147633333Y-105176666D01*
X147700000Y-105143333D01*
X147733333Y-105110000D01*
X147766666Y-105043333D01*
X147766666Y-104876666D01*
X147733333Y-104810000D01*
X147700000Y-104776666D01*
X147066666Y-105376666D02*
X147766666Y-105610000D01*
X147066666Y-105843333D01*
X147066666Y-106210000D02*
X147066666Y-106276666D01*
X147100000Y-106343333D01*
X147133333Y-106376666D01*
X147200000Y-106410000D01*
X147333333Y-106443333D01*
X147500000Y-106443333D01*
X147633333Y-106410000D01*
X147700000Y-106376666D01*
X147733333Y-106343333D01*
X147766666Y-106276666D01*
X147766666Y-106210000D01*
X147733333Y-106143333D01*
X147700000Y-106110000D01*
X147633333Y-106076666D01*
X147500000Y-106043333D01*
X147333333Y-106043333D01*
X147200000Y-106076666D01*
X147133333Y-106110000D01*
X147100000Y-106143333D01*
X147066666Y-106210000D01*
X147066666Y-102303333D02*
X147766666Y-102536666D01*
X147066666Y-102770000D01*
X147766666Y-103003333D02*
X147066666Y-103003333D01*
X147766666Y-103336666D02*
X147066666Y-103336666D01*
X147766666Y-103736666D01*
X147066666Y-103736666D01*
X122440000Y-69133333D02*
X122340000Y-69166666D01*
X122173333Y-69166666D01*
X122106666Y-69133333D01*
X122073333Y-69100000D01*
X122040000Y-69033333D01*
X122040000Y-68966666D01*
X122073333Y-68900000D01*
X122106666Y-68866666D01*
X122173333Y-68833333D01*
X122306666Y-68800000D01*
X122373333Y-68766666D01*
X122406666Y-68733333D01*
X122440000Y-68666666D01*
X122440000Y-68600000D01*
X122406666Y-68533333D01*
X122373333Y-68500000D01*
X122306666Y-68466666D01*
X122140000Y-68466666D01*
X122040000Y-68500000D01*
X121806666Y-68466666D02*
X121640000Y-69166666D01*
X121506666Y-68666666D01*
X121373333Y-69166666D01*
X121206666Y-68466666D01*
X120940000Y-69166666D02*
X120940000Y-68466666D01*
X120773333Y-68466666D01*
X120673333Y-68500000D01*
X120606666Y-68566666D01*
X120573333Y-68633333D01*
X120540000Y-68766666D01*
X120540000Y-68866666D01*
X120573333Y-69000000D01*
X120606666Y-69066666D01*
X120673333Y-69133333D01*
X120773333Y-69166666D01*
X120940000Y-69166666D01*
X124980000Y-69133333D02*
X124880000Y-69166666D01*
X124713333Y-69166666D01*
X124646666Y-69133333D01*
X124613333Y-69100000D01*
X124580000Y-69033333D01*
X124580000Y-68966666D01*
X124613333Y-68900000D01*
X124646666Y-68866666D01*
X124713333Y-68833333D01*
X124846666Y-68800000D01*
X124913333Y-68766666D01*
X124946666Y-68733333D01*
X124980000Y-68666666D01*
X124980000Y-68600000D01*
X124946666Y-68533333D01*
X124913333Y-68500000D01*
X124846666Y-68466666D01*
X124680000Y-68466666D01*
X124580000Y-68500000D01*
X124346666Y-68466666D02*
X124180000Y-69166666D01*
X124046666Y-68666666D01*
X123913333Y-69166666D01*
X123746666Y-68466666D01*
X123080000Y-69100000D02*
X123113333Y-69133333D01*
X123213333Y-69166666D01*
X123280000Y-69166666D01*
X123380000Y-69133333D01*
X123446666Y-69066666D01*
X123480000Y-69000000D01*
X123513333Y-68866666D01*
X123513333Y-68766666D01*
X123480000Y-68633333D01*
X123446666Y-68566666D01*
X123380000Y-68500000D01*
X123280000Y-68466666D01*
X123213333Y-68466666D01*
X123113333Y-68500000D01*
X123080000Y-68533333D01*
X127103333Y-68500000D02*
X127170000Y-68466666D01*
X127270000Y-68466666D01*
X127370000Y-68500000D01*
X127436666Y-68566666D01*
X127470000Y-68633333D01*
X127503333Y-68766666D01*
X127503333Y-68866666D01*
X127470000Y-69000000D01*
X127436666Y-69066666D01*
X127370000Y-69133333D01*
X127270000Y-69166666D01*
X127203333Y-69166666D01*
X127103333Y-69133333D01*
X127070000Y-69100000D01*
X127070000Y-68866666D01*
X127203333Y-68866666D01*
X126770000Y-69166666D02*
X126770000Y-68466666D01*
X126370000Y-69166666D01*
X126370000Y-68466666D01*
X126036666Y-69166666D02*
X126036666Y-68466666D01*
X125870000Y-68466666D01*
X125770000Y-68500000D01*
X125703333Y-68566666D01*
X125670000Y-68633333D01*
X125636666Y-68766666D01*
X125636666Y-68866666D01*
X125670000Y-69000000D01*
X125703333Y-69066666D01*
X125770000Y-69133333D01*
X125870000Y-69166666D01*
X126036666Y-69166666D01*
X132033333Y-69166666D02*
X132266666Y-68833333D01*
X132433333Y-69166666D02*
X132433333Y-68466666D01*
X132166666Y-68466666D01*
X132100000Y-68500000D01*
X132066666Y-68533333D01*
X132033333Y-68600000D01*
X132033333Y-68700000D01*
X132066666Y-68766666D01*
X132100000Y-68800000D01*
X132166666Y-68833333D01*
X132433333Y-68833333D01*
X131766666Y-69133333D02*
X131666666Y-69166666D01*
X131500000Y-69166666D01*
X131433333Y-69133333D01*
X131400000Y-69100000D01*
X131366666Y-69033333D01*
X131366666Y-68966666D01*
X131400000Y-68900000D01*
X131433333Y-68866666D01*
X131500000Y-68833333D01*
X131633333Y-68800000D01*
X131700000Y-68766666D01*
X131733333Y-68733333D01*
X131766666Y-68666666D01*
X131766666Y-68600000D01*
X131733333Y-68533333D01*
X131700000Y-68500000D01*
X131633333Y-68466666D01*
X131466666Y-68466666D01*
X131366666Y-68500000D01*
X131166666Y-68466666D02*
X130766666Y-68466666D01*
X130966666Y-69166666D02*
X130966666Y-68466666D01*
X129976666Y-68466666D02*
X129543333Y-68466666D01*
X129776666Y-68733333D01*
X129676666Y-68733333D01*
X129610000Y-68766666D01*
X129576666Y-68800000D01*
X129543333Y-68866666D01*
X129543333Y-69033333D01*
X129576666Y-69100000D01*
X129610000Y-69133333D01*
X129676666Y-69166666D01*
X129876666Y-69166666D01*
X129943333Y-69133333D01*
X129976666Y-69100000D01*
X129343333Y-68466666D02*
X129110000Y-69166666D01*
X128876666Y-68466666D01*
X128710000Y-68466666D02*
X128276666Y-68466666D01*
X128510000Y-68733333D01*
X128410000Y-68733333D01*
X128343333Y-68766666D01*
X128310000Y-68800000D01*
X128276666Y-68866666D01*
X128276666Y-69033333D01*
X128310000Y-69100000D01*
X128343333Y-69133333D01*
X128410000Y-69166666D01*
X128610000Y-69166666D01*
X128676666Y-69133333D01*
X128710000Y-69100000D01*
D12*
X127365000Y-49590000D02*
X127365000Y-52290000D01*
X130085000Y-50180000D02*
X130715000Y-50180000D01*
X130085000Y-52340000D02*
X130085000Y-51700000D01*
X130085000Y-49540000D02*
X130085000Y-50180000D01*
X130664214Y-61400000D02*
G75*
G03X130664214Y-61400000I-1414214J0D01*
G01*
X126280000Y-58280000D02*
X132220000Y-58280000D01*
X126280000Y-64520000D02*
X132220000Y-64520000D01*
X126130000Y-60060000D02*
X126130000Y-62740000D01*
X132370000Y-62740000D02*
X132370000Y-60060000D01*
X134680000Y-99660000D02*
X133750000Y-99660000D01*
X131520000Y-99660000D02*
X132450000Y-99660000D01*
X131520000Y-99660000D02*
X131520000Y-97500000D01*
X134680000Y-99660000D02*
X134680000Y-98200000D01*
X150450000Y-99630000D02*
X151650000Y-99630000D01*
X151650000Y-99630000D02*
X151650000Y-96930000D01*
X146850000Y-95630000D02*
X146850000Y-99630000D01*
X146850000Y-99630000D02*
X148050000Y-99630000D01*
X124325000Y-78600000D02*
X125425000Y-78600000D01*
X124325000Y-76700000D02*
X125425000Y-76700000D01*
X122175000Y-78550000D02*
X122175000Y-76750000D01*
X148270000Y-113690000D02*
X148270000Y-121310000D01*
X148270000Y-121310000D02*
X152970000Y-121310000D01*
X152970000Y-121310000D02*
X152970000Y-113690000D01*
X152970000Y-113690000D02*
X148270000Y-113690000D01*
X152270000Y-121310000D02*
X152270000Y-113690000D01*
D10*
X145380000Y-37640000D02*
X141080000Y-37640000D01*
X145380000Y-42640000D02*
X145380000Y-37620480D01*
X142080000Y-42640000D02*
X145380000Y-42640000D01*
X141080000Y-37640000D02*
X141080000Y-41640000D01*
X142080000Y-42640000D02*
X141080000Y-41640000D01*
X123650000Y-80825000D02*
X123875000Y-80825000D01*
X123650000Y-88075000D02*
X123975000Y-88075000D01*
X130900000Y-88075000D02*
X130575000Y-88075000D01*
X130900000Y-80825000D02*
X130575000Y-80825000D01*
X123650000Y-80825000D02*
X123650000Y-81150000D01*
X130900000Y-80825000D02*
X130900000Y-81150000D01*
X130900000Y-88075000D02*
X130900000Y-87750000D01*
X123650000Y-88075000D02*
X123650000Y-87750000D01*
X123875000Y-80825000D02*
X123875000Y-79400000D01*
D12*
X132928733Y-96860000D02*
X133271267Y-96860000D01*
X132928733Y-95840000D02*
X133271267Y-95840000D01*
X121190000Y-99828733D02*
X121190000Y-100171267D01*
X122210000Y-99828733D02*
X122210000Y-100171267D01*
X121628733Y-112910000D02*
X121971267Y-112910000D01*
X121628733Y-111890000D02*
X121971267Y-111890000D01*
X136090000Y-81738748D02*
X136090000Y-82261252D01*
X137510000Y-81738748D02*
X137510000Y-82261252D01*
X147920000Y-101740000D02*
X150580000Y-101740000D01*
X147920000Y-106880000D02*
X147920000Y-101740000D01*
X150580000Y-106880000D02*
X150580000Y-101740000D01*
X147920000Y-106880000D02*
X150580000Y-106880000D01*
X147920000Y-108150000D02*
X147920000Y-109480000D01*
X147920000Y-109480000D02*
X149250000Y-109480000D01*
X120160000Y-68330000D02*
X120160000Y-65670000D01*
X130380000Y-68330000D02*
X120160000Y-68330000D01*
X130380000Y-65670000D02*
X120160000Y-65670000D01*
X130380000Y-68330000D02*
X130380000Y-65670000D01*
X131650000Y-68330000D02*
X132980000Y-68330000D01*
X132980000Y-68330000D02*
X132980000Y-67000000D01*
X140750000Y-100950000D02*
X140750000Y-113550000D01*
X140750000Y-113550000D02*
X130400000Y-113550000D01*
X130400000Y-113550000D02*
X130400000Y-112600000D01*
X130400000Y-112600000D02*
X129900000Y-112850000D01*
X129900000Y-112850000D02*
X129900000Y-110950000D01*
X129900000Y-110950000D02*
X129900000Y-110900000D01*
X129900000Y-110900000D02*
X130400000Y-111150000D01*
X130400000Y-111150000D02*
X130400000Y-105750000D01*
X130400000Y-105750000D02*
X129900000Y-106050000D01*
X129900000Y-106050000D02*
X129900000Y-100950000D01*
X129900000Y-100950000D02*
X140750000Y-100950000D01*
X120740000Y-116940000D02*
X121120000Y-116940000D01*
X120740000Y-120990000D02*
X120740000Y-121250000D01*
X120740000Y-116940000D02*
X120740000Y-118710000D01*
X128360000Y-116940000D02*
X127980000Y-116940000D01*
X128360000Y-118710000D02*
X128360000Y-116940000D01*
X128360000Y-121250000D02*
X128360000Y-120990000D01*
X131110000Y-94300000D02*
X131110000Y-97160000D01*
X131110000Y-97160000D02*
X129190000Y-97160000D01*
X129190000Y-97160000D02*
X129190000Y-94300000D01*
X151260000Y-92771267D02*
X151260000Y-92428733D01*
X150240000Y-92771267D02*
X150240000Y-92428733D01*
X148521267Y-94040000D02*
X148178733Y-94040000D01*
X148521267Y-95060000D02*
X148178733Y-95060000D01*
X127010000Y-74871267D02*
X127010000Y-74528733D01*
X125990000Y-74871267D02*
X125990000Y-74528733D01*
X123760000Y-74821267D02*
X123760000Y-74478733D01*
X122740000Y-74821267D02*
X122740000Y-74478733D01*
X134540000Y-81828733D02*
X134540000Y-82171267D01*
X135560000Y-81828733D02*
X135560000Y-82171267D01*
X132990000Y-81828733D02*
X132990000Y-82171267D01*
X134010000Y-81828733D02*
X134010000Y-82171267D01*
X121628733Y-114460000D02*
X121971267Y-114460000D01*
X121628733Y-113440000D02*
X121971267Y-113440000D01*
X119840000Y-82878733D02*
X119840000Y-83221267D01*
X120860000Y-82878733D02*
X120860000Y-83221267D01*
X129990000Y-45778733D02*
X129990000Y-46121267D01*
X131010000Y-45778733D02*
X131010000Y-46121267D01*
X128440000Y-45778733D02*
X128440000Y-46121267D01*
X129460000Y-45778733D02*
X129460000Y-46121267D01*
D10*
X128816666Y-50706666D02*
X129316666Y-50706666D01*
X129416666Y-50673333D01*
X129483333Y-50606666D01*
X129516666Y-50506666D01*
X129516666Y-50440000D01*
X128883333Y-51006666D02*
X128850000Y-51040000D01*
X128816666Y-51106666D01*
X128816666Y-51273333D01*
X128850000Y-51340000D01*
X128883333Y-51373333D01*
X128950000Y-51406666D01*
X129016666Y-51406666D01*
X129116666Y-51373333D01*
X129516666Y-50973333D01*
X129516666Y-51406666D01*
X130470000Y-61754285D02*
X130341428Y-61797142D01*
X130127142Y-61797142D01*
X130041428Y-61754285D01*
X129998571Y-61711428D01*
X129955714Y-61625714D01*
X129955714Y-61540000D01*
X129998571Y-61454285D01*
X130041428Y-61411428D01*
X130127142Y-61368571D01*
X130298571Y-61325714D01*
X130384285Y-61282857D01*
X130427142Y-61240000D01*
X130470000Y-61154285D01*
X130470000Y-61068571D01*
X130427142Y-60982857D01*
X130384285Y-60940000D01*
X130298571Y-60897142D01*
X130084285Y-60897142D01*
X129955714Y-60940000D01*
X129655714Y-60897142D02*
X129441428Y-61797142D01*
X129270000Y-61154285D01*
X129098571Y-61797142D01*
X128884285Y-60897142D01*
X128070000Y-61797142D02*
X128584285Y-61797142D01*
X128327142Y-61797142D02*
X128327142Y-60897142D01*
X128412857Y-61025714D01*
X128498571Y-61111428D01*
X128584285Y-61154285D01*
X131147619Y-98804761D02*
X131100000Y-98709523D01*
X131004761Y-98614285D01*
X130861904Y-98471428D01*
X130814285Y-98376190D01*
X130814285Y-98280952D01*
X131052380Y-98328571D02*
X131004761Y-98233333D01*
X130909523Y-98138095D01*
X130719047Y-98090476D01*
X130385714Y-98090476D01*
X130195238Y-98138095D01*
X130100000Y-98233333D01*
X130052380Y-98328571D01*
X130052380Y-98519047D01*
X130100000Y-98614285D01*
X130195238Y-98709523D01*
X130385714Y-98757142D01*
X130719047Y-98757142D01*
X130909523Y-98709523D01*
X131004761Y-98614285D01*
X131052380Y-98519047D01*
X131052380Y-98328571D01*
X131052380Y-99709523D02*
X131052380Y-99138095D01*
X131052380Y-99423809D02*
X130052380Y-99423809D01*
X130195238Y-99328571D01*
X130290476Y-99233333D01*
X130338095Y-99138095D01*
X151952380Y-97038095D02*
X152761904Y-97038095D01*
X152857142Y-97085714D01*
X152904761Y-97133333D01*
X152952380Y-97228571D01*
X152952380Y-97419047D01*
X152904761Y-97514285D01*
X152857142Y-97561904D01*
X152761904Y-97609523D01*
X151952380Y-97609523D01*
X152047619Y-98038095D02*
X152000000Y-98085714D01*
X151952380Y-98180952D01*
X151952380Y-98419047D01*
X152000000Y-98514285D01*
X152047619Y-98561904D01*
X152142857Y-98609523D01*
X152238095Y-98609523D01*
X152380952Y-98561904D01*
X152952380Y-97990476D01*
X152952380Y-98609523D01*
D12*
X125255952Y-77630952D02*
X125255952Y-78011904D01*
X125522619Y-77211904D02*
X125255952Y-77630952D01*
X124989285Y-77211904D01*
X124303571Y-78011904D02*
X124760714Y-78011904D01*
X124532142Y-78011904D02*
X124532142Y-77211904D01*
X124608333Y-77326190D01*
X124684523Y-77402380D01*
X124760714Y-77440476D01*
D10*
X151361904Y-112402380D02*
X151361904Y-113211904D01*
X151314285Y-113307142D01*
X151266666Y-113354761D01*
X151171428Y-113402380D01*
X150980952Y-113402380D01*
X150885714Y-113354761D01*
X150838095Y-113307142D01*
X150790476Y-113211904D01*
X150790476Y-112402380D01*
X149885714Y-112735714D02*
X149885714Y-113402380D01*
X150123809Y-112354761D02*
X150361904Y-113069047D01*
X149742857Y-113069047D01*
X141844444Y-34263620D02*
X141844444Y-35073144D01*
X141796825Y-35168382D01*
X141749206Y-35216001D01*
X141653968Y-35263620D01*
X141463492Y-35263620D01*
X141368254Y-35216001D01*
X141320635Y-35168382D01*
X141273016Y-35073144D01*
X141273016Y-34263620D01*
X140892063Y-34263620D02*
X140273016Y-34263620D01*
X140606349Y-34644573D01*
X140463492Y-34644573D01*
X140368254Y-34692192D01*
X140320635Y-34739811D01*
X140273016Y-34835049D01*
X140273016Y-35073144D01*
X140320635Y-35168382D01*
X140368254Y-35216001D01*
X140463492Y-35263620D01*
X140749206Y-35263620D01*
X140844444Y-35216001D01*
X140892063Y-35168382D01*
X126737380Y-83688095D02*
X127546904Y-83688095D01*
X127642142Y-83735714D01*
X127689761Y-83783333D01*
X127737380Y-83878571D01*
X127737380Y-84069047D01*
X127689761Y-84164285D01*
X127642142Y-84211904D01*
X127546904Y-84259523D01*
X126737380Y-84259523D01*
X127737380Y-85259523D02*
X127737380Y-84688095D01*
X127737380Y-84973809D02*
X126737380Y-84973809D01*
X126880238Y-84878571D01*
X126975476Y-84783333D01*
X127023095Y-84688095D01*
X135852380Y-96183333D02*
X135376190Y-95850000D01*
X135852380Y-95611904D02*
X134852380Y-95611904D01*
X134852380Y-95992857D01*
X134900000Y-96088095D01*
X134947619Y-96135714D01*
X135042857Y-96183333D01*
X135185714Y-96183333D01*
X135280952Y-96135714D01*
X135328571Y-96088095D01*
X135376190Y-95992857D01*
X135376190Y-95611904D01*
X134852380Y-97088095D02*
X134852380Y-96611904D01*
X135328571Y-96564285D01*
X135280952Y-96611904D01*
X135233333Y-96707142D01*
X135233333Y-96945238D01*
X135280952Y-97040476D01*
X135328571Y-97088095D01*
X135423809Y-97135714D01*
X135661904Y-97135714D01*
X135757142Y-97088095D01*
X135804761Y-97040476D01*
X135852380Y-96945238D01*
X135852380Y-96707142D01*
X135804761Y-96611904D01*
X135757142Y-96564285D01*
X120722380Y-99833333D02*
X120246190Y-99500000D01*
X120722380Y-99261904D02*
X119722380Y-99261904D01*
X119722380Y-99642857D01*
X119770000Y-99738095D01*
X119817619Y-99785714D01*
X119912857Y-99833333D01*
X120055714Y-99833333D01*
X120150952Y-99785714D01*
X120198571Y-99738095D01*
X120246190Y-99642857D01*
X120246190Y-99261904D01*
X120055714Y-100690476D02*
X120722380Y-100690476D01*
X119674761Y-100452380D02*
X120389047Y-100214285D01*
X120389047Y-100833333D01*
X124552380Y-112233333D02*
X124076190Y-111900000D01*
X124552380Y-111661904D02*
X123552380Y-111661904D01*
X123552380Y-112042857D01*
X123600000Y-112138095D01*
X123647619Y-112185714D01*
X123742857Y-112233333D01*
X123885714Y-112233333D01*
X123980952Y-112185714D01*
X124028571Y-112138095D01*
X124076190Y-112042857D01*
X124076190Y-111661904D01*
X123552380Y-112566666D02*
X123552380Y-113185714D01*
X123933333Y-112852380D01*
X123933333Y-112995238D01*
X123980952Y-113090476D01*
X124028571Y-113138095D01*
X124123809Y-113185714D01*
X124361904Y-113185714D01*
X124457142Y-113138095D01*
X124504761Y-113090476D01*
X124552380Y-112995238D01*
X124552380Y-112709523D01*
X124504761Y-112614285D01*
X124457142Y-112566666D01*
X138902380Y-81833333D02*
X138902380Y-81357142D01*
X137902380Y-81357142D01*
X138902380Y-82690476D02*
X138902380Y-82119047D01*
X138902380Y-82404761D02*
X137902380Y-82404761D01*
X138045238Y-82309523D01*
X138140476Y-82214285D01*
X138188095Y-82119047D01*
X150083333Y-109932380D02*
X150083333Y-110646666D01*
X150130952Y-110789523D01*
X150226190Y-110884761D01*
X150369047Y-110932380D01*
X150464285Y-110932380D01*
X149607142Y-110932380D02*
X149607142Y-109932380D01*
X149226190Y-109932380D01*
X149130952Y-109980000D01*
X149083333Y-110027619D01*
X149035714Y-110122857D01*
X149035714Y-110265714D01*
X149083333Y-110360952D01*
X149130952Y-110408571D01*
X149226190Y-110456190D01*
X149607142Y-110456190D01*
X148083333Y-110932380D02*
X148654761Y-110932380D01*
X148369047Y-110932380D02*
X148369047Y-109932380D01*
X148464285Y-110075238D01*
X148559523Y-110170476D01*
X148654761Y-110218095D01*
X133432380Y-66666666D02*
X134146666Y-66666666D01*
X134289523Y-66619047D01*
X134384761Y-66523809D01*
X134432380Y-66380952D01*
X134432380Y-66285714D01*
X133765714Y-67571428D02*
X134432380Y-67571428D01*
X133384761Y-67333333D02*
X134099047Y-67095238D01*
X134099047Y-67714285D01*
X140353333Y-99712380D02*
X140353333Y-100426666D01*
X140400952Y-100569523D01*
X140496190Y-100664761D01*
X140639047Y-100712380D01*
X140734285Y-100712380D01*
X139972380Y-99712380D02*
X139353333Y-99712380D01*
X139686666Y-100093333D01*
X139543809Y-100093333D01*
X139448571Y-100140952D01*
X139400952Y-100188571D01*
X139353333Y-100283809D01*
X139353333Y-100521904D01*
X139400952Y-100617142D01*
X139448571Y-100664761D01*
X139543809Y-100712380D01*
X139829523Y-100712380D01*
X139924761Y-100664761D01*
X139972380Y-100617142D01*
X124883333Y-114802380D02*
X124883333Y-115516666D01*
X124930952Y-115659523D01*
X125026190Y-115754761D01*
X125169047Y-115802380D01*
X125264285Y-115802380D01*
X123883333Y-115802380D02*
X124454761Y-115802380D01*
X124169047Y-115802380D02*
X124169047Y-114802380D01*
X124264285Y-114945238D01*
X124359523Y-115040476D01*
X124454761Y-115088095D01*
X130888095Y-93302380D02*
X130888095Y-92302380D01*
X130650000Y-92302380D01*
X130507142Y-92350000D01*
X130411904Y-92445238D01*
X130364285Y-92540476D01*
X130316666Y-92730952D01*
X130316666Y-92873809D01*
X130364285Y-93064285D01*
X130411904Y-93159523D01*
X130507142Y-93254761D01*
X130650000Y-93302380D01*
X130888095Y-93302380D01*
X129935714Y-92397619D02*
X129888095Y-92350000D01*
X129792857Y-92302380D01*
X129554761Y-92302380D01*
X129459523Y-92350000D01*
X129411904Y-92397619D01*
X129364285Y-92492857D01*
X129364285Y-92588095D01*
X129411904Y-92730952D01*
X129983333Y-93302380D01*
X129364285Y-93302380D01*
X152537142Y-92123809D02*
X152584761Y-92076190D01*
X152632380Y-91933333D01*
X152632380Y-91838095D01*
X152584761Y-91695238D01*
X152489523Y-91600000D01*
X152394285Y-91552380D01*
X152203809Y-91504761D01*
X152060952Y-91504761D01*
X151870476Y-91552380D01*
X151775238Y-91600000D01*
X151680000Y-91695238D01*
X151632380Y-91838095D01*
X151632380Y-91933333D01*
X151680000Y-92076190D01*
X151727619Y-92123809D01*
X152632380Y-92552380D02*
X151965714Y-92552380D01*
X152156190Y-92552380D02*
X152060952Y-92600000D01*
X152013333Y-92647619D01*
X151965714Y-92742857D01*
X151965714Y-92838095D01*
X151727619Y-93123809D02*
X151680000Y-93171428D01*
X151632380Y-93266666D01*
X151632380Y-93504761D01*
X151680000Y-93600000D01*
X151727619Y-93647619D01*
X151822857Y-93695238D01*
X151918095Y-93695238D01*
X152060952Y-93647619D01*
X152632380Y-93076190D01*
X152632380Y-93695238D01*
X148826190Y-93477142D02*
X148873809Y-93524761D01*
X149016666Y-93572380D01*
X149111904Y-93572380D01*
X149254761Y-93524761D01*
X149350000Y-93429523D01*
X149397619Y-93334285D01*
X149445238Y-93143809D01*
X149445238Y-93000952D01*
X149397619Y-92810476D01*
X149350000Y-92715238D01*
X149254761Y-92620000D01*
X149111904Y-92572380D01*
X149016666Y-92572380D01*
X148873809Y-92620000D01*
X148826190Y-92667619D01*
X148397619Y-93572380D02*
X148397619Y-92905714D01*
X148397619Y-93096190D02*
X148350000Y-93000952D01*
X148302380Y-92953333D01*
X148207142Y-92905714D01*
X148111904Y-92905714D01*
X147254761Y-93572380D02*
X147826190Y-93572380D01*
X147540476Y-93572380D02*
X147540476Y-92572380D01*
X147635714Y-92715238D01*
X147730952Y-92810476D01*
X147826190Y-92858095D01*
X128287142Y-74104761D02*
X128334761Y-74057142D01*
X128382380Y-73914285D01*
X128382380Y-73819047D01*
X128334761Y-73676190D01*
X128239523Y-73580952D01*
X128144285Y-73533333D01*
X127953809Y-73485714D01*
X127810952Y-73485714D01*
X127620476Y-73533333D01*
X127525238Y-73580952D01*
X127430000Y-73676190D01*
X127382380Y-73819047D01*
X127382380Y-73914285D01*
X127430000Y-74057142D01*
X127477619Y-74104761D01*
X128334761Y-74961904D02*
X128382380Y-74866666D01*
X128382380Y-74676190D01*
X128334761Y-74580952D01*
X128287142Y-74533333D01*
X128191904Y-74485714D01*
X127906190Y-74485714D01*
X127810952Y-74533333D01*
X127763333Y-74580952D01*
X127715714Y-74676190D01*
X127715714Y-74866666D01*
X127763333Y-74961904D01*
X127477619Y-75342857D02*
X127430000Y-75390476D01*
X127382380Y-75485714D01*
X127382380Y-75723809D01*
X127430000Y-75819047D01*
X127477619Y-75866666D01*
X127572857Y-75914285D01*
X127668095Y-75914285D01*
X127810952Y-75866666D01*
X128382380Y-75295238D01*
X128382380Y-75914285D01*
X122307142Y-74054761D02*
X122354761Y-74007142D01*
X122402380Y-73864285D01*
X122402380Y-73769047D01*
X122354761Y-73626190D01*
X122259523Y-73530952D01*
X122164285Y-73483333D01*
X121973809Y-73435714D01*
X121830952Y-73435714D01*
X121640476Y-73483333D01*
X121545238Y-73530952D01*
X121450000Y-73626190D01*
X121402380Y-73769047D01*
X121402380Y-73864285D01*
X121450000Y-74007142D01*
X121497619Y-74054761D01*
X122354761Y-74911904D02*
X122402380Y-74816666D01*
X122402380Y-74626190D01*
X122354761Y-74530952D01*
X122307142Y-74483333D01*
X122211904Y-74435714D01*
X121926190Y-74435714D01*
X121830952Y-74483333D01*
X121783333Y-74530952D01*
X121735714Y-74626190D01*
X121735714Y-74816666D01*
X121783333Y-74911904D01*
X122402380Y-75864285D02*
X122402380Y-75292857D01*
X122402380Y-75578571D02*
X121402380Y-75578571D01*
X121545238Y-75483333D01*
X121640476Y-75388095D01*
X121688095Y-75292857D01*
X136145238Y-84907142D02*
X136192857Y-84954761D01*
X136335714Y-85002380D01*
X136430952Y-85002380D01*
X136573809Y-84954761D01*
X136669047Y-84859523D01*
X136716666Y-84764285D01*
X136764285Y-84573809D01*
X136764285Y-84430952D01*
X136716666Y-84240476D01*
X136669047Y-84145238D01*
X136573809Y-84050000D01*
X136430952Y-84002380D01*
X136335714Y-84002380D01*
X136192857Y-84050000D01*
X136145238Y-84097619D01*
X135764285Y-84097619D02*
X135716666Y-84050000D01*
X135621428Y-84002380D01*
X135383333Y-84002380D01*
X135288095Y-84050000D01*
X135240476Y-84097619D01*
X135192857Y-84192857D01*
X135192857Y-84288095D01*
X135240476Y-84430952D01*
X135811904Y-85002380D01*
X135192857Y-85002380D01*
X134764285Y-85002380D02*
X134764285Y-84002380D01*
X134764285Y-84383333D02*
X134669047Y-84335714D01*
X134478571Y-84335714D01*
X134383333Y-84383333D01*
X134335714Y-84430952D01*
X134288095Y-84526190D01*
X134288095Y-84811904D01*
X134335714Y-84907142D01*
X134383333Y-84954761D01*
X134478571Y-85002380D01*
X134669047Y-85002380D01*
X134764285Y-84954761D01*
X133335714Y-85002380D02*
X133907142Y-85002380D01*
X133621428Y-85002380D02*
X133621428Y-84002380D01*
X133716666Y-84145238D01*
X133811904Y-84240476D01*
X133907142Y-84288095D01*
X134595238Y-80007142D02*
X134642857Y-80054761D01*
X134785714Y-80102380D01*
X134880952Y-80102380D01*
X135023809Y-80054761D01*
X135119047Y-79959523D01*
X135166666Y-79864285D01*
X135214285Y-79673809D01*
X135214285Y-79530952D01*
X135166666Y-79340476D01*
X135119047Y-79245238D01*
X135023809Y-79150000D01*
X134880952Y-79102380D01*
X134785714Y-79102380D01*
X134642857Y-79150000D01*
X134595238Y-79197619D01*
X134214285Y-79197619D02*
X134166666Y-79150000D01*
X134071428Y-79102380D01*
X133833333Y-79102380D01*
X133738095Y-79150000D01*
X133690476Y-79197619D01*
X133642857Y-79292857D01*
X133642857Y-79388095D01*
X133690476Y-79530952D01*
X134261904Y-80102380D01*
X133642857Y-80102380D01*
X132785714Y-80102380D02*
X132785714Y-79578571D01*
X132833333Y-79483333D01*
X132928571Y-79435714D01*
X133119047Y-79435714D01*
X133214285Y-79483333D01*
X132785714Y-80054761D02*
X132880952Y-80102380D01*
X133119047Y-80102380D01*
X133214285Y-80054761D01*
X133261904Y-79959523D01*
X133261904Y-79864285D01*
X133214285Y-79769047D01*
X133119047Y-79721428D01*
X132880952Y-79721428D01*
X132785714Y-79673809D01*
X131785714Y-80102380D02*
X132357142Y-80102380D01*
X132071428Y-80102380D02*
X132071428Y-79102380D01*
X132166666Y-79245238D01*
X132261904Y-79340476D01*
X132357142Y-79388095D01*
X121966666Y-115737142D02*
X122014285Y-115784761D01*
X122157142Y-115832380D01*
X122252380Y-115832380D01*
X122395238Y-115784761D01*
X122490476Y-115689523D01*
X122538095Y-115594285D01*
X122585714Y-115403809D01*
X122585714Y-115260952D01*
X122538095Y-115070476D01*
X122490476Y-114975238D01*
X122395238Y-114880000D01*
X122252380Y-114832380D01*
X122157142Y-114832380D01*
X122014285Y-114880000D01*
X121966666Y-114927619D01*
X121061904Y-114832380D02*
X121538095Y-114832380D01*
X121585714Y-115308571D01*
X121538095Y-115260952D01*
X121442857Y-115213333D01*
X121204761Y-115213333D01*
X121109523Y-115260952D01*
X121061904Y-115308571D01*
X121014285Y-115403809D01*
X121014285Y-115641904D01*
X121061904Y-115737142D01*
X121109523Y-115784761D01*
X121204761Y-115832380D01*
X121442857Y-115832380D01*
X121538095Y-115784761D01*
X121585714Y-115737142D01*
X120516666Y-85657142D02*
X120564285Y-85704761D01*
X120707142Y-85752380D01*
X120802380Y-85752380D01*
X120945238Y-85704761D01*
X121040476Y-85609523D01*
X121088095Y-85514285D01*
X121135714Y-85323809D01*
X121135714Y-85180952D01*
X121088095Y-84990476D01*
X121040476Y-84895238D01*
X120945238Y-84800000D01*
X120802380Y-84752380D01*
X120707142Y-84752380D01*
X120564285Y-84800000D01*
X120516666Y-84847619D01*
X119659523Y-85085714D02*
X119659523Y-85752380D01*
X119897619Y-84704761D02*
X120135714Y-85419047D01*
X119516666Y-85419047D01*
X130666666Y-44007142D02*
X130714285Y-44054761D01*
X130857142Y-44102380D01*
X130952380Y-44102380D01*
X131095238Y-44054761D01*
X131190476Y-43959523D01*
X131238095Y-43864285D01*
X131285714Y-43673809D01*
X131285714Y-43530952D01*
X131238095Y-43340476D01*
X131190476Y-43245238D01*
X131095238Y-43150000D01*
X130952380Y-43102380D01*
X130857142Y-43102380D01*
X130714285Y-43150000D01*
X130666666Y-43197619D01*
X130285714Y-43197619D02*
X130238095Y-43150000D01*
X130142857Y-43102380D01*
X129904761Y-43102380D01*
X129809523Y-43150000D01*
X129761904Y-43197619D01*
X129714285Y-43292857D01*
X129714285Y-43388095D01*
X129761904Y-43530952D01*
X130333333Y-44102380D01*
X129714285Y-44102380D01*
X127877142Y-45783333D02*
X127924761Y-45735714D01*
X127972380Y-45592857D01*
X127972380Y-45497619D01*
X127924761Y-45354761D01*
X127829523Y-45259523D01*
X127734285Y-45211904D01*
X127543809Y-45164285D01*
X127400952Y-45164285D01*
X127210476Y-45211904D01*
X127115238Y-45259523D01*
X127020000Y-45354761D01*
X126972380Y-45497619D01*
X126972380Y-45592857D01*
X127020000Y-45735714D01*
X127067619Y-45783333D01*
X127972380Y-46735714D02*
X127972380Y-46164285D01*
X127972380Y-46450000D02*
X126972380Y-46450000D01*
X127115238Y-46354761D01*
X127210476Y-46259523D01*
X127258095Y-46164285D01*
M02*
