G04 #@! TF.GenerationSoftware,KiCad,Pcbnew,5.99.0-unknown-c7daca1~86~ubuntu18.04.1*
G04 #@! TF.CreationDate,2020-03-27T13:13:07-03:00*
G04 #@! TF.ProjectId,FOD,464f442e-6b69-4636-9164-5f7063625858,rev?*
G04 #@! TF.SameCoordinates,Original*
G04 #@! TF.FileFunction,Legend,Bot*
G04 #@! TF.FilePolarity,Positive*
%FSLAX46Y46*%
G04 Gerber Fmt 4.6, Leading zero omitted, Abs format (unit mm)*
G04 Created by KiCad (PCBNEW 5.99.0-unknown-c7daca1~86~ubuntu18.04.1) date 2020-03-27 13:13:07*
%MOMM*%
%LPD*%
G01*
G04 APERTURE LIST*
%ADD10C,0.150000*%
%ADD11C,0.200000*%
%ADD12C,0.120000*%
G04 APERTURE END LIST*
D10*
X168438095Y-83826309D02*
X167638095Y-83559642D01*
X168438095Y-83292976D01*
X167866666Y-83064404D02*
X167866666Y-82683452D01*
X167638095Y-83140595D02*
X168438095Y-82873928D01*
X167638095Y-82607261D01*
X168438095Y-82340595D02*
X167790476Y-82340595D01*
X167714285Y-82302500D01*
X167676190Y-82264404D01*
X167638095Y-82188214D01*
X167638095Y-82035833D01*
X167676190Y-81959642D01*
X167714285Y-81921547D01*
X167790476Y-81883452D01*
X168438095Y-81883452D01*
X168438095Y-81578690D02*
X167638095Y-81045357D01*
X168438095Y-81045357D02*
X167638095Y-81578690D01*
X168361904Y-80778690D02*
X168400000Y-80740595D01*
X168438095Y-80664404D01*
X168438095Y-80473928D01*
X168400000Y-80397738D01*
X168361904Y-80359642D01*
X168285714Y-80321547D01*
X168209523Y-80321547D01*
X168095238Y-80359642D01*
X167638095Y-80816785D01*
X167638095Y-80321547D01*
X168438095Y-108854642D02*
X167638095Y-108587976D01*
X168438095Y-108321309D01*
X167866666Y-108092738D02*
X167866666Y-107711785D01*
X167638095Y-108168928D02*
X168438095Y-107902261D01*
X167638095Y-107635595D01*
X168438095Y-107368928D02*
X167790476Y-107368928D01*
X167714285Y-107330833D01*
X167676190Y-107292738D01*
X167638095Y-107216547D01*
X167638095Y-107064166D01*
X167676190Y-106987976D01*
X167714285Y-106949880D01*
X167790476Y-106911785D01*
X168438095Y-106911785D01*
X168438095Y-106607023D02*
X167638095Y-106073690D01*
X168438095Y-106073690D02*
X167638095Y-106607023D01*
X168361904Y-105807023D02*
X168400000Y-105768928D01*
X168438095Y-105692738D01*
X168438095Y-105502261D01*
X168400000Y-105426071D01*
X168361904Y-105387976D01*
X168285714Y-105349880D01*
X168209523Y-105349880D01*
X168095238Y-105387976D01*
X167638095Y-105845119D01*
X167638095Y-105349880D01*
X101647619Y-93971309D02*
X102647619Y-93971309D01*
X102647619Y-93590357D01*
X102600000Y-93495119D01*
X102552380Y-93447500D01*
X102457142Y-93399880D01*
X102314285Y-93399880D01*
X102219047Y-93447500D01*
X102171428Y-93495119D01*
X102123809Y-93590357D01*
X102123809Y-93971309D01*
X102647619Y-92780833D02*
X102647619Y-92590357D01*
X102600000Y-92495119D01*
X102504761Y-92399880D01*
X102314285Y-92352261D01*
X101980952Y-92352261D01*
X101790476Y-92399880D01*
X101695238Y-92495119D01*
X101647619Y-92590357D01*
X101647619Y-92780833D01*
X101695238Y-92876071D01*
X101790476Y-92971309D01*
X101980952Y-93018928D01*
X102314285Y-93018928D01*
X102504761Y-92971309D01*
X102600000Y-92876071D01*
X102647619Y-92780833D01*
X101647619Y-91352261D02*
X102123809Y-91685595D01*
X101647619Y-91923690D02*
X102647619Y-91923690D01*
X102647619Y-91542738D01*
X102600000Y-91447500D01*
X102552380Y-91399880D01*
X102457142Y-91352261D01*
X102314285Y-91352261D01*
X102219047Y-91399880D01*
X102171428Y-91447500D01*
X102123809Y-91542738D01*
X102123809Y-91923690D01*
X102647619Y-91066547D02*
X102647619Y-90495119D01*
X101647619Y-90780833D02*
X102647619Y-90780833D01*
X102552380Y-90209404D02*
X102600000Y-90161785D01*
X102647619Y-90066547D01*
X102647619Y-89828452D01*
X102600000Y-89733214D01*
X102552380Y-89685595D01*
X102457142Y-89637976D01*
X102361904Y-89637976D01*
X102219047Y-89685595D01*
X101647619Y-90257023D01*
X101647619Y-89637976D01*
X179847619Y-93971309D02*
X180847619Y-93971309D01*
X180847619Y-93590357D01*
X180800000Y-93495119D01*
X180752380Y-93447500D01*
X180657142Y-93399880D01*
X180514285Y-93399880D01*
X180419047Y-93447500D01*
X180371428Y-93495119D01*
X180323809Y-93590357D01*
X180323809Y-93971309D01*
X180847619Y-92780833D02*
X180847619Y-92590357D01*
X180800000Y-92495119D01*
X180704761Y-92399880D01*
X180514285Y-92352261D01*
X180180952Y-92352261D01*
X179990476Y-92399880D01*
X179895238Y-92495119D01*
X179847619Y-92590357D01*
X179847619Y-92780833D01*
X179895238Y-92876071D01*
X179990476Y-92971309D01*
X180180952Y-93018928D01*
X180514285Y-93018928D01*
X180704761Y-92971309D01*
X180800000Y-92876071D01*
X180847619Y-92780833D01*
X179847619Y-91352261D02*
X180323809Y-91685595D01*
X179847619Y-91923690D02*
X180847619Y-91923690D01*
X180847619Y-91542738D01*
X180800000Y-91447500D01*
X180752380Y-91399880D01*
X180657142Y-91352261D01*
X180514285Y-91352261D01*
X180419047Y-91399880D01*
X180371428Y-91447500D01*
X180323809Y-91542738D01*
X180323809Y-91923690D01*
X180847619Y-91066547D02*
X180847619Y-90495119D01*
X179847619Y-90780833D02*
X180847619Y-90780833D01*
X179847619Y-89637976D02*
X179847619Y-90209404D01*
X179847619Y-89923690D02*
X180847619Y-89923690D01*
X180704761Y-90018928D01*
X180609523Y-90114166D01*
X180561904Y-90209404D01*
X149497619Y-96702380D02*
X149973809Y-97035714D01*
X149497619Y-97273809D02*
X150497619Y-97273809D01*
X150497619Y-96892857D01*
X150450000Y-96797619D01*
X150402380Y-96750000D01*
X150307142Y-96702380D01*
X150164285Y-96702380D01*
X150069047Y-96750000D01*
X150021428Y-96797619D01*
X149973809Y-96892857D01*
X149973809Y-97273809D01*
X150021428Y-96273809D02*
X150021428Y-95940476D01*
X149497619Y-95797619D02*
X149497619Y-96273809D01*
X150497619Y-96273809D01*
X150497619Y-95797619D01*
X149545238Y-95416666D02*
X149497619Y-95273809D01*
X149497619Y-95035714D01*
X149545238Y-94940476D01*
X149592857Y-94892857D01*
X149688095Y-94845238D01*
X149783333Y-94845238D01*
X149878571Y-94892857D01*
X149926190Y-94940476D01*
X149973809Y-95035714D01*
X150021428Y-95226190D01*
X150069047Y-95321428D01*
X150116666Y-95369047D01*
X150211904Y-95416666D01*
X150307142Y-95416666D01*
X150402380Y-95369047D01*
X150450000Y-95321428D01*
X150497619Y-95226190D01*
X150497619Y-94988095D01*
X150450000Y-94845238D01*
X150021428Y-94416666D02*
X150021428Y-94083333D01*
X149497619Y-93940476D02*
X149497619Y-94416666D01*
X150497619Y-94416666D01*
X150497619Y-93940476D01*
X150497619Y-93654761D02*
X150497619Y-93083333D01*
X149497619Y-93369047D02*
X150497619Y-93369047D01*
X169742857Y-83816785D02*
X168842857Y-83516785D01*
X169742857Y-83216785D01*
X169100000Y-82959642D02*
X169100000Y-82531071D01*
X168842857Y-83045357D02*
X169742857Y-82745357D01*
X168842857Y-82445357D01*
X169742857Y-82145357D02*
X169014285Y-82145357D01*
X168928571Y-82102500D01*
X168885714Y-82059642D01*
X168842857Y-81973928D01*
X168842857Y-81802500D01*
X168885714Y-81716785D01*
X168928571Y-81673928D01*
X169014285Y-81631071D01*
X169742857Y-81631071D01*
X169742857Y-81288214D02*
X168842857Y-80688214D01*
X169742857Y-80688214D02*
X168842857Y-81288214D01*
X167200000Y-83216785D02*
X167242857Y-83302500D01*
X167242857Y-83431071D01*
X167200000Y-83559642D01*
X167114285Y-83645357D01*
X167028571Y-83688214D01*
X166857142Y-83731071D01*
X166728571Y-83731071D01*
X166557142Y-83688214D01*
X166471428Y-83645357D01*
X166385714Y-83559642D01*
X166342857Y-83431071D01*
X166342857Y-83345357D01*
X166385714Y-83216785D01*
X166428571Y-83173928D01*
X166728571Y-83173928D01*
X166728571Y-83345357D01*
X166342857Y-82788214D02*
X167242857Y-82788214D01*
X166342857Y-82273928D01*
X167242857Y-82273928D01*
X166342857Y-81845357D02*
X167242857Y-81845357D01*
X167242857Y-81631071D01*
X167200000Y-81502500D01*
X167114285Y-81416785D01*
X167028571Y-81373928D01*
X166857142Y-81331071D01*
X166728571Y-81331071D01*
X166557142Y-81373928D01*
X166471428Y-81416785D01*
X166385714Y-81502500D01*
X166342857Y-81631071D01*
X166342857Y-81845357D01*
X165992857Y-83773928D02*
X165992857Y-83216785D01*
X165650000Y-83516785D01*
X165650000Y-83388214D01*
X165607142Y-83302500D01*
X165564285Y-83259642D01*
X165478571Y-83216785D01*
X165264285Y-83216785D01*
X165178571Y-83259642D01*
X165135714Y-83302500D01*
X165092857Y-83388214D01*
X165092857Y-83645357D01*
X165135714Y-83731071D01*
X165178571Y-83773928D01*
X165992857Y-82959642D02*
X165092857Y-82659642D01*
X165992857Y-82359642D01*
X165992857Y-82145357D02*
X165992857Y-81588214D01*
X165650000Y-81888214D01*
X165650000Y-81759642D01*
X165607142Y-81673928D01*
X165564285Y-81631071D01*
X165478571Y-81588214D01*
X165264285Y-81588214D01*
X165178571Y-81631071D01*
X165135714Y-81673928D01*
X165092857Y-81759642D01*
X165092857Y-82016785D01*
X165135714Y-82102500D01*
X165178571Y-82145357D01*
X163885714Y-83731071D02*
X163842857Y-83602500D01*
X163842857Y-83388214D01*
X163885714Y-83302500D01*
X163928571Y-83259642D01*
X164014285Y-83216785D01*
X164100000Y-83216785D01*
X164185714Y-83259642D01*
X164228571Y-83302500D01*
X164271428Y-83388214D01*
X164314285Y-83559642D01*
X164357142Y-83645357D01*
X164400000Y-83688214D01*
X164485714Y-83731071D01*
X164571428Y-83731071D01*
X164657142Y-83688214D01*
X164700000Y-83645357D01*
X164742857Y-83559642D01*
X164742857Y-83345357D01*
X164700000Y-83216785D01*
X163928571Y-82316785D02*
X163885714Y-82359642D01*
X163842857Y-82488214D01*
X163842857Y-82573928D01*
X163885714Y-82702500D01*
X163971428Y-82788214D01*
X164057142Y-82831071D01*
X164228571Y-82873928D01*
X164357142Y-82873928D01*
X164528571Y-82831071D01*
X164614285Y-82788214D01*
X164700000Y-82702500D01*
X164742857Y-82573928D01*
X164742857Y-82488214D01*
X164700000Y-82359642D01*
X164657142Y-82316785D01*
X163842857Y-81502500D02*
X163842857Y-81931071D01*
X164742857Y-81931071D01*
X162635714Y-83731071D02*
X162592857Y-83602500D01*
X162592857Y-83388214D01*
X162635714Y-83302500D01*
X162678571Y-83259642D01*
X162764285Y-83216785D01*
X162850000Y-83216785D01*
X162935714Y-83259642D01*
X162978571Y-83302500D01*
X163021428Y-83388214D01*
X163064285Y-83559642D01*
X163107142Y-83645357D01*
X163150000Y-83688214D01*
X163235714Y-83731071D01*
X163321428Y-83731071D01*
X163407142Y-83688214D01*
X163450000Y-83645357D01*
X163492857Y-83559642D01*
X163492857Y-83345357D01*
X163450000Y-83216785D01*
X162592857Y-82831071D02*
X163492857Y-82831071D01*
X163492857Y-82616785D01*
X163450000Y-82488214D01*
X163364285Y-82402500D01*
X163278571Y-82359642D01*
X163107142Y-82316785D01*
X162978571Y-82316785D01*
X162807142Y-82359642D01*
X162721428Y-82402500D01*
X162635714Y-82488214D01*
X162592857Y-82616785D01*
X162592857Y-82831071D01*
X162850000Y-81973928D02*
X162850000Y-81545357D01*
X162592857Y-82059642D02*
X163492857Y-81759642D01*
X162592857Y-81459642D01*
X169742857Y-108454642D02*
X168842857Y-108154642D01*
X169742857Y-107854642D01*
X169100000Y-107597500D02*
X169100000Y-107168928D01*
X168842857Y-107683214D02*
X169742857Y-107383214D01*
X168842857Y-107083214D01*
X169742857Y-106783214D02*
X169014285Y-106783214D01*
X168928571Y-106740357D01*
X168885714Y-106697500D01*
X168842857Y-106611785D01*
X168842857Y-106440357D01*
X168885714Y-106354642D01*
X168928571Y-106311785D01*
X169014285Y-106268928D01*
X169742857Y-106268928D01*
X169742857Y-105926071D02*
X168842857Y-105326071D01*
X169742857Y-105326071D02*
X168842857Y-105926071D01*
X167200000Y-107254642D02*
X167242857Y-107340357D01*
X167242857Y-107468928D01*
X167200000Y-107597500D01*
X167114285Y-107683214D01*
X167028571Y-107726071D01*
X166857142Y-107768928D01*
X166728571Y-107768928D01*
X166557142Y-107726071D01*
X166471428Y-107683214D01*
X166385714Y-107597500D01*
X166342857Y-107468928D01*
X166342857Y-107383214D01*
X166385714Y-107254642D01*
X166428571Y-107211785D01*
X166728571Y-107211785D01*
X166728571Y-107383214D01*
X166342857Y-106826071D02*
X167242857Y-106826071D01*
X166342857Y-106311785D01*
X167242857Y-106311785D01*
X166342857Y-105883214D02*
X167242857Y-105883214D01*
X167242857Y-105668928D01*
X167200000Y-105540357D01*
X167114285Y-105454642D01*
X167028571Y-105411785D01*
X166857142Y-105368928D01*
X166728571Y-105368928D01*
X166557142Y-105411785D01*
X166471428Y-105454642D01*
X166385714Y-105540357D01*
X166342857Y-105668928D01*
X166342857Y-105883214D01*
X165992857Y-107554642D02*
X165992857Y-106997500D01*
X165650000Y-107297500D01*
X165650000Y-107168928D01*
X165607142Y-107083214D01*
X165564285Y-107040357D01*
X165478571Y-106997500D01*
X165264285Y-106997500D01*
X165178571Y-107040357D01*
X165135714Y-107083214D01*
X165092857Y-107168928D01*
X165092857Y-107426071D01*
X165135714Y-107511785D01*
X165178571Y-107554642D01*
X165992857Y-106740357D02*
X165092857Y-106440357D01*
X165992857Y-106140357D01*
X165992857Y-105926071D02*
X165992857Y-105368928D01*
X165650000Y-105668928D01*
X165650000Y-105540357D01*
X165607142Y-105454642D01*
X165564285Y-105411785D01*
X165478571Y-105368928D01*
X165264285Y-105368928D01*
X165178571Y-105411785D01*
X165135714Y-105454642D01*
X165092857Y-105540357D01*
X165092857Y-105797500D01*
X165135714Y-105883214D01*
X165178571Y-105926071D01*
X163885714Y-107511785D02*
X163842857Y-107383214D01*
X163842857Y-107168928D01*
X163885714Y-107083214D01*
X163928571Y-107040357D01*
X164014285Y-106997500D01*
X164100000Y-106997500D01*
X164185714Y-107040357D01*
X164228571Y-107083214D01*
X164271428Y-107168928D01*
X164314285Y-107340357D01*
X164357142Y-107426071D01*
X164400000Y-107468928D01*
X164485714Y-107511785D01*
X164571428Y-107511785D01*
X164657142Y-107468928D01*
X164700000Y-107426071D01*
X164742857Y-107340357D01*
X164742857Y-107126071D01*
X164700000Y-106997500D01*
X163928571Y-106097500D02*
X163885714Y-106140357D01*
X163842857Y-106268928D01*
X163842857Y-106354642D01*
X163885714Y-106483214D01*
X163971428Y-106568928D01*
X164057142Y-106611785D01*
X164228571Y-106654642D01*
X164357142Y-106654642D01*
X164528571Y-106611785D01*
X164614285Y-106568928D01*
X164700000Y-106483214D01*
X164742857Y-106354642D01*
X164742857Y-106268928D01*
X164700000Y-106140357D01*
X164657142Y-106097500D01*
X163842857Y-105283214D02*
X163842857Y-105711785D01*
X164742857Y-105711785D01*
X162635714Y-107554642D02*
X162592857Y-107426071D01*
X162592857Y-107211785D01*
X162635714Y-107126071D01*
X162678571Y-107083214D01*
X162764285Y-107040357D01*
X162850000Y-107040357D01*
X162935714Y-107083214D01*
X162978571Y-107126071D01*
X163021428Y-107211785D01*
X163064285Y-107383214D01*
X163107142Y-107468928D01*
X163150000Y-107511785D01*
X163235714Y-107554642D01*
X163321428Y-107554642D01*
X163407142Y-107511785D01*
X163450000Y-107468928D01*
X163492857Y-107383214D01*
X163492857Y-107168928D01*
X163450000Y-107040357D01*
X162592857Y-106654642D02*
X163492857Y-106654642D01*
X163492857Y-106440357D01*
X163450000Y-106311785D01*
X163364285Y-106226071D01*
X163278571Y-106183214D01*
X163107142Y-106140357D01*
X162978571Y-106140357D01*
X162807142Y-106183214D01*
X162721428Y-106226071D01*
X162635714Y-106311785D01*
X162592857Y-106440357D01*
X162592857Y-106654642D01*
X162850000Y-105797500D02*
X162850000Y-105368928D01*
X162592857Y-105883214D02*
X163492857Y-105583214D01*
X162592857Y-105283214D01*
X156885714Y-107811785D02*
X156842857Y-107683214D01*
X156842857Y-107468928D01*
X156885714Y-107383214D01*
X156928571Y-107340357D01*
X157014285Y-107297500D01*
X157100000Y-107297500D01*
X157185714Y-107340357D01*
X157228571Y-107383214D01*
X157271428Y-107468928D01*
X157314285Y-107640357D01*
X157357142Y-107726071D01*
X157400000Y-107768928D01*
X157485714Y-107811785D01*
X157571428Y-107811785D01*
X157657142Y-107768928D01*
X157700000Y-107726071D01*
X157742857Y-107640357D01*
X157742857Y-107426071D01*
X157700000Y-107297500D01*
X157742857Y-106997500D02*
X156842857Y-106783214D01*
X157485714Y-106611785D01*
X156842857Y-106440357D01*
X157742857Y-106226071D01*
X156842857Y-105883214D02*
X157742857Y-105883214D01*
X157742857Y-105668928D01*
X157700000Y-105540357D01*
X157614285Y-105454642D01*
X157528571Y-105411785D01*
X157357142Y-105368928D01*
X157228571Y-105368928D01*
X157057142Y-105411785D01*
X156971428Y-105454642D01*
X156885714Y-105540357D01*
X156842857Y-105668928D01*
X156842857Y-105883214D01*
X155635714Y-107811785D02*
X155592857Y-107683214D01*
X155592857Y-107468928D01*
X155635714Y-107383214D01*
X155678571Y-107340357D01*
X155764285Y-107297500D01*
X155850000Y-107297500D01*
X155935714Y-107340357D01*
X155978571Y-107383214D01*
X156021428Y-107468928D01*
X156064285Y-107640357D01*
X156107142Y-107726071D01*
X156150000Y-107768928D01*
X156235714Y-107811785D01*
X156321428Y-107811785D01*
X156407142Y-107768928D01*
X156450000Y-107726071D01*
X156492857Y-107640357D01*
X156492857Y-107426071D01*
X156450000Y-107297500D01*
X156492857Y-106997500D02*
X155592857Y-106783214D01*
X156235714Y-106611785D01*
X155592857Y-106440357D01*
X156492857Y-106226071D01*
X155678571Y-105368928D02*
X155635714Y-105411785D01*
X155592857Y-105540357D01*
X155592857Y-105626071D01*
X155635714Y-105754642D01*
X155721428Y-105840357D01*
X155807142Y-105883214D01*
X155978571Y-105926071D01*
X156107142Y-105926071D01*
X156278571Y-105883214D01*
X156364285Y-105840357D01*
X156450000Y-105754642D01*
X156492857Y-105626071D01*
X156492857Y-105540357D01*
X156450000Y-105411785D01*
X156407142Y-105368928D01*
X155200000Y-107254642D02*
X155242857Y-107340357D01*
X155242857Y-107468928D01*
X155200000Y-107597500D01*
X155114285Y-107683214D01*
X155028571Y-107726071D01*
X154857142Y-107768928D01*
X154728571Y-107768928D01*
X154557142Y-107726071D01*
X154471428Y-107683214D01*
X154385714Y-107597500D01*
X154342857Y-107468928D01*
X154342857Y-107383214D01*
X154385714Y-107254642D01*
X154428571Y-107211785D01*
X154728571Y-107211785D01*
X154728571Y-107383214D01*
X154342857Y-106826071D02*
X155242857Y-106826071D01*
X154342857Y-106311785D01*
X155242857Y-106311785D01*
X154342857Y-105883214D02*
X155242857Y-105883214D01*
X155242857Y-105668928D01*
X155200000Y-105540357D01*
X155114285Y-105454642D01*
X155028571Y-105411785D01*
X154857142Y-105368928D01*
X154728571Y-105368928D01*
X154557142Y-105411785D01*
X154471428Y-105454642D01*
X154385714Y-105540357D01*
X154342857Y-105668928D01*
X154342857Y-105883214D01*
X153992857Y-107554642D02*
X153992857Y-106997500D01*
X153650000Y-107297500D01*
X153650000Y-107168928D01*
X153607142Y-107083214D01*
X153564285Y-107040357D01*
X153478571Y-106997500D01*
X153264285Y-106997500D01*
X153178571Y-107040357D01*
X153135714Y-107083214D01*
X153092857Y-107168928D01*
X153092857Y-107426071D01*
X153135714Y-107511785D01*
X153178571Y-107554642D01*
X153992857Y-106740357D02*
X153092857Y-106440357D01*
X153992857Y-106140357D01*
X153992857Y-105926071D02*
X153992857Y-105368928D01*
X153650000Y-105668928D01*
X153650000Y-105540357D01*
X153607142Y-105454642D01*
X153564285Y-105411785D01*
X153478571Y-105368928D01*
X153264285Y-105368928D01*
X153178571Y-105411785D01*
X153135714Y-105454642D01*
X153092857Y-105540357D01*
X153092857Y-105797500D01*
X153135714Y-105883214D01*
X153178571Y-105926071D01*
X151842857Y-106911785D02*
X152271428Y-107211785D01*
X151842857Y-107426071D02*
X152742857Y-107426071D01*
X152742857Y-107083214D01*
X152700000Y-106997500D01*
X152657142Y-106954642D01*
X152571428Y-106911785D01*
X152442857Y-106911785D01*
X152357142Y-106954642D01*
X152314285Y-106997500D01*
X152271428Y-107083214D01*
X152271428Y-107426071D01*
X151885714Y-106568928D02*
X151842857Y-106440357D01*
X151842857Y-106226071D01*
X151885714Y-106140357D01*
X151928571Y-106097500D01*
X152014285Y-106054642D01*
X152100000Y-106054642D01*
X152185714Y-106097500D01*
X152228571Y-106140357D01*
X152271428Y-106226071D01*
X152314285Y-106397500D01*
X152357142Y-106483214D01*
X152400000Y-106526071D01*
X152485714Y-106568928D01*
X152571428Y-106568928D01*
X152657142Y-106526071D01*
X152700000Y-106483214D01*
X152742857Y-106397500D01*
X152742857Y-106183214D01*
X152700000Y-106054642D01*
X152742857Y-105797500D02*
X152742857Y-105283214D01*
X151842857Y-105540357D02*
X152742857Y-105540357D01*
D11*
X167150000Y-87914285D02*
X167550000Y-87914285D01*
X167550000Y-88542857D02*
X167550000Y-87342857D01*
X166978571Y-87342857D01*
X166292857Y-87342857D02*
X166064285Y-87342857D01*
X165950000Y-87400000D01*
X165835714Y-87514285D01*
X165778571Y-87742857D01*
X165778571Y-88142857D01*
X165835714Y-88371428D01*
X165950000Y-88485714D01*
X166064285Y-88542857D01*
X166292857Y-88542857D01*
X166407142Y-88485714D01*
X166521428Y-88371428D01*
X166578571Y-88142857D01*
X166578571Y-87742857D01*
X166521428Y-87514285D01*
X166407142Y-87400000D01*
X166292857Y-87342857D01*
X165264285Y-88542857D02*
X165264285Y-87342857D01*
X164978571Y-87342857D01*
X164807142Y-87400000D01*
X164692857Y-87514285D01*
X164635714Y-87628571D01*
X164578571Y-87857142D01*
X164578571Y-88028571D01*
X164635714Y-88257142D01*
X164692857Y-88371428D01*
X164807142Y-88485714D01*
X164978571Y-88542857D01*
X165264285Y-88542857D01*
X163264285Y-87742857D02*
X162978571Y-88542857D01*
X162692857Y-87742857D01*
X162350000Y-87342857D02*
X161607142Y-87342857D01*
X162007142Y-87800000D01*
X161835714Y-87800000D01*
X161721428Y-87857142D01*
X161664285Y-87914285D01*
X161607142Y-88028571D01*
X161607142Y-88314285D01*
X161664285Y-88428571D01*
X161721428Y-88485714D01*
X161835714Y-88542857D01*
X162178571Y-88542857D01*
X162292857Y-88485714D01*
X162350000Y-88428571D01*
X161092857Y-88428571D02*
X161035714Y-88485714D01*
X161092857Y-88542857D01*
X161150000Y-88485714D01*
X161092857Y-88428571D01*
X161092857Y-88542857D01*
X160292857Y-87342857D02*
X160178571Y-87342857D01*
X160064285Y-87400000D01*
X160007142Y-87457142D01*
X159950000Y-87571428D01*
X159892857Y-87800000D01*
X159892857Y-88085714D01*
X159950000Y-88314285D01*
X160007142Y-88428571D01*
X160064285Y-88485714D01*
X160178571Y-88542857D01*
X160292857Y-88542857D01*
X160407142Y-88485714D01*
X160464285Y-88428571D01*
X160521428Y-88314285D01*
X160578571Y-88085714D01*
X160578571Y-87800000D01*
X160521428Y-87571428D01*
X160464285Y-87457142D01*
X160407142Y-87400000D01*
X160292857Y-87342857D01*
D10*
X128900000Y-97100000D02*
X128900000Y-88700000D01*
X129800000Y-97100000D02*
X128900000Y-97100000D01*
X129800000Y-100350000D02*
X129800000Y-97100000D01*
X127500000Y-87300000D02*
X115500000Y-87300000D01*
X115500000Y-87300000D02*
X115500000Y-101600000D01*
X115500000Y-101600000D02*
X128500000Y-101600000D01*
D12*
X103940000Y-93370000D02*
X111560000Y-93370000D01*
X111560000Y-94070000D02*
X111560000Y-89370000D01*
X103940000Y-94070000D02*
X111560000Y-94070000D01*
X103940000Y-89370000D02*
X103940000Y-94070000D01*
X111560000Y-89370000D02*
X103940000Y-89370000D01*
X171040000Y-93370000D02*
X178660000Y-93370000D01*
X178660000Y-94070000D02*
X178660000Y-89370000D01*
X171040000Y-94070000D02*
X178660000Y-94070000D01*
X171040000Y-89370000D02*
X171040000Y-94070000D01*
X178660000Y-89370000D02*
X171040000Y-89370000D01*
X152710000Y-98370000D02*
X155390000Y-98370000D01*
X155390000Y-92130000D02*
X152710000Y-92130000D01*
X150930000Y-92280000D02*
X150930000Y-98220000D01*
X157170000Y-92280000D02*
X157170000Y-98220000D01*
X155464214Y-95250000D02*
G75*
G03*
X155464214Y-95250000I-1414214J0D01*
G01*
X140960000Y-91638748D02*
X140960000Y-92161252D01*
X139540000Y-91638748D02*
X139540000Y-92161252D01*
X111740000Y-93510000D02*
X111740000Y-90650000D01*
X113660000Y-93510000D02*
X111740000Y-93510000D01*
X113660000Y-90650000D02*
X113660000Y-93510000D01*
X168940000Y-93260000D02*
X168940000Y-90400000D01*
X170860000Y-93260000D02*
X168940000Y-93260000D01*
X170860000Y-90400000D02*
X170860000Y-93260000D01*
X140725000Y-98250000D02*
X143675000Y-98250000D01*
X143125000Y-101350000D02*
X140725000Y-101350000D01*
X145410000Y-91578733D02*
X145410000Y-91921267D01*
X144390000Y-91578733D02*
X144390000Y-91921267D01*
X143810000Y-91578733D02*
X143810000Y-91921267D01*
X142790000Y-91578733D02*
X142790000Y-91921267D01*
X140753733Y-87190000D02*
X141096267Y-87190000D01*
X140753733Y-88210000D02*
X141096267Y-88210000D01*
X140753733Y-88740000D02*
X141096267Y-88740000D01*
X140753733Y-89760000D02*
X141096267Y-89760000D01*
D10*
X129091420Y-92269206D02*
X129805706Y-92269206D01*
X129948563Y-92221587D01*
X130043801Y-92126349D01*
X130091420Y-91983492D01*
X130091420Y-91888254D01*
X129091420Y-93221587D02*
X129091420Y-92745397D01*
X129567611Y-92697778D01*
X129519992Y-92745397D01*
X129472373Y-92840635D01*
X129472373Y-93078730D01*
X129519992Y-93173968D01*
X129567611Y-93221587D01*
X129662849Y-93269206D01*
X129900944Y-93269206D01*
X129996182Y-93221587D01*
X130043801Y-93173968D01*
X130091420Y-93078730D01*
X130091420Y-92840635D01*
X130043801Y-92745397D01*
X129996182Y-92697778D01*
X108511904Y-90977381D02*
X108511904Y-91786905D01*
X108464285Y-91882143D01*
X108416666Y-91929762D01*
X108321428Y-91977381D01*
X108130952Y-91977381D01*
X108035714Y-91929762D01*
X107988095Y-91882143D01*
X107940476Y-91786905D01*
X107940476Y-90977381D01*
X106988095Y-90977381D02*
X107464285Y-90977381D01*
X107511904Y-91453572D01*
X107464285Y-91405953D01*
X107369047Y-91358334D01*
X107130952Y-91358334D01*
X107035714Y-91405953D01*
X106988095Y-91453572D01*
X106940476Y-91548810D01*
X106940476Y-91786905D01*
X106988095Y-91882143D01*
X107035714Y-91929762D01*
X107130952Y-91977381D01*
X107369047Y-91977381D01*
X107464285Y-91929762D01*
X107511904Y-91882143D01*
X175611904Y-91027381D02*
X175611904Y-91836905D01*
X175564285Y-91932143D01*
X175516666Y-91979762D01*
X175421428Y-92027381D01*
X175230952Y-92027381D01*
X175135714Y-91979762D01*
X175088095Y-91932143D01*
X175040476Y-91836905D01*
X175040476Y-91027381D01*
X174135714Y-91360715D02*
X174135714Y-92027381D01*
X174373809Y-90979762D02*
X174611904Y-91694048D01*
X173992857Y-91694048D01*
X154414285Y-94050000D02*
X154457142Y-94178571D01*
X154457142Y-94392857D01*
X154414285Y-94478571D01*
X154371428Y-94521428D01*
X154285714Y-94564285D01*
X154200000Y-94564285D01*
X154114285Y-94521428D01*
X154071428Y-94478571D01*
X154028571Y-94392857D01*
X153985714Y-94221428D01*
X153942857Y-94135714D01*
X153900000Y-94092857D01*
X153814285Y-94050000D01*
X153728571Y-94050000D01*
X153642857Y-94092857D01*
X153600000Y-94135714D01*
X153557142Y-94221428D01*
X153557142Y-94435714D01*
X153600000Y-94564285D01*
X153557142Y-94864285D02*
X154457142Y-95078571D01*
X153814285Y-95250000D01*
X154457142Y-95421428D01*
X153557142Y-95635714D01*
X154457142Y-96450000D02*
X154457142Y-95935714D01*
X154457142Y-96192857D02*
X153557142Y-96192857D01*
X153685714Y-96107142D01*
X153771428Y-96021428D01*
X153814285Y-95935714D01*
X141238095Y-92033333D02*
X141238095Y-92414285D01*
X142038095Y-92414285D01*
X141238095Y-91347619D02*
X141238095Y-91804761D01*
X141238095Y-91576190D02*
X142038095Y-91576190D01*
X141923809Y-91652380D01*
X141847619Y-91728571D01*
X141809523Y-91804761D01*
X113364285Y-89707142D02*
X113364285Y-88807142D01*
X113150000Y-88807142D01*
X113021428Y-88850000D01*
X112935714Y-88935714D01*
X112892857Y-89021428D01*
X112850000Y-89192857D01*
X112850000Y-89321428D01*
X112892857Y-89492857D01*
X112935714Y-89578571D01*
X113021428Y-89664285D01*
X113150000Y-89707142D01*
X113364285Y-89707142D01*
X112550000Y-88807142D02*
X111992857Y-88807142D01*
X112292857Y-89150000D01*
X112164285Y-89150000D01*
X112078571Y-89192857D01*
X112035714Y-89235714D01*
X111992857Y-89321428D01*
X111992857Y-89535714D01*
X112035714Y-89621428D01*
X112078571Y-89664285D01*
X112164285Y-89707142D01*
X112421428Y-89707142D01*
X112507142Y-89664285D01*
X112550000Y-89621428D01*
X170564285Y-89457142D02*
X170564285Y-88557142D01*
X170350000Y-88557142D01*
X170221428Y-88600000D01*
X170135714Y-88685714D01*
X170092857Y-88771428D01*
X170050000Y-88942857D01*
X170050000Y-89071428D01*
X170092857Y-89242857D01*
X170135714Y-89328571D01*
X170221428Y-89414285D01*
X170350000Y-89457142D01*
X170564285Y-89457142D01*
X169707142Y-88642857D02*
X169664285Y-88600000D01*
X169578571Y-88557142D01*
X169364285Y-88557142D01*
X169278571Y-88600000D01*
X169235714Y-88642857D01*
X169192857Y-88728571D01*
X169192857Y-88814285D01*
X169235714Y-88942857D01*
X169750000Y-89457142D01*
X169192857Y-89457142D01*
X142643095Y-97872380D02*
X142643095Y-96872380D01*
X142405000Y-96872380D01*
X142262142Y-96920000D01*
X142166904Y-97015238D01*
X142119285Y-97110476D01*
X142071666Y-97300952D01*
X142071666Y-97443809D01*
X142119285Y-97634285D01*
X142166904Y-97729523D01*
X142262142Y-97824761D01*
X142405000Y-97872380D01*
X142643095Y-97872380D01*
X141119285Y-97872380D02*
X141690714Y-97872380D01*
X141405000Y-97872380D02*
X141405000Y-96872380D01*
X141500238Y-97015238D01*
X141595476Y-97110476D01*
X141690714Y-97158095D01*
X145728571Y-92735714D02*
X145685714Y-92778571D01*
X145642857Y-92907142D01*
X145642857Y-92992857D01*
X145685714Y-93121428D01*
X145771428Y-93207142D01*
X145857142Y-93250000D01*
X146028571Y-93292857D01*
X146157142Y-93292857D01*
X146328571Y-93250000D01*
X146414285Y-93207142D01*
X146500000Y-93121428D01*
X146542857Y-92992857D01*
X146542857Y-92907142D01*
X146500000Y-92778571D01*
X146457142Y-92735714D01*
X146542857Y-92435714D02*
X146542857Y-91878571D01*
X146200000Y-92178571D01*
X146200000Y-92050000D01*
X146157142Y-91964285D01*
X146114285Y-91921428D01*
X146028571Y-91878571D01*
X145814285Y-91878571D01*
X145728571Y-91921428D01*
X145685714Y-91964285D01*
X145642857Y-92050000D01*
X145642857Y-92307142D01*
X145685714Y-92392857D01*
X145728571Y-92435714D01*
X145642857Y-91492857D02*
X146542857Y-91492857D01*
X146200000Y-91492857D02*
X146242857Y-91407142D01*
X146242857Y-91235714D01*
X146200000Y-91150000D01*
X146157142Y-91107142D01*
X146071428Y-91064285D01*
X145814285Y-91064285D01*
X145728571Y-91107142D01*
X145685714Y-91150000D01*
X145642857Y-91235714D01*
X145642857Y-91407142D01*
X145685714Y-91492857D01*
X145642857Y-90207142D02*
X145642857Y-90721428D01*
X145642857Y-90464285D02*
X146542857Y-90464285D01*
X146414285Y-90550000D01*
X146328571Y-90635714D01*
X146285714Y-90721428D01*
X144285714Y-94121428D02*
X144328571Y-94164285D01*
X144457142Y-94207142D01*
X144542857Y-94207142D01*
X144671428Y-94164285D01*
X144757142Y-94078571D01*
X144800000Y-93992857D01*
X144842857Y-93821428D01*
X144842857Y-93692857D01*
X144800000Y-93521428D01*
X144757142Y-93435714D01*
X144671428Y-93350000D01*
X144542857Y-93307142D01*
X144457142Y-93307142D01*
X144328571Y-93350000D01*
X144285714Y-93392857D01*
X143985714Y-93307142D02*
X143428571Y-93307142D01*
X143728571Y-93650000D01*
X143600000Y-93650000D01*
X143514285Y-93692857D01*
X143471428Y-93735714D01*
X143428571Y-93821428D01*
X143428571Y-94035714D01*
X143471428Y-94121428D01*
X143514285Y-94164285D01*
X143600000Y-94207142D01*
X143857142Y-94207142D01*
X143942857Y-94164285D01*
X143985714Y-94121428D01*
X142657142Y-94207142D02*
X142657142Y-93735714D01*
X142700000Y-93650000D01*
X142785714Y-93607142D01*
X142957142Y-93607142D01*
X143042857Y-93650000D01*
X142657142Y-94164285D02*
X142742857Y-94207142D01*
X142957142Y-94207142D01*
X143042857Y-94164285D01*
X143085714Y-94078571D01*
X143085714Y-93992857D01*
X143042857Y-93907142D01*
X142957142Y-93864285D01*
X142742857Y-93864285D01*
X142657142Y-93821428D01*
X141757142Y-94207142D02*
X142271428Y-94207142D01*
X142014285Y-94207142D02*
X142014285Y-93307142D01*
X142100000Y-93435714D01*
X142185714Y-93521428D01*
X142271428Y-93564285D01*
X141910714Y-86821428D02*
X141953571Y-86864285D01*
X142082142Y-86907142D01*
X142167857Y-86907142D01*
X142296428Y-86864285D01*
X142382142Y-86778571D01*
X142425000Y-86692857D01*
X142467857Y-86521428D01*
X142467857Y-86392857D01*
X142425000Y-86221428D01*
X142382142Y-86135714D01*
X142296428Y-86050000D01*
X142167857Y-86007142D01*
X142082142Y-86007142D01*
X141953571Y-86050000D01*
X141910714Y-86092857D01*
X141567857Y-86092857D02*
X141525000Y-86050000D01*
X141439285Y-86007142D01*
X141225000Y-86007142D01*
X141139285Y-86050000D01*
X141096428Y-86092857D01*
X141053571Y-86178571D01*
X141053571Y-86264285D01*
X141096428Y-86392857D01*
X141610714Y-86907142D01*
X141053571Y-86907142D01*
X140667857Y-86907142D02*
X140667857Y-86007142D01*
X140667857Y-86350000D02*
X140582142Y-86307142D01*
X140410714Y-86307142D01*
X140325000Y-86350000D01*
X140282142Y-86392857D01*
X140239285Y-86478571D01*
X140239285Y-86735714D01*
X140282142Y-86821428D01*
X140325000Y-86864285D01*
X140410714Y-86907142D01*
X140582142Y-86907142D01*
X140667857Y-86864285D01*
X139382142Y-86907142D02*
X139896428Y-86907142D01*
X139639285Y-86907142D02*
X139639285Y-86007142D01*
X139725000Y-86135714D01*
X139810714Y-86221428D01*
X139896428Y-86264285D01*
X142778571Y-89635714D02*
X142735714Y-89678571D01*
X142692857Y-89807142D01*
X142692857Y-89892857D01*
X142735714Y-90021428D01*
X142821428Y-90107142D01*
X142907142Y-90150000D01*
X143078571Y-90192857D01*
X143207142Y-90192857D01*
X143378571Y-90150000D01*
X143464285Y-90107142D01*
X143550000Y-90021428D01*
X143592857Y-89892857D01*
X143592857Y-89807142D01*
X143550000Y-89678571D01*
X143507142Y-89635714D01*
X143507142Y-89292857D02*
X143550000Y-89250000D01*
X143592857Y-89164285D01*
X143592857Y-88950000D01*
X143550000Y-88864285D01*
X143507142Y-88821428D01*
X143421428Y-88778571D01*
X143335714Y-88778571D01*
X143207142Y-88821428D01*
X142692857Y-89335714D01*
X142692857Y-88778571D01*
X142692857Y-88007142D02*
X143164285Y-88007142D01*
X143250000Y-88050000D01*
X143292857Y-88135714D01*
X143292857Y-88307142D01*
X143250000Y-88392857D01*
X142735714Y-88007142D02*
X142692857Y-88092857D01*
X142692857Y-88307142D01*
X142735714Y-88392857D01*
X142821428Y-88435714D01*
X142907142Y-88435714D01*
X142992857Y-88392857D01*
X143035714Y-88307142D01*
X143035714Y-88092857D01*
X143078571Y-88007142D01*
X142692857Y-87107142D02*
X142692857Y-87621428D01*
X142692857Y-87364285D02*
X143592857Y-87364285D01*
X143464285Y-87450000D01*
X143378571Y-87535714D01*
X143335714Y-87621428D01*
M02*
